<svg width="128" height="125" viewBox="0 0 128 125" fill="none" xmlns="http://www.w3.org/2000/svg">
<path d="M51.4101 98.5731C50.9201 98.3031 48.1501 101.823 47.8401 102.253C46.2401 104.443 45.3801 106.213 42.8601 107.583C42.3601 107.853 41.8301 108.153 41.2801 108.433L41.1989 123.456C41.3689 123.426 41.5389 123.396 41.7089 123.356C41.3788 120.553 41.7089 123.446 41.6989 123.496C41.5589 125.006 41.4001 121.98 41.3201 123.5L89.5 123C89.27 118.19 88.7801 121.423 87.9101 116.683L80.6601 99.2731C80.3901 99.0031 80.1101 98.7431 79.8201 98.4931C89.0501 93.4431 95.3101 83.6431 95.3101 72.3831C95.3101 55.9531 81.9901 42.6331 65.5601 42.6331C49.1301 42.6331 35.8101 55.9531 35.8101 72.3831C35.8101 83.6931 42.1201 93.5331 51.4201 98.5631L51.4101 98.5731Z" fill="#BF8144"/>
<path d="M51.4101 98.5731C50.9201 98.3031 48.1501 101.823 47.8401 102.253C46.2401 104.443 45.3801 106.213 42.8601 107.583C42.3601 107.853 41.8301 108.153 41.2801 108.433L41 123.46C40.9935 120.557 40.9935 120.557 41.51 123.36C41.51 123.41 40.9935 120.557 41.5 123.5C41.36 124.98 41.3936 122.01 41.3136 123.5L89.5 123C89.26 118.22 88.7801 121.393 87.9101 116.693L80.6601 99.2831C80.3901 99.0131 80.1101 98.7531 79.8201 98.5031C89.0501 93.4531 95.3101 83.6531 95.3101 72.3931C95.3101 55.9631 81.9901 42.6431 65.5601 42.6431C49.1301 42.6431 35.8101 55.9631 35.8101 72.3931C35.8101 83.7031 42.1201 93.5431 51.4201 98.5731H51.4101Z" stroke="#724A1D" stroke-width="0.8" stroke-miterlimit="10"/>
<g style="mix-blend-mode:screen" opacity="0.47">
<path d="M65.3501 92.0931C65.1901 92.0931 65.0601 91.9731 65.0501 91.8131C65.0401 91.6431 65.1701 91.5031 65.3301 91.4931C65.3501 91.4931 66.9301 91.3931 68.2201 91.0331C68.3801 90.9931 68.5501 91.0831 68.5901 91.2431C68.6301 91.4031 68.5401 91.5731 68.3801 91.6131C67.0201 91.9831 65.4301 92.0931 65.3701 92.0931C65.3701 92.0931 65.3601 92.0931 65.3501 92.0931Z" fill="#FFF9DF"/>
</g>
<g style="mix-blend-mode:multiply" opacity="0.51">
<path d="M43.54 53.9431C46.5 53.3431 49.58 53.6731 52.5 54.3531C55.6 55.0731 58.59 56.2031 61.5 57.4731C64.34 58.7131 67.13 60.0731 69.81 61.6231C73.04 63.4931 76.14 65.6131 78.97 68.0631C81.76 70.4731 84.34 73.2531 86.14 76.4931C87.68 79.2831 88.67 82.5031 88.09 85.7031C87.58 88.5531 85.88 91.0131 83.85 93.0031C81.62 95.1931 78.97 96.9431 76.29 98.5331C73.99 99.9031 71.61 101.143 69.3 102.493C70.21 102.623 71.13 102.603 72.04 102.483C74.22 102.183 77.48 104.003 79.45 103.043C80.11 102.723 80.76 102.373 81.41 102.013C81.19 101.793 80.94 99.6631 79.56 98.7431C88.79 93.6931 95.05 83.8931 95.05 72.6331C95.05 56.2031 81.73 42.8831 65.3 42.8831C55.71 42.8831 47.19 47.4231 41.75 54.4631C42.33 54.2531 42.92 54.0731 43.54 53.9431Z" fill="#BF8144"/>
</g>
<path d="M58.88 71.5831C58.88 74.2531 56.72 76.413 54.05 76.413C51.38 76.413 49.22 74.2531 49.22 71.5831C49.22 68.9131 51.38 66.7531 54.05 66.7531C56.72 66.7531 58.88 68.9131 58.88 71.5831Z" fill="#BDBFC1"/>
<path d="M54.05 76.6831C51.24 76.6831 48.96 74.403 48.96 71.593C48.96 68.783 51.24 66.5031 54.05 66.5031C56.86 66.5031 59.14 68.783 59.14 71.593C59.14 74.403 56.85 76.6831 54.05 76.6831ZM54.05 67.013C51.53 67.013 49.48 69.0631 49.48 71.5831C49.48 74.1031 51.53 76.1531 54.05 76.1531C56.57 76.1531 58.62 74.1031 58.62 71.5831C58.62 69.0631 56.57 67.013 54.05 67.013Z" fill="#724A1D"/>
<path d="M58.2901 71.4631C58.2901 73.8031 56.3901 75.7031 54.0501 75.7031C51.7101 75.7031 49.8101 73.8031 49.8101 71.4631C49.8101 69.1231 51.7101 67.2231 54.0501 67.2231C56.3901 67.2231 58.2901 69.1231 58.2901 71.4631Z" fill="white"/>
<path d="M80.7501 71.5831C80.7501 74.2531 78.5901 76.413 75.9201 76.413C73.2501 76.413 71.0901 74.2531 71.0901 71.5831C71.0901 68.9131 73.2501 66.7531 75.9201 66.7531C78.5901 66.7531 80.7501 68.9131 80.7501 71.5831Z" fill="#BDBFC1"/>
<path d="M75.9201 76.6831C73.1101 76.6831 70.8301 74.403 70.8301 71.593C70.8301 68.783 73.1201 66.5031 75.9201 66.5031C78.7201 66.5031 81.0101 68.783 81.0101 71.593C81.0101 74.403 78.7301 76.6831 75.9201 76.6831ZM75.9201 67.013C73.4001 67.013 71.3501 69.0631 71.3501 71.5831C71.3501 74.1031 73.4001 76.1531 75.9201 76.1531C78.4401 76.1531 80.4901 74.1031 80.4901 71.5831C80.4901 69.0631 78.4401 67.013 75.9201 67.013Z" fill="#724A1D"/>
<path d="M80.1602 71.4631C80.1602 73.8031 78.2602 75.7031 75.9202 75.7031C73.5802 75.7031 71.6802 73.8031 71.6802 71.4631C71.6802 69.1231 73.5802 67.2231 75.9202 67.2231C78.2602 67.2231 80.1602 69.1231 80.1602 71.4631Z" fill="white"/>
<path d="M80.81 81.3231C79.53 81.0931 77.93 82.0631 76.75 82.5031C70.61 84.7431 64.41 86.2231 57.9 84.4631C55.3 83.7631 52.88 81.8331 50.16 81.6331C48.63 81.5231 47.97 82.8531 48.28 84.2431C48.93 87.1331 51.4 89.8031 53.76 91.4431C58.44 94.7031 64.62 95.0131 70.01 93.6431C75.24 92.3131 80.85 89.2831 81.93 83.5031C82 83.1331 82.05 82.7531 81.96 82.3831C81.83 81.8231 81.36 81.4231 80.81 81.3231Z" fill="white"/>
<path d="M64.02 96.783C59.67 96.783 55.63 95.623 52.41 93.383C49.07 91.053 46.66 87.833 45.97 84.763C45.62 83.213 45.96 81.723 46.88 80.653C47.73 79.673 48.96 79.183 50.33 79.283C52.37 79.433 54.17 80.293 55.76 81.053C56.73 81.523 57.65 81.953 58.52 82.193C64.7 83.853 70.55 82.263 75.94 80.293C76.19 80.203 76.47 80.073 76.76 79.953C78.01 79.403 79.57 78.713 81.24 79.013C82.75 79.293 83.94 80.413 84.27 81.883C84.45 82.683 84.36 83.413 84.25 83.953C83.17 89.723 78.32 93.983 70.59 95.943C68.37 96.503 66.16 96.783 64.02 96.783ZM50.68 84.093C51.33 86.253 53.36 88.283 55.11 89.503C58.78 92.053 64 92.733 69.43 91.353C72.62 90.543 77.97 88.523 79.39 83.933C79.12 84.043 78.86 84.153 78.67 84.243C78.31 84.403 77.93 84.573 77.56 84.703C71.73 86.833 64.76 88.743 57.29 86.733C56.01 86.393 54.85 85.833 53.73 85.293C52.66 84.783 51.64 84.293 50.69 84.083L50.68 84.093Z" fill="#ED1C24"/>
<path d="M51.21 48.6331C50.13 48.1831 49.99 46.7031 50.96 46.0631C54.46 43.7731 62.48 39.5631 76.56 37.4331C91.93 35.1131 108.96 55.6431 115.97 65.2031C116.85 66.3931 115.59 67.9831 114.23 67.4131C110.55 65.8831 105.83 64.6131 103.6 66.9131C100.85 69.7531 97.19 74.7931 95.23 77.5731C94.61 78.4631 93.27 78.3831 92.75 77.4231C90.33 72.9931 84.12 62.9131 75.98 59.2531C67.86 55.5931 56.18 50.7031 51.21 48.6331Z" fill="#6DBE45"/>
<path d="M94.04 78.4431C94.04 78.4431 93.97 78.4431 93.94 78.4431C93.34 78.4131 92.81 78.0731 92.52 77.5431C90.22 73.3331 83.99 63.1431 75.88 59.4831C67.74 55.8131 55.85 50.8431 51.11 48.8731C50.52 48.6231 50.11 48.0731 50.05 47.4431C49.99 46.8031 50.28 46.2031 50.82 45.8531C54.36 43.5331 62.42 39.3131 76.52 37.1831C92.14 34.8231 109.46 55.8931 116.18 65.0531C116.65 65.6931 116.64 66.5131 116.15 67.1331C115.66 67.7631 114.86 67.9631 114.13 67.6631C110.59 66.1831 105.93 64.8931 103.79 67.1031C101.04 69.9331 97.38 74.9731 95.44 77.7331C95.11 78.1931 94.6 78.4631 94.04 78.4631V78.4431ZM79.01 37.5131C78.2 37.5131 77.4 37.5731 76.61 37.6931C62.6 39.8131 54.62 43.9831 51.12 46.2831C50.74 46.5331 50.55 46.9431 50.59 47.3931C50.63 47.8431 50.91 48.2131 51.33 48.3931C56.07 50.3631 67.96 55.3431 76.11 59.0131C84.37 62.7331 90.67 73.0431 93 77.3031C93.2 77.6731 93.57 77.9031 93.99 77.9331C94.4 77.9531 94.79 77.7631 95.03 77.4231C96.98 74.6531 100.66 69.5831 103.43 66.7331C105.78 64.3131 110.66 65.6431 114.35 67.1831C114.97 67.4431 115.5 67.1531 115.76 66.8131C116.02 66.4831 116.18 65.9031 115.78 65.3631C109.46 56.7431 93.7 37.5231 79.02 37.5231L79.01 37.5131Z" fill="#446D31"/>
<g style="mix-blend-mode:color-dodge" opacity="0.57">
<path d="M65.3599 41.6831C69.5899 40.9631 73.8999 40.6231 78.1899 40.7731C80.3399 40.8431 82.4899 41.0431 84.6099 41.4431C86.7799 41.8631 88.9099 42.4831 90.9699 43.2631C92.9499 44.0131 94.9199 44.8831 96.7399 45.9731C96.9799 46.1131 97.2099 46.2731 97.4499 46.4231C90.8299 41.1431 83.4399 37.4031 76.3999 38.4731C68.5199 39.6631 62.5399 41.5131 58.1899 43.3031C60.5499 42.6331 62.9499 42.0931 65.3699 41.6831H65.3599Z" fill="white"/>
</g>
<g style="mix-blend-mode:multiply">
<path d="M115.68 64.7931C114.13 63.4431 112.28 62.4031 110.45 61.7031C107.83 60.7031 105.09 60.1531 102.28 60.1731C100.89 60.1831 99.5499 60.3931 98.18 60.6631C96.8699 60.9231 95.5499 61.2031 94.2099 61.2631C93 61.3131 91.8499 61.1131 90.7399 60.6231C89.6399 60.1431 88.65 59.4531 87.69 58.7331C85.6 57.1731 83.4599 55.7231 81.2099 54.4031C76.4499 51.6031 71.3599 49.5231 66.0199 48.1431C61.3299 46.9331 56.54 46.2131 51.75 45.5731C51.47 45.7431 51.21 45.9031 50.98 46.0631C50 46.7031 50.15 48.1831 51.23 48.6331C56.2 50.7031 67.88 55.5931 76 59.2531C84.1399 62.9231 90.3499 73.0031 92.7699 77.4231C93.2899 78.3731 94.6199 78.4531 95.25 77.5731C97.2099 74.7931 100.87 69.7431 103.62 66.9131C105.85 64.6131 110.57 65.8831 114.25 67.4131C115.62 67.9831 116.87 66.4031 115.99 65.2031C115.89 65.0731 115.79 64.9331 115.69 64.7931H115.68Z" fill="#6DBE45"/>
</g>
<g style="mix-blend-mode:multiply" opacity="0.2">
<path d="M86.4901 76.3931C86.0001 76.4231 85.4701 76.7131 85.2501 77.1731C84.9201 77.8831 85.2301 78.8531 85.9601 79.1931C86.3201 79.3731 86.7001 79.4131 87.0901 79.2831C87.2201 79.2431 87.3401 79.1631 87.4501 79.0631C87.4901 79.0331 87.5301 79.0131 87.5701 78.9731C87.7701 78.8131 87.9101 78.5631 87.9701 78.3131C88.0701 77.9031 88.0401 77.4931 87.8601 77.1131C87.6101 76.5931 87.0401 76.3531 86.4901 76.3931Z" fill="#BF8144"/>
</g>
<g style="mix-blend-mode:multiply" opacity="0.2">
<path d="M66.1401 73.2531C66.0801 73.2131 66.0001 73.1931 65.9301 73.2031C65.8701 73.2031 65.8201 73.2331 65.7801 73.2731C65.7301 73.3031 65.6901 73.3431 65.6701 73.4031C65.6301 73.4831 65.6001 73.5631 65.6001 73.6631C65.6001 73.6931 65.6001 73.7331 65.6001 73.7631C65.6001 73.7831 65.6001 73.7931 65.6001 73.8131C65.6001 73.8131 65.6001 73.8231 65.6001 73.8331C65.6001 73.8431 65.6001 73.8631 65.6001 73.8731C65.6001 73.9231 65.6001 73.9731 65.6001 74.0231C65.6101 74.0731 65.6201 74.1231 65.6301 74.1731C65.6501 74.2231 65.6701 74.2631 65.6901 74.3131L65.7701 74.4231C65.8101 74.4731 65.8601 74.5131 65.9201 74.5231C65.9501 74.5431 65.9901 74.5531 66.0301 74.5531C66.0701 74.5531 66.1101 74.5531 66.1401 74.5431C66.1701 74.5431 66.1901 74.5231 66.2101 74.5031C66.2601 74.5031 66.3101 74.5031 66.3601 74.4731C66.4101 74.4531 66.4401 74.4131 66.4701 74.3731C66.5101 74.3331 66.5301 74.2831 66.5401 74.2231C66.5601 74.1431 66.5701 74.0531 66.5601 73.9731C66.5601 73.9331 66.5601 73.8831 66.5501 73.8431C66.5501 73.7331 66.5101 73.6231 66.4501 73.5331C66.4001 73.4531 66.3301 73.3731 66.2501 73.3231C66.2101 73.3031 66.1701 73.2831 66.1301 73.2631L66.1401 73.2531Z" fill="#BF8144"/>
</g>
<g style="mix-blend-mode:multiply" opacity="0.2">
<path d="M63.94 68.1331C63.34 68.1331 62.9299 68.7031 62.8599 69.2531C62.8199 69.5631 62.9199 69.9031 63.1399 70.1331C63.2799 70.2831 63.4699 70.3831 63.6699 70.4231C63.7999 70.4531 63.9299 70.4631 64.0599 70.4531C64.2099 70.5131 64.3699 70.5431 64.5299 70.5031C65.1499 70.3531 65.3 69.6031 65.16 69.0631C65.08 68.7731 64.89 68.5331 64.66 68.3531C64.45 68.2031 64.2099 68.1331 63.9499 68.1331H63.94Z" fill="#BF8144"/>
</g>
<g style="mix-blend-mode:multiply" opacity="0.2">
<path d="M68.3199 64.9831C68.3199 64.9831 68.2499 64.9531 68.2199 64.9431H68.1099C68.1099 64.9431 68.0399 64.9631 67.9999 64.9731C67.9499 65.0031 67.8999 65.0431 67.8699 65.0931C67.8399 65.1231 67.8199 65.1631 67.8099 65.2031C67.7899 65.2431 67.7799 65.2831 67.7699 65.3331C67.7599 65.3831 67.7499 65.4331 67.7599 65.4731C67.7599 65.5231 67.7599 65.5631 67.7699 65.6131C67.7699 65.6331 67.7499 65.6531 67.7499 65.6831C67.7499 65.7031 67.7399 65.7231 67.7299 65.7431C67.7099 65.8431 67.6899 65.9331 67.6899 66.0331C67.6899 66.1431 67.6899 66.2531 67.7299 66.3631C67.7599 66.4631 67.8099 66.5431 67.8799 66.6231C67.9599 66.7131 68.0799 66.7731 68.1999 66.7631C68.1999 66.7631 68.1999 66.7631 68.2099 66.7631C68.2599 66.7731 68.3199 66.7731 68.3699 66.7831C68.4399 66.7831 68.5099 66.7631 68.5799 66.7431C68.5899 66.7431 68.5999 66.7431 68.6099 66.7331C68.6099 66.7331 68.6199 66.7331 68.6299 66.7331C68.6299 66.7331 68.6199 66.7331 68.6099 66.7331C68.6199 66.7331 68.6399 66.7331 68.6499 66.7131C68.6799 66.6931 68.7099 66.6631 68.7499 66.6431C68.7599 66.6331 68.7799 66.6231 68.7899 66.6031C68.8599 66.5131 68.9199 66.4331 68.9399 66.3231C68.9499 66.2731 68.9599 66.2231 68.9699 66.1731C68.9699 66.1631 68.9699 66.1531 68.9699 66.1431C68.9699 66.0831 68.9699 66.0131 68.9699 65.9431C68.9599 65.8731 68.9499 65.8031 68.9199 65.7431C68.8899 65.6831 68.8699 65.6131 68.8299 65.5531C68.7899 65.4831 68.7399 65.4231 68.6899 65.3631C68.6599 65.3331 68.6299 65.3031 68.5999 65.2731C68.5199 65.1631 68.4199 65.0631 68.3099 64.9831H68.3199Z" fill="#BF8144"/>
</g>
<g style="mix-blend-mode:multiply" opacity="0.2">
<path d="M60.37 59.6931C59.73 59.9331 59.58 60.6931 59.7 61.3031C59.71 61.3531 59.72 61.4031 59.73 61.4431C59.73 61.4531 59.73 61.4731 59.74 61.4831C59.85 61.8431 60.1 62.1331 60.45 62.2731C60.49 62.2831 60.52 62.2931 60.56 62.3031C60.67 62.3531 60.79 62.4031 60.91 62.4231C61.42 62.5331 61.94 62.3731 62.21 61.9031C62.42 61.5431 62.46 61.1131 62.36 60.7131C62.28 60.3831 62.07 60.1131 61.81 59.9131C61.41 59.5931 60.83 59.5031 60.35 59.6831L60.37 59.6931Z" fill="#BF8144"/>
</g>
<g style="mix-blend-mode:multiply" opacity="0.2">
<path d="M57.79 63.9932C57.79 63.9932 57.7 63.9932 57.66 63.9932C57.57 63.9932 57.51 64.0332 57.45 64.0832C57.43 64.0932 57.41 64.1132 57.39 64.1232C57.35 64.1432 57.31 64.1732 57.27 64.2132C57.25 64.2232 57.23 64.2432 57.21 64.2532C57.13 64.3032 57.07 64.3632 57.02 64.4532C57.02 64.4532 57.02 64.4732 57.01 64.4832C57.01 64.5032 56.99 64.5132 56.98 64.5332C56.94 64.5932 56.92 64.6632 56.92 64.7232C56.9 64.7932 56.9 64.8732 56.92 64.9432L56.95 65.0932C56.97 65.1632 57 65.2232 57.05 65.2732C57.07 65.3132 57.1 65.3432 57.14 65.3632C57.18 65.4032 57.23 65.4332 57.29 65.4432C57.31 65.4432 57.33 65.4432 57.34 65.4532C57.44 65.4732 57.53 65.4732 57.62 65.4232C57.65 65.4032 57.69 65.3832 57.72 65.3632C57.77 65.3332 57.81 65.2932 57.86 65.2532C57.86 65.2532 57.87 65.2432 57.88 65.2332C57.91 65.1932 57.94 65.1432 57.97 65.1032C57.99 65.0732 58.01 65.0332 58.03 65.0032C58.03 64.9832 58.05 64.9732 58.06 64.9532C58.08 64.9032 58.11 64.8632 58.12 64.8132C58.15 64.6932 58.15 64.6232 58.14 64.5032C58.14 64.3932 58.11 64.2832 58.05 64.1932C58 64.1032 57.9 64.0132 57.8 63.9932H57.79Z" fill="#BF8144"/>
</g>
<path d="M94.0901 84.2731C92.6501 84.2731 91.2801 83.4231 90.7001 82.0131C80.5001 57.4631 47.6601 51.9131 47.3301 51.8531C45.3301 51.5331 43.9701 49.6531 44.2901 47.6431C44.6101 45.6431 46.4901 44.2731 48.4901 44.5931C48.8701 44.6531 57.8801 46.1231 68.3801 51.0331C82.5101 57.6331 92.5701 67.3731 97.4801 79.1931C98.2601 81.0631 97.3701 83.2131 95.5001 83.9931C95.0401 84.1831 94.5601 84.2731 94.0901 84.2731Z" fill="#FE0000"/>
<path d="M94.0901 84.5331C92.4901 84.5331 91.0701 83.5831 90.4601 82.1031C80.3201 57.6931 47.6201 52.1531 47.2901 52.1031C45.1501 51.7631 43.6901 49.7331 44.0301 47.5931C44.2001 46.5531 44.7601 45.6431 45.6101 45.0231C46.4601 44.4131 47.5001 44.1631 48.5301 44.3331C48.9101 44.3931 57.9401 45.8631 68.4901 50.7931C82.6801 57.4231 92.7901 67.2031 97.7301 79.0831C98.5601 81.0831 97.6101 83.3931 95.6101 84.2231C95.1301 84.4231 94.6201 84.5231 94.1001 84.5231L94.0901 84.5331ZM47.8901 44.8131C47.1801 44.8131 46.4901 45.0331 45.9101 45.4531C45.1701 45.9831 44.6801 46.7831 44.5401 47.6831C44.2401 49.5331 45.5101 51.2931 47.3701 51.5931C47.7001 51.6431 80.6901 57.2331 90.9401 81.9131C91.4701 83.1931 92.7101 84.0131 94.0901 84.0131C94.5401 84.0131 94.9801 83.9231 95.4001 83.7531C97.1401 83.0331 97.9601 81.0331 97.2401 79.2931C92.3501 67.5331 82.3301 57.8431 68.2701 51.2731C57.7901 46.3731 48.8201 44.9231 48.4501 44.8631C48.2701 44.8331 48.0801 44.8231 47.9001 44.8231L47.8901 44.8131Z" fill="#B40000"/>
<path d="M119.62 66.4931C119.62 68.5131 117.98 70.1531 115.96 70.1531C113.94 70.1531 112.3 68.5131 112.3 66.4931C112.3 64.4731 113.94 62.8331 115.96 62.8331C117.98 62.8331 119.62 64.4731 119.62 66.4931Z" fill="#FE0000"/>
<path d="M115.96 70.4131C113.8 70.4131 112.04 68.6531 112.04 66.4931C112.04 64.3331 113.8 62.5731 115.96 62.5731C118.12 62.5731 119.88 64.3331 119.88 66.4931C119.88 68.6531 118.12 70.4131 115.96 70.4131ZM115.96 63.1031C114.09 63.1031 112.57 64.6231 112.57 66.4931C112.57 68.3631 114.09 69.8831 115.96 69.8831C117.83 69.8831 119.35 68.3631 119.35 66.4931C119.35 64.6231 117.83 63.1031 115.96 63.1031Z" fill="#B40000"/>
<path d="M116.44 65.3931C116.44 66.0731 115.89 66.6231 115.21 66.6231C114.53 66.6231 113.98 66.0731 113.98 65.3931C113.98 64.7131 114.53 64.1631 115.21 64.1631C115.89 64.1631 116.44 64.7131 116.44 65.3931Z" fill="white"/>
<rect y="72.4231" width="128" height="52" rx="12" fill="#1B71F6"/>
<path d="M26.4957 104.423H24.6321L28.8196 92.7867H30.848L35.0355 104.423H33.1719L29.8821 94.9004H29.7912L26.4957 104.423ZM26.8082 99.8663H32.8537V101.344H26.8082V99.8663ZM42.9517 95.6958L39.7869 104.423H37.9688L34.7983 95.6958H36.6222L38.8324 102.412H38.9233L41.1278 95.6958H42.9517ZM46.8381 104.616C46.285 104.616 45.785 104.514 45.3381 104.309C44.8911 104.101 44.5369 103.8 44.2756 103.406C44.018 103.012 43.8892 102.529 43.8892 101.957C43.8892 101.465 43.9839 101.059 44.1733 100.741C44.3627 100.423 44.6184 100.171 44.9403 99.9856C45.2623 99.8 45.6222 99.6598 46.0199 99.5651C46.4176 99.4704 46.8229 99.3985 47.2358 99.3492C47.7585 99.2886 48.1828 99.2394 48.5085 99.2015C48.8343 99.1598 49.071 99.0936 49.2188 99.0026C49.3665 98.9117 49.4403 98.764 49.4403 98.5595V98.5197C49.4403 98.0235 49.3002 97.639 49.0199 97.3663C48.7434 97.0935 48.3305 96.9572 47.7812 96.9572C47.2093 96.9572 46.7585 97.0841 46.429 97.3379C46.1032 97.5879 45.8778 97.8663 45.7528 98.1731L44.1562 97.8095C44.3456 97.2792 44.6222 96.8511 44.9858 96.5254C45.3532 96.1958 45.7756 95.9572 46.2528 95.8095C46.7301 95.6579 47.232 95.5822 47.7585 95.5822C48.107 95.5822 48.4763 95.6239 48.8665 95.7072C49.2604 95.7867 49.6278 95.9345 49.9688 96.1504C50.3134 96.3663 50.5956 96.675 50.8153 97.0765C51.035 97.4742 51.1449 97.9913 51.1449 98.6276V104.423H49.4858V103.23H49.4176C49.3078 103.45 49.143 103.666 48.9233 103.878C48.7036 104.09 48.4214 104.266 48.0767 104.406C47.732 104.546 47.3191 104.616 46.8381 104.616ZM47.2074 103.253C47.6771 103.253 48.0786 103.16 48.4119 102.974C48.7491 102.789 49.0047 102.546 49.179 102.247C49.357 101.944 49.446 101.62 49.446 101.275V100.15C49.3854 100.211 49.268 100.268 49.0938 100.321C48.9233 100.37 48.7282 100.414 48.5085 100.452C48.2888 100.486 48.0748 100.518 47.8665 100.548C47.6581 100.575 47.4839 100.597 47.3438 100.616C47.0142 100.658 46.7131 100.728 46.4403 100.827C46.1714 100.925 45.9555 101.067 45.7926 101.253C45.6335 101.434 45.554 101.677 45.554 101.98C45.554 102.4 45.7093 102.719 46.0199 102.934C46.3305 103.147 46.7263 103.253 47.2074 103.253ZM53.4077 104.423V95.6958H55.1065V104.423H53.4077ZM54.2656 94.3492C53.9702 94.3492 53.7164 94.2507 53.5043 94.0538C53.2959 93.853 53.1918 93.6144 53.1918 93.3379C53.1918 93.0576 53.2959 92.8189 53.5043 92.622C53.7164 92.4212 53.9702 92.3208 54.2656 92.3208C54.5611 92.3208 54.813 92.4212 55.0213 92.622C55.2334 92.8189 55.3395 93.0576 55.3395 93.3379C55.3395 93.6144 55.2334 93.853 55.0213 94.0538C54.813 94.2507 54.5611 94.3492 54.2656 94.3492ZM59.0909 92.7867V104.423H57.392V92.7867H59.0909ZM75.8551 98.6049C75.8551 99.8473 75.6278 100.916 75.1733 101.809C74.7188 102.7 74.0956 103.385 73.304 103.866C72.5161 104.344 71.6203 104.582 70.6165 104.582C69.6089 104.582 68.7093 104.344 67.9176 103.866C67.1297 103.385 66.5085 102.698 66.054 101.804C65.5994 100.91 65.3722 99.8436 65.3722 98.6049C65.3722 97.3625 65.5994 96.2962 66.054 95.406C66.5085 94.5121 67.1297 93.8265 67.9176 93.3492C68.7093 92.8682 69.6089 92.6276 70.6165 92.6276C71.6203 92.6276 72.5161 92.8682 73.304 93.3492C74.0956 93.8265 74.7188 94.5121 75.1733 95.406C75.6278 96.2962 75.8551 97.3625 75.8551 98.6049ZM74.1165 98.6049C74.1165 97.6579 73.9631 96.8606 73.6562 96.2129C73.3532 95.5614 72.9366 95.0689 72.4062 94.7356C71.8797 94.3985 71.2831 94.2299 70.6165 94.2299C69.946 94.2299 69.3475 94.3985 68.821 94.7356C68.2945 95.0689 67.8778 95.5614 67.571 96.2129C67.268 96.8606 67.1165 97.6579 67.1165 98.6049C67.1165 99.5519 67.268 100.351 67.571 101.003C67.8778 101.65 68.2945 102.143 68.821 102.48C69.3475 102.813 69.946 102.98 70.6165 102.98C71.2831 102.98 71.8797 102.813 72.4062 102.48C72.9366 102.143 73.3532 101.65 73.6562 101.003C73.9631 100.351 74.1165 99.5519 74.1165 98.6049ZM82.0611 95.6958V97.0595H77.1293V95.6958H82.0611ZM78.4815 104.423V94.6845C78.4815 94.139 78.6009 93.6864 78.8395 93.3265C79.0781 92.9629 79.3944 92.692 79.7884 92.514C80.1823 92.3322 80.6103 92.2413 81.0724 92.2413C81.4134 92.2413 81.705 92.2697 81.9474 92.3265C82.1899 92.3795 82.3698 92.4288 82.4872 92.4742L82.0895 93.8492C82.0099 93.8265 81.9077 93.8 81.7827 93.7697C81.6577 93.7356 81.5062 93.7185 81.3281 93.7185C80.9152 93.7185 80.6198 93.8208 80.4418 94.0254C80.2675 94.2299 80.1804 94.5254 80.1804 94.9117V104.423H78.4815ZM87.9673 95.6958V97.0595H83.0355V95.6958H87.9673ZM84.3878 104.423V94.6845C84.3878 94.139 84.5071 93.6864 84.7457 93.3265C84.9844 92.9629 85.3007 92.692 85.6946 92.514C86.0885 92.3322 86.5166 92.2413 86.9787 92.2413C87.3196 92.2413 87.6113 92.2697 87.8537 92.3265C88.0961 92.3795 88.276 92.4288 88.3935 92.4742L87.9957 93.8492C87.9162 93.8265 87.8139 93.8 87.6889 93.7697C87.5639 93.7356 87.4124 93.7185 87.2344 93.7185C86.8215 93.7185 86.526 93.8208 86.348 94.0254C86.1738 94.2299 86.0866 94.5254 86.0866 94.9117V104.423H84.3878ZM93.1378 104.599C92.2779 104.599 91.5374 104.416 90.9162 104.048C90.2988 103.677 89.8215 103.156 89.4844 102.486C89.151 101.811 88.9844 101.022 88.9844 100.116C88.9844 99.2223 89.151 98.4345 89.4844 97.7526C89.8215 97.0708 90.2912 96.5386 90.8935 96.156C91.4995 95.7735 92.2079 95.5822 93.0185 95.5822C93.5109 95.5822 93.9882 95.6636 94.4503 95.8265C94.9124 95.9894 95.3272 96.2451 95.6946 96.5936C96.062 96.942 96.3518 97.3947 96.5639 97.9515C96.776 98.5045 96.8821 99.1769 96.8821 99.9686V100.571H89.9446V99.2981H95.2173C95.2173 98.8511 95.1264 98.4553 94.9446 98.1106C94.7628 97.7621 94.5071 97.4875 94.1776 97.2867C93.8518 97.086 93.4692 96.9856 93.0298 96.9856C92.5526 96.9856 92.1359 97.103 91.7798 97.3379C91.4276 97.5689 91.1548 97.872 90.9616 98.247C90.7723 98.6182 90.6776 99.0216 90.6776 99.4572V100.452C90.6776 101.035 90.7798 101.531 90.9844 101.94C91.1927 102.349 91.4825 102.662 91.8537 102.878C92.2249 103.09 92.6586 103.196 93.1548 103.196C93.4768 103.196 93.7704 103.15 94.0355 103.059C94.3007 102.965 94.5298 102.825 94.723 102.639C94.9162 102.453 95.0639 102.224 95.1662 101.952L96.7741 102.241C96.6454 102.715 96.4143 103.13 96.081 103.486C95.7514 103.838 95.3366 104.112 94.8366 104.309C94.3404 104.503 93.7741 104.599 93.1378 104.599ZM98.767 104.423V95.6958H100.409V97.0822H100.5C100.659 96.6125 100.939 96.2432 101.341 95.9742C101.746 95.7015 102.205 95.5651 102.716 95.5651C102.822 95.5651 102.947 95.5689 103.091 95.5765C103.239 95.5841 103.354 95.5935 103.438 95.6049V97.2299C103.369 97.211 103.248 97.1901 103.074 97.1674C102.9 97.1409 102.725 97.1276 102.551 97.1276C102.15 97.1276 101.792 97.2129 101.477 97.3833C101.167 97.55 100.92 97.7829 100.739 98.0822C100.557 98.3776 100.466 98.7148 100.466 99.0936V104.423H98.767Z" fill="white"/>
<path d="M33.92 71.5231C32.95 70.0631 31.22 69.2931 29.47 69.4031L21 69.9331C19.16 70.2031 18.06 71.8631 18.3 73.0031C18.7 74.8831 19.41 77.4831 19.96 78.9431C19.96 78.9431 20.75 81.0831 22.21 83.1631C23.67 85.2531 25.8 87.2931 28.32 87.2531C30.85 87.2131 33.05 86.2431 34.46 84.6131C35.87 82.9831 36.48 80.6631 35.84 77.7731C35.63 76.8131 35.05 74.8731 34.33 72.3431C34.27 72.1131 34.12 71.8331 33.92 71.5331V71.5231Z" fill="#BF8144"/>
<path d="M33.92 71.5231C32.95 70.0631 31.22 69.2931 29.47 69.4031L21 69.9331C19.16 70.2031 18.06 71.8631 18.3 73.0031C18.7 74.8831 19.41 77.4831 19.96 78.9431C19.96 78.9431 20.75 81.0831 22.21 83.1631C23.67 85.2531 25.8 87.2931 28.32 87.2531C30.85 87.2131 33.05 86.2431 34.46 84.6131C35.87 82.9831 36.48 80.6631 35.84 77.7731C35.63 76.8131 35.05 74.8731 34.33 72.3431C34.27 72.1131 34.12 71.8331 33.92 71.5331V71.5231Z" stroke="#724A1D" stroke-width="0.8" stroke-miterlimit="10"/>
<g style="mix-blend-mode:multiply">
<path d="M25.1799 77.2231C24.4999 77.4831 24.3999 78.3431 24.2999 79.2631C24.2499 79.7731 24.1899 80.3431 24.0299 80.7931C24.0299 80.8131 24.0199 80.8231 24.0099 80.8431C23.6599 80.7831 22.7099 79.8931 22.0099 78.9531C21.7799 78.6331 21.3599 78.5631 21.0899 78.8031C20.8099 79.0331 20.7799 79.4831 21.0099 79.8031C21.5999 80.6031 23.1199 82.4331 24.2999 82.2631C24.5599 82.2231 25.0299 82.0631 25.2599 81.3631C25.4599 80.7631 25.5199 80.1031 25.5899 79.5231C25.6199 79.2531 25.6599 78.8731 25.7199 78.6431C25.7899 78.6931 25.8999 78.7731 26.0399 78.8931L26.3599 79.1731C27.4199 80.1031 28.1299 80.7131 28.8799 80.4731C29.5299 80.2731 29.8399 79.5431 30.1099 78.5131C30.1599 78.3231 30.1899 78.1031 30.2299 77.8731C30.2699 77.5831 30.3899 76.8131 30.5699 76.7531C30.7299 76.7031 31.1799 77.1231 31.4499 77.3731C31.7899 77.6931 32.1499 78.0331 32.5499 78.1731C33.0399 78.3531 33.3899 78.2131 33.5899 78.0731C34.1999 77.6431 34.2399 76.7031 34.2799 75.8731C34.2899 75.6431 34.2999 75.4131 34.3299 75.2931C34.3999 74.9331 34.1599 74.5731 33.8099 74.4931C33.4599 74.4131 33.1199 74.6431 33.0499 75.0031C33.0099 75.2131 32.9999 75.4831 32.9799 75.7631C32.9599 76.0531 32.9399 76.6031 32.8599 76.8631C32.7099 76.7731 32.4899 76.5631 32.2999 76.3831C31.7599 75.8731 31.0199 75.1631 30.1399 75.4431C29.2299 75.7331 29.0499 76.8531 28.9399 77.5931C28.9099 77.7831 28.8799 77.9631 28.8499 78.0831C28.6499 78.8231 28.5099 79.0631 28.4499 79.1331C28.2199 79.0531 27.6499 78.5631 27.1499 78.1231L26.8299 77.8431C26.4099 77.4731 25.7799 77.0031 25.1799 77.2331V77.2231Z" fill="#BF8144"/>
</g>
<path d="M25.3899 77.803C24.7099 78.063 24.6099 78.923 24.5099 79.853C24.4599 80.363 24.3999 80.943 24.2499 81.393C24.2499 81.413 24.2399 81.433 24.2299 81.443C23.8799 81.383 22.9199 80.503 22.2199 79.553C21.9899 79.233 21.5699 79.173 21.2999 79.403C21.0199 79.633 20.9899 80.083 21.2299 80.403C21.8199 81.203 23.3499 83.033 24.5299 82.863C24.7899 82.823 25.2599 82.653 25.4899 81.953C25.6799 81.353 25.7499 80.693 25.8099 80.113C25.8399 79.843 25.8799 79.463 25.9299 79.233C25.9999 79.283 26.1099 79.363 26.2499 79.483L26.5699 79.763C27.6399 80.693 28.3499 81.293 29.0999 81.063C29.7499 80.863 30.0499 80.123 30.3199 79.093C30.3699 78.903 30.3999 78.683 30.4399 78.453C30.4799 78.163 30.5999 77.393 30.7799 77.323C30.9399 77.263 31.3899 77.693 31.6599 77.943C31.9999 78.263 32.3599 78.593 32.7599 78.743C33.2499 78.913 33.5999 78.783 33.7999 78.633C34.4099 78.203 34.4399 77.263 34.4799 76.433C34.4899 76.203 34.4999 75.973 34.5199 75.853C34.5799 75.493 34.3499 75.133 33.9999 75.063C33.6499 74.983 33.3099 75.213 33.2399 75.573C33.1999 75.783 33.1899 76.053 33.1799 76.333C33.1699 76.623 33.1399 77.173 33.0599 77.433C32.9099 77.343 32.6799 77.133 32.4999 76.963C31.9599 76.453 31.2199 75.743 30.3399 76.033C29.4399 76.323 29.2499 77.443 29.1399 78.193C29.1099 78.383 29.0799 78.563 29.0499 78.683C28.8499 79.423 28.7099 79.663 28.6499 79.733C28.4199 79.653 27.8499 79.163 27.3399 78.723L27.0199 78.443C26.5999 78.073 25.9699 77.613 25.3599 77.843L25.3899 77.803Z" fill="white"/>
<path d="M95.5301 71.5231C96.5001 70.0631 98.2301 69.2931 99.9801 69.4031L108.45 69.9331C110.29 70.2031 111.39 71.8631 111.15 73.0031C110.75 74.8831 110.04 77.4831 109.49 78.9431C109.49 78.9431 108.7 81.0831 107.24 83.1631C105.78 85.2531 103.65 87.2931 101.13 87.2531C98.6001 87.2131 96.4001 86.2431 94.9901 84.6131C93.5801 82.9831 92.9701 80.6631 93.6101 77.7731C93.8201 76.8131 94.4001 74.8731 95.1201 72.3431C95.1801 72.1131 95.3301 71.8331 95.5301 71.5331V71.5231Z" fill="#BF8144"/>
<path d="M95.5301 71.5231C96.5001 70.0631 98.2301 69.2931 99.9801 69.4031L108.45 69.9331C110.29 70.2031 111.39 71.8631 111.15 73.0031C110.75 74.8831 110.04 77.4831 109.49 78.9431C109.49 78.9431 108.7 81.0831 107.24 83.1631C105.78 85.2531 103.65 87.2931 101.13 87.2531C98.6001 87.2131 96.4001 86.2431 94.9901 84.6131C93.5801 82.9831 92.9701 80.6631 93.6101 77.7731C93.8201 76.8131 94.4001 74.8731 95.1201 72.3431C95.1801 72.1131 95.3301 71.8331 95.5301 71.5331V71.5231Z" stroke="#724A1D" stroke-width="0.8" stroke-miterlimit="10"/>
<g style="mix-blend-mode:multiply">
<path d="M104.27 77.2231C104.95 77.4831 105.05 78.3431 105.15 79.2631C105.2 79.7731 105.26 80.3431 105.42 80.7931C105.42 80.8131 105.43 80.8231 105.44 80.8431C105.79 80.7831 106.74 79.8931 107.44 78.9531C107.67 78.6331 108.09 78.5631 108.36 78.8031C108.64 79.0331 108.67 79.4831 108.44 79.8031C107.85 80.6031 106.33 82.4331 105.15 82.2631C104.89 82.2231 104.42 82.0631 104.19 81.3631C103.99 80.7631 103.93 80.1031 103.86 79.5231C103.83 79.2531 103.79 78.8731 103.73 78.6431C103.66 78.6931 103.55 78.7731 103.41 78.8931L103.09 79.1731C102.03 80.1031 101.32 80.7131 100.57 80.4731C99.9201 80.2731 99.6101 79.5431 99.3401 78.5131C99.2901 78.3231 99.2601 78.1031 99.2201 77.8731C99.1801 77.5831 99.0601 76.8131 98.8801 76.7531C98.7201 76.7031 98.2701 77.1231 98.0001 77.3731C97.6601 77.6931 97.3001 78.0331 96.9001 78.1731C96.4101 78.3531 96.0601 78.2131 95.8601 78.0731C95.2501 77.6431 95.2101 76.7031 95.1701 75.8731C95.1601 75.6431 95.1501 75.4131 95.1201 75.2931C95.0501 74.9331 95.2901 74.5731 95.6401 74.4931C95.9901 74.4131 96.3301 74.6431 96.4001 75.0031C96.4401 75.2131 96.4501 75.4831 96.4701 75.7631C96.4901 76.0531 96.5101 76.6031 96.5901 76.8631C96.7401 76.7731 96.9601 76.5631 97.1501 76.3831C97.6901 75.8731 98.4301 75.1631 99.3101 75.4431C100.22 75.7331 100.4 76.8531 100.51 77.5931C100.54 77.7831 100.57 77.9631 100.6 78.0831C100.8 78.8231 100.94 79.0631 101 79.1331C101.23 79.0531 101.8 78.5631 102.3 78.1231L102.62 77.8431C103.04 77.4731 103.67 77.0031 104.27 77.2331V77.2231Z" fill="#BF8144"/>
</g>
<path d="M104.05 77.803C104.73 78.063 104.83 78.923 104.93 79.853C104.98 80.363 105.04 80.943 105.19 81.393C105.19 81.413 105.2 81.433 105.21 81.443C105.56 81.383 106.52 80.503 107.22 79.553C107.45 79.233 107.87 79.173 108.14 79.403C108.42 79.633 108.45 80.083 108.21 80.403C107.62 81.203 106.09 83.033 104.91 82.863C104.65 82.823 104.18 82.653 103.95 81.953C103.76 81.353 103.69 80.693 103.63 80.113C103.6 79.843 103.56 79.463 103.51 79.233C103.44 79.283 103.33 79.363 103.19 79.483L102.87 79.763C101.8 80.693 101.09 81.293 100.34 81.063C99.6902 80.863 99.3902 80.123 99.1202 79.093C99.0702 78.903 99.0402 78.683 99.0002 78.453C98.9602 78.163 98.8402 77.393 98.6602 77.323C98.5002 77.263 98.0502 77.693 97.7802 77.943C97.4402 78.263 97.0802 78.593 96.6802 78.743C96.1902 78.913 95.8402 78.783 95.6402 78.633C95.0302 78.203 95.0002 77.263 94.9602 76.433C94.9502 76.203 94.9402 75.973 94.9202 75.853C94.8602 75.493 95.0902 75.133 95.4402 75.063C95.7902 74.983 96.1302 75.213 96.2002 75.573C96.2402 75.783 96.2502 76.053 96.2602 76.333C96.2702 76.623 96.3002 77.173 96.3802 77.433C96.5302 77.343 96.7602 77.133 96.9402 76.963C97.4802 76.453 98.2202 75.743 99.1002 76.033C100 76.323 100.19 77.443 100.3 78.193C100.33 78.383 100.36 78.563 100.39 78.683C100.59 79.423 100.73 79.663 100.79 79.733C101.02 79.653 101.59 79.163 102.1 78.723L102.42 78.443C102.84 78.073 103.47 77.613 104.08 77.843L104.05 77.803Z" fill="white"/>
</svg>
