<svg width="168" height="349" viewBox="0 0 168 349" fill="none" xmlns="http://www.w3.org/2000/svg">
<rect x="0.5" y="0.5" width="167" height="347.577" rx="4.5" stroke="#8A38F5" stroke-dasharray="10 5"/>
<path d="M71.4101 118.573C70.9201 118.303 68.1501 121.823 67.8401 122.253C66.2401 124.443 65.3801 126.213 62.8601 127.583C62.3601 127.853 61.8301 128.153 61.2801 128.433L61.1989 143.456C61.3689 143.426 61.5389 143.396 61.7089 143.356C61.3788 140.553 61.7089 143.446 61.6989 143.496C61.5589 145.006 61.4001 141.98 61.3201 143.5L109.5 143C109.27 138.19 108.78 141.423 107.91 136.683L100.66 119.273C100.39 119.003 100.11 118.743 99.8201 118.493C109.05 113.443 115.31 103.643 115.31 92.3831C115.31 75.9531 101.99 62.6331 85.5601 62.6331C69.1301 62.6331 55.8101 75.9531 55.8101 92.3831C55.8101 103.693 62.1201 113.533 71.4201 118.563L71.4101 118.573Z" fill="#BF8144"/>
<path d="M71.4101 118.573C70.9201 118.303 68.1501 121.823 67.8401 122.253C66.2401 124.443 65.3801 126.213 62.8601 127.583C62.3601 127.853 61.8301 128.153 61.2801 128.433L61 143.46C60.9935 140.557 60.9935 140.557 61.51 143.36C61.51 143.41 60.9935 140.557 61.5 143.5C61.36 144.98 61.3936 142.01 61.3136 143.5L109.5 143C109.26 138.22 108.78 141.393 107.91 136.693L100.66 119.283C100.39 119.013 100.11 118.753 99.8201 118.503C109.05 113.453 115.31 103.653 115.31 92.3931C115.31 75.9631 101.99 62.6431 85.5601 62.6431C69.1301 62.6431 55.8101 75.9631 55.8101 92.3931C55.8101 103.703 62.1201 113.543 71.4201 118.573H71.4101Z" stroke="#724A1D" stroke-width="0.8" stroke-miterlimit="10"/>
<g style="mix-blend-mode:screen" opacity="0.47">
<path d="M85.35 112.093C85.19 112.093 85.06 111.973 85.05 111.813C85.04 111.643 85.17 111.503 85.33 111.493C85.35 111.493 86.93 111.393 88.22 111.033C88.38 110.993 88.55 111.083 88.59 111.243C88.63 111.403 88.54 111.573 88.38 111.613C87.02 111.983 85.43 112.093 85.37 112.093C85.37 112.093 85.36 112.093 85.35 112.093Z" fill="#FFF9DF"/>
</g>
<g style="mix-blend-mode:multiply" opacity="0.51">
<path d="M63.54 73.9431C66.5 73.3431 69.58 73.6731 72.5 74.3531C75.6 75.0731 78.59 76.2031 81.5 77.4731C84.34 78.7131 87.13 80.0731 89.81 81.6231C93.04 83.4931 96.14 85.6131 98.97 88.0631C101.76 90.4731 104.34 93.2531 106.14 96.4931C107.68 99.2831 108.67 102.503 108.09 105.703C107.58 108.553 105.88 111.013 103.85 113.003C101.62 115.193 98.97 116.943 96.29 118.533C93.99 119.903 91.61 121.143 89.3 122.493C90.21 122.623 91.13 122.603 92.04 122.483C94.22 122.183 97.48 124.003 99.45 123.043C100.11 122.723 100.76 122.373 101.41 122.013C101.19 121.793 100.94 119.663 99.56 118.743C108.79 113.693 115.05 103.893 115.05 92.6331C115.05 76.2031 101.73 62.8831 85.3 62.8831C75.71 62.8831 67.19 67.4231 61.75 74.4631C62.33 74.2531 62.92 74.0731 63.54 73.9431Z" fill="#BF8144"/>
</g>
<path d="M78.88 91.5831C78.88 94.2531 76.72 96.413 74.05 96.413C71.38 96.413 69.22 94.2531 69.22 91.5831C69.22 88.9131 71.38 86.7531 74.05 86.7531C76.72 86.7531 78.88 88.9131 78.88 91.5831Z" fill="#BDBFC1"/>
<path d="M74.05 96.6831C71.24 96.6831 68.96 94.403 68.96 91.593C68.96 88.783 71.24 86.5031 74.05 86.5031C76.86 86.5031 79.14 88.783 79.14 91.593C79.14 94.403 76.85 96.6831 74.05 96.6831ZM74.05 87.013C71.53 87.013 69.48 89.0631 69.48 91.5831C69.48 94.1031 71.53 96.1531 74.05 96.1531C76.57 96.1531 78.62 94.1031 78.62 91.5831C78.62 89.0631 76.57 87.013 74.05 87.013Z" fill="#724A1D"/>
<path d="M78.2899 91.4631C78.2899 93.8031 76.3899 95.7031 74.0499 95.7031C71.7099 95.7031 69.8099 93.8031 69.8099 91.4631C69.8099 89.1231 71.7099 87.2231 74.0499 87.2231C76.3899 87.2231 78.2899 89.1231 78.2899 91.4631Z" fill="white"/>
<path d="M100.75 91.5831C100.75 94.2531 98.59 96.413 95.92 96.413C93.25 96.413 91.09 94.2531 91.09 91.5831C91.09 88.9131 93.25 86.7531 95.92 86.7531C98.59 86.7531 100.75 88.9131 100.75 91.5831Z" fill="#BDBFC1"/>
<path d="M95.92 96.6831C93.11 96.6831 90.83 94.403 90.83 91.593C90.83 88.783 93.12 86.5031 95.92 86.5031C98.72 86.5031 101.01 88.783 101.01 91.593C101.01 94.403 98.73 96.6831 95.92 96.6831ZM95.92 87.013C93.4 87.013 91.35 89.0631 91.35 91.5831C91.35 94.1031 93.4 96.1531 95.92 96.1531C98.44 96.1531 100.49 94.1031 100.49 91.5831C100.49 89.0631 98.44 87.013 95.92 87.013Z" fill="#724A1D"/>
<path d="M100.16 91.4631C100.16 93.8031 98.2599 95.7031 95.9199 95.7031C93.5799 95.7031 91.6799 93.8031 91.6799 91.4631C91.6799 89.1231 93.5799 87.2231 95.9199 87.2231C98.2599 87.2231 100.16 89.1231 100.16 91.4631Z" fill="white"/>
<path d="M100.81 101.323C99.5299 101.093 97.9299 102.063 96.7499 102.503C90.6099 104.743 84.4099 106.223 77.8999 104.463C75.2999 103.763 72.8799 101.833 70.1599 101.633C68.6299 101.523 67.9699 102.853 68.2799 104.243C68.9299 107.133 71.3999 109.803 73.7599 111.443C78.4399 114.703 84.6199 115.013 90.0099 113.643C95.2399 112.313 100.85 109.283 101.93 103.503C102 103.133 102.05 102.753 101.96 102.383C101.83 101.823 101.36 101.423 100.81 101.323Z" fill="white"/>
<path d="M84.02 116.783C79.67 116.783 75.63 115.623 72.41 113.383C69.07 111.053 66.66 107.833 65.97 104.763C65.62 103.213 65.96 101.723 66.88 100.653C67.73 99.673 68.96 99.183 70.33 99.283C72.37 99.433 74.17 100.293 75.76 101.053C76.73 101.523 77.65 101.953 78.52 102.193C84.7 103.853 90.55 102.263 95.94 100.293C96.19 100.203 96.47 100.073 96.76 99.953C98.01 99.403 99.57 98.713 101.24 99.013C102.75 99.293 103.94 100.413 104.27 101.883C104.45 102.683 104.36 103.413 104.25 103.953C103.17 109.723 98.32 113.983 90.59 115.943C88.37 116.503 86.16 116.783 84.02 116.783ZM70.68 104.093C71.33 106.253 73.36 108.283 75.11 109.503C78.78 112.053 84 112.733 89.43 111.353C92.62 110.543 97.97 108.523 99.39 103.933C99.12 104.043 98.86 104.153 98.67 104.243C98.31 104.403 97.93 104.573 97.56 104.703C91.73 106.833 84.76 108.743 77.29 106.733C76.01 106.393 74.85 105.833 73.73 105.293C72.66 104.783 71.64 104.293 70.69 104.083L70.68 104.093Z" fill="#ED1C24"/>
<path d="M71.21 68.6331C70.13 68.1831 69.99 66.7031 70.96 66.0631C74.46 63.7731 82.48 59.5631 96.56 57.4331C111.93 55.1131 128.96 75.6431 135.97 85.2031C136.85 86.3931 135.59 87.9831 134.23 87.4131C130.55 85.8831 125.83 84.6131 123.6 86.9131C120.85 89.7531 117.19 94.7931 115.23 97.5731C114.61 98.4631 113.27 98.3831 112.75 97.4231C110.33 92.9931 104.12 82.9131 95.98 79.2531C87.86 75.5931 76.18 70.7031 71.21 68.6331Z" fill="#6DBE45"/>
<path d="M114.04 98.4431C114.04 98.4431 113.97 98.4431 113.94 98.4431C113.34 98.4131 112.81 98.0731 112.52 97.5431C110.22 93.3331 103.99 83.1431 95.88 79.4831C87.74 75.8131 75.85 70.8431 71.11 68.8731C70.52 68.6231 70.11 68.0731 70.05 67.4431C69.99 66.8031 70.28 66.2031 70.82 65.8531C74.36 63.5331 82.42 59.3131 96.52 57.1831C112.14 54.8231 129.46 75.8931 136.18 85.0531C136.65 85.6931 136.64 86.5131 136.15 87.1331C135.66 87.7631 134.86 87.9631 134.13 87.6631C130.59 86.1831 125.93 84.8931 123.79 87.1031C121.04 89.9331 117.38 94.9731 115.44 97.7331C115.11 98.1931 114.6 98.4631 114.04 98.4631V98.4431ZM99.01 57.5131C98.2 57.5131 97.4 57.5731 96.61 57.6931C82.6 59.8131 74.62 63.9831 71.12 66.2831C70.74 66.5331 70.55 66.9431 70.59 67.3931C70.63 67.8431 70.91 68.2131 71.33 68.3931C76.07 70.3631 87.96 75.3431 96.11 79.0131C104.37 82.7331 110.67 93.0431 113 97.3031C113.2 97.6731 113.57 97.9031 113.99 97.9331C114.4 97.9531 114.79 97.7631 115.03 97.4231C116.98 94.6531 120.66 89.5831 123.43 86.7331C125.78 84.3131 130.66 85.6431 134.35 87.1831C134.97 87.4431 135.5 87.1531 135.76 86.8131C136.02 86.4831 136.18 85.9031 135.78 85.3631C129.46 76.7431 113.7 57.5231 99.02 57.5231L99.01 57.5131Z" fill="#446D31"/>
<g style="mix-blend-mode:color-dodge" opacity="0.57">
<path d="M85.3599 61.6831C89.5899 60.9631 93.8999 60.6231 98.1899 60.7731C100.34 60.8431 102.49 61.0431 104.61 61.4431C106.78 61.8631 108.91 62.4831 110.97 63.2631C112.95 64.0131 114.92 64.8831 116.74 65.9731C116.98 66.1131 117.21 66.2731 117.45 66.4231C110.83 61.1431 103.44 57.4031 96.3999 58.4731C88.5199 59.6631 82.5399 61.5131 78.1899 63.3031C80.5499 62.6331 82.9499 62.0931 85.3699 61.6831H85.3599Z" fill="white"/>
</g>
<g style="mix-blend-mode:multiply">
<path d="M135.68 84.7931C134.13 83.4431 132.28 82.4031 130.45 81.7031C127.83 80.7031 125.09 80.1531 122.28 80.1731C120.89 80.1831 119.55 80.3931 118.18 80.6631C116.87 80.9231 115.55 81.2031 114.21 81.2631C113 81.3131 111.85 81.1131 110.74 80.6231C109.64 80.1431 108.65 79.4531 107.69 78.7331C105.6 77.1731 103.46 75.7231 101.21 74.4031C96.4499 71.6031 91.3599 69.5231 86.0199 68.1431C81.3299 66.9331 76.54 66.2131 71.75 65.5731C71.47 65.7431 71.21 65.9031 70.98 66.0631C70 66.7031 70.15 68.1831 71.23 68.6331C76.2 70.7031 87.88 75.5931 96 79.2531C104.14 82.9231 110.35 93.0031 112.77 97.4231C113.29 98.3731 114.62 98.4531 115.25 97.5731C117.21 94.7931 120.87 89.7431 123.62 86.9131C125.85 84.6131 130.57 85.8831 134.25 87.4131C135.62 87.9831 136.87 86.4031 135.99 85.2031C135.89 85.0731 135.79 84.9331 135.69 84.7931H135.68Z" fill="#6DBE45"/>
</g>
<g style="mix-blend-mode:multiply" opacity="0.2">
<path d="M106.49 96.3931C106 96.4231 105.47 96.7131 105.25 97.1731C104.92 97.8831 105.23 98.8531 105.96 99.1931C106.32 99.3731 106.7 99.4131 107.09 99.2831C107.22 99.2431 107.34 99.1631 107.45 99.0631C107.49 99.0331 107.53 99.0131 107.57 98.9731C107.77 98.8131 107.91 98.5631 107.97 98.3131C108.07 97.9031 108.04 97.4931 107.86 97.1131C107.61 96.5931 107.04 96.3531 106.49 96.3931Z" fill="#BF8144"/>
</g>
<g style="mix-blend-mode:multiply" opacity="0.2">
<path d="M86.14 93.2531C86.08 93.2131 86 93.1931 85.93 93.2031C85.87 93.2031 85.82 93.2331 85.78 93.2731C85.73 93.3031 85.69 93.3431 85.67 93.4031C85.63 93.4831 85.6 93.5631 85.6 93.6631C85.6 93.6931 85.6 93.7331 85.6 93.7631C85.6 93.7831 85.6 93.7931 85.6 93.8131C85.6 93.8131 85.6 93.8231 85.6 93.8331C85.6 93.8431 85.6 93.8631 85.6 93.8731C85.6 93.9231 85.6 93.9731 85.6 94.0231C85.61 94.0731 85.62 94.1231 85.63 94.1731C85.65 94.2231 85.67 94.2631 85.69 94.3131L85.77 94.4231C85.81 94.4731 85.86 94.5131 85.92 94.5231C85.95 94.5431 85.99 94.5531 86.03 94.5531C86.07 94.5531 86.11 94.5531 86.14 94.5431C86.17 94.5431 86.19 94.5231 86.21 94.5031C86.26 94.5031 86.31 94.5031 86.36 94.4731C86.41 94.4531 86.44 94.4131 86.47 94.3731C86.51 94.3331 86.53 94.2831 86.54 94.2231C86.56 94.1431 86.57 94.0531 86.56 93.9731C86.56 93.9331 86.56 93.8831 86.55 93.8431C86.55 93.7331 86.51 93.6231 86.45 93.5331C86.4 93.4531 86.33 93.3731 86.25 93.3231C86.21 93.3031 86.17 93.2831 86.13 93.2631L86.14 93.2531Z" fill="#BF8144"/>
</g>
<g style="mix-blend-mode:multiply" opacity="0.2">
<path d="M83.9401 88.1331C83.3401 88.1331 82.9301 88.7031 82.8601 89.2531C82.8201 89.5631 82.9201 89.9031 83.1401 90.1331C83.2801 90.2831 83.4701 90.3831 83.6701 90.4231C83.8001 90.4531 83.9301 90.4631 84.0601 90.4531C84.2101 90.5131 84.3701 90.5431 84.5301 90.5031C85.1501 90.3531 85.3001 89.6031 85.1601 89.0631C85.0801 88.7731 84.8901 88.5331 84.6601 88.3531C84.4501 88.2031 84.2101 88.1331 83.9501 88.1331H83.9401Z" fill="#BF8144"/>
</g>
<g style="mix-blend-mode:multiply" opacity="0.2">
<path d="M88.3201 84.9831C88.3201 84.9831 88.2501 84.9531 88.2201 84.9431H88.1101C88.1101 84.9431 88.0401 84.9631 88.0001 84.9731C87.9501 85.0031 87.9001 85.0431 87.8701 85.0931C87.8401 85.1231 87.8201 85.1631 87.8101 85.2031C87.7901 85.2431 87.7801 85.2831 87.7701 85.3331C87.7601 85.3831 87.7501 85.4331 87.7601 85.4731C87.7601 85.5231 87.7601 85.5631 87.7701 85.6131C87.7701 85.6331 87.7501 85.6531 87.7501 85.6831C87.7501 85.7031 87.7401 85.7231 87.7301 85.7431C87.7101 85.8431 87.6901 85.9331 87.6901 86.0331C87.6901 86.1431 87.6901 86.2531 87.7301 86.3631C87.7601 86.4631 87.8101 86.5431 87.8801 86.6231C87.9601 86.7131 88.0801 86.7731 88.2001 86.7631C88.2001 86.7631 88.2001 86.7631 88.2101 86.7631C88.2601 86.7731 88.3201 86.7731 88.3701 86.7831C88.4401 86.7831 88.5101 86.7631 88.5801 86.7431C88.5901 86.7431 88.6001 86.7431 88.6101 86.7331C88.6101 86.7331 88.6201 86.7331 88.6301 86.7331C88.6301 86.7331 88.6201 86.7331 88.6101 86.7331C88.6201 86.7331 88.6401 86.7331 88.6501 86.7131C88.6801 86.6931 88.7101 86.6631 88.7501 86.6431C88.7601 86.6331 88.7801 86.6231 88.7901 86.6031C88.8601 86.5131 88.9201 86.4331 88.9401 86.3231C88.9501 86.2731 88.9601 86.2231 88.9701 86.1731C88.9701 86.1631 88.9701 86.1531 88.9701 86.1431C88.9701 86.0831 88.9701 86.0131 88.9701 85.9431C88.9601 85.8731 88.9501 85.8031 88.9201 85.7431C88.8901 85.6831 88.8701 85.6131 88.8301 85.5531C88.7901 85.4831 88.7401 85.4231 88.6901 85.3631C88.6601 85.3331 88.6301 85.3031 88.6001 85.2731C88.5201 85.1631 88.4201 85.0631 88.3101 84.9831H88.3201Z" fill="#BF8144"/>
</g>
<g style="mix-blend-mode:multiply" opacity="0.2">
<path d="M80.37 79.6931C79.73 79.9331 79.58 80.6931 79.7 81.3031C79.71 81.3531 79.72 81.4031 79.73 81.4431C79.73 81.4531 79.73 81.4731 79.74 81.4831C79.85 81.8431 80.1 82.1331 80.45 82.2731C80.49 82.2831 80.52 82.2931 80.56 82.3031C80.67 82.3531 80.79 82.4031 80.91 82.4231C81.42 82.5331 81.94 82.3731 82.21 81.9031C82.42 81.5431 82.46 81.1131 82.36 80.7131C82.28 80.3831 82.07 80.1131 81.81 79.9131C81.41 79.5931 80.83 79.5031 80.35 79.6831L80.37 79.6931Z" fill="#BF8144"/>
</g>
<g style="mix-blend-mode:multiply" opacity="0.2">
<path d="M77.79 83.9931C77.79 83.9931 77.7 83.9931 77.66 83.9931C77.57 83.9931 77.51 84.0331 77.45 84.0831C77.43 84.0931 77.41 84.1131 77.39 84.1231C77.35 84.1431 77.31 84.1731 77.27 84.2131C77.25 84.2231 77.23 84.2431 77.21 84.2531C77.13 84.3031 77.07 84.3631 77.02 84.4531C77.02 84.4531 77.02 84.4731 77.01 84.4831C77.01 84.5031 76.99 84.5131 76.98 84.5331C76.94 84.5931 76.92 84.6631 76.92 84.7231C76.9 84.7931 76.9 84.8731 76.92 84.9431L76.95 85.0931C76.97 85.1631 77 85.2231 77.05 85.2731C77.07 85.3131 77.1 85.3431 77.14 85.3631C77.18 85.4031 77.23 85.4331 77.29 85.4431C77.31 85.4431 77.33 85.4431 77.34 85.4531C77.44 85.4731 77.53 85.4731 77.62 85.4231C77.65 85.4031 77.69 85.3831 77.72 85.3631C77.77 85.3331 77.81 85.2931 77.86 85.2531C77.86 85.2531 77.87 85.2431 77.88 85.2331C77.91 85.1931 77.94 85.1431 77.97 85.1031C77.99 85.0731 78.01 85.0331 78.03 85.0031C78.03 84.9831 78.05 84.9731 78.06 84.9531C78.08 84.9031 78.11 84.8631 78.12 84.8131C78.15 84.6931 78.15 84.6231 78.14 84.5031C78.14 84.3931 78.11 84.2831 78.05 84.1931C78 84.1031 77.9 84.0131 77.8 83.9931H77.79Z" fill="#BF8144"/>
</g>
<path d="M114.09 104.273C112.65 104.273 111.28 103.423 110.7 102.013C100.5 77.4631 67.6599 71.9131 67.3299 71.8531C65.3299 71.5331 63.9699 69.6531 64.2899 67.6431C64.6099 65.6431 66.4899 64.2731 68.4899 64.5931C68.8699 64.6531 77.8799 66.1231 88.3799 71.0331C102.51 77.6331 112.57 87.3731 117.48 99.1931C118.26 101.063 117.37 103.213 115.5 103.993C115.04 104.183 114.56 104.273 114.09 104.273Z" fill="#FE0000"/>
<path d="M114.09 104.533C112.49 104.533 111.07 103.583 110.46 102.103C100.32 77.6931 67.62 72.1531 67.29 72.1031C65.15 71.7631 63.69 69.7331 64.03 67.5931C64.2 66.5531 64.76 65.6431 65.61 65.0231C66.46 64.4131 67.5 64.1631 68.53 64.3331C68.91 64.3931 77.94 65.8631 88.49 70.7931C102.68 77.4231 112.79 87.2031 117.73 99.0831C118.56 101.083 117.61 103.393 115.61 104.223C115.13 104.423 114.62 104.523 114.1 104.523L114.09 104.533ZM67.89 64.8131C67.18 64.8131 66.49 65.0331 65.91 65.4531C65.17 65.9831 64.68 66.7831 64.54 67.6831C64.24 69.5331 65.51 71.2931 67.37 71.5931C67.7 71.6431 100.69 77.2331 110.94 101.913C111.47 103.193 112.71 104.013 114.09 104.013C114.54 104.013 114.98 103.923 115.4 103.753C117.14 103.033 117.96 101.033 117.24 99.2931C112.35 87.5331 102.33 77.8431 88.27 71.2731C77.79 66.3731 68.82 64.9231 68.45 64.8631C68.27 64.8331 68.08 64.8231 67.9 64.8231L67.89 64.8131Z" fill="#B40000"/>
<path d="M139.62 86.4931C139.62 88.5131 137.98 90.1531 135.96 90.1531C133.94 90.1531 132.3 88.5131 132.3 86.4931C132.3 84.4731 133.94 82.8331 135.96 82.8331C137.98 82.8331 139.62 84.4731 139.62 86.4931Z" fill="#FE0000"/>
<path d="M135.96 90.4131C133.8 90.4131 132.04 88.6531 132.04 86.4931C132.04 84.3331 133.8 82.5731 135.96 82.5731C138.12 82.5731 139.88 84.3331 139.88 86.4931C139.88 88.6531 138.12 90.4131 135.96 90.4131ZM135.96 83.1031C134.09 83.1031 132.57 84.6231 132.57 86.4931C132.57 88.3631 134.09 89.8831 135.96 89.8831C137.83 89.8831 139.35 88.3631 139.35 86.4931C139.35 84.6231 137.83 83.1031 135.96 83.1031Z" fill="#B40000"/>
<path d="M136.44 85.3931C136.44 86.0731 135.89 86.6231 135.21 86.6231C134.53 86.6231 133.98 86.0731 133.98 85.3931C133.98 84.7131 134.53 84.1631 135.21 84.1631C135.89 84.1631 136.44 84.7131 136.44 85.3931Z" fill="white"/>
<rect x="20" y="92.4231" width="128" height="52" rx="12" fill="#1B71F6"/>
<path d="M46.4957 124.423H44.6321L48.8196 112.787H50.848L55.0355 124.423H53.1719L49.8821 114.9H49.7912L46.4957 124.423ZM46.8082 119.866H52.8537V121.344H46.8082V119.866ZM62.9517 115.696L59.7869 124.423H57.9688L54.7983 115.696H56.6222L58.8324 122.412H58.9233L61.1278 115.696H62.9517ZM66.8381 124.616C66.285 124.616 65.785 124.514 65.3381 124.309C64.8911 124.101 64.5369 123.8 64.2756 123.406C64.018 123.012 63.8892 122.529 63.8892 121.957C63.8892 121.465 63.9839 121.059 64.1733 120.741C64.3627 120.423 64.6184 120.171 64.9403 119.986C65.2623 119.8 65.6222 119.66 66.0199 119.565C66.4176 119.47 66.8229 119.398 67.2358 119.349C67.7585 119.289 68.1828 119.239 68.5085 119.202C68.8343 119.16 69.071 119.094 69.2188 119.003C69.3665 118.912 69.4403 118.764 69.4403 118.559V118.52C69.4403 118.023 69.3002 117.639 69.0199 117.366C68.7434 117.094 68.3305 116.957 67.7812 116.957C67.2093 116.957 66.7585 117.084 66.429 117.338C66.1032 117.588 65.8778 117.866 65.7528 118.173L64.1562 117.809C64.3456 117.279 64.6222 116.851 64.9858 116.525C65.3532 116.196 65.7756 115.957 66.2528 115.809C66.7301 115.658 67.232 115.582 67.7585 115.582C68.107 115.582 68.4763 115.624 68.8665 115.707C69.2604 115.787 69.6278 115.934 69.9688 116.15C70.3134 116.366 70.5956 116.675 70.8153 117.077C71.035 117.474 71.1449 117.991 71.1449 118.628V124.423H69.4858V123.23H69.4176C69.3078 123.45 69.143 123.666 68.9233 123.878C68.7036 124.09 68.4214 124.266 68.0767 124.406C67.732 124.546 67.3191 124.616 66.8381 124.616ZM67.2074 123.253C67.6771 123.253 68.0786 123.16 68.4119 122.974C68.7491 122.789 69.0047 122.546 69.179 122.247C69.357 121.944 69.446 121.62 69.446 121.275V120.15C69.3854 120.211 69.268 120.268 69.0938 120.321C68.9233 120.37 68.7282 120.414 68.5085 120.452C68.2888 120.486 68.0748 120.518 67.8665 120.548C67.6581 120.575 67.4839 120.597 67.3438 120.616C67.0142 120.658 66.7131 120.728 66.4403 120.827C66.1714 120.925 65.9555 121.067 65.7926 121.253C65.6335 121.434 65.554 121.677 65.554 121.98C65.554 122.4 65.7093 122.719 66.0199 122.934C66.3305 123.147 66.7263 123.253 67.2074 123.253ZM73.4077 124.423V115.696H75.1065V124.423H73.4077ZM74.2656 114.349C73.9702 114.349 73.7164 114.251 73.5043 114.054C73.2959 113.853 73.1918 113.614 73.1918 113.338C73.1918 113.058 73.2959 112.819 73.5043 112.622C73.7164 112.421 73.9702 112.321 74.2656 112.321C74.5611 112.321 74.813 112.421 75.0213 112.622C75.2334 112.819 75.3395 113.058 75.3395 113.338C75.3395 113.614 75.2334 113.853 75.0213 114.054C74.813 114.251 74.5611 114.349 74.2656 114.349ZM79.0909 112.787V124.423H77.392V112.787H79.0909ZM95.8551 118.605C95.8551 119.847 95.6278 120.916 95.1733 121.809C94.7188 122.7 94.0956 123.385 93.304 123.866C92.5161 124.344 91.6203 124.582 90.6165 124.582C89.6089 124.582 88.7093 124.344 87.9176 123.866C87.1297 123.385 86.5085 122.698 86.054 121.804C85.5994 120.91 85.3722 119.844 85.3722 118.605C85.3722 117.362 85.5994 116.296 86.054 115.406C86.5085 114.512 87.1297 113.827 87.9176 113.349C88.7093 112.868 89.6089 112.628 90.6165 112.628C91.6203 112.628 92.5161 112.868 93.304 113.349C94.0956 113.827 94.7188 114.512 95.1733 115.406C95.6278 116.296 95.8551 117.362 95.8551 118.605ZM94.1165 118.605C94.1165 117.658 93.9631 116.861 93.6562 116.213C93.3532 115.561 92.9366 115.069 92.4062 114.736C91.8797 114.398 91.2831 114.23 90.6165 114.23C89.946 114.23 89.3475 114.398 88.821 114.736C88.2945 115.069 87.8778 115.561 87.571 116.213C87.268 116.861 87.1165 117.658 87.1165 118.605C87.1165 119.552 87.268 120.351 87.571 121.003C87.8778 121.65 88.2945 122.143 88.821 122.48C89.3475 122.813 89.946 122.98 90.6165 122.98C91.2831 122.98 91.8797 122.813 92.4062 122.48C92.9366 122.143 93.3532 121.65 93.6562 121.003C93.9631 120.351 94.1165 119.552 94.1165 118.605ZM102.061 115.696V117.059H97.1293V115.696H102.061ZM98.4815 124.423V114.684C98.4815 114.139 98.6009 113.686 98.8395 113.327C99.0781 112.963 99.3944 112.692 99.7884 112.514C100.182 112.332 100.61 112.241 101.072 112.241C101.413 112.241 101.705 112.27 101.947 112.327C102.19 112.38 102.37 112.429 102.487 112.474L102.089 113.849C102.01 113.827 101.908 113.8 101.783 113.77C101.658 113.736 101.506 113.719 101.328 113.719C100.915 113.719 100.62 113.821 100.442 114.025C100.268 114.23 100.18 114.525 100.18 114.912V124.423H98.4815ZM107.967 115.696V117.059H103.036V115.696H107.967ZM104.388 124.423V114.684C104.388 114.139 104.507 113.686 104.746 113.327C104.984 112.963 105.301 112.692 105.695 112.514C106.089 112.332 106.517 112.241 106.979 112.241C107.32 112.241 107.611 112.27 107.854 112.327C108.096 112.38 108.276 112.429 108.393 112.474L107.996 113.849C107.916 113.827 107.814 113.8 107.689 113.77C107.564 113.736 107.412 113.719 107.234 113.719C106.821 113.719 106.526 113.821 106.348 114.025C106.174 114.23 106.087 114.525 106.087 114.912V124.423H104.388ZM113.138 124.599C112.278 124.599 111.537 124.416 110.916 124.048C110.299 123.677 109.821 123.156 109.484 122.486C109.151 121.811 108.984 121.022 108.984 120.116C108.984 119.222 109.151 118.434 109.484 117.753C109.821 117.071 110.291 116.539 110.893 116.156C111.5 115.773 112.208 115.582 113.018 115.582C113.511 115.582 113.988 115.664 114.45 115.827C114.912 115.989 115.327 116.245 115.695 116.594C116.062 116.942 116.352 117.395 116.564 117.952C116.776 118.505 116.882 119.177 116.882 119.969V120.571H109.945V119.298H115.217C115.217 118.851 115.126 118.455 114.945 118.111C114.763 117.762 114.507 117.487 114.178 117.287C113.852 117.086 113.469 116.986 113.03 116.986C112.553 116.986 112.136 117.103 111.78 117.338C111.428 117.569 111.155 117.872 110.962 118.247C110.772 118.618 110.678 119.022 110.678 119.457V120.452C110.678 121.035 110.78 121.531 110.984 121.94C111.193 122.349 111.482 122.662 111.854 122.878C112.225 123.09 112.659 123.196 113.155 123.196C113.477 123.196 113.77 123.15 114.036 123.059C114.301 122.965 114.53 122.825 114.723 122.639C114.916 122.453 115.064 122.224 115.166 121.952L116.774 122.241C116.645 122.715 116.414 123.13 116.081 123.486C115.751 123.838 115.337 124.112 114.837 124.309C114.34 124.503 113.774 124.599 113.138 124.599ZM118.767 124.423V115.696H120.409V117.082H120.5C120.659 116.612 120.939 116.243 121.341 115.974C121.746 115.702 122.205 115.565 122.716 115.565C122.822 115.565 122.947 115.569 123.091 115.577C123.239 115.584 123.354 115.594 123.438 115.605V117.23C123.369 117.211 123.248 117.19 123.074 117.167C122.9 117.141 122.725 117.128 122.551 117.128C122.15 117.128 121.792 117.213 121.477 117.383C121.167 117.55 120.92 117.783 120.739 118.082C120.557 118.378 120.466 118.715 120.466 119.094V124.423H118.767Z" fill="white"/>
<path d="M53.92 91.5231C52.95 90.0631 51.22 89.2931 49.47 89.4031L41 89.9331C39.16 90.2031 38.06 91.8631 38.3 93.0031C38.7 94.8831 39.41 97.4831 39.96 98.9431C39.96 98.9431 40.75 101.083 42.21 103.163C43.67 105.253 45.8 107.293 48.32 107.253C50.85 107.213 53.05 106.243 54.46 104.613C55.87 102.983 56.48 100.663 55.84 97.7731C55.63 96.8131 55.05 94.8731 54.33 92.3431C54.27 92.1131 54.12 91.8331 53.92 91.5331V91.5231Z" fill="#BF8144"/>
<path d="M53.92 91.5231C52.95 90.0631 51.22 89.2931 49.47 89.4031L41 89.9331C39.16 90.2031 38.06 91.8631 38.3 93.0031C38.7 94.8831 39.41 97.4831 39.96 98.9431C39.96 98.9431 40.75 101.083 42.21 103.163C43.67 105.253 45.8 107.293 48.32 107.253C50.85 107.213 53.05 106.243 54.46 104.613C55.87 102.983 56.48 100.663 55.84 97.7731C55.63 96.8131 55.05 94.8731 54.33 92.3431C54.27 92.1131 54.12 91.8331 53.92 91.5331V91.5231Z" stroke="#724A1D" stroke-width="0.8" stroke-miterlimit="10"/>
<g style="mix-blend-mode:multiply">
<path d="M45.18 97.223C44.5 97.483 44.4 98.343 44.3 99.263C44.25 99.773 44.19 100.343 44.03 100.793C44.03 100.813 44.02 100.823 44.01 100.843C43.66 100.783 42.71 99.893 42.01 98.953C41.78 98.633 41.36 98.563 41.09 98.803C40.81 99.033 40.78 99.483 41.01 99.803C41.6 100.603 43.12 102.433 44.3 102.263C44.56 102.223 45.03 102.063 45.26 101.363C45.46 100.763 45.52 100.103 45.59 99.523C45.62 99.253 45.66 98.873 45.72 98.643C45.79 98.693 45.9 98.773 46.04 98.893L46.36 99.173C47.42 100.103 48.13 100.713 48.88 100.473C49.53 100.273 49.84 99.543 50.11 98.513C50.16 98.323 50.19 98.103 50.23 97.873C50.27 97.583 50.39 96.813 50.57 96.753C50.73 96.703 51.18 97.123 51.45 97.373C51.79 97.693 52.15 98.033 52.55 98.173C53.04 98.353 53.39 98.213 53.59 98.073C54.2 97.643 54.24 96.703 54.28 95.873C54.29 95.643 54.3 95.413 54.33 95.293C54.4 94.933 54.16 94.573 53.81 94.493C53.46 94.413 53.12 94.643 53.05 95.003C53.01 95.213 53 95.483 52.98 95.763C52.96 96.053 52.94 96.603 52.86 96.863C52.71 96.773 52.49 96.563 52.3 96.383C51.76 95.873 51.02 95.163 50.14 95.443C49.23 95.733 49.05 96.853 48.94 97.593C48.91 97.783 48.88 97.963 48.85 98.083C48.65 98.823 48.51 99.063 48.45 99.133C48.22 99.053 47.65 98.563 47.15 98.123L46.83 97.843C46.41 97.473 45.78 97.003 45.18 97.233V97.223Z" fill="#BF8144"/>
</g>
<path d="M45.39 97.803C44.71 98.063 44.61 98.923 44.51 99.853C44.46 100.363 44.4 100.943 44.25 101.393C44.25 101.413 44.24 101.433 44.23 101.443C43.88 101.383 42.92 100.503 42.22 99.553C41.99 99.233 41.57 99.173 41.3 99.403C41.02 99.633 40.99 100.083 41.23 100.403C41.82 101.203 43.35 103.033 44.53 102.863C44.79 102.823 45.26 102.653 45.49 101.953C45.68 101.353 45.75 100.693 45.81 100.113C45.84 99.843 45.88 99.463 45.93 99.233C46 99.283 46.11 99.363 46.25 99.483L46.57 99.763C47.64 100.693 48.35 101.293 49.1 101.063C49.75 100.863 50.05 100.123 50.32 99.093C50.37 98.903 50.4 98.683 50.44 98.453C50.48 98.163 50.6 97.393 50.78 97.323C50.94 97.263 51.39 97.693 51.66 97.943C52 98.263 52.36 98.593 52.76 98.743C53.25 98.913 53.6 98.783 53.8 98.633C54.41 98.203 54.44 97.263 54.48 96.433C54.49 96.203 54.5 95.973 54.52 95.853C54.58 95.493 54.35 95.133 54 95.063C53.65 94.983 53.31 95.213 53.24 95.573C53.2 95.783 53.19 96.053 53.18 96.333C53.17 96.623 53.14 97.173 53.06 97.433C52.91 97.343 52.68 97.133 52.5 96.963C51.96 96.453 51.22 95.743 50.34 96.033C49.44 96.323 49.25 97.443 49.14 98.193C49.11 98.383 49.08 98.563 49.05 98.683C48.85 99.423 48.71 99.663 48.65 99.733C48.42 99.653 47.85 99.163 47.34 98.723L47.02 98.443C46.6 98.073 45.97 97.613 45.36 97.843L45.39 97.803Z" fill="white"/>
<path d="M115.53 91.5231C116.5 90.0631 118.23 89.2931 119.98 89.4031L128.45 89.9331C130.29 90.2031 131.39 91.8631 131.15 93.0031C130.75 94.8831 130.04 97.4831 129.49 98.9431C129.49 98.9431 128.7 101.083 127.24 103.163C125.78 105.253 123.65 107.293 121.13 107.253C118.6 107.213 116.4 106.243 114.99 104.613C113.58 102.983 112.97 100.663 113.61 97.7731C113.82 96.8131 114.4 94.8731 115.12 92.3431C115.18 92.1131 115.33 91.8331 115.53 91.5331V91.5231Z" fill="#BF8144"/>
<path d="M115.53 91.5231C116.5 90.0631 118.23 89.2931 119.98 89.4031L128.45 89.9331C130.29 90.2031 131.39 91.8631 131.15 93.0031C130.75 94.8831 130.04 97.4831 129.49 98.9431C129.49 98.9431 128.7 101.083 127.24 103.163C125.78 105.253 123.65 107.293 121.13 107.253C118.6 107.213 116.4 106.243 114.99 104.613C113.58 102.983 112.97 100.663 113.61 97.7731C113.82 96.8131 114.4 94.8731 115.12 92.3431C115.18 92.1131 115.33 91.8331 115.53 91.5331V91.5231Z" stroke="#724A1D" stroke-width="0.8" stroke-miterlimit="10"/>
<g style="mix-blend-mode:multiply">
<path d="M124.27 97.223C124.95 97.483 125.05 98.343 125.15 99.263C125.2 99.773 125.26 100.343 125.42 100.793C125.42 100.813 125.43 100.823 125.44 100.843C125.79 100.783 126.74 99.893 127.44 98.953C127.67 98.633 128.09 98.563 128.36 98.803C128.64 99.033 128.67 99.483 128.44 99.803C127.85 100.603 126.33 102.433 125.15 102.263C124.89 102.223 124.42 102.063 124.19 101.363C123.99 100.763 123.93 100.103 123.86 99.523C123.83 99.253 123.79 98.873 123.73 98.643C123.66 98.693 123.55 98.773 123.41 98.893L123.09 99.173C122.03 100.103 121.32 100.713 120.57 100.473C119.92 100.273 119.61 99.543 119.34 98.513C119.29 98.323 119.26 98.103 119.22 97.873C119.18 97.583 119.06 96.813 118.88 96.753C118.72 96.703 118.27 97.123 118 97.373C117.66 97.693 117.3 98.033 116.9 98.173C116.41 98.353 116.06 98.213 115.86 98.073C115.25 97.643 115.21 96.703 115.17 95.873C115.16 95.643 115.15 95.413 115.12 95.293C115.05 94.933 115.29 94.573 115.64 94.493C115.99 94.413 116.33 94.643 116.4 95.003C116.44 95.213 116.45 95.483 116.47 95.763C116.49 96.053 116.51 96.603 116.59 96.863C116.74 96.773 116.96 96.563 117.15 96.383C117.69 95.873 118.43 95.163 119.31 95.443C120.22 95.733 120.4 96.853 120.51 97.593C120.54 97.783 120.57 97.963 120.6 98.083C120.8 98.823 120.94 99.063 121 99.133C121.23 99.053 121.8 98.563 122.3 98.123L122.62 97.843C123.04 97.473 123.67 97.003 124.27 97.233V97.223Z" fill="#BF8144"/>
</g>
<path d="M124.05 97.803C124.73 98.063 124.83 98.923 124.93 99.853C124.98 100.363 125.04 100.943 125.19 101.393C125.19 101.413 125.2 101.433 125.21 101.443C125.56 101.383 126.52 100.503 127.22 99.553C127.45 99.233 127.87 99.173 128.14 99.403C128.42 99.633 128.45 100.083 128.21 100.403C127.62 101.203 126.09 103.033 124.91 102.863C124.65 102.823 124.18 102.653 123.95 101.953C123.76 101.353 123.69 100.693 123.63 100.113C123.6 99.843 123.56 99.463 123.51 99.233C123.44 99.283 123.33 99.363 123.19 99.483L122.87 99.763C121.8 100.693 121.09 101.293 120.34 101.063C119.69 100.863 119.39 100.123 119.12 99.093C119.07 98.903 119.04 98.683 119 98.453C118.96 98.163 118.84 97.393 118.66 97.323C118.5 97.263 118.05 97.693 117.78 97.943C117.44 98.263 117.08 98.593 116.68 98.743C116.19 98.913 115.84 98.783 115.64 98.633C115.03 98.203 115 97.263 114.96 96.433C114.95 96.203 114.94 95.973 114.92 95.853C114.86 95.493 115.09 95.133 115.44 95.063C115.79 94.983 116.13 95.213 116.2 95.573C116.24 95.783 116.25 96.053 116.26 96.333C116.27 96.623 116.3 97.173 116.38 97.433C116.53 97.343 116.76 97.133 116.94 96.963C117.48 96.453 118.22 95.743 119.1 96.033C120 96.323 120.19 97.443 120.3 98.193C120.33 98.383 120.36 98.563 120.39 98.683C120.59 99.423 120.73 99.663 120.79 99.733C121.02 99.653 121.59 99.163 122.1 98.723L122.42 98.443C122.84 98.073 123.47 97.613 124.08 97.843L124.05 97.803Z" fill="white"/>
<path d="M71.4101 273.15C70.9201 272.88 68.1501 276.4 67.8401 276.83C66.2401 279.02 65.3801 280.79 62.8601 282.16C62.3601 282.43 61.8301 282.73 61.2801 283.01L61.1989 298.033C61.3689 298.003 61.5389 297.973 61.7089 297.933C61.3788 295.13 61.7089 298.023 61.6989 298.073C61.5589 299.583 61.4001 296.557 61.3201 298.077L109.5 297.577C109.27 292.767 108.78 296 107.91 291.26L100.66 273.85C100.39 273.58 100.11 273.32 99.8201 273.07C109.05 268.02 115.31 258.22 115.31 246.96C115.31 230.53 101.99 217.21 85.5601 217.21C69.1301 217.21 55.8101 230.53 55.8101 246.96C55.8101 258.27 62.1201 268.11 71.4201 273.14L71.4101 273.15Z" fill="#BF8144"/>
<path d="M71.4101 273.15C70.9201 272.88 68.1501 276.4 67.8401 276.83C66.2401 279.02 65.3801 280.79 62.8601 282.16C62.3601 282.43 61.8301 282.73 61.2801 283.01L61 298.037C60.9935 295.134 60.9935 295.134 61.51 297.937C61.51 297.987 60.9935 295.134 61.5 298.077C61.36 299.557 61.3936 296.587 61.3136 298.077L109.5 297.577C109.26 292.797 108.78 295.97 107.91 291.27L100.66 273.86C100.39 273.59 100.11 273.33 99.8201 273.08C109.05 268.03 115.31 258.23 115.31 246.97C115.31 230.54 101.99 217.22 85.5601 217.22C69.1301 217.22 55.8101 230.54 55.8101 246.97C55.8101 258.28 62.1201 268.12 71.4201 273.15H71.4101Z" stroke="#724A1D" stroke-width="0.8" stroke-miterlimit="10"/>
<g style="mix-blend-mode:screen" opacity="0.47">
<path d="M85.35 266.67C85.19 266.67 85.06 266.55 85.05 266.39C85.04 266.22 85.17 266.08 85.33 266.07C85.35 266.07 86.93 265.97 88.22 265.61C88.38 265.57 88.55 265.66 88.59 265.82C88.63 265.98 88.54 266.15 88.38 266.19C87.02 266.56 85.43 266.67 85.37 266.67C85.37 266.67 85.36 266.67 85.35 266.67Z" fill="#FFF9DF"/>
</g>
<g style="mix-blend-mode:multiply" opacity="0.51">
<path d="M63.54 228.52C66.5 227.92 69.58 228.25 72.5 228.93C75.6 229.65 78.59 230.78 81.5 232.05C84.34 233.29 87.13 234.65 89.81 236.2C93.04 238.07 96.14 240.19 98.97 242.64C101.76 245.05 104.34 247.83 106.14 251.07C107.68 253.86 108.67 257.08 108.09 260.28C107.58 263.13 105.88 265.59 103.85 267.58C101.62 269.77 98.97 271.52 96.29 273.11C93.99 274.48 91.61 275.72 89.3 277.07C90.21 277.2 91.13 277.18 92.04 277.06C94.22 276.76 97.48 278.58 99.45 277.62C100.11 277.3 100.76 276.95 101.41 276.59C101.19 276.37 100.94 274.24 99.56 273.32C108.79 268.27 115.05 258.47 115.05 247.21C115.05 230.78 101.73 217.46 85.3 217.46C75.71 217.46 67.19 222 61.75 229.04C62.33 228.83 62.92 228.65 63.54 228.52Z" fill="#BF8144"/>
</g>
<path d="M78.88 246.16C78.88 248.83 76.72 250.99 74.05 250.99C71.38 250.99 69.22 248.83 69.22 246.16C69.22 243.49 71.38 241.33 74.05 241.33C76.72 241.33 78.88 243.49 78.88 246.16Z" fill="#BDBFC1"/>
<path d="M74.05 251.26C71.24 251.26 68.96 248.98 68.96 246.17C68.96 243.36 71.24 241.08 74.05 241.08C76.86 241.08 79.14 243.36 79.14 246.17C79.14 248.98 76.85 251.26 74.05 251.26ZM74.05 241.59C71.53 241.59 69.48 243.64 69.48 246.16C69.48 248.68 71.53 250.73 74.05 250.73C76.57 250.73 78.62 248.68 78.62 246.16C78.62 243.64 76.57 241.59 74.05 241.59Z" fill="#724A1D"/>
<path d="M78.2899 246.04C78.2899 248.38 76.3899 250.28 74.0499 250.28C71.7099 250.28 69.8099 248.38 69.8099 246.04C69.8099 243.7 71.7099 241.8 74.0499 241.8C76.3899 241.8 78.2899 243.7 78.2899 246.04Z" fill="white"/>
<path d="M100.75 246.16C100.75 248.83 98.59 250.99 95.92 250.99C93.25 250.99 91.09 248.83 91.09 246.16C91.09 243.49 93.25 241.33 95.92 241.33C98.59 241.33 100.75 243.49 100.75 246.16Z" fill="#BDBFC1"/>
<path d="M95.92 251.26C93.11 251.26 90.83 248.98 90.83 246.17C90.83 243.36 93.12 241.08 95.92 241.08C98.72 241.08 101.01 243.36 101.01 246.17C101.01 248.98 98.73 251.26 95.92 251.26ZM95.92 241.59C93.4 241.59 91.35 243.64 91.35 246.16C91.35 248.68 93.4 250.73 95.92 250.73C98.44 250.73 100.49 248.68 100.49 246.16C100.49 243.64 98.44 241.59 95.92 241.59Z" fill="#724A1D"/>
<path d="M100.16 246.04C100.16 248.38 98.2599 250.28 95.9199 250.28C93.5799 250.28 91.6799 248.38 91.6799 246.04C91.6799 243.7 93.5799 241.8 95.9199 241.8C98.2599 241.8 100.16 243.7 100.16 246.04Z" fill="white"/>
<path d="M100.81 255.9C99.5299 255.67 97.9299 256.64 96.7499 257.08C90.6099 259.32 84.4099 260.8 77.8999 259.04C75.2999 258.34 72.8799 256.41 70.1599 256.21C68.6299 256.1 67.9699 257.43 68.2799 258.82C68.9299 261.71 71.3999 264.38 73.7599 266.02C78.4399 269.28 84.6199 269.59 90.0099 268.22C95.2399 266.89 100.85 263.86 101.93 258.08C102 257.71 102.05 257.33 101.96 256.96C101.83 256.4 101.36 256 100.81 255.9Z" fill="white"/>
<path d="M84.02 271.36C79.67 271.36 75.63 270.2 72.41 267.96C69.07 265.63 66.66 262.41 65.97 259.34C65.62 257.79 65.96 256.3 66.88 255.23C67.73 254.25 68.96 253.76 70.33 253.86C72.37 254.01 74.17 254.87 75.76 255.63C76.73 256.1 77.65 256.53 78.52 256.77C84.7 258.43 90.55 256.84 95.94 254.87C96.19 254.78 96.47 254.65 96.76 254.53C98.01 253.98 99.57 253.29 101.24 253.59C102.75 253.87 103.94 254.99 104.27 256.46C104.45 257.26 104.36 257.99 104.25 258.53C103.17 264.3 98.32 268.56 90.59 270.52C88.37 271.08 86.16 271.36 84.02 271.36ZM70.68 258.67C71.33 260.83 73.36 262.86 75.11 264.08C78.78 266.63 84 267.31 89.43 265.93C92.62 265.12 97.97 263.1 99.39 258.51C99.12 258.62 98.86 258.73 98.67 258.82C98.31 258.98 97.93 259.15 97.56 259.28C91.73 261.41 84.76 263.32 77.29 261.31C76.01 260.97 74.85 260.41 73.73 259.87C72.66 259.36 71.64 258.87 70.69 258.66L70.68 258.67Z" fill="#ED1C24"/>
<path d="M71.21 223.21C70.13 222.76 69.99 221.28 70.96 220.64C74.46 218.35 82.48 214.14 96.56 212.01C111.93 209.69 128.96 230.22 135.97 239.78C136.85 240.97 135.59 242.56 134.23 241.99C130.55 240.46 125.83 239.19 123.6 241.49C120.85 244.33 117.19 249.37 115.23 252.15C114.61 253.04 113.27 252.96 112.75 252C110.33 247.57 104.12 237.49 95.98 233.83C87.86 230.17 76.18 225.28 71.21 223.21Z" fill="#6DBE45"/>
<path d="M114.04 253.02C114.04 253.02 113.97 253.02 113.94 253.02C113.34 252.99 112.81 252.65 112.52 252.12C110.22 247.91 103.99 237.72 95.88 234.06C87.74 230.39 75.85 225.42 71.11 223.45C70.52 223.2 70.11 222.65 70.05 222.02C69.99 221.38 70.28 220.78 70.82 220.43C74.36 218.11 82.42 213.89 96.52 211.76C112.14 209.4 129.46 230.47 136.18 239.63C136.65 240.27 136.64 241.09 136.15 241.71C135.66 242.34 134.86 242.54 134.13 242.24C130.59 240.76 125.93 239.47 123.79 241.68C121.04 244.51 117.38 249.55 115.44 252.31C115.11 252.77 114.6 253.04 114.04 253.04V253.02ZM99.01 212.09C98.2 212.09 97.4 212.15 96.61 212.27C82.6 214.39 74.62 218.56 71.12 220.86C70.74 221.11 70.55 221.52 70.59 221.97C70.63 222.42 70.91 222.79 71.33 222.97C76.07 224.94 87.96 229.92 96.11 233.59C104.37 237.31 110.67 247.62 113 251.88C113.2 252.25 113.57 252.48 113.99 252.51C114.4 252.53 114.79 252.34 115.03 252C116.98 249.23 120.66 244.16 123.43 241.31C125.78 238.89 130.66 240.22 134.35 241.76C134.97 242.02 135.5 241.73 135.76 241.39C136.02 241.06 136.18 240.48 135.78 239.94C129.46 231.32 113.7 212.1 99.02 212.1L99.01 212.09Z" fill="#446D31"/>
<g style="mix-blend-mode:color-dodge" opacity="0.57">
<path d="M85.3599 216.26C89.5899 215.54 93.8999 215.2 98.1899 215.35C100.34 215.42 102.49 215.62 104.61 216.02C106.78 216.44 108.91 217.06 110.97 217.84C112.95 218.59 114.92 219.46 116.74 220.55C116.98 220.69 117.21 220.85 117.45 221C110.83 215.72 103.44 211.98 96.3999 213.05C88.5199 214.24 82.5399 216.09 78.1899 217.88C80.5499 217.21 82.9499 216.67 85.3699 216.26H85.3599Z" fill="white"/>
</g>
<g style="mix-blend-mode:multiply">
<path d="M135.68 239.37C134.13 238.02 132.28 236.98 130.45 236.28C127.83 235.28 125.09 234.73 122.28 234.75C120.89 234.76 119.55 234.97 118.18 235.24C116.87 235.5 115.55 235.78 114.21 235.84C113 235.89 111.85 235.69 110.74 235.2C109.64 234.72 108.65 234.03 107.69 233.31C105.6 231.75 103.46 230.3 101.21 228.98C96.4499 226.18 91.3599 224.1 86.0199 222.72C81.3299 221.51 76.54 220.79 71.75 220.15C71.47 220.32 71.21 220.48 70.98 220.64C70 221.28 70.15 222.76 71.23 223.21C76.2 225.28 87.88 230.17 96 233.83C104.14 237.5 110.35 247.58 112.77 252C113.29 252.95 114.62 253.03 115.25 252.15C117.21 249.37 120.87 244.32 123.62 241.49C125.85 239.19 130.57 240.46 134.25 241.99C135.62 242.56 136.87 240.98 135.99 239.78C135.89 239.65 135.79 239.51 135.69 239.37H135.68Z" fill="#6DBE45"/>
</g>
<g style="mix-blend-mode:multiply" opacity="0.2">
<path d="M106.49 250.97C106 251 105.47 251.29 105.25 251.75C104.92 252.46 105.23 253.43 105.96 253.77C106.32 253.95 106.7 253.99 107.09 253.86C107.22 253.82 107.34 253.74 107.45 253.64C107.49 253.61 107.53 253.59 107.57 253.55C107.77 253.39 107.91 253.14 107.97 252.89C108.07 252.48 108.04 252.07 107.86 251.69C107.61 251.17 107.04 250.93 106.49 250.97Z" fill="#BF8144"/>
</g>
<g style="mix-blend-mode:multiply" opacity="0.2">
<path d="M86.14 247.83C86.08 247.79 86 247.77 85.93 247.78C85.87 247.78 85.82 247.81 85.78 247.85C85.73 247.88 85.69 247.92 85.67 247.98C85.63 248.06 85.6 248.14 85.6 248.24C85.6 248.27 85.6 248.31 85.6 248.34C85.6 248.36 85.6 248.37 85.6 248.39C85.6 248.39 85.6 248.4 85.6 248.41C85.6 248.42 85.6 248.44 85.6 248.45C85.6 248.5 85.6 248.55 85.6 248.6C85.61 248.65 85.62 248.7 85.63 248.75C85.65 248.8 85.67 248.84 85.69 248.89L85.77 249C85.81 249.05 85.86 249.09 85.92 249.1C85.95 249.12 85.99 249.13 86.03 249.13C86.07 249.13 86.11 249.13 86.14 249.12C86.17 249.12 86.19 249.1 86.21 249.08C86.26 249.08 86.31 249.08 86.36 249.05C86.41 249.03 86.44 248.99 86.47 248.95C86.51 248.91 86.53 248.86 86.54 248.8C86.56 248.72 86.57 248.63 86.56 248.55C86.56 248.51 86.56 248.46 86.55 248.42C86.55 248.31 86.51 248.2 86.45 248.11C86.4 248.03 86.33 247.95 86.25 247.9C86.21 247.88 86.17 247.86 86.13 247.84L86.14 247.83Z" fill="#BF8144"/>
</g>
<g style="mix-blend-mode:multiply" opacity="0.2">
<path d="M83.9401 242.71C83.3401 242.71 82.9301 243.28 82.8601 243.83C82.8201 244.14 82.9201 244.48 83.1401 244.71C83.2801 244.86 83.4701 244.96 83.6701 245C83.8001 245.03 83.9301 245.04 84.0601 245.03C84.2101 245.09 84.3701 245.12 84.5301 245.08C85.1501 244.93 85.3001 244.18 85.1601 243.64C85.0801 243.35 84.8901 243.11 84.6601 242.93C84.4501 242.78 84.2101 242.71 83.9501 242.71H83.9401Z" fill="#BF8144"/>
</g>
<g style="mix-blend-mode:multiply" opacity="0.2">
<path d="M88.3201 239.56C88.3201 239.56 88.2501 239.53 88.2201 239.52H88.1101C88.1101 239.52 88.0401 239.54 88.0001 239.55C87.9501 239.58 87.9001 239.62 87.8701 239.67C87.8401 239.7 87.8201 239.74 87.8101 239.78C87.7901 239.82 87.7801 239.86 87.7701 239.91C87.7601 239.96 87.7501 240.01 87.7601 240.05C87.7601 240.1 87.7601 240.14 87.7701 240.19C87.7701 240.21 87.7501 240.23 87.7501 240.26C87.7501 240.28 87.7401 240.3 87.7301 240.32C87.7101 240.42 87.6901 240.51 87.6901 240.61C87.6901 240.72 87.6901 240.83 87.7301 240.94C87.7601 241.04 87.8101 241.12 87.8801 241.2C87.9601 241.29 88.0801 241.35 88.2001 241.34C88.2001 241.34 88.2001 241.34 88.2101 241.34C88.2601 241.35 88.3201 241.35 88.3701 241.36C88.4401 241.36 88.5101 241.34 88.5801 241.32C88.5901 241.32 88.6001 241.32 88.6101 241.31C88.6101 241.31 88.6201 241.31 88.6301 241.31C88.6301 241.31 88.6201 241.31 88.6101 241.31C88.6201 241.31 88.6401 241.31 88.6501 241.29C88.6801 241.27 88.7101 241.24 88.7501 241.22C88.7601 241.21 88.7801 241.2 88.7901 241.18C88.8601 241.09 88.9201 241.01 88.9401 240.9C88.9501 240.85 88.9601 240.8 88.9701 240.75C88.9701 240.74 88.9701 240.73 88.9701 240.72C88.9701 240.66 88.9701 240.59 88.9701 240.52C88.9601 240.45 88.9501 240.38 88.9201 240.32C88.8901 240.26 88.8701 240.19 88.8301 240.13C88.7901 240.06 88.7401 240 88.6901 239.94C88.6601 239.91 88.6301 239.88 88.6001 239.85C88.5201 239.74 88.4201 239.64 88.3101 239.56H88.3201Z" fill="#BF8144"/>
</g>
<g style="mix-blend-mode:multiply" opacity="0.2">
<path d="M80.37 234.27C79.73 234.51 79.58 235.27 79.7 235.88C79.71 235.93 79.72 235.98 79.73 236.02C79.73 236.03 79.73 236.05 79.74 236.06C79.85 236.42 80.1 236.71 80.45 236.85C80.49 236.86 80.52 236.87 80.56 236.88C80.67 236.93 80.79 236.98 80.91 237C81.42 237.11 81.94 236.95 82.21 236.48C82.42 236.12 82.46 235.69 82.36 235.29C82.28 234.96 82.07 234.69 81.81 234.49C81.41 234.17 80.83 234.08 80.35 234.26L80.37 234.27Z" fill="#BF8144"/>
</g>
<g style="mix-blend-mode:multiply" opacity="0.2">
<path d="M77.79 238.57C77.79 238.57 77.7 238.57 77.66 238.57C77.57 238.57 77.51 238.61 77.45 238.66C77.43 238.67 77.41 238.69 77.39 238.7C77.35 238.72 77.31 238.75 77.27 238.79C77.25 238.8 77.23 238.82 77.21 238.83C77.13 238.88 77.07 238.94 77.02 239.03C77.02 239.03 77.02 239.05 77.01 239.06C77.01 239.08 76.99 239.09 76.98 239.11C76.94 239.17 76.92 239.24 76.92 239.3C76.9 239.37 76.9 239.45 76.92 239.52L76.95 239.67C76.97 239.74 77 239.8 77.05 239.85C77.07 239.89 77.1 239.92 77.14 239.94C77.18 239.98 77.23 240.01 77.29 240.02C77.31 240.02 77.33 240.02 77.34 240.03C77.44 240.05 77.53 240.05 77.62 240C77.65 239.98 77.69 239.96 77.72 239.94C77.77 239.91 77.81 239.87 77.86 239.83C77.86 239.83 77.87 239.82 77.88 239.81C77.91 239.77 77.94 239.72 77.97 239.68C77.99 239.65 78.01 239.61 78.03 239.58C78.03 239.56 78.05 239.55 78.06 239.53C78.08 239.48 78.11 239.44 78.12 239.39C78.15 239.27 78.15 239.2 78.14 239.08C78.14 238.97 78.11 238.86 78.05 238.77C78 238.68 77.9 238.59 77.8 238.57H77.79Z" fill="#BF8144"/>
</g>
<path d="M114.09 258.85C112.65 258.85 111.28 258 110.7 256.59C100.5 232.04 67.6599 226.49 67.3299 226.43C65.3299 226.11 63.9699 224.23 64.2899 222.22C64.6099 220.22 66.4899 218.85 68.4899 219.17C68.8699 219.23 77.8799 220.7 88.3799 225.61C102.51 232.21 112.57 241.95 117.48 253.77C118.26 255.64 117.37 257.79 115.5 258.57C115.04 258.76 114.56 258.85 114.09 258.85Z" fill="#FE0000"/>
<path d="M114.09 259.11C112.49 259.11 111.07 258.16 110.46 256.68C100.32 232.27 67.62 226.73 67.29 226.68C65.15 226.34 63.69 224.31 64.03 222.17C64.2 221.13 64.76 220.22 65.61 219.6C66.46 218.99 67.5 218.74 68.53 218.91C68.91 218.97 77.94 220.44 88.49 225.37C102.68 232 112.79 241.78 117.73 253.66C118.56 255.66 117.61 257.97 115.61 258.8C115.13 259 114.62 259.1 114.1 259.1L114.09 259.11ZM67.89 219.39C67.18 219.39 66.49 219.61 65.91 220.03C65.17 220.56 64.68 221.36 64.54 222.26C64.24 224.11 65.51 225.87 67.37 226.17C67.7 226.22 100.69 231.81 110.94 256.49C111.47 257.77 112.71 258.59 114.09 258.59C114.54 258.59 114.98 258.5 115.4 258.33C117.14 257.61 117.96 255.61 117.24 253.87C112.35 242.11 102.33 232.42 88.27 225.85C77.79 220.95 68.82 219.5 68.45 219.44C68.27 219.41 68.08 219.4 67.9 219.4L67.89 219.39Z" fill="#B40000"/>
<path d="M139.62 241.07C139.62 243.09 137.98 244.73 135.96 244.73C133.94 244.73 132.3 243.09 132.3 241.07C132.3 239.05 133.94 237.41 135.96 237.41C137.98 237.41 139.62 239.05 139.62 241.07Z" fill="#FE0000"/>
<path d="M135.96 244.99C133.8 244.99 132.04 243.23 132.04 241.07C132.04 238.91 133.8 237.15 135.96 237.15C138.12 237.15 139.88 238.91 139.88 241.07C139.88 243.23 138.12 244.99 135.96 244.99ZM135.96 237.68C134.09 237.68 132.57 239.2 132.57 241.07C132.57 242.94 134.09 244.46 135.96 244.46C137.83 244.46 139.35 242.94 139.35 241.07C139.35 239.2 137.83 237.68 135.96 237.68Z" fill="#B40000"/>
<path d="M136.44 239.97C136.44 240.65 135.89 241.2 135.21 241.2C134.53 241.2 133.98 240.65 133.98 239.97C133.98 239.29 134.53 238.74 135.21 238.74C135.89 238.74 136.44 239.29 136.44 239.97Z" fill="white"/>
<rect x="21" y="278" width="126" height="50" rx="11" fill="#E4EFFF"/>
<rect x="21" y="278" width="126" height="50" rx="11" stroke="#1B71F6" stroke-width="2"/>
<path d="M46.4957 309H44.6321L48.8196 297.364H50.848L55.0355 309H53.1719L49.8821 299.477H49.7912L46.4957 309ZM46.8082 304.443H52.8537V305.92H46.8082V304.443ZM62.9517 300.273L59.7869 309H57.9688L54.7983 300.273H56.6222L58.8324 306.989H58.9233L61.1278 300.273H62.9517ZM66.8381 309.193C66.285 309.193 65.785 309.091 65.3381 308.886C64.8911 308.678 64.5369 308.377 64.2756 307.983C64.018 307.589 63.8892 307.106 63.8892 306.534C63.8892 306.042 63.9839 305.636 64.1733 305.318C64.3627 305 64.6184 304.748 64.9403 304.562C65.2623 304.377 65.6222 304.237 66.0199 304.142C66.4176 304.047 66.8229 303.975 67.2358 303.926C67.7585 303.866 68.1828 303.816 68.5085 303.778C68.8343 303.737 69.071 303.67 69.2188 303.58C69.3665 303.489 69.4403 303.341 69.4403 303.136V303.097C69.4403 302.6 69.3002 302.216 69.0199 301.943C68.7434 301.67 68.3305 301.534 67.7812 301.534C67.2093 301.534 66.7585 301.661 66.429 301.915C66.1032 302.165 65.8778 302.443 65.7528 302.75L64.1562 302.386C64.3456 301.856 64.6222 301.428 64.9858 301.102C65.3532 300.773 65.7756 300.534 66.2528 300.386C66.7301 300.235 67.232 300.159 67.7585 300.159C68.107 300.159 68.4763 300.201 68.8665 300.284C69.2604 300.364 69.6278 300.511 69.9688 300.727C70.3134 300.943 70.5956 301.252 70.8153 301.653C71.035 302.051 71.1449 302.568 71.1449 303.205V309H69.4858V307.807H69.4176C69.3078 308.027 69.143 308.242 68.9233 308.455C68.7036 308.667 68.4214 308.843 68.0767 308.983C67.732 309.123 67.3191 309.193 66.8381 309.193ZM67.2074 307.83C67.6771 307.83 68.0786 307.737 68.4119 307.551C68.7491 307.366 69.0047 307.123 69.179 306.824C69.357 306.521 69.446 306.197 69.446 305.852V304.727C69.3854 304.788 69.268 304.845 69.0938 304.898C68.9233 304.947 68.7282 304.991 68.5085 305.028C68.2888 305.062 68.0748 305.095 67.8665 305.125C67.6581 305.152 67.4839 305.174 67.3438 305.193C67.0142 305.235 66.7131 305.305 66.4403 305.403C66.1714 305.502 65.9555 305.644 65.7926 305.83C65.6335 306.011 65.554 306.254 65.554 306.557C65.554 306.977 65.7093 307.295 66.0199 307.511C66.3305 307.723 66.7263 307.83 67.2074 307.83ZM73.4077 309V300.273H75.1065V309H73.4077ZM74.2656 298.926C73.9702 298.926 73.7164 298.828 73.5043 298.631C73.2959 298.43 73.1918 298.191 73.1918 297.915C73.1918 297.634 73.2959 297.396 73.5043 297.199C73.7164 296.998 73.9702 296.898 74.2656 296.898C74.5611 296.898 74.813 296.998 75.0213 297.199C75.2334 297.396 75.3395 297.634 75.3395 297.915C75.3395 298.191 75.2334 298.43 75.0213 298.631C74.813 298.828 74.5611 298.926 74.2656 298.926ZM79.0909 297.364V309H77.392V297.364H79.0909ZM95.8551 303.182C95.8551 304.424 95.6278 305.492 95.1733 306.386C94.7188 307.277 94.0956 307.962 93.304 308.443C92.5161 308.92 91.6203 309.159 90.6165 309.159C89.6089 309.159 88.7093 308.92 87.9176 308.443C87.1297 307.962 86.5085 307.275 86.054 306.381C85.5994 305.487 85.3722 304.42 85.3722 303.182C85.3722 301.939 85.5994 300.873 86.054 299.983C86.5085 299.089 87.1297 298.403 87.9176 297.926C88.7093 297.445 89.6089 297.205 90.6165 297.205C91.6203 297.205 92.5161 297.445 93.304 297.926C94.0956 298.403 94.7188 299.089 95.1733 299.983C95.6278 300.873 95.8551 301.939 95.8551 303.182ZM94.1165 303.182C94.1165 302.235 93.9631 301.437 93.6562 300.79C93.3532 300.138 92.9366 299.646 92.4062 299.312C91.8797 298.975 91.2831 298.807 90.6165 298.807C89.946 298.807 89.3475 298.975 88.821 299.312C88.2945 299.646 87.8778 300.138 87.571 300.79C87.268 301.437 87.1165 302.235 87.1165 303.182C87.1165 304.129 87.268 304.928 87.571 305.58C87.8778 306.227 88.2945 306.72 88.821 307.057C89.3475 307.39 89.946 307.557 90.6165 307.557C91.2831 307.557 91.8797 307.39 92.4062 307.057C92.9366 306.72 93.3532 306.227 93.6562 305.58C93.9631 304.928 94.1165 304.129 94.1165 303.182ZM102.061 300.273V301.636H97.1293V300.273H102.061ZM98.4815 309V299.261C98.4815 298.716 98.6009 298.263 98.8395 297.903C99.0781 297.54 99.3944 297.269 99.7884 297.091C100.182 296.909 100.61 296.818 101.072 296.818C101.413 296.818 101.705 296.847 101.947 296.903C102.19 296.956 102.37 297.006 102.487 297.051L102.089 298.426C102.01 298.403 101.908 298.377 101.783 298.347C101.658 298.312 101.506 298.295 101.328 298.295C100.915 298.295 100.62 298.398 100.442 298.602C100.268 298.807 100.18 299.102 100.18 299.489V309H98.4815ZM107.967 300.273V301.636H103.036V300.273H107.967ZM104.388 309V299.261C104.388 298.716 104.507 298.263 104.746 297.903C104.984 297.54 105.301 297.269 105.695 297.091C106.089 296.909 106.517 296.818 106.979 296.818C107.32 296.818 107.611 296.847 107.854 296.903C108.096 296.956 108.276 297.006 108.393 297.051L107.996 298.426C107.916 298.403 107.814 298.377 107.689 298.347C107.564 298.312 107.412 298.295 107.234 298.295C106.821 298.295 106.526 298.398 106.348 298.602C106.174 298.807 106.087 299.102 106.087 299.489V309H104.388ZM113.138 309.176C112.278 309.176 111.537 308.992 110.916 308.625C110.299 308.254 109.821 307.733 109.484 307.062C109.151 306.388 108.984 305.598 108.984 304.693C108.984 303.799 109.151 303.011 109.484 302.33C109.821 301.648 110.291 301.116 110.893 300.733C111.5 300.35 112.208 300.159 113.018 300.159C113.511 300.159 113.988 300.241 114.45 300.403C114.912 300.566 115.327 300.822 115.695 301.17C116.062 301.519 116.352 301.972 116.564 302.528C116.776 303.081 116.882 303.754 116.882 304.545V305.148H109.945V303.875H115.217C115.217 303.428 115.126 303.032 114.945 302.688C114.763 302.339 114.507 302.064 114.178 301.864C113.852 301.663 113.469 301.562 113.03 301.562C112.553 301.562 112.136 301.68 111.78 301.915C111.428 302.146 111.155 302.449 110.962 302.824C110.772 303.195 110.678 303.598 110.678 304.034V305.028C110.678 305.612 110.78 306.108 110.984 306.517C111.193 306.926 111.482 307.239 111.854 307.455C112.225 307.667 112.659 307.773 113.155 307.773C113.477 307.773 113.77 307.727 114.036 307.636C114.301 307.542 114.53 307.402 114.723 307.216C114.916 307.03 115.064 306.801 115.166 306.528L116.774 306.818C116.645 307.292 116.414 307.706 116.081 308.062C115.751 308.415 115.337 308.689 114.837 308.886C114.34 309.08 113.774 309.176 113.138 309.176ZM118.767 309V300.273H120.409V301.659H120.5C120.659 301.189 120.939 300.82 121.341 300.551C121.746 300.278 122.205 300.142 122.716 300.142C122.822 300.142 122.947 300.146 123.091 300.153C123.239 300.161 123.354 300.17 123.438 300.182V301.807C123.369 301.788 123.248 301.767 123.074 301.744C122.9 301.718 122.725 301.705 122.551 301.705C122.15 301.705 121.792 301.79 121.477 301.96C121.167 302.127 120.92 302.36 120.739 302.659C120.557 302.955 120.466 303.292 120.466 303.67V309H118.767Z" fill="#1B71F6"/>
<path d="M53.92 276.1C52.95 274.64 51.22 273.87 49.47 273.98L41 274.51C39.16 274.78 38.06 276.44 38.3 277.58C38.7 279.46 39.41 282.06 39.96 283.52C39.96 283.52 40.75 285.66 42.21 287.74C43.67 289.83 45.8 291.87 48.32 291.83C50.85 291.79 53.05 290.82 54.46 289.19C55.87 287.56 56.48 285.24 55.84 282.35C55.63 281.39 55.05 279.45 54.33 276.92C54.27 276.69 54.12 276.41 53.92 276.11V276.1Z" fill="#BF8144"/>
<path d="M53.92 276.1C52.95 274.64 51.22 273.87 49.47 273.98L41 274.51C39.16 274.78 38.06 276.44 38.3 277.58C38.7 279.46 39.41 282.06 39.96 283.52C39.96 283.52 40.75 285.66 42.21 287.74C43.67 289.83 45.8 291.87 48.32 291.83C50.85 291.79 53.05 290.82 54.46 289.19C55.87 287.56 56.48 285.24 55.84 282.35C55.63 281.39 55.05 279.45 54.33 276.92C54.27 276.69 54.12 276.41 53.92 276.11V276.1Z" stroke="#724A1D" stroke-width="0.8" stroke-miterlimit="10"/>
<g style="mix-blend-mode:multiply">
<path d="M45.18 281.8C44.5 282.06 44.4 282.92 44.3 283.84C44.25 284.35 44.19 284.92 44.03 285.37C44.03 285.39 44.02 285.4 44.01 285.42C43.66 285.36 42.71 284.47 42.01 283.53C41.78 283.21 41.36 283.14 41.09 283.38C40.81 283.61 40.78 284.06 41.01 284.38C41.6 285.18 43.12 287.01 44.3 286.84C44.56 286.8 45.03 286.64 45.26 285.94C45.46 285.34 45.52 284.68 45.59 284.1C45.62 283.83 45.66 283.45 45.72 283.22C45.79 283.27 45.9 283.35 46.04 283.47L46.36 283.75C47.42 284.68 48.13 285.29 48.88 285.05C49.53 284.85 49.84 284.12 50.11 283.09C50.16 282.9 50.19 282.68 50.23 282.45C50.27 282.16 50.39 281.39 50.57 281.33C50.73 281.28 51.18 281.7 51.45 281.95C51.79 282.27 52.15 282.61 52.55 282.75C53.04 282.93 53.39 282.79 53.59 282.65C54.2 282.22 54.24 281.28 54.28 280.45C54.29 280.22 54.3 279.99 54.33 279.87C54.4 279.51 54.16 279.15 53.81 279.07C53.46 278.99 53.12 279.22 53.05 279.58C53.01 279.79 53 280.06 52.98 280.34C52.96 280.63 52.94 281.18 52.86 281.44C52.71 281.35 52.49 281.14 52.3 280.96C51.76 280.45 51.02 279.74 50.14 280.02C49.23 280.31 49.05 281.43 48.94 282.17C48.91 282.36 48.88 282.54 48.85 282.66C48.65 283.4 48.51 283.64 48.45 283.71C48.22 283.63 47.65 283.14 47.15 282.7L46.83 282.42C46.41 282.05 45.78 281.58 45.18 281.81V281.8Z" fill="#BF8144"/>
</g>
<path d="M45.39 282.38C44.71 282.64 44.61 283.5 44.51 284.43C44.46 284.94 44.4 285.52 44.25 285.97C44.25 285.99 44.24 286.01 44.23 286.02C43.88 285.96 42.92 285.08 42.22 284.13C41.99 283.81 41.57 283.75 41.3 283.98C41.02 284.21 40.99 284.66 41.23 284.98C41.82 285.78 43.35 287.61 44.53 287.44C44.79 287.4 45.26 287.23 45.49 286.53C45.68 285.93 45.75 285.27 45.81 284.69C45.84 284.42 45.88 284.04 45.93 283.81C46 283.86 46.11 283.94 46.25 284.06L46.57 284.34C47.64 285.27 48.35 285.87 49.1 285.64C49.75 285.44 50.05 284.7 50.32 283.67C50.37 283.48 50.4 283.26 50.44 283.03C50.48 282.74 50.6 281.97 50.78 281.9C50.94 281.84 51.39 282.27 51.66 282.52C52 282.84 52.36 283.17 52.76 283.32C53.25 283.49 53.6 283.36 53.8 283.21C54.41 282.78 54.44 281.84 54.48 281.01C54.49 280.78 54.5 280.55 54.52 280.43C54.58 280.07 54.35 279.71 54 279.64C53.65 279.56 53.31 279.79 53.24 280.15C53.2 280.36 53.19 280.63 53.18 280.91C53.17 281.2 53.14 281.75 53.06 282.01C52.91 281.92 52.68 281.71 52.5 281.54C51.96 281.03 51.22 280.32 50.34 280.61C49.44 280.9 49.25 282.02 49.14 282.77C49.11 282.96 49.08 283.14 49.05 283.26C48.85 284 48.71 284.24 48.65 284.31C48.42 284.23 47.85 283.74 47.34 283.3L47.02 283.02C46.6 282.65 45.97 282.19 45.36 282.42L45.39 282.38Z" fill="white"/>
<path d="M115.53 276.1C116.5 274.64 118.23 273.87 119.98 273.98L128.45 274.51C130.29 274.78 131.39 276.44 131.15 277.58C130.75 279.46 130.04 282.06 129.49 283.52C129.49 283.52 128.7 285.66 127.24 287.74C125.78 289.83 123.65 291.87 121.13 291.83C118.6 291.79 116.4 290.82 114.99 289.19C113.58 287.56 112.97 285.24 113.61 282.35C113.82 281.39 114.4 279.45 115.12 276.92C115.18 276.69 115.33 276.41 115.53 276.11V276.1Z" fill="#BF8144"/>
<path d="M115.53 276.1C116.5 274.64 118.23 273.87 119.98 273.98L128.45 274.51C130.29 274.78 131.39 276.44 131.15 277.58C130.75 279.46 130.04 282.06 129.49 283.52C129.49 283.52 128.7 285.66 127.24 287.74C125.78 289.83 123.65 291.87 121.13 291.83C118.6 291.79 116.4 290.82 114.99 289.19C113.58 287.56 112.97 285.24 113.61 282.35C113.82 281.39 114.4 279.45 115.12 276.92C115.18 276.69 115.33 276.41 115.53 276.11V276.1Z" stroke="#724A1D" stroke-width="0.8" stroke-miterlimit="10"/>
<g style="mix-blend-mode:multiply">
<path d="M124.27 281.8C124.95 282.06 125.05 282.92 125.15 283.84C125.2 284.35 125.26 284.92 125.42 285.37C125.42 285.39 125.43 285.4 125.44 285.42C125.79 285.36 126.74 284.47 127.44 283.53C127.67 283.21 128.09 283.14 128.36 283.38C128.64 283.61 128.67 284.06 128.44 284.38C127.85 285.18 126.33 287.01 125.15 286.84C124.89 286.8 124.42 286.64 124.19 285.94C123.99 285.34 123.93 284.68 123.86 284.1C123.83 283.83 123.79 283.45 123.73 283.22C123.66 283.27 123.55 283.35 123.41 283.47L123.09 283.75C122.03 284.68 121.32 285.29 120.57 285.05C119.92 284.85 119.61 284.12 119.34 283.09C119.29 282.9 119.26 282.68 119.22 282.45C119.18 282.16 119.06 281.39 118.88 281.33C118.72 281.28 118.27 281.7 118 281.95C117.66 282.27 117.3 282.61 116.9 282.75C116.41 282.93 116.06 282.79 115.86 282.65C115.25 282.22 115.21 281.28 115.17 280.45C115.16 280.22 115.15 279.99 115.12 279.87C115.05 279.51 115.29 279.15 115.64 279.07C115.99 278.99 116.33 279.22 116.4 279.58C116.44 279.79 116.45 280.06 116.47 280.34C116.49 280.63 116.51 281.18 116.59 281.44C116.74 281.35 116.96 281.14 117.15 280.96C117.69 280.45 118.43 279.74 119.31 280.02C120.22 280.31 120.4 281.43 120.51 282.17C120.54 282.36 120.57 282.54 120.6 282.66C120.8 283.4 120.94 283.64 121 283.71C121.23 283.63 121.8 283.14 122.3 282.7L122.62 282.42C123.04 282.05 123.67 281.58 124.27 281.81V281.8Z" fill="#BF8144"/>
</g>
<path d="M124.05 282.38C124.73 282.64 124.83 283.5 124.93 284.43C124.98 284.94 125.04 285.52 125.19 285.97C125.19 285.99 125.2 286.01 125.21 286.02C125.56 285.96 126.52 285.08 127.22 284.13C127.45 283.81 127.87 283.75 128.14 283.98C128.42 284.21 128.45 284.66 128.21 284.98C127.62 285.78 126.09 287.61 124.91 287.44C124.65 287.4 124.18 287.23 123.95 286.53C123.76 285.93 123.69 285.27 123.63 284.69C123.6 284.42 123.56 284.04 123.51 283.81C123.44 283.86 123.33 283.94 123.19 284.06L122.87 284.34C121.8 285.27 121.09 285.87 120.34 285.64C119.69 285.44 119.39 284.7 119.12 283.67C119.07 283.48 119.04 283.26 119 283.03C118.96 282.74 118.84 281.97 118.66 281.9C118.5 281.84 118.05 282.27 117.78 282.52C117.44 282.84 117.08 283.17 116.68 283.32C116.19 283.49 115.84 283.36 115.64 283.21C115.03 282.78 115 281.84 114.96 281.01C114.95 280.78 114.94 280.55 114.92 280.43C114.86 280.07 115.09 279.71 115.44 279.64C115.79 279.56 116.13 279.79 116.2 280.15C116.24 280.36 116.25 280.63 116.26 280.91C116.27 281.2 116.3 281.75 116.38 282.01C116.53 281.92 116.76 281.71 116.94 281.54C117.48 281.03 118.22 280.32 119.1 280.61C120 280.9 120.19 282.02 120.3 282.77C120.33 282.96 120.36 283.14 120.39 283.26C120.59 284 120.73 284.24 120.79 284.31C121.02 284.23 121.59 283.74 122.1 283.3L122.42 283.02C122.84 282.65 123.47 282.19 124.08 282.42L124.05 282.38Z" fill="white"/>
</svg>
