<svg width="170" height="133" viewBox="0 0 170 133" fill="none" xmlns="http://www.w3.org/2000/svg">
<path opacity="0.5" d="M84.6547 132.101C131.408 132.101 169.309 110.219 169.309 83.2257C169.309 56.2325 131.408 34.3502 84.6547 34.3502C37.9012 34.3502 0 56.2325 0 83.2257C0 110.219 37.9012 132.101 84.6547 132.101Z" fill="url(#paint0_radial_1_1956)"/>
<path d="M121.243 87.778C121.243 88.7965 120.417 89.6225 119.398 89.6225C118.38 89.6225 117.554 88.7965 117.554 87.778C117.554 86.7595 118.38 85.9335 119.398 85.9335C120.417 85.9335 121.243 86.7591 121.243 87.778Z" fill="#24126A"/>
<path d="M139.406 67.1724C139.406 68.1909 138.58 69.0169 137.562 69.0169C136.543 69.0169 135.717 68.1913 135.717 67.1724C135.717 66.1539 136.543 65.3279 137.562 65.3279C138.58 65.3279 139.406 66.1535 139.406 67.1724Z" fill="#24126A"/>
<path d="M143.381 81.2541C143.381 82.2726 142.555 83.0986 141.537 83.0986C140.518 83.0986 139.692 82.273 139.692 81.2541C139.692 80.2355 140.518 79.4095 141.537 79.4095C142.556 79.4099 143.381 80.2355 143.381 81.2541Z" fill="#24126A"/>
<path d="M103.528 77.7784C103.528 78.7969 102.702 79.6229 101.683 79.6229C100.665 79.6229 99.8389 78.7973 99.8389 77.7784C99.8389 76.7594 100.665 75.9338 101.683 75.9338C102.702 75.9338 103.528 76.7594 103.528 77.7784Z" fill="#24126A"/>
<path d="M114.929 65.3182C114.929 66.3371 114.103 67.1627 113.084 67.1627C112.066 67.1627 111.24 66.3371 111.24 65.3182C111.24 64.2996 112.065 63.4736 113.084 63.4736C114.103 63.4736 114.929 64.2996 114.929 65.3182Z" fill="#24126A"/>
<path d="M122.017 72.1492L101.739 76.0546C101.653 76.0624 101.57 76.0765 101.49 76.0925L101.508 75.9583L100.533 75.7122V76.863L100.538 76.8634C100.537 76.9084 100.539 76.9534 100.551 76.9988C100.675 77.4491 101.407 77.7563 102.187 77.6847L122.464 73.7793L122.017 72.1492Z" fill="url(#paint1_linear_1_1956)"/>
<path d="M138.998 65.1938L138.381 65.7139C137.85 65.483 137.036 65.5354 136.481 65.8559L122.039 72.1419L124.061 73.3091L138.502 67.0231C138.841 66.8275 139.003 66.5755 138.991 66.3387L138.998 66.3415V65.1938Z" fill="url(#paint2_linear_1_1956)"/>
<path d="M114.448 63.7902C114.089 63.3841 113.229 63.2225 112.525 63.4295C112.441 63.4541 112.365 63.4834 112.293 63.5155C112.259 63.4604 112.219 63.4017 112.169 63.352C112.041 63.2236 111.745 63.0483 111.745 63.0483L111.744 64.194C111.744 64.194 111.749 64.1905 111.75 64.1901C111.756 64.3083 111.802 64.4272 111.901 64.5395L121.221 73.0492L123.768 72.2999L114.448 63.7902Z" fill="url(#paint3_linear_1_1956)"/>
<path d="M142.859 79.305L142.516 79.4255L142.32 79.834C142.246 79.8 142.165 79.7698 142.078 79.744L123.786 72.3112L122.488 73.782L140.78 81.2149C141.484 81.4219 142.345 81.2602 142.703 80.8541C142.811 80.7312 142.855 80.6002 142.853 80.471L142.859 80.4765V79.305Z" fill="url(#paint4_linear_1_1956)"/>
<path d="M121.224 73.0652L118.22 85.935L117.995 85.8203L117.995 87.0094L117.999 87.004C118.04 87.3815 118.526 87.7059 119.201 87.7677C119.98 87.839 120.713 87.5318 120.836 87.0818L124.047 73.3234L121.224 73.0652Z" fill="url(#paint5_linear_1_1956)"/>
<path d="M142.082 78.5984L125.116 71.7047L138.504 65.8773C139.104 65.531 139.169 65.0071 138.65 64.707L138.509 64.626C137.99 64.3262 137.082 64.3638 136.482 64.7101L123.094 70.5379L114.449 62.6449C114.09 62.2387 113.229 62.0771 112.526 62.2841C111.822 62.4911 111.543 62.988 111.901 63.3942L120.546 71.2868L101.739 74.9093C100.959 74.9806 100.428 75.4035 100.551 75.8535C100.675 76.3039 101.407 76.611 102.186 76.5394L120.993 72.9169L118.015 85.6779C117.891 86.1283 118.423 86.5509 119.203 86.6221C119.983 86.6933 120.715 86.3861 120.839 85.9362L123.817 73.1752L140.783 80.0692C141.487 80.2762 142.348 80.1146 142.706 79.7085C143.064 79.3023 142.785 78.8054 142.082 78.5984ZM123.298 71.7219L122.982 72.08L122.294 72.017L122.185 71.6198L122.806 71.4375L123.298 71.7219Z" fill="url(#paint6_linear_1_1956)"/>
<path d="M122.717 72.7777C121.9 72.7777 121.238 72.1152 121.238 71.2982V54.1697H124.196V71.2982C124.197 72.1152 123.534 72.7777 122.717 72.7777Z" fill="#24126A"/>
<path opacity="0.5" d="M99.9062 40.9675L99.5959 40.7883C98.4471 40.1251 98.5911 38.9665 99.9176 38.2007L109.269 32.8018C110.595 32.036 112.601 31.9527 113.75 32.6159L114.061 32.7951C115.209 33.4583 115.065 34.6169 113.739 35.3827L104.388 40.7816C103.062 41.5474 101.055 41.6307 99.9062 40.9675Z" fill="url(#paint7_linear_1_1956)"/>
<path opacity="0.5" d="M114.836 33.8238L114.829 33.8261C114.794 33.4392 114.543 33.0733 114.061 32.7951L113.75 32.6159C112.601 31.9527 110.595 32.036 109.268 32.8018L99.9175 38.2007C99.2136 38.6069 98.8465 39.1238 98.825 39.6187L98.8203 39.6211V41.25L98.8231 41.2512C98.8223 41.673 99.0747 42.076 99.5959 42.3769L99.9061 42.5561C101.055 43.2193 103.061 43.136 104.388 42.3703L113.739 36.9713C114.42 36.5777 114.787 36.0807 114.829 35.6006L114.836 35.5979V33.8238Z" fill="url(#paint8_linear_1_1956)"/>
<path d="M119.715 48.501L100.128 59.7978C99.1581 60.3581 98.3712 59.7633 98.3712 58.4693C98.3712 57.1754 99.1581 55.6724 100.128 55.1121L122.566 42.1696V43.0546C122.566 45.1539 121.29 47.5924 119.715 48.501Z" fill="#515151"/>
<g opacity="0.5">
<path d="M121.157 0.234575L121.156 0.235357C120.475 -0.130495 119.6 -0.0827585 118.643 0.469737L118.058 0.807419C115.892 2.05797 114.137 5.41207 114.137 8.29976V47.0351L119.339 44.0312V45.2614L113.098 50.3473L98.9194 59.8536L118.848 71.1195L130.306 62.3011L136.832 56.7296L140.898 11.3987L121.157 0.234575Z" fill="url(#paint9_linear_1_1956)"/>
</g>
<path d="M106.555 64.1721C106.555 64.1721 106.025 62.769 107.072 61.7219C108.119 60.6748 113.629 58.3564 114.027 58.1072C114.426 57.8579 116.406 56.4 116.406 56.4L117.011 55.0477C117.011 55.0477 105.825 56.1378 105.675 56.3124C105.526 56.4869 100.44 61.0489 100.589 61.2484C100.739 61.448 104.095 62.2611 104.095 62.2611L104.743 63.1485L106.555 64.1721Z" fill="#2D2D2D"/>
<path d="M138.479 11.6825L137.894 12.0201C135.728 13.2707 133.973 16.6248 133.973 19.5125V58.2435L119.963 66.3248C118.993 66.8851 118.206 68.388 118.206 69.682C118.206 70.976 118.993 71.5707 119.963 71.0104L139.55 59.7136C141.124 58.8046 142.4 56.3665 142.4 54.2677V53.3822V14.6469C142.4 11.7592 140.644 10.4319 138.479 11.6825Z" fill="url(#paint10_linear_1_1956)"/>
<path d="M101.258 72.5625C101.258 72.5625 98.3724 74.4137 97.3965 75.5053C96.4207 76.597 94.4877 78.8297 95.2832 79.8936C96.0787 80.9575 98.7641 81.5523 101.65 78.8947C104.536 76.2367 103.716 76.0786 106.173 74.7611C108.631 73.4441 109.308 72.0104 109.013 71.1902C108.717 70.3705 107.502 68.9208 106.84 69.233C106.177 69.5457 101.258 72.5625 101.258 72.5625Z" fill="#160A5B"/>
<path d="M115.292 80.3384C115.292 80.3384 114.256 82.6184 113.722 83.3744C113.188 84.1303 110.6 88.4924 111.951 89.4956C113.303 90.4989 115.865 90.2207 117.89 88.0213C119.915 85.8218 120.366 83.1455 120.865 82.2662C121.364 81.387 122.608 79.0413 122.019 77.6886C121.429 76.3359 121.297 76.1019 121.297 76.1019L115.292 80.3384Z" fill="#160A5B"/>
<path d="M104.819 47.8766C104.819 47.8766 96.2443 56.337 94.8388 60.5852C94.8388 60.5852 94.2452 62.8801 95.9031 64.6808C97.5606 66.4811 101.08 72.3661 101.08 72.3661C101.08 72.3661 103.707 75.5437 107.098 73.0031C107.098 73.0031 108.632 70.5524 107.689 68.9235C106.747 67.2942 104.239 62.0901 104.239 62.0901C104.239 62.0901 109.737 58.3068 112.451 57.3512C115.165 56.3957 116.613 55.657 116.613 55.657C116.613 55.657 116.119 58.2175 114.134 60.7155C112.149 63.2139 108.825 67.2273 109.932 70.0207C111.038 72.8141 111.679 73.6788 112.72 75.2862C113.761 76.894 114.744 80.2481 115.631 80.5968C116.518 80.9454 120.618 81.3476 121.283 78.6779C121.948 76.0081 119.884 70.8189 118.955 69.064C118.955 69.064 130.044 56.2701 131.1 54.8638C132.155 53.4576 108.251 45.7066 104.819 47.8766Z" fill="#24126A"/>
<path d="M107.688 68.9231C106.745 67.2938 104.237 62.0897 104.237 62.0897C104.237 62.0897 109.735 58.3064 112.449 57.3509C115.163 56.3953 116.611 55.6566 116.611 55.6566C117.132 54.9386 118.816 52.1863 119.57 50.0088C113.316 48.1768 106.527 46.7955 104.817 47.8767C105.423 49.3745 108.611 49.3616 108.611 49.3616C108.611 49.3616 109.802 52.2598 110.592 52.63C111.381 53.0002 113.272 52.5952 113.272 52.5952C113.272 52.5952 112.966 53.0725 111.619 54.0453C110.271 55.018 101.833 61.9312 101.833 61.9312C101.833 61.9312 102.313 62.2052 104.56 66.2663C106.807 70.3275 107.097 73.0031 107.097 73.0031C107.097 73.0031 108.63 70.5521 107.688 68.9231Z" fill="#160A5B"/>
<path d="M126.638 52.3658C121.68 51.8927 115.907 51.8504 117.206 54.4541C119.41 58.8697 123.845 59.0673 123.845 59.0673C123.816 60.6892 117.013 68.5243 117.013 68.5243C117.013 68.5243 117.013 68.5243 118.598 71.6076C120.184 74.691 119.985 80.304 119.985 80.304C120.596 79.9702 121.082 79.4549 121.275 78.6778C121.94 76.008 119.877 70.8188 118.947 69.0639C118.947 69.0639 130.036 56.27 131.092 54.8637C131.405 54.447 129.526 53.4731 126.638 52.3658Z" fill="#160A5B"/>
<path d="M96.1466 25.324L97.4657 24.3008C97.4657 24.3008 104.575 20.3535 106.94 19.0744C108.221 18.3818 109.55 17.1438 110.5 16.1534C111.426 15.1885 112.709 14.6493 114.047 14.6427L126.502 14.5804C126.502 14.5804 127.953 16.9047 128.442 17.3625C128.801 17.699 132.181 20.5311 134.606 22.864C135.947 24.1548 136.922 25.7728 137.43 27.5637C138.818 32.4552 138.798 42.3117 139.008 49.3599C139.008 49.3599 138.149 49.6948 136.017 50.1507C133.898 50.6034 134.159 50.3138 134.159 50.3138C134.159 50.3138 130.981 57.4638 126.67 58.1548C122.359 58.8458 116.551 56.8291 115.515 50.0599C115.515 50.0599 107.109 48.8007 104.83 47.8648C104.619 47.7783 104.546 47.5201 104.683 47.3381C105.699 45.9886 109.489 40.7598 109.849 37.3525C110.266 33.4138 110.139 27.6967 109.826 26.1343C109.826 26.1343 103.488 28.5224 101.467 28.9457C101.467 28.9457 93.7512 37.4253 90.5278 39.7327C90.5278 39.7327 91.6316 37.9973 89.4142 36.8188L96.1466 25.324Z" fill="#453C9E"/>
<path d="M136.016 50.1508C136.34 50.0815 136.63 50.0158 136.896 49.9528L136.448 49.0732L124.755 47.8356L117.926 48.1881L115.578 50.4192C115.711 51.1439 115.897 51.8138 116.134 52.4273C116.146 52.4293 119.037 52.8452 120.379 52.558C121.722 52.2704 132.128 53.8007 132.15 53.8039C133.328 52.1119 134.059 50.5335 134.149 50.3351C134.14 50.3926 134.267 50.5249 136.016 50.1508Z" fill="#24126A"/>
<path d="M120.235 46.0666C120.222 46.0231 120.186 45.993 120.14 45.9918C119.577 45.9777 115.923 45.8698 114.542 45.3932C113.043 44.8759 111.456 44.971 111.375 45.0578C111.294 45.1447 108.8 46.2031 108.651 46.6335C108.519 47.0154 108.28 48.3388 108.61 48.8279C108.941 49.317 109.097 49.6441 109.097 49.6441L109.357 49.6715C109.357 49.6715 109.693 50.332 109.882 50.5652C109.966 50.6677 110.031 50.7804 110.087 50.9001C110.244 51.2405 110.521 51.802 110.636 51.8142C110.801 51.8318 111.574 51.9852 111.77 51.9343C111.931 51.8928 112.075 51.4025 112.009 51.1865C111.991 51.1275 112.021 51.0735 112.082 51.0633C112.437 51.0046 113.402 50.8829 114.736 51.0054C116.362 51.1549 118.659 50.0917 118.867 49.9939C118.878 49.9888 118.889 49.9861 118.901 49.9849L121.193 49.7779C121.259 49.772 121.302 49.7079 121.284 49.6449L120.235 46.0666Z" fill="#FCD1C5"/>
<path d="M117.474 21.9143C117.474 21.9143 115.524 29.1033 117.586 36.4908C117.586 36.4908 125.09 22.4926 125.904 20.2212C126.717 17.9494 127.013 16.3361 126.253 15.5206C125.492 14.7052 118.713 18.9186 118.713 18.9186L117.474 21.9143Z" fill="#F0F6FF"/>
<path d="M119.406 33.1879C119.406 33.1879 120.835 28.8137 120.587 27.4011C120.338 25.9886 119.982 24.9795 119.982 24.9795L121.271 23.7904L121.84 24.9689C121.84 24.9689 124.677 22.8873 124.865 22.4995C124.865 22.4995 122.58 24.0674 121.862 24.3022C121.862 24.3022 121.523 23.7407 121.073 23.5497C120.624 23.3588 119.506 24.8895 119.506 24.8895L119.297 27.5436L118.176 33.7341L118.565 34.6536L119.406 33.1879Z" fill="#C4CCD6"/>
<path d="M118.15 21.9961C118.15 21.9961 117.879 24.8204 118.113 25.0207C118.346 25.2207 119.221 25.2336 119.628 25.0058C120.034 24.7781 121.072 23.5495 121.072 23.5495C121.072 23.5495 119.803 21.3094 118.15 21.9961Z" fill="#24126A"/>
<path d="M119.681 24.5013C119.681 24.5013 120.445 26.4621 119.712 29.1725C118.98 31.883 118.698 34.4009 118.698 34.4009L117.583 36.4907C117.583 36.4907 116.193 32.4006 116.65 28.2921C116.855 26.4468 118.262 24.8132 118.262 24.8132L119.681 24.5013Z" fill="#24126A"/>
<path d="M113.967 10.4507C113.967 10.4507 113.623 12.1986 113.747 12.5304C113.871 12.8622 114.314 13.0841 114.206 13.7657C114.098 14.4473 114.491 16.4843 114.694 17.1628C114.694 17.1628 114.546 17.8879 114.749 18.1125C114.952 18.3371 115.216 18.3292 115.407 18.672C115.597 19.0148 115.662 20.7779 116.376 21.3676C117.091 21.9568 118.021 22.0793 118.501 21.951C118.981 21.8226 119.474 21.4564 119.474 21.4564L120.549 21.9048C120.549 21.9048 126.129 20.3248 125.955 16.4029L125.951 15.9882C125.951 15.9882 126.347 15.4349 126.462 15.0706C126.577 14.7063 127.502 13.0778 127.034 12.375C127.034 12.375 129.196 3.84149 122.528 3.32695C115.859 2.8128 114.855 7.48592 113.967 10.4507Z" fill="#FCD1C5"/>
<path d="M125.959 16.4031L125.958 16.3558C125.68 16.1895 125.409 16.0846 125.192 16.1226C124.429 16.2568 124.604 14.6744 124.604 14.6744C124.604 14.6744 124.463 14.9613 124.073 16.9842C123.683 19.0068 119.477 21.4566 119.477 21.4566L120.553 21.905C120.553 21.905 126.133 20.3246 125.959 16.4031Z" fill="#E2B1A6"/>
<path d="M113.998 6.74577C113.346 8.13053 113.035 9.79428 114.398 10.9102C114.398 10.9102 115.544 11.2229 117.722 10.2106C119.19 9.52859 120.657 9.83027 121.458 10.0999C121.828 10.2243 122.071 10.5757 122.061 10.9662L122.028 12.1811C122.02 12.4969 122.205 12.7857 122.496 12.9093L123.508 13.3405L123.709 14.5222C123.768 14.8704 124.128 15.0809 124.46 14.962L124.717 14.8704C124.717 14.8704 124.867 12.2418 127.036 12.3756C127.036 12.3756 128.792 8.57855 126.993 5.10628C125.194 1.63401 120.263 1.8813 119.211 2.27533C117.828 2.79378 118.02 2.7167 117.227 3.20737C115.842 4.0635 114.693 5.27219 113.998 6.74577Z" fill="#AA8383"/>
<path d="M131.743 33.5212C131.743 33.5212 130.733 40.9651 130.319 43.0721L127.055 44.793L132.85 44.4393L131.743 33.5212Z" fill="#24126A"/>
<path d="M127.038 12.3753C127.038 12.3753 127.632 11.0892 127.775 9.33032C125.079 11.466 122.063 10.9663 122.063 10.9663L122.031 12.1812C122.023 12.497 122.208 12.7858 122.498 12.9094L123.511 13.3406L123.712 14.5223C123.771 14.8705 124.13 15.081 124.463 14.9621L124.719 14.8705C124.719 14.8705 124.87 12.2415 127.038 12.3753Z" fill="#936D6D"/>
<path d="M128.482 18.9143C128.482 18.9143 126.755 24.8462 126.395 25.9895L125.005 25.8424L125.256 27.7194L117.771 37.5853L126.081 28.0457L125.752 26.3734L127.014 26.5068L128.482 18.9143Z" fill="#24126A"/>
<path d="M121.129 51.1564C121.129 51.1564 138.683 50.5847 139.131 50.2658C139.579 49.9469 139.659 45.4307 139.617 42.8134C139.588 40.9771 139.609 33.7935 138.042 28.7545C139.274 33.0215 138.625 48.111 138.067 48.8783C137.508 49.6476 120.811 50.0894 120.811 50.0894C120.991 50.717 121.129 51.1564 121.129 51.1564Z" fill="#263649"/>
<path d="M86.6407 37.1149C86.6407 37.1149 86.5746 37.5578 85.8116 37.991C85.049 38.4241 83.0949 39.3883 82.7787 39.6653C82.4626 39.9423 81.0531 41.1792 81.0121 41.3423C80.971 41.5055 80.548 42.9063 80.5507 42.9901C80.5539 43.0742 80.6885 43.7214 80.6885 43.7214L80.2541 45.7901C80.2541 45.7901 79.7036 46.5922 80.3019 46.811C80.9002 47.0297 81.2406 46.4083 81.2508 46.314C81.2508 46.314 82.1566 45.884 82.8206 45.3691C83.4846 44.8537 86.1489 42.7103 86.6008 42.8418C87.0527 42.9732 86.6368 43.7417 86.42 43.874C86.2029 44.0062 84.7903 45.3863 85.3819 46.3449C85.9736 47.3036 86.3594 45.803 86.7499 45.4978C87.1408 45.1926 87.9848 43.9914 88.5021 43.8431C89.0197 43.6948 89.9608 41.763 90.084 40.8998C90.2073 40.0366 90.8236 39.4806 91.0442 39.2012C91.2649 38.9219 90.568 36.7772 90.568 36.7772L87.9308 35.9563L87.0062 36.5569L86.6407 37.1149Z" fill="#FCD1C5"/>
<mask id="mask0_1_1956" style="mask-type:luminance" maskUnits="userSpaceOnUse" x="125" y="47" width="17" height="10">
<path d="M126.754 56.3728L126.443 56.1936C125.294 55.5303 125.438 54.3717 126.765 53.606L136.116 48.207C137.442 47.4413 139.449 47.3579 140.598 48.0212L140.908 48.2004C142.057 48.8636 141.913 50.0222 140.586 50.788L131.235 56.1869C129.909 56.9527 127.902 57.036 126.754 56.3728Z" fill="white"/>
</mask>
<g mask="url(#mask0_1_1956)">
<path d="M136.748 25.7983C136.196 24.9265 135.942 25.5705 135.203 26.2889C134.203 27.2589 132.948 28.7638 132.301 30.6647C131.122 34.1244 131.545 42.7723 131.94 44.0091C131.94 44.0091 120.948 45.809 120.187 45.7762C119.426 45.7433 121.13 51.1571 121.13 51.1571C121.13 51.1571 138.684 50.5855 139.132 50.2666C139.58 49.9477 139.659 45.4314 139.618 42.8141C139.582 40.5705 139.623 30.3407 136.748 25.7983Z" fill="#334659"/>
</g>
<mask id="mask1_1_1956" style="mask-type:luminance" maskUnits="userSpaceOnUse" x="125" y="47" width="17" height="10">
<path d="M126.754 56.3728L126.443 56.1936C125.294 55.5303 125.438 54.3717 126.765 53.606L136.116 48.207C137.442 47.4413 139.449 47.3579 140.598 48.0212L140.908 48.2004C142.057 48.8636 141.913 50.0222 140.586 50.788L131.235 56.1869C129.909 56.9527 127.902 57.036 126.754 56.3728Z" fill="white"/>
</mask>
<g mask="url(#mask1_1_1956)">
<path d="M121.131 51.157C121.131 51.157 138.685 50.5854 139.133 50.2665C139.581 49.9476 139.66 45.4313 139.619 42.814C139.59 40.9777 139.611 33.7941 138.044 28.7551C139.275 33.0221 138.627 48.1116 138.069 48.879C137.509 49.6482 120.812 50.09 120.812 50.09C120.993 50.7176 121.131 51.157 121.131 51.157Z" fill="#263649"/>
</g>
<path opacity="0.5" d="M108.339 80.0859L51.1152 47.0473L81.8441 29.306L139.068 62.3446L108.339 80.0859Z" fill="url(#paint11_linear_1_1956)"/>
<path opacity="0.5" d="M51.1152 44.3076V47.0474L108.339 80.086L139.068 62.3447V59.6049L108.339 77.3462L51.1152 44.3076Z" fill="url(#paint12_linear_1_1956)"/>
<path opacity="0.5" d="M108.339 77.3463L51.1152 44.3077L81.8441 26.5668L139.068 59.605L108.339 77.3463Z" fill="url(#paint13_linear_1_1956)"/>
<path opacity="0.3" d="M111.694 51.6117C111.694 51.6117 113.892 52.3959 115.573 52.1161C117.253 51.8363 125.339 51.6779 125.339 51.6779L124.068 50.9438L121.233 48.969L114.205 49.4432L111.494 50.4148L111.694 51.6117Z" fill="#180D5B"/>
<path d="M120.227 46.0668C120.214 46.0234 120.178 45.9933 120.133 45.9921C119.569 45.978 115.916 45.87 114.534 45.3934C113.035 44.8761 111.448 44.9712 111.367 45.0581C111.286 45.1449 108.793 46.2034 108.644 46.6338C108.511 47.0157 108.272 48.339 108.602 48.8281C108.933 49.3172 109.09 49.6443 109.09 49.6443L109.349 49.6717C109.349 49.6717 109.685 50.3322 109.875 50.5654C109.958 50.6679 110.023 50.7806 110.079 50.9004C110.236 51.2408 110.513 51.8023 110.628 51.8144C110.794 51.832 111.566 51.9854 111.762 51.9345C111.923 51.8931 112.067 51.4028 112.002 51.1868C111.984 51.1277 112.013 51.0737 112.074 51.0635C112.43 51.0048 113.394 50.8832 114.728 51.0056C116.354 51.1551 118.651 50.092 118.86 49.9941C118.871 49.9891 118.881 49.9863 118.893 49.9851L121.185 49.7782C121.251 49.7723 121.295 49.7081 121.276 49.6451L120.227 46.0668Z" fill="#FCD1C5"/>
<path opacity="0.5" d="M126.746 56.3724L126.435 56.1932C125.287 55.53 125.431 54.3714 126.757 53.6056L136.108 48.2067C137.434 47.4409 139.441 47.3576 140.59 48.0208L140.9 48.2C142.049 48.8632 141.905 50.0218 140.578 50.7876L131.227 56.1865C129.901 56.9523 127.894 57.0356 126.746 56.3724Z" fill="url(#paint14_linear_1_1956)"/>
<path opacity="0.5" d="M141.676 49.2287L141.668 49.231C141.633 48.844 141.382 48.4786 140.9 48.2004L140.59 48.0212C139.441 47.3579 137.434 47.4413 136.108 48.207L126.757 53.606C126.053 54.0125 125.686 54.529 125.664 55.024L125.66 55.0264V56.6549L125.662 56.6561C125.662 57.0779 125.914 57.4809 126.435 57.7818L126.746 57.961C127.894 58.6242 129.901 58.5409 131.227 57.7751L140.578 52.3762C141.26 51.9825 141.627 51.4856 141.669 51.0055L141.675 51.0028L141.676 49.2287Z" fill="url(#paint15_linear_1_1956)"/>
<path d="M136.745 25.7978C136.193 24.926 135.939 25.5701 135.2 26.2885C134.2 27.2585 132.945 28.7633 132.298 30.6642C131.119 34.124 131.542 42.7718 131.937 44.0086C131.937 44.0086 120.945 45.8085 120.184 45.7757C119.423 45.7428 121.127 51.1566 121.127 51.1566C121.127 51.1566 138.681 50.585 139.129 50.2661C139.577 49.9472 139.656 45.4309 139.615 42.8136C139.579 40.57 139.62 30.3402 136.745 25.7978Z" fill="#4846A5"/>
<path d="M121.128 51.1567C121.128 51.1567 138.682 50.585 139.13 50.2661C139.578 49.9472 139.657 45.431 139.616 42.8137C139.586 40.9774 139.608 33.7937 138.041 28.7548C139.272 33.0217 138.624 48.1113 138.066 48.8786C137.506 49.6479 120.809 50.0896 120.809 50.0896C120.99 50.7172 121.128 51.1567 121.128 51.1567Z" fill="#24126A"/>
<path opacity="0.3" d="M89.6663 42.1701C89.6663 42.1701 95.9417 37.2661 96.8393 36.7915C97.7369 36.3172 98.1145 35.9572 98.1145 35.9572L96.0137 34.7443L92.4608 36.2049L87.9853 40.6402L81.0959 45.5238V46.6577C81.0959 46.6577 86.7802 44.2181 87.4156 43.8014C88.0514 43.3846 89.6663 42.1701 89.6663 42.1701Z" fill="#180D5B"/>
<path opacity="0.63" d="M85.9228 46.611C85.9228 46.611 87.2591 45.4168 88.1223 45.0177C88.9854 44.619 90.3565 43.5594 90.5248 42.749C90.693 41.9387 92.12 40.1454 92.12 40.1454L89.833 41.4652L86.5207 43.3782L81.0075 46.5758C81.0075 46.5758 81.344 46.9624 82.0421 46.7252C82.7401 46.4885 84.049 45.6531 84.6598 45.5784C85.2706 45.5037 86.2801 45.3166 86.2801 45.3166L85.9228 46.611Z" fill="#2D2D2D"/>
<path d="M86.6393 37.1151C86.6393 37.1151 86.5732 37.5581 85.8102 37.9912C85.0476 38.4244 83.0935 39.3885 82.7773 39.6655C82.4612 39.9426 81.0517 41.1794 81.0107 41.3426C80.9696 41.5058 80.5466 42.9066 80.5493 42.9903C80.5525 43.0744 80.6871 43.7216 80.6871 43.7216L80.2527 45.7903C80.2527 45.7903 79.7022 46.5925 80.3005 46.8112C80.8988 47.0299 81.2392 46.4086 81.2493 46.3143C81.2493 46.3143 82.1552 45.8842 82.8192 45.3693C83.4832 44.854 86.1475 42.7105 86.5994 42.842C87.0513 42.9735 86.6354 43.742 86.4186 43.8742C86.2015 44.0065 84.7889 45.3865 85.3805 46.3452C85.9722 47.3038 86.358 45.8032 86.7485 45.498C87.1394 45.1928 87.9834 43.9916 88.5007 43.8433C89.0183 43.695 89.9594 41.7632 90.0826 40.9C90.2059 40.0369 90.8222 39.4809 91.0428 39.2015C91.2635 38.9221 90.5666 36.7775 90.5666 36.7775L87.9294 35.9565L87.0048 36.5572L86.6393 37.1151Z" fill="#FCD1C5"/>
<path d="M110.442 22.6377C110.442 22.6377 110.346 18.7057 111.016 15.6888C110.832 15.8317 110.655 15.9835 110.492 16.1533C109.542 17.1436 108.213 18.3817 106.932 19.0742C104.567 20.3534 97.4577 24.3007 97.4577 24.3007L96.1386 25.3239C91.9691 28.5931 87.3108 35.7051 86.6339 37.1149C86.9602 36.6798 87.7984 35.9641 89.4062 36.8187C91.6232 37.9972 90.5671 39.7678 90.5671 39.7678C93.7905 37.4604 101.459 28.9456 101.459 28.9456C103.352 28.5488 109.037 26.4273 109.745 26.1616C110.198 24.9788 110.466 23.7896 110.442 22.6377Z" fill="#4846A5"/>
<path d="M91.6068 38.9464C91.6033 38.3512 91.3243 37.5992 90.1959 36.9993C89.704 36.7379 89.2849 36.6245 88.9301 36.6041C89.0815 36.6613 89.2392 36.7297 89.4074 36.8189C91.6244 37.9975 90.5684 39.7681 90.5684 39.7681C90.8771 39.547 91.2273 39.2684 91.6068 38.9464Z" fill="url(#paint16_linear_1_1956)"/>
<path d="M101.464 28.946C103.484 28.5226 109.823 26.1346 109.823 26.1346C110.11 27.5722 110.241 32.5251 109.936 36.3753C111.809 29.3752 110.448 22.6381 110.448 22.6381C109.932 25.1067 99.8851 28.512 99.8851 28.512C98.2863 30.9756 90.6778 38.0825 90.6778 38.0825L90.6762 38.0852C91.0158 38.9535 90.5248 39.7329 90.5248 39.7329C93.7478 37.4255 101.464 28.946 101.464 28.946Z" fill="#24126A"/>
<path d="M70.5424 49.4296L72.0653 50.2251L87.3352 41.4091C87.5907 41.2615 88.0368 41.2799 88.3318 41.4505L114.668 56.6559C114.92 56.515 116.07 55.9622 116.07 55.9622L115.512 57.4146L115.51 57.4127C115.487 57.4772 115.437 57.5375 115.354 57.5856L99.2714 66.8708C99.0159 67.0183 98.5698 66.9999 98.2748 66.8293L71.3242 51.2695C71.2029 51.1994 71.129 51.1149 71.098 51.0292L71.0961 51.0304L70.5424 49.4296Z" fill="url(#paint17_linear_1_1956)"/>
<path d="M70.78 49.6802L98.4009 65.627C98.7034 65.8015 99.1604 65.8207 99.4225 65.6693L115.905 56.1532C116.167 56.0022 116.134 55.7381 115.832 55.5635L88.2106 39.6167C87.9082 39.4422 87.4512 39.4234 87.189 39.5744L70.7065 49.0905C70.4447 49.2415 70.4776 49.5057 70.78 49.6802Z" fill="url(#paint18_linear_1_1956)"/>
<path d="M70.7771 49.5208L98.398 65.4677C98.7005 65.6422 99.1575 65.6614 99.4197 65.5099L115.902 55.9939C115.988 55.9442 116.039 55.8823 116.062 55.8158C116.104 55.9399 116.054 56.0655 115.902 56.1531L99.4197 65.6692C99.1579 65.8202 98.7005 65.8014 98.398 65.6269L70.7771 49.6801C70.5737 49.5627 70.4954 49.4054 70.5435 49.2684C70.5737 49.3584 70.65 49.4476 70.7771 49.5208Z" fill="white"/>
<path d="M106.732 62.1774V61.8745C106.732 61.846 106.714 61.8326 106.693 61.8452L105.625 62.4618C105.603 62.4744 105.586 62.5076 105.586 62.5362V62.839C105.586 62.8676 105.603 62.8809 105.625 62.8684L106.693 62.2517C106.714 62.2396 106.732 62.2063 106.732 62.1774Z" fill="#2842A2"/>
<path d="M105.133 63.1001V62.7972C105.133 62.7687 105.116 62.7554 105.094 62.7679L104.026 63.3846C104.004 63.3971 103.987 63.4303 103.987 63.4589V63.7618C103.987 63.7903 104.004 63.8036 104.026 63.7911L105.094 63.1744C105.116 63.1619 105.133 63.1287 105.133 63.1001Z" fill="#2842A2"/>
<path d="M106.614 58.317L83.6615 45.0653C83.5085 44.9769 83.3199 44.9769 83.1669 45.0657L74.9933 49.7944C74.8759 49.8625 74.8759 50.0319 74.9933 50.0996L97.9356 63.3454C98.0886 63.4334 98.2768 63.4338 98.4298 63.3454L106.614 58.6226C106.732 58.5545 106.732 58.3847 106.614 58.317Z" fill="#ADB1F2"/>
<path d="M106.614 58.6223L106.532 58.6696L83.6611 45.4653C83.5081 45.3768 83.3195 45.3768 83.1665 45.4657L75.0755 50.147L74.9933 50.0997C74.8759 50.032 74.8759 49.8625 74.9933 49.7944L83.1669 45.0658C83.3199 44.9773 83.5085 44.9773 83.6615 45.0654L106.614 58.317C106.731 58.3847 106.731 58.5546 106.614 58.6223Z" fill="#9198DB"/>
<path d="M82.5539 46.263L103.696 58.4696L104.744 58.0513L83.4402 45.7512L82.5539 46.263Z" fill="#24126A"/>
<path d="M80.3799 47.5179L99.081 58.3146L99.9673 57.8028L81.2665 47.0061L80.3799 47.5179Z" fill="#24126A"/>
<path d="M78.9642 48.3351L100.983 61.0472L101.869 60.5354L79.8509 47.8229L78.9642 48.3351Z" fill="#24126A"/>
<path d="M77.5486 49.1523L99.5667 61.8648L100.453 61.353L78.4349 48.6405L77.5486 49.1523Z" fill="#24126A"/>
<path d="M76.133 49.9696L98.1514 62.6817L99.0377 62.1699L77.0196 49.4578L76.133 49.9696Z" fill="#24126A"/>
<path d="M103.694 58.4697L104.58 58.9815L105.466 58.4697L104.58 57.9579L103.694 58.4697Z" fill="#24126A"/>
<path d="M98.0057 57.6942L102.409 60.2363L103.296 59.7245L98.8603 57.1636L98.0057 57.6942Z" fill="#24126A"/>
<path d="M98.4406 52.3776L92.2516 48.8044C92.0098 48.6647 92.0098 48.4381 92.2516 48.2988L96.4838 45.8553C96.7256 45.7156 97.1176 45.7156 97.3598 45.8553L103.549 49.4285C103.791 49.5682 103.791 49.7947 103.549 49.9344L99.3167 52.378C99.0749 52.5173 98.6824 52.5173 98.4406 52.3776Z" fill="url(#paint19_linear_1_1956)"/>
<path d="M103.546 49.6351L97.3575 46.0619C97.1157 45.9222 96.7232 45.9222 96.4814 46.0619L92.2493 48.5055C92.1745 48.5485 92.126 48.6005 92.0974 48.6549C92.0333 48.5328 92.0822 48.3951 92.2493 48.2985L96.4814 45.8549C96.7232 45.7152 97.1153 45.7152 97.3575 45.8549L103.546 49.4281C103.714 49.5248 103.762 49.6625 103.699 49.7846C103.67 49.7302 103.621 49.6785 103.546 49.6351Z" fill="#9198DB"/>
<path d="M70.6068 49.0192L74.0982 28.3045L73.8177 28.1863L74.2395 27.9445L74.2387 27.9469C74.3205 27.8925 74.4363 27.8956 74.5639 27.9692L102.468 44.08C102.698 44.2122 102.871 44.5515 102.831 44.7886L99.3115 65.668C99.2931 65.7768 99.2391 65.8488 99.1644 65.8804H99.1648L98.752 66.1187L98.6812 65.7333L98.7046 65.7404L70.9691 49.7274C70.7398 49.5955 70.5665 49.2563 70.6068 49.0192Z" fill="url(#paint20_linear_1_1956)"/>
<path d="M102.314 44.6463L102.773 44.4432C102.824 44.5606 102.849 44.6843 102.832 44.7884L99.3125 65.6678C99.2941 65.7765 99.2401 65.8485 99.1654 65.8802H99.1658L98.753 66.1185L98.6821 65.7331L98.7056 65.7401L97.3021 64.9298L102.314 44.6463Z" fill="url(#paint21_linear_1_1956)"/>
<path d="M70.5331 49.9788L98.4376 66.0896C98.6532 66.214 98.8375 66.1421 98.8755 65.919L102.395 45.0396C102.435 44.8025 102.262 44.4633 102.032 44.331L74.1278 28.2202C73.9122 28.0958 73.7279 28.1678 73.69 28.3908L70.1708 49.2702C70.1305 49.5073 70.3038 49.8466 70.5331 49.9788Z" fill="#453C9E"/>
<path d="M53.9561 101.354C53.9561 101.354 55.7701 101.801 57.5266 101.87C59.2835 101.939 64.058 102.897 63.9398 104.679C63.8205 106.471 61.3252 109.041 58.1992 109.421C55.0694 109.803 51.0462 108.902 49.0021 108.957C46.958 109.013 45.5611 106.929 46.3613 104.933C47.1564 102.949 53.9561 101.354 53.9561 101.354Z" fill="#160A5B"/>
<path d="M43.4169 96.5623C43.4169 96.5623 42.7478 97.6403 43.0753 98.3004C43.4036 98.9621 44.2789 100.607 47.138 99.0149C49.9827 97.431 55.4779 95.1646 55.4779 95.1646C55.4779 95.1646 58.6274 93.4888 58.4552 91.5116C58.2838 89.547 55.3856 89.8396 55.3856 89.8396L43.4169 96.5623Z" fill="#160A5B"/>
<path d="M61.9745 68.5181C61.9745 68.5181 60.7604 81.3597 58.1795 86.227C55.5567 91.1732 54.8332 100.234 54.2858 101.964C53.7352 103.703 52.0371 106.203 49.3595 106.734C46.6776 107.265 46.2402 105.443 46.3724 104.348C46.5043 103.257 47.2473 101.492 47.2571 100.309C47.2669 99.1292 46.9926 98.5775 46.9515 98.0356C46.9515 98.0356 43.8842 98.939 43.4182 96.562C43.4182 96.562 43.6667 95.8706 43.7074 95.5169C43.7484 95.1635 43.4456 86.5662 43.3709 85.5246C43.2965 84.4865 43.8572 78.8665 44.7091 76.0962C45.5534 73.3513 45.2729 67.511 45.2729 67.511L54.0056 66.2941L61.9745 68.5181Z" fill="#24126A"/>
<path d="M44.7097 76.0969C45.5541 73.352 45.2735 67.5113 45.2735 67.5113L46.0366 67.4053C46.0706 68.2141 46.251 73.3411 45.4786 75.8621C44.6303 78.6301 44.0774 84.2458 44.1529 85.2831C44.2288 86.3235 44.5426 94.9146 44.5023 95.2672C44.4616 95.6209 44.2143 96.3115 44.2143 96.3115C44.6835 98.6862 47.748 97.7839 47.748 97.7839C47.7899 98.3255 48.0646 98.8772 48.0564 100.055C48.0482 101.238 47.3075 103.001 47.1772 104.091C47.0461 105.185 47.4855 107.006 50.1658 106.475C50.2491 106.458 50.3235 106.424 50.4049 106.403C50.0734 106.544 49.7279 106.661 49.3594 106.733C46.6775 107.265 46.24 105.443 46.3723 104.348C46.5045 103.257 47.2476 101.492 47.2574 100.309C47.2671 99.1296 46.9909 98.4698 46.9498 97.9279C46.9498 97.9279 43.8845 98.939 43.4181 96.5623C43.4181 96.5623 43.6665 95.8709 43.7072 95.5172C43.7483 95.1639 43.4455 86.5665 43.3707 85.5245C43.2972 84.4869 43.8579 78.8668 44.7097 76.0969Z" fill="url(#paint22_linear_1_1956)"/>
<path d="M47.8603 68.4423C47.8603 68.4423 47.8967 70.4464 48.732 72.1325C48.732 72.1325 48.7152 78.9577 49.416 82.4139C49.416 82.4139 48.286 89.3542 47.5738 91.5411C46.8566 93.7436 46.9525 98.036 46.9525 98.036C46.9525 98.036 46.6035 98.1651 46.103 98.1835C45.6025 98.2019 45.5669 89.6997 46.3354 88.1995C47.1 86.7067 47.6799 80.0799 47.3911 78.0601C47.1043 76.0536 47.2029 70.3107 46.8234 69.2972C46.445 68.2869 47.2996 67.7505 47.2996 67.7505L47.8603 68.4423Z" fill="#160A5B"/>
<path d="M55.2075 22.1165C55.2075 22.1165 57.7438 23.9512 57.6159 27.1206L55.7311 26.7148C55.7311 26.7148 56.2914 23.2066 55.2075 22.1165Z" fill="#160A5B"/>
<path d="M54.2219 71.2399C48.4336 71.4168 45.3104 68.8527 45.3104 68.8527C45.2979 68.0408 45.2728 67.5117 45.2728 67.5117L54.0048 66.2941L61.9741 68.5181C61.9741 68.5181 61.7342 71.0501 61.2412 74.2923C59.8212 74.4457 58.4275 70.959 58.4275 70.959L54.4571 71.2106C54.4571 71.2106 60.0067 71.0627 54.2219 71.2399Z" fill="#160A5B"/>
<path d="M60.8576 68.7085C60.8576 68.7085 48.2731 73.8453 42.1898 64.1015C42.0168 63.8245 41.9362 63.4852 41.948 63.1432L42.025 60.8722C42.0348 60.5835 41.9934 60.2974 41.9034 60.0306C41.7085 59.4538 41.6647 58.8274 41.7781 58.217C42.2493 55.6791 43.5248 48.7791 43.8242 46.8642C44.1889 44.5294 42.9508 35.182 40.8633 31.1345C38.8056 27.1449 44.0903 18.1716 44.0903 18.1716C44.0903 18.1716 45.3862 16.0766 47.9245 16.7947C47.9245 16.7947 45.5032 18.4878 46.8285 20.2755C48.1624 22.0755 52.1402 23.5119 52.1402 23.5119C52.1402 23.5119 59.496 27.3289 62.0139 31.973C62.0139 31.973 62.8794 34.388 62.9557 37.4432C63.0332 40.5316 62.6916 47.9453 62.8203 48.9756C62.9494 50.0093 63.3407 57.0728 63.2993 57.4031C63.2582 57.7333 60.8576 68.7085 60.8576 68.7085Z" fill="#453C9E"/>
<path d="M46.7396 18.0895C46.5389 17.5812 46.5995 17.0937 46.785 16.6656C47.1344 16.6535 47.5058 16.6762 47.9236 16.7944C47.9236 16.7944 47.1763 17.3179 46.7396 18.0895Z" fill="url(#paint23_linear_1_1956)"/>
<path d="M57.0415 69.7578C57.0415 69.7578 49.6306 49.7467 49.9827 42.4828C50.3259 35.4006 60.801 56.8317 60.801 56.8317L60.8554 68.7084C60.8554 68.7084 58.4795 69.5841 57.0415 69.7578Z" fill="#24126A"/>
<path d="M42.1103 58.0722C42.2003 58.3375 42.2418 58.6215 42.232 58.9084L42.1557 61.1645C42.1443 61.5038 42.2246 61.841 42.3975 62.1161C48.4632 71.7934 61.0035 66.6918 61.0035 66.6918C61.0035 66.6918 62.7287 58.8203 63.2687 56.2715C63.2961 56.8936 63.3098 57.328 63.3004 57.4027C63.2589 57.7329 60.8584 68.7085 60.8584 68.7085C60.8584 68.7085 48.2738 73.8453 42.1905 64.1015C42.0172 63.8245 41.937 63.4852 41.9483 63.1436L42.0254 60.8722C42.0352 60.5835 41.9937 60.2974 41.9037 60.0306C41.7088 59.4538 41.6654 58.827 41.7785 58.217C41.8274 57.9528 41.8869 57.6316 41.9514 57.2826C41.978 57.5506 42.0238 57.8175 42.1103 58.0722Z" fill="url(#paint24_linear_1_1956)"/>
<path d="M41.0618 29.3641C43.1442 33.3862 44.3811 42.6729 44.0183 44.9925C43.9847 45.2061 43.9381 45.4886 43.883 45.8122C43.8927 42.4636 42.7146 34.7251 40.8626 31.1335C40.2855 30.0141 40.2999 28.4916 40.6024 26.8896C40.5793 27.8162 40.703 28.6704 41.0618 29.3641Z" fill="url(#paint25_linear_1_1956)"/>
<path d="M61.0443 46.1173C60.7759 44.4853 60.6194 42.8462 60.601 41.2094C60.5689 38.3632 59.7687 33.642 54.6186 34.4621C47.3391 35.6211 50.4534 45.8188 51.2516 47.5995C52.0549 49.392 55.2392 57.4693 55.4071 57.9279C55.5647 58.3591 60.5982 68.4425 62.3958 70.8607C62.5605 71.0821 62.8493 71.1154 63.0516 70.9432C63.7806 70.3227 65.4185 68.8436 65.6325 67.908C65.9076 66.7052 64.8566 62.3416 64.8566 62.3416C64.8566 62.3416 62.0206 51.4412 61.7819 50.9337C61.6034 50.5541 61.479 48.7636 61.0443 46.1173Z" fill="#4846A5"/>
<path d="M55.0829 22.3465C55.0829 22.3465 55.6608 21.0314 56.9967 20.8957C58.3318 20.7599 59.0897 20.3889 59.2239 19.8944C59.3581 19.4006 59.3648 18.8031 59.688 18.0667C60.0108 17.3326 60.2839 15.528 60.2788 15.4842C60.2737 15.4407 61.2879 15.1355 61.3376 14.6891C61.3869 14.2434 60.8614 12.6497 60.9186 12.5268C60.9761 12.404 61.5203 11.4273 61.4472 10.6674C61.374 9.90953 61.2754 8.81158 60.8704 7.8811C60.4666 6.95375 57.638 1.30789 50.276 4.21593C42.8325 7.15605 48.4941 13.4006 47.7577 17.4492C47.7577 17.4492 47.0956 18.3014 48.309 19.7504C49.5286 21.2063 53.0521 21.5217 55.0829 22.3465Z" fill="#FCD1C5"/>
<path d="M48.311 19.7497C47.098 18.3007 47.7597 17.4485 47.7597 17.4485C47.8618 16.8858 47.8375 16.2789 47.7448 15.6455L50.6583 16.2015C50.6583 16.2015 54.9597 12.3751 54.6545 14.4239C54.3469 16.4883 55.3913 16.8444 55.3913 16.8444L54.5093 17.9677C54.2828 18.2561 54.417 18.5954 54.6017 18.9127C55.8291 21.0241 58.8111 20.3894 58.8178 20.3902C58.4461 20.6328 57.836 20.8104 56.9991 20.8957C55.6632 21.0319 55.0853 22.3466 55.0853 22.3466C53.0537 21.5218 49.5302 21.2064 48.311 19.7497Z" fill="#E2B1A6"/>
<path d="M61.1943 5.73463C61.1943 5.73463 61.7092 7.24499 60.8765 7.88044C60.0419 8.51746 59.2864 9.11808 59.2864 9.11808L59.2903 11.0338C59.2907 11.3101 59.2112 11.5804 59.0618 11.8113L58.0119 13.4289C57.8092 13.7415 57.7001 14.1078 57.6977 14.4838L57.6926 15.2671C57.6911 15.4972 57.5217 15.6897 57.2978 15.7148L57.022 15.7457C56.7786 15.7731 56.5603 15.5931 56.534 15.3438L56.4194 14.2557C56.4194 14.2557 55.8693 13.3811 54.6586 14.4231L53.5724 14.8688C53.2692 14.9936 53.0305 15.2413 52.9162 15.5555C52.6118 16.3933 51.9603 18.0472 51.4736 18.3215C50.8154 18.6928 48.2685 17.3766 47.9281 16.7939C47.5885 16.2125 46.73 12.3305 46.1975 10.4798C45.6688 8.64188 45.9795 4.09397 51.4642 2.93263C56.9257 1.77716 60.4406 4.09006 61.1943 5.73463Z" fill="#AA8383"/>
<path d="M47.9295 16.7942C47.5898 16.2128 46.7313 12.3308 46.1988 10.48C46.1988 10.48 48.3203 11.893 51.0727 12.3132C53.8293 12.7339 59.2881 9.62939 59.2881 9.62939L59.2908 11.0337C59.2912 11.31 59.2118 11.5803 59.0623 11.8112L58.0125 13.4288C57.8098 13.7414 57.7006 14.1077 57.6983 14.4837L57.6932 15.267C57.6916 15.4971 57.5222 15.6896 57.2984 15.7147L57.0225 15.7456C56.7792 15.773 56.5608 15.593 56.5346 15.3437L56.42 14.2556C56.42 14.2556 55.8698 13.381 54.6592 14.423L53.0882 15.0679C53.0882 15.0679 52.1323 17.9505 51.4745 18.321C50.8168 18.6935 48.2699 17.3772 47.9295 16.7942Z" fill="#936D6D"/>
<path d="M47.8147 16.9785C47.8147 16.9785 45.6822 18.2921 46.7453 20.1554C47.8155 22.0316 55.5453 25.363 55.9272 25.856C55.9272 25.856 56.2321 23.0611 55.2081 22.1169C55.2081 22.1169 49.2891 20.9638 48.3699 19.4526C47.4559 17.9489 47.8147 16.9785 47.8147 16.9785Z" fill="#F0F6FF"/>
<path d="M47.8147 16.9785C47.8147 16.9785 47.4559 17.9489 48.3699 19.4522C49.0653 20.5956 52.6213 21.5335 54.3128 21.9228C54.3128 21.9228 53.684 22.2793 52.6326 24.0702C50.2548 22.8368 47.3694 21.2498 46.7453 20.1554C45.6822 18.2921 47.8147 16.9785 47.8147 16.9785Z" fill="#C4CCD6"/>
<path d="M46.3724 22.9404C46.3724 22.9404 49.8161 24.9141 51.4936 25.8054C53.1769 26.6999 55.012 27.8878 55.012 27.8878L55.6565 27.245L56.4297 28.9443C56.4297 28.9443 59.0736 30.5329 60.3108 31.8563C61.5539 33.1862 62.4911 34.9224 62.6249 35.3184C62.6249 35.3184 59.3232 30.988 56.722 29.7015L56.0223 29.3481L55.6263 28.0025L54.9878 28.6782C54.9878 28.6782 47.4215 24.1155 46.3724 22.9404Z" fill="#24126A"/>
<path d="M55.2513 81.3675L55.2509 81.3652L55.2521 81.366C55.3605 81.0569 55.5213 80.7857 55.7126 80.6253L69.8779 68.7329C70.2504 68.4199 70.6116 68.659 70.6844 69.2674L72.3407 83.1131C72.417 83.7517 72.1697 84.5374 71.7882 84.8676L59.8915 95.1549L60.3032 99.1585L56.7468 97.5214L56.746 97.5136C56.5863 97.4134 56.4686 97.1829 56.4369 96.8362L55.1143 82.3657C55.0846 82.0433 55.1402 81.6853 55.2513 81.3675Z" fill="url(#paint26_linear_1_1956)"/>
<path d="M73.7365 70.0982L70.3878 68.6509L70.2806 68.6043C70.1581 68.575 70.0192 68.6141 69.8784 68.7323L55.713 80.6246C55.5217 80.785 55.3597 81.0558 55.2517 81.3649L55.7584 81.6095L58.643 83.0036L71.0585 72.3876L73.7365 70.0982Z" fill="#453C9E"/>
<path d="M75.2772 86.4191L60.7922 99.0388C60.395 99.3847 60.0198 99.1206 59.9548 98.4495L58.547 83.9043C58.4852 83.2653 58.7493 82.4827 59.1371 82.1552L73.2703 70.203C73.642 69.8884 74.0051 70.1286 74.0814 70.7398L75.8215 84.6551C75.9013 85.2972 75.6579 86.0872 75.2772 86.4191Z" fill="#24126A"/>
<path d="M58.154 97.5982L56.79 83.0921C56.7301 82.4551 56.9962 81.6745 57.384 81.3477L71.5332 69.4272C71.6487 69.3298 71.7633 69.286 71.8682 69.2899C71.734 69.2339 71.5751 69.266 71.4147 69.4014L57.2638 81.3207C56.8761 81.6475 56.6096 82.4281 56.6695 83.0651L58.0308 97.5701C58.0742 98.0318 58.2534 98.3182 58.4987 98.3272C58.3141 98.2458 58.1896 97.979 58.154 97.5982Z" fill="#160A5B"/>
<path d="M63.3457 76.2413L62.6053 75.8716C62.4379 75.7878 62.2786 75.7593 62.1436 75.789L62.0841 75.8023C62.0102 75.8184 61.9722 75.8982 61.984 76.0113L61.9981 76.1459L64.0832 77.1879L64.0687 77.0529C64.0566 76.9394 63.996 76.8103 63.9103 76.714L63.841 76.6365C63.6841 76.4612 63.5135 76.3251 63.3457 76.2413Z" fill="#160A5B"/>
<path d="M63.0814 78.0332L64.0823 77.1877L62.0144 75.8479L61.0276 76.6735L63.0814 78.0332Z" fill="#160A5B"/>
<path d="M62.3422 77.0839L61.6015 76.7133C61.4336 76.6292 61.2744 76.601 61.1394 76.6307L61.0799 76.6441C61.006 76.6605 60.9676 76.7403 60.979 76.8538L60.9927 76.9888L63.0794 78.0339L63.0653 77.8985C63.0536 77.7846 62.9929 77.6551 62.9072 77.5589L62.838 77.4814C62.6807 77.3049 62.5101 77.168 62.3422 77.0839Z" fill="url(#paint27_linear_1_1956)"/>
<path d="M61.8999 77.4418L61.8365 76.8298L61.8995 76.8615L61.9629 77.4735L61.8999 77.4418Z" fill="#722318"/>
<path d="M61.8365 76.8307L62.8652 76.0023L62.9188 76.0297L61.8999 76.862L61.8365 76.8307Z" fill="#722318"/>
<path d="M67.842 72.4579L67.1036 72.0928C66.9361 72.0102 66.7781 71.9821 66.6442 72.0114L66.5852 72.0243C66.512 72.0407 66.4744 72.119 66.4869 72.2305L66.5018 72.3636L68.5819 73.3926L68.5666 73.2592C68.5537 73.1473 68.4927 73.0197 68.4066 72.9251L68.3373 72.8484C68.18 72.6754 68.009 72.5404 67.842 72.4579Z" fill="#160A5B"/>
<path d="M67.594 74.2271L68.582 73.3925L66.5172 72.0696L65.5429 72.8846L67.594 74.2271Z" fill="#160A5B"/>
<path d="M66.8572 73.2901L66.1185 72.9242C65.951 72.8413 65.7929 72.8131 65.6587 72.8425L65.5996 72.8554C65.5261 72.8714 65.4885 72.9504 65.501 73.0623L65.5159 73.1958L67.5971 74.228L67.5819 74.0942C67.569 73.9819 67.5079 73.8539 67.4222 73.7588L67.353 73.6822C67.1953 73.508 67.0247 73.373 66.8572 73.2901Z" fill="url(#paint28_linear_1_1956)"/>
<path d="M66.4191 73.6431L66.3518 73.0393L66.4148 73.0706L66.4825 73.6744L66.4191 73.6431Z" fill="#722318"/>
<path d="M66.3518 73.0398L67.3676 72.222L67.4212 72.2487L66.4144 73.0711L66.3518 73.0398Z" fill="#722318"/>
<path d="M61.4401 73.9315L61.7066 76.514L62.3765 75.9509L62.1147 73.4424C62.0764 73.0765 62.256 72.6046 62.5154 72.3879L65.3995 69.9768C65.6566 69.7619 65.8977 69.8805 65.938 70.2424L66.2146 72.724L66.8763 72.168L66.5894 69.6226C66.4998 68.826 65.9685 68.5646 65.4015 69.0377L62.3268 71.6041C61.7539 72.0819 61.3568 73.1231 61.4401 73.9315Z" fill="#453C9E"/>
<path d="M66.409 69.8025L65.221 69.682L61.7859 72.8855L61.6376 74.8622L61.7065 76.5139L62.4754 76.8985L62.4993 74.8392L62.5403 73.4317L63.2529 72.4136C63.2529 72.4136 64.5406 71.3728 64.5539 71.3434C64.5668 71.3141 66.409 69.8025 66.409 69.8025Z" fill="#453C9E"/>
<path d="M66.9817 73.1034L66.2144 72.7235L66.0109 70.895L66.743 70.9525L66.9598 70.9905L66.9817 73.1034Z" fill="#453C9E"/>
<path d="M66.9558 69.2382L66.131 68.834C66.131 68.834 66.3481 69.2836 66.3517 69.2808C66.3556 69.2781 66.6232 69.3759 66.6275 69.3755C66.6326 69.3747 66.9558 69.2382 66.9558 69.2382Z" fill="#453C9E"/>
<path d="M62.2051 74.3127L62.4751 76.8984L63.145 76.3345L62.8797 73.8225C62.841 73.4566 63.0202 72.9839 63.2792 72.7664L66.1618 70.3526C66.4189 70.1373 66.6603 70.2563 66.701 70.6186L66.9812 73.1037L67.6424 72.5465L67.3521 69.998C67.2613 69.2002 66.7292 68.9388 66.163 69.4123L63.0895 71.9822C62.517 72.4608 62.1206 73.5036 62.2051 74.3127Z" fill="#160A5B"/>
<path d="M65.419 67.8029C65.419 67.8029 65.9078 70.3278 65.77 70.9617C65.6319 71.5968 64.424 72.8191 63.6966 73.0434C62.9684 73.2676 63.2654 72.3997 63.1014 71.8542C62.9379 71.31 62.9665 70.1236 62.9665 70.1236L65.419 67.8029Z" fill="#FCD1C5"/>
<path d="M62.9663 70.1236L65.4189 67.8029C65.4189 67.8029 65.5191 68.3205 65.6157 68.945C65.6138 68.9485 64.704 70.8244 63.0395 71.5659C62.9464 70.9746 62.9663 70.1236 62.9663 70.1236Z" fill="#E2B1A6"/>
<path d="M65.6022 67.9916C65.6022 67.9916 64.7328 70.7106 62.5537 70.9689L63.2936 67.9916C63.2936 67.9916 65.1346 67.472 65.191 67.4649C65.2469 67.4579 65.6022 67.9916 65.6022 67.9916Z" fill="#4846A5"/>
<path d="M51.4176 36.0638C49.3986 42.2141 54.4567 51.7759 55.1845 54.5662C55.9194 57.3854 63.6117 70.4367 63.6132 70.4399C63.6105 70.4426 63.6085 70.4442 63.6054 70.4465C63.6492 70.5244 63.6786 70.5757 63.6786 70.5757C63.5162 70.6993 63.3244 70.8366 63.1758 70.9176C62.9715 70.9959 63.0619 70.9892 62.8303 71.0456C62.6667 71.0784 62.5012 71.0143 62.3873 70.8609C60.5894 68.4424 55.5563 58.3589 55.3986 57.9281C55.2307 57.4695 52.0464 49.3918 51.2427 47.5997C50.6026 46.1708 48.4658 39.2927 51.4176 36.0638Z" fill="url(#paint29_linear_1_1956)"/>
<defs>
<radialGradient id="paint0_radial_1_1956" cx="0" cy="0" r="1" gradientUnits="userSpaceOnUse" gradientTransform="translate(84.6549 83.2256) rotate(149.999) scale(69.1196 59.8602)">
<stop stop-color="#42E8E0"/>
<stop offset="0.225" stop-color="#3CCFCF"/>
<stop offset="0.905" stop-color="#173D6C"/>
<stop offset="1" stop-color="#080344"/>
</radialGradient>
<linearGradient id="paint1_linear_1_1956" x1="121.792" y1="72.2336" x2="88.3811" y2="80.388" gradientUnits="userSpaceOnUse">
<stop stop-color="#5761D7"/>
<stop offset="0.1779" stop-color="#5C66D9"/>
<stop offset="0.3876" stop-color="#6A73DF"/>
<stop offset="0.6134" stop-color="#8289E8"/>
<stop offset="0.849" stop-color="#A3A7F5"/>
<stop offset="1" stop-color="#BCBEFF"/>
</linearGradient>
<linearGradient id="paint2_linear_1_1956" x1="122.04" y1="69.2515" x2="159.028" y2="69.2515" gradientUnits="userSpaceOnUse">
<stop stop-color="#5761D7"/>
<stop offset="0.1779" stop-color="#5C66D9"/>
<stop offset="0.3876" stop-color="#6A73DF"/>
<stop offset="0.6134" stop-color="#8289E8"/>
<stop offset="0.849" stop-color="#A3A7F5"/>
<stop offset="1" stop-color="#BCBEFF"/>
</linearGradient>
<linearGradient id="paint3_linear_1_1956" x1="117.87" y1="68.4546" x2="109.225" y2="60.0977" gradientUnits="userSpaceOnUse">
<stop stop-color="#5761D7"/>
<stop offset="0.1779" stop-color="#5C66D9"/>
<stop offset="0.3876" stop-color="#6A73DF"/>
<stop offset="0.6134" stop-color="#8289E8"/>
<stop offset="0.849" stop-color="#A3A7F5"/>
<stop offset="1" stop-color="#BCBEFF"/>
</linearGradient>
<linearGradient id="paint4_linear_1_1956" x1="122.488" y1="76.8081" x2="154.605" y2="76.8081" gradientUnits="userSpaceOnUse">
<stop stop-color="#5761D7"/>
<stop offset="0.1779" stop-color="#5C66D9"/>
<stop offset="0.3876" stop-color="#6A73DF"/>
<stop offset="0.6134" stop-color="#8289E8"/>
<stop offset="0.849" stop-color="#A3A7F5"/>
<stop offset="1" stop-color="#BCBEFF"/>
</linearGradient>
<linearGradient id="paint5_linear_1_1956" x1="117.995" y1="80.4217" x2="124.048" y2="80.4217" gradientUnits="userSpaceOnUse">
<stop stop-color="#5761D7"/>
<stop offset="0.1779" stop-color="#5C66D9"/>
<stop offset="0.3876" stop-color="#6A73DF"/>
<stop offset="0.6134" stop-color="#8289E8"/>
<stop offset="0.849" stop-color="#A3A7F5"/>
<stop offset="1" stop-color="#BCBEFF"/>
</linearGradient>
<linearGradient id="paint6_linear_1_1956" x1="119.957" y1="74.4131" x2="162.287" y2="74.4131" gradientUnits="userSpaceOnUse">
<stop stop-color="#C0BFF6"/>
<stop offset="0.2938" stop-color="#C5C4F7"/>
<stop offset="0.6399" stop-color="#D3D2F9"/>
<stop offset="1" stop-color="#E9E9FD"/>
</linearGradient>
<linearGradient id="paint7_linear_1_1956" x1="98.8206" y1="36.7917" x2="114.836" y2="36.7917" gradientUnits="userSpaceOnUse">
<stop stop-color="#42E8E0"/>
<stop offset="0.1507" stop-color="#43E3E0"/>
<stop offset="0.3285" stop-color="#45D5DF"/>
<stop offset="0.5199" stop-color="#49BDDD"/>
<stop offset="0.7209" stop-color="#4E9CDB"/>
<stop offset="0.9274" stop-color="#5472D8"/>
<stop offset="1" stop-color="#5761D7"/>
</linearGradient>
<linearGradient id="paint8_linear_1_1956" x1="98.8201" y1="37.5859" x2="114.836" y2="37.5859" gradientUnits="userSpaceOnUse">
<stop stop-color="#42E8E0"/>
<stop offset="0.1507" stop-color="#43E3E0"/>
<stop offset="0.3285" stop-color="#45D5DF"/>
<stop offset="0.5199" stop-color="#49BDDD"/>
<stop offset="0.7209" stop-color="#4E9CDB"/>
<stop offset="0.9274" stop-color="#5472D8"/>
<stop offset="1" stop-color="#5761D7"/>
</linearGradient>
<linearGradient id="paint9_linear_1_1956" x1="133.743" y1="10.4706" x2="118.538" y2="49.5981" gradientUnits="userSpaceOnUse">
<stop stop-color="#42E8E0"/>
<stop offset="0.1507" stop-color="#43E3E0"/>
<stop offset="0.3285" stop-color="#45D5DF"/>
<stop offset="0.5199" stop-color="#49BDDD"/>
<stop offset="0.7209" stop-color="#4E9CDB"/>
<stop offset="0.9274" stop-color="#5472D8"/>
<stop offset="1" stop-color="#5761D7"/>
</linearGradient>
<linearGradient id="paint10_linear_1_1956" x1="118.206" y1="41.2164" x2="142.4" y2="41.2164" gradientUnits="userSpaceOnUse">
<stop stop-color="#42E8E0"/>
<stop offset="0.1507" stop-color="#43E3E0"/>
<stop offset="0.3285" stop-color="#45D5DF"/>
<stop offset="0.5199" stop-color="#49BDDD"/>
<stop offset="0.7209" stop-color="#4E9CDB"/>
<stop offset="0.9274" stop-color="#5472D8"/>
<stop offset="1" stop-color="#5761D7"/>
</linearGradient>
<linearGradient id="paint11_linear_1_1956" x1="51.1152" y1="54.696" x2="139.068" y2="54.696" gradientUnits="userSpaceOnUse">
<stop stop-color="#42E8E0"/>
<stop offset="0.1507" stop-color="#43E3E0"/>
<stop offset="0.3285" stop-color="#45D5DF"/>
<stop offset="0.5199" stop-color="#49BDDD"/>
<stop offset="0.7209" stop-color="#4E9CDB"/>
<stop offset="0.9274" stop-color="#5472D8"/>
<stop offset="1" stop-color="#5761D7"/>
</linearGradient>
<linearGradient id="paint12_linear_1_1956" x1="51.1152" y1="62.1969" x2="139.068" y2="62.1969" gradientUnits="userSpaceOnUse">
<stop stop-color="#42E8E0"/>
<stop offset="0.1507" stop-color="#43E3E0"/>
<stop offset="0.3285" stop-color="#45D5DF"/>
<stop offset="0.5199" stop-color="#49BDDD"/>
<stop offset="0.7209" stop-color="#4E9CDB"/>
<stop offset="0.9274" stop-color="#5472D8"/>
<stop offset="1" stop-color="#5761D7"/>
</linearGradient>
<linearGradient id="paint13_linear_1_1956" x1="51.1152" y1="51.9564" x2="139.068" y2="51.9564" gradientUnits="userSpaceOnUse">
<stop stop-color="#42E8E0"/>
<stop offset="0.1507" stop-color="#43E3E0"/>
<stop offset="0.3285" stop-color="#45D5DF"/>
<stop offset="0.5199" stop-color="#49BDDD"/>
<stop offset="0.7209" stop-color="#4E9CDB"/>
<stop offset="0.9274" stop-color="#5472D8"/>
<stop offset="1" stop-color="#5761D7"/>
</linearGradient>
<linearGradient id="paint14_linear_1_1956" x1="125.66" y1="52.1968" x2="141.676" y2="52.1968" gradientUnits="userSpaceOnUse">
<stop stop-color="#42E8E0"/>
<stop offset="0.1507" stop-color="#43E3E0"/>
<stop offset="0.3285" stop-color="#45D5DF"/>
<stop offset="0.5199" stop-color="#49BDDD"/>
<stop offset="0.7209" stop-color="#4E9CDB"/>
<stop offset="0.9274" stop-color="#5472D8"/>
<stop offset="1" stop-color="#5761D7"/>
</linearGradient>
<linearGradient id="paint15_linear_1_1956" x1="125.66" y1="52.9909" x2="141.676" y2="52.9909" gradientUnits="userSpaceOnUse">
<stop stop-color="#42E8E0"/>
<stop offset="0.1507" stop-color="#43E3E0"/>
<stop offset="0.3285" stop-color="#45D5DF"/>
<stop offset="0.5199" stop-color="#49BDDD"/>
<stop offset="0.7209" stop-color="#4E9CDB"/>
<stop offset="0.9274" stop-color="#5472D8"/>
<stop offset="1" stop-color="#5761D7"/>
</linearGradient>
<linearGradient id="paint16_linear_1_1956" x1="88.9301" y1="38.1861" x2="91.607" y2="38.1861" gradientUnits="userSpaceOnUse">
<stop stop-color="#5761D7"/>
<stop offset="0.0726" stop-color="#5472D8"/>
<stop offset="0.2791" stop-color="#4E9CDB"/>
<stop offset="0.4801" stop-color="#49BDDD"/>
<stop offset="0.6715" stop-color="#45D5DF"/>
<stop offset="0.8493" stop-color="#43E3E0"/>
<stop offset="1" stop-color="#42E8E0"/>
</linearGradient>
<linearGradient id="paint17_linear_1_1956" x1="116.07" y1="54.1399" x2="70.5425" y2="54.1399" gradientUnits="userSpaceOnUse">
<stop stop-color="#5761D7"/>
<stop offset="0.1779" stop-color="#5C66D9"/>
<stop offset="0.3876" stop-color="#6A73DF"/>
<stop offset="0.6134" stop-color="#8289E8"/>
<stop offset="0.849" stop-color="#A3A7F5"/>
<stop offset="1" stop-color="#BCBEFF"/>
</linearGradient>
<linearGradient id="paint18_linear_1_1956" x1="100.774" y1="52.6219" x2="55.223" y2="52.6219" gradientUnits="userSpaceOnUse">
<stop stop-color="#C0BFF6"/>
<stop offset="0.2938" stop-color="#C5C4F7"/>
<stop offset="0.6399" stop-color="#D3D2F9"/>
<stop offset="1" stop-color="#E9E9FD"/>
</linearGradient>
<linearGradient id="paint19_linear_1_1956" x1="103.73" y1="49.1163" x2="92.0703" y2="49.1163" gradientUnits="userSpaceOnUse">
<stop stop-color="#C0BFF6"/>
<stop offset="0.2938" stop-color="#C5C4F7"/>
<stop offset="0.6399" stop-color="#D3D2F9"/>
<stop offset="1" stop-color="#E9E9FD"/>
</linearGradient>
<linearGradient id="paint20_linear_1_1956" x1="102.836" y1="47.0143" x2="70.6008" y2="47.0143" gradientUnits="userSpaceOnUse">
<stop stop-color="#C0BFF6"/>
<stop offset="0.2938" stop-color="#C5C4F7"/>
<stop offset="0.6399" stop-color="#D3D2F9"/>
<stop offset="1" stop-color="#E9E9FD"/>
</linearGradient>
<linearGradient id="paint21_linear_1_1956" x1="102.838" y1="55.2814" x2="97.3024" y2="55.2814" gradientUnits="userSpaceOnUse">
<stop stop-color="#5761D7"/>
<stop offset="0.1779" stop-color="#5C66D9"/>
<stop offset="0.3876" stop-color="#6A73DF"/>
<stop offset="0.6134" stop-color="#8289E8"/>
<stop offset="0.849" stop-color="#A3A7F5"/>
<stop offset="1" stop-color="#BCBEFF"/>
</linearGradient>
<linearGradient id="paint22_linear_1_1956" x1="52.0581" y1="87.5444" x2="43.1853" y2="86.7668" gradientUnits="userSpaceOnUse">
<stop stop-color="#5761D7"/>
<stop offset="0.0726" stop-color="#5472D8"/>
<stop offset="0.2791" stop-color="#4E9CDB"/>
<stop offset="0.4801" stop-color="#49BDDD"/>
<stop offset="0.6715" stop-color="#45D5DF"/>
<stop offset="0.8493" stop-color="#43E3E0"/>
<stop offset="1" stop-color="#42E8E0"/>
</linearGradient>
<linearGradient id="paint23_linear_1_1956" x1="47.8653" y1="17.4578" x2="46.6164" y2="17.3484" gradientUnits="userSpaceOnUse">
<stop stop-color="#5761D7"/>
<stop offset="0.0726" stop-color="#5472D8"/>
<stop offset="0.2791" stop-color="#4E9CDB"/>
<stop offset="0.4801" stop-color="#49BDDD"/>
<stop offset="0.6715" stop-color="#45D5DF"/>
<stop offset="0.8493" stop-color="#43E3E0"/>
<stop offset="1" stop-color="#42E8E0"/>
</linearGradient>
<linearGradient id="paint24_linear_1_1956" x1="62.7587" y1="63.5834" x2="41.4551" y2="61.7165" gradientUnits="userSpaceOnUse">
<stop stop-color="#5761D7"/>
<stop offset="0.0726" stop-color="#5472D8"/>
<stop offset="0.2791" stop-color="#4E9CDB"/>
<stop offset="0.4801" stop-color="#49BDDD"/>
<stop offset="0.6715" stop-color="#45D5DF"/>
<stop offset="0.8493" stop-color="#43E3E0"/>
<stop offset="1" stop-color="#42E8E0"/>
</linearGradient>
<linearGradient id="paint25_linear_1_1956" x1="44.7652" y1="36.5721" x2="39.7279" y2="36.1307" gradientUnits="userSpaceOnUse">
<stop stop-color="#5761D7"/>
<stop offset="0.0726" stop-color="#5472D8"/>
<stop offset="0.2791" stop-color="#4E9CDB"/>
<stop offset="0.4801" stop-color="#49BDDD"/>
<stop offset="0.6715" stop-color="#45D5DF"/>
<stop offset="0.8493" stop-color="#43E3E0"/>
<stop offset="1" stop-color="#42E8E0"/>
</linearGradient>
<linearGradient id="paint26_linear_1_1956" x1="72.2633" y1="84.4904" x2="55.0286" y2="82.98" gradientUnits="userSpaceOnUse">
<stop stop-color="#5761D7"/>
<stop offset="0.0726" stop-color="#5472D8"/>
<stop offset="0.2791" stop-color="#4E9CDB"/>
<stop offset="0.4801" stop-color="#49BDDD"/>
<stop offset="0.6715" stop-color="#45D5DF"/>
<stop offset="0.8493" stop-color="#43E3E0"/>
<stop offset="1" stop-color="#42E8E0"/>
</linearGradient>
<linearGradient id="paint27_linear_1_1956" x1="63.1337" y1="77.4102" x2="60.9402" y2="77.218" gradientUnits="userSpaceOnUse">
<stop stop-color="#5761D7"/>
<stop offset="0.0726" stop-color="#5472D8"/>
<stop offset="0.2791" stop-color="#4E9CDB"/>
<stop offset="0.4801" stop-color="#49BDDD"/>
<stop offset="0.6715" stop-color="#45D5DF"/>
<stop offset="0.8493" stop-color="#43E3E0"/>
<stop offset="1" stop-color="#42E8E0"/>
</linearGradient>
<linearGradient id="paint28_linear_1_1956" x1="67.6505" y1="73.613" x2="65.4621" y2="73.4212" gradientUnits="userSpaceOnUse">
<stop stop-color="#5761D7"/>
<stop offset="0.0726" stop-color="#5472D8"/>
<stop offset="0.2791" stop-color="#4E9CDB"/>
<stop offset="0.4801" stop-color="#49BDDD"/>
<stop offset="0.6715" stop-color="#45D5DF"/>
<stop offset="0.8493" stop-color="#43E3E0"/>
<stop offset="1" stop-color="#42E8E0"/>
</linearGradient>
<linearGradient id="paint29_linear_1_1956" x1="65.108" y1="54.2631" x2="48.8051" y2="52.8344" gradientUnits="userSpaceOnUse">
<stop stop-color="#5761D7"/>
<stop offset="0.0726" stop-color="#5472D8"/>
<stop offset="0.2791" stop-color="#4E9CDB"/>
<stop offset="0.4801" stop-color="#49BDDD"/>
<stop offset="0.6715" stop-color="#45D5DF"/>
<stop offset="0.8493" stop-color="#43E3E0"/>
<stop offset="1" stop-color="#42E8E0"/>
</linearGradient>
</defs>
</svg>
