<svg width="157" height="130" viewBox="0 0 157 130" fill="none" xmlns="http://www.w3.org/2000/svg">
<path d="M156.901 87.1734L148.636 82.546C146.782 81.5079 145.151 79.2223 144.579 76.8588L137.421 47.2859C136.575 43.7895 133.763 41.2671 131.769 41.1901C130.771 41.1493 130.057 41.6969 129.709 42.7669L127.553 49.3944C127.304 50.1611 126.833 50.6963 126.193 50.9416C125.421 51.2386 124.448 51.0855 123.454 50.5109L121.962 49.6494C120.207 48.637 118.669 46.5276 118.042 44.2765C117.1 40.8921 114.481 38.6242 112.596 38.4644C111.662 38.3812 110.951 38.8057 110.538 39.6809L108.171 44.6957C107.881 45.311 107.418 45.7329 106.831 45.9162C106.083 46.1508 105.155 45.9822 104.219 45.4416L102.511 44.4558C100.636 43.3734 99.0193 41.0475 98.4863 38.6681L91.3325 6.72237C90.548 3.21805 87.7454 0.628324 85.7205 0.496403C84.7284 0.437968 84.0011 0.938206 83.6266 1.96259L72.0105 33.7042C71.7471 34.424 71.2787 34.9243 70.6545 35.1505C69.8878 35.4298 68.928 35.2718 67.951 34.7065L62.0765 31.315L62.1753 31.1446L68.0497 34.536C68.9754 35.0699 69.8771 35.2235 70.5872 34.965C71.1543 34.7591 71.5828 34.2996 71.8254 33.6365L83.4415 1.89485C83.8435 0.79566 84.6541 0.231676 85.7338 0.299407C87.8277 0.436197 90.722 3.09011 91.5255 6.67898L98.678 38.6247C99.1911 40.9174 100.807 43.245 102.608 44.2845L104.317 45.2708C105.204 45.7834 106.076 45.9467 106.771 45.7281C107.304 45.5616 107.726 45.1756 107.992 44.612L110.359 39.5973C110.804 38.6543 111.602 38.1811 112.612 38.2679C114.563 38.4334 117.266 40.758 118.232 44.2238C118.835 46.3934 120.374 48.5055 122.06 49.4785L123.552 50.3404C124.494 50.8836 125.405 51.0323 126.122 50.757C126.705 50.5334 127.134 50.0412 127.365 49.3324L129.521 42.7049C129.894 41.5593 130.701 40.9585 131.777 40.9926C133.885 41.0741 136.733 43.6027 137.613 47.2385L144.771 76.8118C145.332 79.1258 146.923 81.3605 148.732 82.3733L156.997 87.0003L156.901 87.1734Z" fill="#42E8E0"/>
<path d="M150.63 90.7772L142.365 86.1502C140.51 85.1117 138.88 82.8261 138.308 80.463L131.15 50.8896C130.304 47.3933 127.492 44.8709 125.498 44.7938C124.493 44.7584 123.786 45.3012 123.438 46.3707L121.282 52.9982C121.032 53.7649 120.562 54.2997 119.922 54.5454C119.149 54.8424 118.177 54.6892 117.183 54.1146L115.691 53.254C113.963 52.2558 112.387 50.0964 111.771 47.8807C110.829 44.4963 108.21 42.2285 106.324 42.0682C105.391 41.9868 104.68 42.4095 104.267 43.2847L101.9 48.2995C101.61 48.9148 101.147 49.3367 100.56 49.52C99.8114 49.755 98.8836 49.5859 97.9477 49.0454L96.2398 48.0595C94.3659 46.9776 92.7483 44.6517 92.2149 42.2723L85.0628 10.3266C84.2784 6.82226 81.4753 4.2321 79.4504 4.10018C78.4601 4.04263 77.731 4.54242 77.3565 5.56636L65.7404 37.3084C65.477 38.0282 65.0086 38.5285 64.3844 38.7551C63.6195 39.0336 62.6584 38.876 61.6814 38.3107L55.8065 34.9197L55.9052 34.7488L61.7801 38.1398C62.7057 38.6746 63.6057 38.826 64.318 38.5696C64.8847 38.3638 65.3132 37.9043 65.5558 37.2411L77.1719 5.49907C77.5743 4.39987 78.3933 3.83279 79.4641 3.90362C81.5589 4.04086 84.4528 6.69477 85.2563 10.2836L92.4084 42.2293C92.9219 44.5225 94.5386 46.8497 96.339 47.8887L98.0469 48.8745C98.9345 49.3872 99.8066 49.5496 100.502 49.3318C101.035 49.1654 101.456 48.7794 101.723 48.2158L104.09 43.201C104.534 42.2581 105.335 41.7884 106.342 41.8717C108.293 42.0377 110.997 44.3618 111.962 47.828C112.566 49.9972 114.104 52.1093 115.79 53.0832L117.283 53.9438C118.224 54.4878 119.137 54.6352 119.853 54.3612C120.435 54.1377 120.865 53.6449 121.096 52.9362L123.252 46.3087C123.625 45.163 124.437 44.5548 125.508 44.5964C127.615 44.6779 130.463 47.2069 131.344 50.8423L138.502 80.4156C139.062 82.7291 140.653 84.9642 142.463 85.9776L150.728 90.6045L150.63 90.7772Z" fill="#42E8E0"/>
<path d="M84.5033 0.55259L78.1815 4.19165L78.28 4.36277L84.6018 0.723711L84.5033 0.55259Z" fill="#42E8E0"/>
<path d="M111.254 38.5544L104.855 42.2402L104.953 42.4113L111.353 38.7255L111.254 38.5544Z" fill="#42E8E0"/>
<path d="M124.235 45.1605L124.137 44.9892L130.805 41.1626L130.904 41.3339L124.235 45.1605Z" fill="#42E8E0"/>
<path d="M156.901 87.1734L148.636 82.546C146.782 81.5079 145.151 79.2223 144.579 76.8588L137.421 47.2859C136.575 43.7895 133.763 41.2671 131.769 41.1901C130.771 41.1493 130.057 41.6969 129.709 42.7669L127.553 49.3944C127.304 50.1611 126.833 50.6963 126.193 50.9416C125.421 51.2386 124.448 51.0855 123.454 50.5109L121.962 49.6494C120.207 48.637 118.669 46.5276 118.042 44.2765C117.1 40.8921 114.481 38.6242 112.596 38.4644C111.662 38.3812 110.951 38.8057 110.538 39.6809L108.171 44.6957C107.881 45.311 107.418 45.7329 106.831 45.9162C106.083 46.1508 105.155 45.9822 104.219 45.4416L102.511 44.4558C100.636 43.3734 99.0193 41.0475 98.4863 38.6681L91.3325 6.72237C90.548 3.21805 87.7454 0.628324 85.7205 0.496403C84.7284 0.437968 84.0011 0.938206 83.6266 1.96259L72.0105 33.7042C71.7471 34.424 71.2787 34.9243 70.6545 35.1505C69.8878 35.4298 68.928 35.2718 67.951 34.7065L62.0765 31.315L62.1753 31.1446L68.0497 34.536C68.9754 35.0699 69.8771 35.2235 70.5872 34.965C71.1543 34.7591 71.5828 34.2996 71.8254 33.6365L83.4415 1.89485C83.8435 0.79566 84.6541 0.231676 85.7338 0.299407C87.8277 0.436197 90.722 3.09011 91.5255 6.67898L98.678 38.6247C99.1911 40.9174 100.807 43.245 102.608 44.2845L104.317 45.2708C105.204 45.7834 106.076 45.9467 106.771 45.7281C107.304 45.5616 107.726 45.1756 107.992 44.612L110.359 39.5973C110.804 38.6543 111.602 38.1811 112.612 38.2679C114.563 38.4334 117.266 40.758 118.232 44.2238C118.835 46.3934 120.374 48.5055 122.06 49.4785L123.552 50.3404C124.494 50.8836 125.405 51.0323 126.122 50.757C126.705 50.5334 127.134 50.0412 127.365 49.3324L129.521 42.7049C129.894 41.5593 130.701 40.9585 131.777 40.9926C133.885 41.0741 136.733 43.6027 137.613 47.2385L144.771 76.8118C145.332 79.1258 146.923 81.3605 148.732 82.3733L156.997 87.0003L156.901 87.1734Z" fill="#42E8E0"/>
<path d="M150.63 90.7772L142.365 86.1502C140.51 85.1117 138.88 82.8261 138.308 80.463L131.15 50.8896C130.304 47.3933 127.492 44.8709 125.498 44.7938C124.493 44.7584 123.786 45.3012 123.438 46.3707L121.282 52.9982C121.032 53.7649 120.562 54.2997 119.922 54.5454C119.149 54.8424 118.177 54.6892 117.183 54.1146L115.691 53.254C113.963 52.2558 112.387 50.0964 111.771 47.8807C110.829 44.4963 108.21 42.2285 106.324 42.0682C105.391 41.9868 104.68 42.4095 104.267 43.2847L101.9 48.2995C101.61 48.9148 101.147 49.3367 100.56 49.52C99.8114 49.755 98.8836 49.5859 97.9477 49.0454L96.2398 48.0595C94.3659 46.9776 92.7483 44.6517 92.2149 42.2723L85.0628 10.3266C84.2784 6.82226 81.4753 4.2321 79.4504 4.10018C78.4601 4.04263 77.731 4.54242 77.3565 5.56636L65.7404 37.3084C65.477 38.0282 65.0086 38.5285 64.3844 38.7551C63.6195 39.0336 62.6584 38.876 61.6814 38.3107L55.8065 34.9197L55.9052 34.7488L61.7801 38.1398C62.7057 38.6746 63.6057 38.826 64.318 38.5696C64.8847 38.3638 65.3132 37.9043 65.5558 37.2411L77.1719 5.49907C77.5743 4.39987 78.3933 3.83279 79.4641 3.90362C81.5589 4.04086 84.4528 6.69477 85.2563 10.2836L92.4084 42.2293C92.9219 44.5225 94.5386 46.8497 96.339 47.8887L98.0469 48.8745C98.9345 49.3872 99.8066 49.5496 100.502 49.3318C101.035 49.1654 101.456 48.7794 101.723 48.2158L104.09 43.201C104.534 42.2581 105.335 41.7884 106.342 41.8717C108.293 42.0377 110.997 44.3618 111.962 47.828C112.566 49.9972 114.104 52.1093 115.79 53.0832L117.283 53.9438C118.224 54.4878 119.137 54.6352 119.853 54.3612C120.435 54.1377 120.865 53.6449 121.096 52.9362L123.252 46.3087C123.625 45.163 124.437 44.5548 125.508 44.5964C127.615 44.6779 130.463 47.2069 131.344 50.8423L138.502 80.4156C139.062 82.7291 140.653 84.9642 142.463 85.9776L150.728 90.6045L150.63 90.7772Z" fill="#42E8E0"/>
<path opacity="0.5" d="M62.1207 31.23L67.9951 34.6215C69.7597 35.6401 71.3312 35.2589 71.9125 33.6706L83.5286 1.9285C84.8553 -1.69668 90.277 1.58098 91.4235 6.70112L98.576 38.6468C99.0988 40.9816 100.717 43.3101 102.554 44.3703L104.262 45.3566C105.922 46.3151 107.422 46.0388 108.076 44.6541L110.443 39.6393C111.91 36.5312 116.798 39.4631 118.131 44.2504C118.746 46.4585 120.287 48.5719 122.006 49.5644L123.498 50.4259C125.308 51.4706 126.909 51.0408 127.454 49.3634L129.61 42.7359C130.827 38.9952 136.265 42.11 137.512 47.2624L144.67 76.8353C145.233 79.1594 146.858 81.4406 148.679 82.4597L156.944 87.0866L62.1207 31.23Z" fill="url(#paint0_linear_1_2122)"/>
<path opacity="0.5" d="M55.8506 34.7432L61.7251 38.1346C63.4897 39.1533 65.0612 38.7721 65.6424 37.1837L77.2586 5.44168C78.5853 1.81651 84.0069 5.09417 85.1535 10.2143L92.306 42.16C92.8288 44.4947 94.4468 46.8233 96.2835 47.8835L97.9919 48.8698C99.652 49.8282 101.152 49.552 101.806 48.1673L104.172 43.1525C105.639 40.0444 110.528 42.9759 111.861 47.7636C112.476 49.9717 114.017 52.0851 115.735 53.0776L117.228 53.9391C119.037 54.9838 120.638 54.5539 121.183 52.8766L123.339 46.2491C124.556 42.5084 129.994 45.6231 131.241 50.7756L138.399 80.3485C138.962 82.6726 140.587 84.9538 142.408 85.9728L150.673 90.5998L55.8506 34.7432Z" fill="url(#paint1_linear_1_2122)"/>
<path d="M95.4029 116.81C94.5507 116.81 93.6986 116.591 92.938 116.152L37.3107 84.0455C36.7268 83.7087 36.3775 83.1048 36.3766 82.4306C36.3758 81.756 36.7233 81.1508 37.3067 80.8122L71.5243 60.9452L71.5704 60.9722L129.624 94.4788C130.207 94.8161 130.557 95.42 130.558 96.0946C130.559 96.7688 130.211 97.374 129.627 97.7127L97.8784 116.146C97.1161 116.588 96.2595 116.81 95.4029 116.81ZM93.0305 115.992C94.4981 116.839 96.3206 116.836 97.7863 115.985L129.535 97.5515C130.061 97.2465 130.374 96.7011 130.373 96.0933C130.372 95.4855 130.058 94.9414 129.532 94.6373L71.5248 61.1577L37.3997 80.9711C36.8747 81.2761 36.5608 81.8215 36.5617 82.4293C36.5626 83.0371 36.8773 83.5812 37.4032 83.8848L93.0305 115.992Z" fill="#42E8E0"/>
<path d="M99.5862 101.043C99.5862 101.884 98.9045 102.565 98.0638 102.565C97.2232 102.565 96.5414 101.883 96.5414 101.043C96.5414 100.202 97.2232 99.5204 98.0638 99.5204C98.9045 99.5204 99.5862 100.202 99.5862 101.043Z" fill="#24126A"/>
<path d="M114.579 84.0329C114.579 84.8736 113.897 85.5553 113.056 85.5553C112.216 85.5553 111.534 84.8736 111.534 84.0329C111.534 83.1918 112.216 82.5105 113.056 82.5105C113.897 82.5105 114.579 83.1922 114.579 84.0329Z" fill="#24126A"/>
<path d="M117.857 95.6577C117.857 96.4988 117.175 97.1801 116.335 97.1801C115.494 97.1801 114.812 96.4983 114.812 95.6577C114.812 94.817 115.494 94.1353 116.335 94.1353C117.175 94.1353 117.857 94.817 117.857 95.6577Z" fill="#24126A"/>
<path d="M84.9531 92.7875C84.9531 93.6286 84.2714 94.3099 83.4307 94.3099C82.5901 94.3099 81.9083 93.6282 81.9083 92.7875C81.9083 91.9464 82.5901 91.2651 83.4307 91.2651C84.2714 91.2651 84.9531 91.9464 84.9531 92.7875Z" fill="#24126A"/>
<path d="M94.3666 82.5023C94.3666 83.3434 93.6849 84.0247 92.8442 84.0247C92.0031 84.0247 91.3218 83.3429 91.3218 82.5023C91.3218 81.6616 92.0036 80.9799 92.8442 80.9799C93.6849 80.9794 94.3666 81.6612 94.3666 82.5023Z" fill="#24126A"/>
<path d="M100.215 88.1412L83.4768 91.3653C83.4051 91.372 83.3373 91.383 83.2709 91.3968L83.286 91.2861L82.4812 91.0829V92.0329L82.4847 92.0333C82.4843 92.0701 82.4852 92.1077 82.4958 92.1453C82.5976 92.5168 83.2023 92.7704 83.846 92.7115L100.584 89.4875L100.215 88.1412Z" fill="url(#paint2_linear_1_2122)"/>
<path d="M114.228 82.4L113.719 82.8294C113.28 82.6391 112.608 82.682 112.15 82.9467L100.23 88.1359L101.898 89.0992L113.819 83.91C114.099 83.7485 114.233 83.5404 114.223 83.3452L114.228 83.3474V82.4Z" fill="url(#paint3_linear_1_2122)"/>
<path d="M93.9662 81.2413C93.6705 80.9062 92.9595 80.7725 92.3792 80.9434C92.3101 80.9638 92.2468 80.9877 92.1879 81.0142C92.1596 80.9686 92.1264 80.9204 92.0852 80.8792C91.9794 80.7734 91.7355 80.6287 91.7355 80.6287L91.7346 81.5747L91.7386 81.5716C91.7434 81.669 91.7815 81.7673 91.8634 81.8598L99.5573 88.8843L101.66 88.2659L93.9662 81.2413Z" fill="url(#paint4_linear_1_2122)"/>
<path d="M117.425 94.048L117.142 94.1471L116.98 94.4844C116.919 94.4566 116.852 94.4313 116.78 94.4101L101.68 88.2744L100.609 89.4887L115.709 95.6244C116.29 95.7952 117 95.662 117.296 95.3264C117.385 95.2251 117.421 95.117 117.419 95.0104L117.425 95.0148V94.048Z" fill="url(#paint5_linear_1_2122)"/>
<path d="M99.5576 88.8976L97.0781 99.5212L96.8927 99.4265L96.8922 100.408L96.8962 100.404C96.9298 100.716 97.3314 100.983 97.8878 101.034C98.5315 101.093 99.1362 100.84 99.238 100.468L101.889 89.111L99.5576 88.8976Z" fill="url(#paint6_linear_1_2122)"/>
<path d="M116.779 93.4645L102.774 87.7742L113.826 82.9635C114.321 82.6775 114.374 82.245 113.946 81.9976L113.83 81.9307C113.401 81.6833 112.652 81.7143 112.157 82.0002L101.105 86.8109L93.9683 80.2954C93.6726 79.9603 92.9616 79.8271 92.3813 79.9975C91.8005 80.1684 91.5698 80.5788 91.8655 80.9139L99.0017 87.4289L83.477 90.4193C82.8334 90.4781 82.3942 90.827 82.4961 91.1988C82.5979 91.5707 83.2026 91.8239 83.8463 91.765L99.3709 88.7747L96.9122 99.3084C96.8104 99.6799 97.2495 100.029 97.8932 100.088C98.5369 100.147 99.1416 99.8932 99.2434 99.5218L101.702 88.9881L115.707 94.6788C116.288 94.8497 116.999 94.7164 117.294 94.3809C117.591 94.0458 117.36 93.6354 116.779 93.4645ZM101.274 87.7884L101.013 88.0841L100.445 88.0323L100.355 87.7047L100.868 87.5542L101.274 87.7884Z" fill="url(#paint7_linear_1_2122)"/>
<path d="M100.785 88.6598C100.111 88.6598 99.564 88.113 99.564 87.4388V73.2998H102.006V87.4388C102.007 88.113 101.46 88.6598 100.785 88.6598Z" fill="#24126A"/>
<path d="M94.3013 56.5056L94.2955 56.5073C94.2667 56.1877 94.0591 55.8863 93.6611 55.6565L93.4048 55.5086C92.4566 54.961 90.8001 55.0297 89.7053 55.6618L81.9861 60.1184C81.4049 60.4539 81.1021 60.8802 81.0839 61.2888L81.08 61.2906V62.635L81.0822 62.6359C81.0817 62.9843 81.2898 63.3168 81.7201 63.5651L81.976 63.713C82.9242 64.2606 84.5807 64.192 85.6755 63.5598L93.3947 59.1033C93.9573 58.7783 94.2601 58.3684 94.2951 57.9718L94.3004 57.9695V56.5056H94.3013Z" fill="#5351AF"/>
<path d="M81.9747 62.4022L81.7188 62.2543C80.7706 61.7067 80.8892 60.7505 81.9844 60.1184L89.7036 55.6618C90.7984 55.0297 92.4549 54.961 93.4031 55.5086L93.6595 55.6565C94.6077 56.2041 94.4886 57.1603 93.3938 57.7925L85.6747 62.249C84.5795 62.8812 82.9229 62.9498 81.9747 62.4022Z" fill="url(#paint8_linear_1_2122)"/>
<path d="M98.3305 68.6218L82.1622 77.947C81.3614 78.4096 80.712 77.9187 80.712 76.8504C80.712 75.7822 81.3614 74.5414 82.1622 74.0792L100.683 63.3954V64.1263C100.683 65.8589 99.6303 67.8714 98.3305 68.6218Z" fill="#515151"/>
<path d="M99.5111 28.7796L99.5106 28.7805C98.9488 28.4786 98.2259 28.518 97.4362 28.974L96.9532 29.2529C95.1656 30.2852 93.7163 33.0538 93.7163 35.4377V67.413L98.0112 64.9335V65.9491L92.8592 70.1471L81.155 77.9946L97.6057 87.2941L107.064 80.015L112.451 75.4159L115.807 37.9964L99.5111 28.7796Z" fill="url(#paint9_linear_1_2122)"/>
<path d="M87.4637 81.5574C87.4637 81.5574 87.0263 80.3993 87.8909 79.5347C88.755 78.6706 93.3032 76.7564 93.6326 76.5506C93.9619 76.3447 95.5963 75.141 95.5963 75.141L96.0953 74.025C96.0953 74.025 86.8617 74.925 86.7386 75.0689C86.6151 75.2128 82.4171 78.9792 82.5406 79.1434C82.6641 79.3081 85.4344 79.9796 85.4344 79.9796L85.9692 80.7123L87.4637 81.5574Z" fill="#2D2D2D"/>
<path d="M113.819 38.2279L113.336 38.5068C111.548 39.5387 110.099 42.3077 110.099 44.6916V76.663L98.534 83.3339C97.7328 83.7965 97.0838 85.0373 97.0838 86.1051C97.0838 87.1733 97.7332 87.6642 98.534 87.2016L114.702 77.8764C116.002 77.126 117.055 75.1136 117.055 73.3809V72.65V40.6747C117.056 38.2912 115.606 37.1956 113.819 38.2279Z" fill="#5351AF"/>
<path d="M83.0975 88.4818C83.0975 88.4818 80.7154 90.01 79.9101 90.9109C79.1044 91.8117 77.509 93.6551 78.1655 94.5334C78.822 95.4117 81.0385 95.9026 83.4211 93.7087C85.8036 91.5147 85.1267 91.3841 87.1556 90.2969C89.184 89.2096 89.7435 88.0259 89.4992 87.3494C89.2553 86.6726 88.2521 85.476 87.7054 85.7336C87.1587 85.9913 83.0975 88.4818 83.0975 88.4818Z" fill="#160A5B"/>
<path d="M94.6808 94.9007C94.6808 94.9007 93.8255 96.7825 93.385 97.4067C92.9441 98.0309 90.8073 101.632 91.9233 102.46C93.0393 103.288 95.1545 103.059 96.8261 101.243C98.4976 99.4276 98.8695 97.2181 99.2816 96.4926C99.6938 95.767 100.721 93.8307 100.234 92.7138C99.7474 91.5969 99.6385 91.4043 99.6385 91.4043L94.6808 94.9007Z" fill="#160A5B"/>
<path d="M86.0307 68.1042C86.0307 68.1042 78.953 75.088 77.7928 78.5946C77.7928 78.5946 77.3027 80.4893 78.671 81.9754C80.0394 83.4615 82.9443 88.3195 82.9443 88.3195C82.9443 88.3195 85.1126 90.9425 87.9122 88.8454C87.9122 88.8454 89.1782 86.8228 88.4 85.4779C87.6218 84.133 85.5513 79.8372 85.5513 79.8372C85.5513 79.8372 90.0902 76.714 92.3302 75.9256C94.5702 75.1367 95.7659 74.5271 95.7659 74.5271C95.7659 74.5271 95.3582 76.6405 93.7194 78.703C92.081 80.7655 89.3367 84.0781 90.25 86.3841C91.1633 88.6901 91.6927 89.4037 92.5515 90.7309C93.4104 92.058 94.2222 94.8266 94.9544 95.1148C95.6866 95.4025 99.071 95.7346 99.6199 93.5309C100.169 91.3272 98.4654 87.0437 97.6982 85.5948C97.6982 85.5948 106.852 75.0336 107.724 73.8728C108.596 72.7112 88.8635 66.3131 86.0307 68.1042Z" fill="#24126A"/>
<path d="M88.3982 85.4771C87.62 84.1322 85.5495 79.8364 85.5495 79.8364C85.5495 79.8364 90.0884 76.7132 92.3284 75.9248C94.5689 75.1359 95.7641 74.5263 95.7641 74.5263C96.194 73.9336 97.5845 71.6617 98.2064 69.8644C93.0442 68.3522 87.4394 67.2118 86.0285 68.1042C86.5288 69.3407 89.1601 69.33 89.1601 69.33C89.1601 69.33 90.1433 71.7223 90.7945 72.0278C91.4461 72.3332 93.0071 71.999 93.0071 71.999C93.0071 71.999 92.7547 72.393 91.6427 73.196C90.5302 73.9991 83.5645 79.7058 83.5645 79.7058C83.5645 79.7058 83.9616 79.932 85.816 83.2845C87.6704 86.6369 87.9104 88.8455 87.9104 88.8455C87.9104 88.8455 89.1765 86.822 88.3982 85.4771Z" fill="#160A5B"/>
<path d="M104.042 71.8096C99.9489 71.4191 95.1834 71.3842 96.256 73.5334C98.0755 77.1785 101.736 77.3414 101.736 77.3414C101.712 78.6805 96.0962 85.1482 96.0962 85.1482C96.0962 85.1482 96.0962 85.1482 97.4048 87.6932C98.7134 90.2382 98.5491 94.8719 98.5491 94.8719C99.0538 94.5965 99.4544 94.1711 99.6143 93.5296C100.163 91.3259 98.4597 87.0425 97.6925 85.5936C97.6925 85.5936 106.846 75.0323 107.718 73.8716C107.977 73.5276 106.425 72.7237 104.042 71.8096Z" fill="#160A5B"/>
<path d="M78.8742 49.488L79.9632 48.6434C79.9632 48.6434 85.8314 45.3847 87.7841 44.3289C88.8413 43.7574 89.9387 42.7352 90.7227 41.918C91.4868 41.1216 92.5466 40.6767 93.6507 40.671L103.932 40.6196C103.932 40.6196 105.13 42.5382 105.533 42.9163C105.83 43.1939 108.62 45.5321 110.621 47.4574C111.729 48.5229 112.534 49.8585 112.953 51.3371C114.098 55.3749 114.081 63.5115 114.255 69.3293C114.255 69.3293 113.546 69.606 111.786 69.9818C110.037 70.3554 110.253 70.1164 110.253 70.1164C110.253 70.1164 107.629 76.0187 104.071 76.5889C100.512 77.1591 95.7171 75.4946 94.8618 69.907C94.8618 69.907 87.9236 68.8676 86.0422 68.0951C85.8682 68.0238 85.8075 67.8104 85.9204 67.6599C86.7593 66.5461 89.8878 62.2299 90.1857 59.417C90.5297 56.1659 90.4243 51.4465 90.1663 50.1569C90.1663 50.1569 84.9341 52.1282 83.2661 52.4775C83.2661 52.4775 76.8967 59.4768 74.2357 61.3817C74.2357 61.3817 75.1467 59.9492 73.3167 58.9766L78.8742 49.488Z" fill="#453C9E"/>
<path d="M111.779 69.9813C112.046 69.9242 112.286 69.8698 112.506 69.818L112.136 69.092L102.484 68.0707L96.8465 68.362L94.9079 70.204C95.0173 70.8021 95.1713 71.355 95.3666 71.8614C95.3763 71.8627 97.7633 72.2063 98.8713 71.9694C99.9803 71.7322 108.57 72.9951 108.587 72.9978C109.56 71.6011 110.163 70.2983 110.238 70.1341C110.23 70.181 110.335 70.2899 111.779 69.9813Z" fill="#24126A"/>
<path d="M98.7596 66.6098C98.749 66.5739 98.7189 66.5491 98.6812 66.5483C98.2164 66.5367 95.1999 66.4478 94.06 66.0542C92.8231 65.6275 91.5128 65.7058 91.4459 65.7775C91.3791 65.8492 89.3206 66.7231 89.1975 67.0782C89.0882 67.3933 88.8907 68.4859 89.1634 68.8892C89.4361 69.2929 89.5654 69.563 89.5654 69.563L89.7801 69.5855C89.7801 69.5855 90.0568 70.1305 90.2135 70.3235C90.2821 70.408 90.3361 70.501 90.3821 70.6002C90.5123 70.8813 90.7407 71.3448 90.8359 71.3545C90.9727 71.3691 91.6102 71.4957 91.7722 71.4537C91.9045 71.4196 92.0241 71.0145 91.9692 70.8366C91.9541 70.7879 91.9785 70.7432 92.0289 70.7348C92.3225 70.6865 93.1188 70.586 94.2202 70.6869C95.562 70.81 97.4585 69.933 97.6303 69.852C97.6391 69.8476 97.648 69.8454 97.6582 69.8445L99.5502 69.6736C99.6042 69.6688 99.6401 69.6156 99.625 69.5638L98.7596 66.6098Z" fill="#FCD1C5"/>
<path d="M96.4819 46.6733C96.4819 46.6733 94.8718 52.6076 96.574 58.706C96.574 58.706 102.768 47.151 103.44 45.2758C104.112 43.4005 104.356 42.0689 103.728 41.3956C103.1 40.7223 97.5045 44.2005 97.5045 44.2005L96.4819 46.6733Z" fill="#F0F6FF"/>
<path d="M98.0729 55.9784C98.0729 55.9784 99.2527 52.3674 99.0473 51.2018C98.8419 50.0358 98.5488 49.2026 98.5488 49.2026L99.6126 48.2212L100.082 49.1938C100.082 49.1938 102.424 47.4753 102.579 47.1556C102.579 47.1556 100.693 48.4501 100.1 48.6435C100.1 48.6435 99.8206 48.18 99.4492 48.0224C99.0778 47.8648 98.1552 49.1283 98.1552 49.1283L97.9826 51.3191L97.0569 56.4291L97.3783 57.1883L98.0729 55.9784Z" fill="#C4CCD6"/>
<path d="M97.0396 46.7406C97.0396 46.7406 96.8161 49.0723 97.0091 49.2374C97.2021 49.4025 97.9241 49.4131 98.2597 49.225C98.5952 49.0368 99.4523 48.0231 99.4523 48.0231C99.4523 48.0231 98.4049 46.174 97.0396 46.7406Z" fill="#24126A"/>
<path d="M98.3031 48.8085C98.3031 48.8085 98.9339 50.4269 98.3292 52.6643C97.7241 54.9016 97.4921 56.9801 97.4921 56.9801L96.5722 58.7052C96.5722 58.7052 95.4243 55.3288 95.8015 51.9374C95.971 50.4141 97.1322 49.0657 97.1322 49.0657L98.3031 48.8085Z" fill="#24126A"/>
<path d="M93.5864 37.2099C93.5864 37.2099 93.3022 38.6526 93.4049 38.9266C93.5076 39.2006 93.8729 39.3839 93.7834 39.9466C93.6945 40.5092 94.0194 42.1906 94.1867 42.751C94.1867 42.751 94.0641 43.3495 94.2319 43.535C94.3997 43.7205 94.6175 43.7138 94.7746 43.9967C94.9322 44.2796 94.9853 45.7352 95.5746 46.2217C96.1642 46.7082 96.9327 46.8091 97.3285 46.7033C97.7243 46.5971 98.1311 46.2952 98.1311 46.2952L99.0191 46.6653C99.0191 46.6653 103.625 45.3611 103.481 42.1237L103.478 41.7815C103.478 41.7815 103.805 41.3247 103.9 41.0241C103.995 40.7235 104.758 39.379 104.373 38.7991C104.373 38.7991 106.157 31.7551 100.652 31.3301C95.1482 30.9051 94.3191 34.7627 93.5864 37.2099Z" fill="#FCD1C5"/>
<path d="M103.478 42.1238L103.477 42.0848C103.248 41.9476 103.023 41.8608 102.845 41.8923C102.215 42.0034 102.359 40.697 102.359 40.697C102.359 40.697 102.242 40.9339 101.921 42.6037C101.599 44.2731 98.1273 46.2953 98.1273 46.2953L99.0153 46.6653C99.0153 46.6653 103.621 45.3612 103.478 42.1238Z" fill="#E2B1A6"/>
<path d="M93.6143 34.1517C93.076 35.2947 92.8188 36.668 93.9441 37.5896C93.9441 37.5896 94.8901 37.8477 96.6879 37.0119C97.8995 36.4488 99.1111 36.6981 99.7721 36.9207C100.078 37.0234 100.278 37.3134 100.269 37.6357L100.243 38.6384C100.236 38.8991 100.389 39.1373 100.629 39.2395L101.464 39.5955L101.63 40.5707C101.679 40.8584 101.975 41.032 102.25 40.9337L102.462 40.858C102.462 40.858 102.586 38.6879 104.376 38.7986C104.376 38.7986 105.826 35.6644 104.341 32.798C102.855 29.9316 98.7853 30.1361 97.9172 30.461C96.7751 30.8891 96.9344 30.8254 96.2793 31.2304C95.1358 31.9374 94.1871 32.9352 93.6143 34.1517Z" fill="#AA8383"/>
<path d="M108.25 56.2548C108.25 56.2548 107.416 62.3997 107.074 64.1386L104.38 65.5592L109.164 65.267L108.25 56.2548Z" fill="#24126A"/>
<path d="M104.376 38.7989C104.376 38.7989 104.866 37.7373 104.984 36.2853C102.759 38.0485 100.269 37.6355 100.269 37.6355L100.243 38.6382C100.236 38.8989 100.389 39.1371 100.629 39.2393L101.465 39.5953L101.63 40.5705C101.679 40.8578 101.975 41.0318 102.25 40.9335L102.462 40.8578C102.462 40.8578 102.586 38.6882 104.376 38.7989Z" fill="#936D6D"/>
<path d="M105.57 44.1971C105.57 44.1971 104.144 49.0937 103.847 50.0375L102.7 49.9162L102.906 51.4656L96.7283 59.6098L103.588 51.7348L103.316 50.3545L104.358 50.4647L105.57 44.1971Z" fill="#24126A"/>
<path d="M99.5026 70.8111C99.5026 70.8111 113.993 70.3391 114.363 70.0758C114.732 69.8124 114.798 66.0845 114.764 63.9242C114.74 62.4084 114.757 56.4786 113.464 52.3191C114.48 55.8411 113.945 68.2975 113.485 68.931C113.023 69.5658 99.2397 69.9306 99.2397 69.9306C99.3884 70.4481 99.5026 70.8111 99.5026 70.8111Z" fill="#263649"/>
<path d="M71.0257 59.2204C71.0257 59.2204 70.9709 59.5861 70.3414 59.9433C69.7119 60.3006 68.0987 61.0965 67.838 61.3254C67.5768 61.5543 66.4134 62.5751 66.3797 62.7097C66.3457 62.8443 65.9964 64.0006 65.999 64.0701C66.0017 64.1396 66.1128 64.6739 66.1128 64.6739L65.7542 66.3818C65.7542 66.3818 65.2996 67.044 65.7936 67.2242C66.2872 67.4048 66.5688 66.8918 66.5767 66.8138C66.5767 66.8138 67.3244 66.4588 67.8725 66.0338C68.4205 65.6084 70.6198 63.839 70.993 63.9474C71.3662 64.0559 71.0231 64.6903 70.8438 64.7996C70.6645 64.909 69.4985 66.048 69.9868 66.8395C70.4751 67.631 70.7938 66.3924 71.1161 66.1405C71.4388 65.8886 72.1351 64.897 72.5623 64.7748C72.9895 64.6522 73.7664 63.0576 73.8683 62.3453C73.9701 61.6331 74.4787 61.174 74.6611 60.9434C74.8435 60.7127 74.268 58.9424 74.268 58.9424L72.0909 58.2646L71.3277 58.7605L71.0257 59.2204Z" fill="#FCD1C5"/>
<mask id="mask0_1_2122" style="mask-type:luminance" maskUnits="userSpaceOnUse" x="103" y="67" width="14" height="9">
<path d="M104.127 75.1198L103.871 74.972C102.923 74.4244 103.042 73.4682 104.137 72.836L111.856 68.3795C112.95 67.7473 114.607 67.6787 115.555 68.2263L115.812 68.3742C116.76 68.9218 116.641 69.878 115.546 70.5101L107.827 74.9667C106.732 75.5984 105.075 75.667 104.127 75.1198Z" fill="white"/>
</mask>
<g mask="url(#mask0_1_2122)">
<path d="M112.379 49.8811C111.924 49.1617 111.715 49.693 111.104 50.2862C110.279 51.087 109.243 52.3292 108.708 53.8981C107.735 56.7543 108.084 63.8926 108.41 64.9135C108.41 64.9135 99.3365 66.3991 98.7083 66.3721C98.0801 66.3451 99.487 70.8141 99.487 70.8141C99.487 70.8141 113.978 70.3421 114.347 70.0787C114.717 69.8153 114.783 66.0875 114.748 63.9272C114.719 62.075 114.754 53.6307 112.379 49.8811Z" fill="#334659"/>
</g>
<mask id="mask1_1_2122" style="mask-type:luminance" maskUnits="userSpaceOnUse" x="103" y="67" width="14" height="9">
<path d="M104.127 75.1198L103.871 74.972C102.923 74.4244 103.042 73.4682 104.137 72.836L111.856 68.3795C112.95 67.7473 114.607 67.6787 115.555 68.2263L115.812 68.3742C116.76 68.9218 116.641 69.878 115.546 70.5101L107.827 74.9667C106.732 75.5984 105.075 75.667 104.127 75.1198Z" fill="white"/>
</mask>
<g mask="url(#mask1_1_2122)">
<path d="M99.4924 70.8142C99.4924 70.8142 113.983 70.3423 114.353 70.0789C114.722 69.8155 114.788 66.0877 114.754 63.9273C114.729 62.4116 114.747 56.4818 113.453 52.3223C114.47 55.8443 113.935 68.3006 113.474 68.9341C113.013 69.5689 99.2295 69.9337 99.2295 69.9337C99.3782 70.4512 99.4924 70.8142 99.4924 70.8142Z" fill="#263649"/>
</g>
<path d="M116.448 69.2221L116.443 69.2239C116.414 68.9047 116.206 68.6028 115.808 68.3731L115.552 68.2252C114.604 67.6776 112.947 67.7462 111.852 68.3784L104.133 72.8349C103.552 73.1705 103.249 73.5968 103.231 74.0054L103.227 74.0071V75.3516L103.23 75.3525C103.229 75.7009 103.437 76.0333 103.868 76.2817L104.124 76.4295C105.072 76.9771 106.728 76.9085 107.823 76.2764L115.543 71.8198C116.105 71.4949 116.408 71.085 116.443 70.6883L116.448 70.6861V69.2221Z" fill="#5351AF"/>
<path d="M104.131 75.1196L103.874 74.9717C102.926 74.4241 103.045 73.4679 104.14 72.8358L111.859 68.3792C112.954 67.7471 114.61 67.6784 115.559 68.2261L115.815 68.3739C116.763 68.9215 116.644 69.8777 115.549 70.5099L107.83 74.9664C106.735 75.5981 105.079 75.6668 104.131 75.1196Z" fill="url(#paint10_linear_1_2122)"/>
<path opacity="0.5" d="M99.4083 100.738L34.7095 63.3954L60.0751 48.7504L124.774 86.0929L99.4083 100.738Z" fill="url(#paint11_linear_1_2122)"/>
<path d="M34.7095 61.134V63.3957L99.4083 100.738L124.774 86.0932V83.8315L99.4083 98.4765L34.7095 61.134Z" fill="url(#paint12_linear_1_2122)"/>
<path d="M99.4083 98.4762L34.7095 61.1337L60.0751 46.4891L124.774 83.8312L99.4083 98.4762Z" fill="url(#paint13_linear_1_2122)"/>
<path d="M99.4083 98.2452L34.9096 61.0182L34.7095 61.1337L99.4083 98.4762L124.774 83.8312L124.574 83.7157L99.4083 98.2452Z" fill="white"/>
<path opacity="0.3" d="M91.7032 71.1891C91.7032 71.1891 93.5182 71.8363 94.9051 71.6056C96.2921 71.3745 102.967 71.2439 102.967 71.2439L101.918 70.6379L99.5773 69.0079L93.7763 69.3993L91.5385 70.2014L91.7032 71.1891Z" fill="#180D5B"/>
<path d="M98.7443 66.6111C98.7336 66.5753 98.7035 66.5505 98.6659 66.5496C98.2011 66.5381 95.1846 66.4491 94.0447 66.0556C92.8078 65.6288 91.4974 65.7072 91.4306 65.7789C91.3638 65.8506 89.3053 66.7245 89.1822 67.0795C89.0729 67.3947 88.8754 68.4872 89.1481 68.8905C89.4208 69.2943 89.5501 69.5643 89.5501 69.5643L89.7648 69.5869C89.7648 69.5869 90.0414 70.1318 90.1982 70.3248C90.2668 70.4094 90.3208 70.5024 90.3668 70.6015C90.497 70.8826 90.7254 71.3461 90.8206 71.3559C90.9574 71.3705 91.5948 71.4971 91.7569 71.455C91.8892 71.4209 92.0088 71.0159 91.9539 70.8379C91.9388 70.7892 91.9632 70.7445 92.0136 70.7361C92.3071 70.6878 93.1035 70.5874 94.2049 70.6883C95.5467 70.8114 97.4432 69.9344 97.615 69.8534C97.6238 69.8489 97.6327 69.8467 97.6429 69.8458L99.5349 69.675C99.5889 69.6701 99.6248 69.617 99.6097 69.5652L98.7443 66.6111Z" fill="#FCD1C5"/>
<path d="M112.391 49.8804C111.936 49.161 111.727 49.6922 111.115 50.2854C110.291 51.0863 109.255 52.3284 108.72 53.8973C107.747 56.7535 108.096 63.8919 108.422 64.9127C108.422 64.9127 99.3483 66.3984 98.7201 66.3714C98.0919 66.3444 99.4988 70.8133 99.4988 70.8133C99.4988 70.8133 113.989 70.3414 114.359 70.078C114.729 69.8146 114.795 66.0867 114.76 63.9264C114.731 62.0742 114.765 53.6299 112.391 49.8804Z" fill="#4846A5"/>
<path d="M99.4957 70.8135C99.4957 70.8135 113.986 70.3416 114.356 70.0782C114.726 69.8148 114.792 66.0869 114.757 63.9266C114.733 62.4108 114.75 56.481 113.457 52.3215C114.473 55.8436 113.938 68.2999 113.478 68.9334C113.016 69.5682 99.2328 69.933 99.2328 69.933C99.3815 70.4505 99.4957 70.8135 99.4957 70.8135Z" fill="#24126A"/>
<path opacity="0.3" d="M73.5164 63.3952C73.5164 63.3952 78.6967 59.3468 79.4373 58.9554C80.1784 58.5637 80.4901 58.2666 80.4901 58.2666L78.7556 57.2653L75.8228 58.4711L72.1286 62.1322L66.4413 66.1633V67.0996C66.4413 67.0996 71.1334 65.0858 71.658 64.7418C72.183 64.3979 73.5164 63.3952 73.5164 63.3952Z" fill="#180D5B"/>
<path opacity="0.63" d="M70.4316 67.061C70.4316 67.061 71.5348 66.0752 72.2471 65.7458C72.9594 65.4165 74.0913 64.5421 74.2303 63.8732C74.3693 63.2043 75.5473 61.724 75.5473 61.724L73.6593 62.8135L70.9252 64.3925L66.3739 67.0323C66.3739 67.0323 66.6519 67.3514 67.2279 67.1558C67.8043 66.9601 68.8844 66.2708 69.3886 66.2093C69.8929 66.1478 70.7264 65.9933 70.7264 65.9933L70.4316 67.061Z" fill="#2D2D2D"/>
<path d="M71.0189 59.2219C71.0189 59.2219 70.964 59.5875 70.3345 59.9448C69.705 60.302 68.0918 61.098 67.8311 61.3269C67.5699 61.5557 66.4065 62.5766 66.3728 62.7111C66.3388 62.8457 65.9895 64.002 65.9921 64.0715C65.9948 64.141 66.1059 64.6754 66.1059 64.6754L65.7473 66.3832C65.7473 66.3832 65.2927 67.0455 65.7867 67.2257C66.2803 67.4063 66.5619 66.8932 66.5698 66.8153C66.5698 66.8153 67.3175 66.4603 67.8656 66.0353C68.4136 65.6099 70.6129 63.8404 70.9861 63.9489C71.3593 64.0574 71.0162 64.6917 70.8369 64.8011C70.6576 64.9104 69.4916 66.0495 69.9799 66.841C70.4682 67.6325 70.7869 66.3939 71.1092 66.142C71.4319 65.8901 72.1282 64.8985 72.5554 64.7763C72.9826 64.6537 73.7595 63.0591 73.8614 62.3468C73.9632 61.6345 74.4718 61.1755 74.6542 60.9448C74.8366 60.7142 74.2611 58.9439 74.2611 58.9439L72.084 58.2661L71.3208 58.7619L71.0189 59.2219Z" fill="#FCD1C5"/>
<path d="M90.6702 47.2711C90.6702 47.2711 90.5905 44.0253 91.1435 41.5352C90.9921 41.6529 90.8455 41.7782 90.711 41.9185C89.9269 42.7357 88.83 43.7579 87.7724 44.3294C85.8197 45.3852 79.9514 48.6438 79.9514 48.6438L78.8624 49.4885C75.4205 52.1871 71.5753 58.0576 71.0162 59.2219C71.2858 58.8624 71.9773 58.2719 73.3045 58.9775C75.1345 59.9505 74.2629 61.4119 74.2629 61.4119C76.9239 59.507 83.2539 52.4784 83.2539 52.4784C84.8166 52.1508 89.5091 50.3995 90.0939 50.1804C90.4688 49.2034 90.6897 48.222 90.6702 47.2711Z" fill="#4846A5"/>
<path d="M57.7824 69.3844L59.0396 70.0409L71.6447 62.7635C71.8554 62.6418 72.2238 62.6568 72.4677 62.7976L94.2076 75.3492C94.4157 75.2327 95.3644 74.7768 95.3644 74.7768L94.9044 75.9756L94.9027 75.9742C94.8836 76.0274 94.8429 76.0774 94.7743 76.1168L81.4985 83.7815C81.2878 83.9032 80.919 83.8882 80.6756 83.7474L58.4283 70.9028C58.3282 70.8453 58.2671 70.7753 58.2419 70.7045L58.2401 70.7058L57.7824 69.3844Z" fill="url(#paint14_linear_1_2122)"/>
<path d="M57.9803 69.5911L80.7805 82.7549C81.0302 82.8992 81.4078 82.9147 81.6238 82.7899L95.2294 74.9344C95.4454 74.8095 95.4184 74.5917 95.1688 74.4474L72.369 61.2841C72.1193 61.1398 71.7417 61.1243 71.5257 61.2491L57.9197 69.1046C57.7036 69.229 57.7311 69.4473 57.9803 69.5911Z" fill="url(#paint15_linear_1_2122)"/>
<path d="M57.9779 69.4595L80.7781 82.6233C81.0278 82.7671 81.4054 82.7831 81.6215 82.6582L95.227 74.8027C95.2979 74.762 95.3399 74.7106 95.3594 74.6558C95.3935 74.758 95.3527 74.862 95.227 74.9342L81.6215 82.7897C81.4054 82.9145 81.0278 82.8986 80.7781 82.7547L57.9779 69.591C57.8102 69.494 57.7455 69.3643 57.7854 69.251C57.8102 69.3253 57.8735 69.3993 57.9779 69.4595Z" fill="white"/>
<path d="M87.5541 76.7202L68.6071 65.781C68.4809 65.7079 68.3251 65.7079 68.1989 65.781L61.4519 69.6846C61.3549 69.7408 61.3549 69.8807 61.4519 69.9365L80.3901 80.8704C80.5163 80.9435 80.6716 80.9435 80.7978 80.8704L87.5541 76.9717C87.6511 76.9164 87.6511 76.7765 87.5541 76.7202Z" fill="#ADB1F2"/>
<path d="M87.5541 76.9726L87.4864 77.0116L68.6071 66.1117C68.4809 66.0387 68.3251 66.0387 68.1989 66.1117L61.5196 69.9759L61.4519 69.937C61.3549 69.8812 61.3549 69.7413 61.4519 69.6851L68.1989 65.7815C68.3251 65.7084 68.4809 65.7084 68.6071 65.7815L87.5541 76.7207C87.6511 76.7765 87.6511 76.9164 87.5541 76.9726Z" fill="#9198DB"/>
<path d="M67.6847 66.7699L85.1373 76.846L86.0023 76.5007L68.4165 66.3472L67.6847 66.7699Z" fill="#24126A"/>
<path d="M65.8981 67.805L81.3351 76.7177L82.0668 76.2953L66.6298 67.3827L65.8981 67.805Z" fill="#24126A"/>
<path d="M64.7351 68.4803L82.911 78.9742L83.6427 78.5515L65.4668 68.058L64.7351 68.4803Z" fill="#24126A"/>
<path d="M63.5637 69.155L81.7391 79.6489L82.4709 79.2261L64.2954 68.7327L63.5637 69.155Z" fill="#24126A"/>
<path d="M62.3922 69.8297L80.5681 80.3236L81.2999 79.9008L63.124 69.4073L62.3922 69.8297Z" fill="#24126A"/>
<path d="M85.1465 76.8457L85.8783 77.268L86.61 76.8457L85.8783 76.4233L85.1465 76.8457Z" fill="#24126A"/>
<path d="M80.444 76.2059L84.0789 78.3042L84.8107 77.8819L81.1496 75.7681L80.444 76.2059Z" fill="#24126A"/>
<path d="M80.8068 71.8175L75.6981 68.8678C75.4985 68.7527 75.4985 68.5655 75.6981 68.4504L79.1918 66.4335C79.3915 66.3184 79.7151 66.3184 79.9147 66.4335L85.0234 69.3831C85.223 69.4982 85.223 69.6855 85.0234 69.8006L81.5297 71.8175C81.33 71.9326 81.0064 71.9326 80.8068 71.8175Z" fill="url(#paint16_linear_1_2122)"/>
<path d="M85.0216 69.5537L79.913 66.6041C79.7134 66.489 79.3898 66.489 79.1901 66.6041L75.6964 68.621C75.6349 68.6564 75.5946 68.6993 75.5707 68.7445C75.518 68.6436 75.5583 68.5302 75.6964 68.4505L79.1901 66.4337C79.3898 66.3181 79.7134 66.3186 79.913 66.4337L85.0216 69.3833C85.1597 69.463 85.2 69.5767 85.1474 69.6777C85.1235 69.6321 85.0832 69.5896 85.0216 69.5537Z" fill="#9198DB"/>
<path d="M57.7828 69.0474L60.6651 51.9477L60.4336 51.8503L60.782 51.6507L60.7815 51.6529C60.8493 51.6077 60.9444 51.6108 61.0498 51.6715L84.0842 64.9707C84.2732 65.08 84.4167 65.3598 84.3835 65.5559L81.4785 82.7915C81.4635 82.8814 81.4188 82.9407 81.3572 82.9669H81.3577L81.0168 83.1638L80.9584 82.8456L80.9779 82.8513L58.0829 69.6326C57.8926 69.5233 57.7496 69.2431 57.7828 69.0474Z" fill="url(#paint17_linear_1_2122)"/>
<path d="M83.9613 65.4377L84.3398 65.2699C84.3823 65.3668 84.4031 65.4691 84.3885 65.555L81.4835 82.7906C81.4685 82.8805 81.4238 82.9398 81.3622 82.9659H81.3627L81.0218 83.1629L80.9634 82.8446L80.9829 82.8504L79.8243 82.1815L83.9613 65.4377Z" fill="url(#paint18_linear_1_2122)"/>
<path d="M57.7277 69.8397L80.7621 83.1385C80.9401 83.2412 81.0924 83.1819 81.1234 82.9977L84.0287 65.7621C84.0619 65.5664 83.9189 65.2862 83.7295 65.1769L60.6951 51.8781C60.5171 51.7754 60.3648 51.8347 60.3338 52.0189L57.4289 69.2545C57.3953 69.4501 57.5383 69.7304 57.7277 69.8397Z" fill="#453C9E"/>
<g opacity="0.6">
<path d="M55.5709 102.177L52.4986 100.404L53.1684 100.017L56.2411 101.79L55.5709 102.177Z" fill="#42E8E0"/>
<path d="M58.1899 103.691L56.6534 102.804L57.3236 102.417L58.8597 103.304L58.1899 103.691Z" fill="#42E8E0"/>
<path d="M54.9116 103.608L53.6026 102.852L54.2724 102.465L55.5819 103.221L54.9116 103.608Z" fill="#42E8E0"/>
<path d="M57.1024 104.873L55.5662 103.986L56.236 103.6L57.7726 104.487L57.1024 104.873Z" fill="#42E8E0"/>
<path d="M58.0641 107.245L52.0267 103.759L52.6969 103.372L58.7343 106.858L58.0641 107.245Z" fill="#42E8E0"/>
<path d="M40.8466 114.143L34.8093 110.658L35.4791 110.271L41.5164 113.756L40.8466 114.143Z" fill="#42E8E0"/>
<path d="M43.1637 115.483L41.6271 114.596L42.2973 114.209L43.8335 115.096L43.1637 115.483Z" fill="#42E8E0"/>
<path d="M51.7682 105.422L50.4591 104.666L51.1289 104.279L52.438 105.035L51.7682 105.422Z" fill="#42E8E0"/>
<path d="M53.9589 106.688L52.4228 105.801L53.0925 105.414L54.6291 106.301L53.9589 106.688Z" fill="#42E8E0"/>
<path d="M52.2025 107.489L48.8832 105.573L49.553 105.186L52.8723 107.102L52.2025 107.489Z" fill="#42E8E0"/>
<path d="M54.4308 108.772L52.8947 107.885L53.5645 107.498L55.101 108.385L54.4308 108.772Z" fill="#42E8E0"/>
<path d="M56.6641 110.061L55.128 109.174L55.7978 108.787L57.3339 109.674L56.6641 110.061Z" fill="#42E8E0"/>
<path d="M60.2684 112.142L57.3613 110.463L58.0315 110.076L60.9386 111.755L60.2684 112.142Z" fill="#42E8E0"/>
<path d="M55.3831 112.95L53.847 112.063L54.5168 111.676L56.0529 112.563L55.3831 112.95Z" fill="#42E8E0"/>
<path d="M58.9874 115.031L56.0803 113.352L56.7505 112.965L59.6577 114.644L58.9874 115.031Z" fill="#42E8E0"/>
<path d="M47.2843 108.274L45.7482 107.387L46.418 107L47.9545 107.887L47.2843 108.274Z" fill="#42E8E0"/>
<path d="M49.5092 109.563L47.973 108.676L48.6428 108.289L50.1789 109.176L49.5092 109.563Z" fill="#42E8E0"/>
<path d="M53.1219 111.643L50.2148 109.965L50.885 109.578L53.7921 111.257L53.1219 111.643Z" fill="#42E8E0"/>
<path d="M59.1334 113.302L57.5972 112.415L58.267 112.028L59.8031 112.916L59.1334 113.302Z" fill="#42E8E0"/>
<path d="M61.3587 114.591L59.8221 113.705L60.4923 113.318L62.0285 114.205L61.3587 114.591Z" fill="#42E8E0"/>
<path d="M64.9709 116.672L62.0638 114.994L62.7336 114.607L65.6407 116.285L64.9709 116.672Z" fill="#42E8E0"/>
<path d="M45.5651 116.872L44.029 115.985L44.6987 115.598L46.2353 116.485L45.5651 116.872Z" fill="#42E8E0"/>
<path d="M49.1689 118.953L46.2622 117.274L46.932 116.887L49.8392 118.566L49.1689 118.953Z" fill="#42E8E0"/>
<path d="M44.1408 110.087L42.6047 109.2L43.2745 108.814L44.8106 109.701L44.1408 110.087Z" fill="#42E8E0"/>
<path d="M47.7451 112.168L44.838 110.49L45.5082 110.103L48.4153 111.781L47.7451 112.168Z" fill="#42E8E0"/>
<path d="M45.9448 118.905L44.4082 118.018L45.0784 117.632L46.6146 118.518L45.9448 118.905Z" fill="#42E8E0"/>
<path d="M49.5486 120.986L46.6415 119.308L47.3113 118.921L50.2184 120.599L49.5486 120.986Z" fill="#42E8E0"/>
<path d="M62.6565 109.896L61.1199 109.01L61.7902 108.623L63.3263 109.509L62.6565 109.896Z" fill="#42E8E0"/>
<path d="M60.3389 108.556L58.8024 107.669L59.4726 107.282L61.0087 108.169L60.3389 108.556Z" fill="#42E8E0"/>
<path d="M66.2688 111.977L63.3617 110.298L64.0319 109.911L66.9386 111.59L66.2688 111.977Z" fill="#42E8E0"/>
<path d="M48.7106 107.28L47.3241 106.48L47.9943 106.093L49.3804 106.893L48.7106 107.28Z" fill="#42E8E0"/>
<path d="M52.8172 109.654L49.4478 107.708L50.1176 107.322L53.4869 109.267L52.8172 109.654Z" fill="#42E8E0"/>
<path d="M56.9293 112.027L53.5605 110.081L54.2302 109.695L57.5996 111.64L56.9293 112.027Z" fill="#42E8E0"/>
<path d="M68.3968 113.209L67.0108 112.409L67.6806 112.023L69.0666 112.823L68.3968 113.209Z" fill="#42E8E0"/>
<path d="M72.5038 115.582L69.1345 113.637L69.8047 113.25L73.1736 115.196L72.5038 115.582Z" fill="#42E8E0"/>
<path d="M76.6164 117.955L73.2471 116.01L73.9174 115.624L77.2862 117.569L76.6164 117.955Z" fill="#42E8E0"/>
<path d="M47.5832 110.256L44.2144 108.311L44.8841 107.924L48.2534 109.869L47.5832 110.256Z" fill="#42E8E0"/>
<path d="M49.3531 111.281L48.3185 110.684L48.9883 110.297L50.0229 110.894L49.3531 111.281Z" fill="#42E8E0"/>
<path d="M51.1233 112.309L50.0883 111.712L50.7586 111.325L51.7931 111.923L51.1233 112.309Z" fill="#42E8E0"/>
<path d="M54.4288 114.21L51.8834 112.74L52.5532 112.353L55.0986 113.823L54.4288 114.21Z" fill="#42E8E0"/>
<path d="M55.1115 114.608L52.566 113.139L53.2362 112.752L55.7817 114.221L55.1115 114.608Z" fill="#42E8E0"/>
<path d="M61.986 113.134L60.9514 112.536L61.6212 112.15L62.6562 112.747L61.986 113.134Z" fill="#42E8E0"/>
<path d="M65.275 115.034L62.7296 113.564L63.3994 113.177L65.9448 114.647L65.275 115.034Z" fill="#42E8E0"/>
<path d="M65.9661 115.433L63.4207 113.963L64.0904 113.576L66.6363 115.046L65.9661 115.433Z" fill="#42E8E0"/>
<path d="M40.4204 117.529L37.1015 115.612L37.7713 115.226L41.0906 117.142L40.4204 117.529Z" fill="#42E8E0"/>
<path d="M42.6492 118.812L41.113 117.925L41.7828 117.538L43.319 118.425L42.6492 118.812Z" fill="#42E8E0"/>
<path d="M44.8745 120.101L43.3379 119.214L44.0081 118.827L45.5443 119.714L44.8745 120.101Z" fill="#42E8E0"/>
<path d="M48.4867 122.182L45.5796 120.504L46.2494 120.117L49.1565 121.795L48.4867 122.182Z" fill="#42E8E0"/>
<path d="M50.7906 123.513L49.254 122.626L49.9242 122.239L51.4604 123.126L50.7906 123.513Z" fill="#42E8E0"/>
<path d="M54.386 125.593L51.4789 123.915L52.1487 123.528L55.0558 125.207L54.386 125.593Z" fill="#42E8E0"/>
<path d="M40.7534 121.347L39.2169 120.46L39.8871 120.073L41.4232 120.96L40.7534 121.347Z" fill="#42E8E0"/>
<path d="M44.3488 123.427L41.4417 121.749L42.1119 121.362L45.0186 123.041L44.3488 123.427Z" fill="#42E8E0"/>
<path d="M32.722 116.714L31.1854 115.826L31.8556 115.44L33.3918 116.327L32.722 116.714Z" fill="#42E8E0"/>
<path d="M34.9549 118.003L33.4187 117.116L34.0885 116.729L35.6251 117.617L34.9549 118.003Z" fill="#42E8E0"/>
<path d="M38.5591 120.084L35.652 118.406L36.3218 118.019L39.2289 119.698L38.5591 120.084Z" fill="#42E8E0"/>
<path d="M36.9117 117.32L35.5256 116.52L36.1958 116.133L37.5819 116.933L36.9117 117.32Z" fill="#42E8E0"/>
<path d="M41.0266 119.693L37.6577 117.747L38.3275 117.361L41.6968 119.306L41.0266 119.693Z" fill="#42E8E0"/>
<path d="M45.1308 122.066L41.762 120.121L42.4318 119.734L45.8011 121.679L45.1308 122.066Z" fill="#42E8E0"/>
<path d="M30.2984 117.127L26.9295 115.182L27.5993 114.795L30.9682 116.74L30.2984 117.127Z" fill="#42E8E0"/>
<path d="M32.0772 118.153L31.0421 117.556L31.7124 117.169L32.7469 117.766L32.0772 118.153Z" fill="#42E8E0"/>
<path d="M33.8554 119.181L32.8204 118.583L33.4902 118.196L34.5252 118.794L33.8554 119.181Z" fill="#42E8E0"/>
<path d="M37.144 121.08L34.5986 119.61L35.2684 119.223L37.8138 120.693L37.144 121.08Z" fill="#42E8E0"/>
<path d="M37.8351 121.479L35.2896 120.01L35.9594 119.623L38.5053 121.093L37.8351 121.479Z" fill="#42E8E0"/>
<path d="M36.9899 113.731L35.9554 113.133L36.6252 112.747L37.6597 113.344L36.9899 113.731Z" fill="#42E8E0"/>
<path d="M40.2706 115.631L37.7252 114.161L38.3954 113.775L40.9408 115.244L40.2706 115.631Z" fill="#42E8E0"/>
<path d="M43.6336 117.571L41.0877 116.101L41.758 115.715L44.3034 117.185L43.6336 117.571Z" fill="#42E8E0"/>
<path d="M54.001 127.188L52.4649 126.301L53.1347 125.914L54.6712 126.801L54.001 127.188Z" fill="#42E8E0"/>
<path d="M57.6137 129.269L54.7066 127.591L55.3764 127.204L58.2835 128.882L57.6137 129.269Z" fill="#42E8E0"/>
<path d="M48.3273 123.913L45.7819 122.443L46.4516 122.057L48.9975 123.526L48.3273 123.913Z" fill="#42E8E0"/>
<path d="M51.6903 125.854L49.1444 124.384L49.8147 123.997L52.3601 125.467L51.6903 125.854Z" fill="#42E8E0"/>
<path d="M39.4255 109.18L38.391 108.583L39.0607 108.196L40.0953 108.793L39.4255 109.18Z" fill="#42E8E0"/>
<path d="M42.7146 111.08L40.1692 109.611L40.8389 109.224L43.3848 110.693L42.7146 111.08Z" fill="#42E8E0"/>
<path d="M46.0776 113.021L43.5317 111.552L44.202 111.165L46.7474 112.635L46.0776 113.021Z" fill="#42E8E0"/>
</g>
<path d="M4.52164 105.613C4.11082 105.613 3.71772 105.53 3.42466 105.361L0.747283 103.815C0.44714 103.642 0.282013 103.398 0.282013 103.128C0.282013 102.81 0.514871 102.493 0.920816 102.258L8.88566 97.6593C9.62627 97.2317 10.7538 97.1866 11.3979 97.5589L14.0753 99.1047C14.375 99.2778 14.5401 99.5213 14.5401 99.7913C14.5401 100.11 14.3077 100.427 13.9018 100.662L5.93647 105.26C5.53318 105.494 5.01435 105.613 4.52164 105.613ZM10.3018 97.4889C9.84275 97.4889 9.35756 97.6009 8.97906 97.8192L1.01422 102.418C0.667155 102.619 0.467941 102.877 0.467941 103.128C0.467941 103.329 0.60031 103.517 0.840689 103.655L3.51806 105.201C4.11126 105.542 5.15469 105.498 5.84484 105.1L13.8101 100.501C14.1572 100.301 14.356 100.042 14.356 99.7913C14.356 99.5904 14.2236 99.4035 13.9837 99.265L11.3063 97.7191C11.0384 97.5646 10.6785 97.4889 10.3018 97.4889Z" fill="#42E8E0"/>
<path d="M18.9036 113.911C18.4923 113.911 18.1001 113.828 17.8066 113.659L8.87982 108.505C8.57968 108.331 8.41455 108.088 8.41455 107.818C8.41455 107.499 8.64741 107.182 9.05291 106.948L17.0182 102.349C17.7593 101.922 18.8859 101.876 19.5304 102.249L28.4573 107.403C28.757 107.576 28.9221 107.819 28.9221 108.089C28.9221 108.408 28.6897 108.725 28.2837 108.96L20.3184 113.558C19.9147 113.792 19.3959 113.911 18.9036 113.911ZM18.4339 102.179C17.9748 102.179 17.4897 102.291 17.1112 102.509L9.14588 107.108C8.79925 107.309 8.60004 107.567 8.60004 107.818C8.60004 108.019 8.7324 108.206 8.97278 108.345L17.8996 113.499C18.4928 113.841 19.5371 113.797 20.2264 113.398L28.1916 108.799C28.5387 108.599 28.7375 108.34 28.7375 108.089C28.7375 107.889 28.6051 107.702 28.3652 107.563L19.4384 102.409C19.1705 102.255 18.8111 102.179 18.4339 102.179Z" fill="#42E8E0"/>
<path d="M32.0853 106.272C31.6537 106.272 31.2415 106.185 30.9334 106.007L14.0002 96.2305C13.6863 96.0494 13.5132 95.7944 13.5132 95.512C13.5132 95.1782 13.7571 94.8462 14.1826 94.6005L30.7502 85.0353C31.5271 84.586 32.7104 84.5386 33.3881 84.93L50.3218 94.7067C50.6357 94.8878 50.8088 95.1428 50.8088 95.4248C50.8088 95.7586 50.5644 96.0906 50.139 96.3363L33.5714 105.901C33.1473 106.146 32.6028 106.272 32.0853 106.272ZM31.026 105.847C31.6515 106.207 32.7524 106.161 33.4789 105.742L50.0465 96.1765C50.413 95.9644 50.6238 95.6908 50.6238 95.4252C50.6238 95.2123 50.4839 95.014 50.2293 94.867L33.2956 85.0902C32.6701 84.729 31.57 84.7768 30.8427 85.1956L14.2751 94.7607C13.9085 94.9728 13.6983 95.2464 13.6983 95.512C13.6983 95.7254 13.8381 95.9237 14.0927 96.0706L31.026 105.847Z" fill="#42E8E0"/>
<defs>
<linearGradient id="paint0_linear_1_2122" x1="62.1208" y1="43.7402" x2="156.944" y2="43.7402" gradientUnits="userSpaceOnUse">
<stop stop-color="#42E8E0"/>
<stop offset="0.1055" stop-color="#37B6BF"/>
<stop offset="0.2197" stop-color="#2C87A1"/>
<stop offset="0.338" stop-color="#235F87"/>
<stop offset="0.4587" stop-color="#1C3F72"/>
<stop offset="0.5824" stop-color="#162561"/>
<stop offset="0.7105" stop-color="#121355"/>
<stop offset="0.8458" stop-color="#10084E"/>
<stop offset="1" stop-color="#0F054C"/>
</linearGradient>
<linearGradient id="paint1_linear_1_2122" x1="55.8504" y1="47.2534" x2="150.673" y2="47.2534" gradientUnits="userSpaceOnUse">
<stop stop-color="#42E8E0"/>
<stop offset="0.1055" stop-color="#37B6BF"/>
<stop offset="0.2197" stop-color="#2C87A1"/>
<stop offset="0.338" stop-color="#235F87"/>
<stop offset="0.4587" stop-color="#1C3F72"/>
<stop offset="0.5824" stop-color="#162561"/>
<stop offset="0.7105" stop-color="#121355"/>
<stop offset="0.8458" stop-color="#10084E"/>
<stop offset="1" stop-color="#0F054C"/>
</linearGradient>
<linearGradient id="paint2_linear_1_2122" x1="100.029" y1="88.2108" x2="72.4493" y2="94.9421" gradientUnits="userSpaceOnUse">
<stop stop-color="#5761D7"/>
<stop offset="0.1779" stop-color="#5C66D9"/>
<stop offset="0.3876" stop-color="#6A73DF"/>
<stop offset="0.6134" stop-color="#8289E8"/>
<stop offset="0.849" stop-color="#A3A7F5"/>
<stop offset="1" stop-color="#BCBEFF"/>
</linearGradient>
<linearGradient id="paint3_linear_1_2122" x1="100.229" y1="85.7494" x2="130.762" y2="85.7494" gradientUnits="userSpaceOnUse">
<stop stop-color="#5761D7"/>
<stop offset="0.1779" stop-color="#5C66D9"/>
<stop offset="0.3876" stop-color="#6A73DF"/>
<stop offset="0.6134" stop-color="#8289E8"/>
<stop offset="0.849" stop-color="#A3A7F5"/>
<stop offset="1" stop-color="#BCBEFF"/>
</linearGradient>
<linearGradient id="paint4_linear_1_2122" x1="96.7913" y1="85.0915" x2="89.6547" y2="78.1931" gradientUnits="userSpaceOnUse">
<stop stop-color="#5761D7"/>
<stop offset="0.1779" stop-color="#5C66D9"/>
<stop offset="0.3876" stop-color="#6A73DF"/>
<stop offset="0.6134" stop-color="#8289E8"/>
<stop offset="0.849" stop-color="#A3A7F5"/>
<stop offset="1" stop-color="#BCBEFF"/>
</linearGradient>
<linearGradient id="paint5_linear_1_2122" x1="100.609" y1="91.9868" x2="127.121" y2="91.9868" gradientUnits="userSpaceOnUse">
<stop stop-color="#5761D7"/>
<stop offset="0.1779" stop-color="#5C66D9"/>
<stop offset="0.3876" stop-color="#6A73DF"/>
<stop offset="0.6134" stop-color="#8289E8"/>
<stop offset="0.849" stop-color="#A3A7F5"/>
<stop offset="1" stop-color="#BCBEFF"/>
</linearGradient>
<linearGradient id="paint6_linear_1_2122" x1="96.892" y1="94.9701" x2="101.889" y2="94.9701" gradientUnits="userSpaceOnUse">
<stop stop-color="#5761D7"/>
<stop offset="0.1779" stop-color="#5C66D9"/>
<stop offset="0.3876" stop-color="#6A73DF"/>
<stop offset="0.6134" stop-color="#8289E8"/>
<stop offset="0.849" stop-color="#A3A7F5"/>
<stop offset="1" stop-color="#BCBEFF"/>
</linearGradient>
<linearGradient id="paint7_linear_1_2122" x1="98.516" y1="90.0098" x2="133.458" y2="90.0098" gradientUnits="userSpaceOnUse">
<stop stop-color="#C0BFF6"/>
<stop offset="0.2938" stop-color="#C5C4F7"/>
<stop offset="0.6399" stop-color="#D3D2F9"/>
<stop offset="1" stop-color="#E9E9FD"/>
</linearGradient>
<linearGradient id="paint8_linear_1_2122" x1="81.0785" y1="58.9554" x2="94.2992" y2="58.9554" gradientUnits="userSpaceOnUse">
<stop stop-color="#E9E9FD"/>
<stop offset="0.3601" stop-color="#D3D2F9"/>
<stop offset="0.7062" stop-color="#C5C4F7"/>
<stop offset="1" stop-color="#C0BFF6"/>
</linearGradient>
<linearGradient id="paint9_linear_1_2122" x1="109.901" y1="37.2293" x2="97.3492" y2="69.5281" gradientUnits="userSpaceOnUse">
<stop offset="0.3548" stop-color="#BCBEFF"/>
<stop offset="0.4438" stop-color="#B5B8FC"/>
<stop offset="0.5698" stop-color="#A3A7F5"/>
<stop offset="0.6975" stop-color="#898FEB"/>
<stop offset="0.8593" stop-color="#6069DB"/>
<stop offset="0.8925" stop-color="#5761D7"/>
</linearGradient>
<linearGradient id="paint10_linear_1_2122" x1="103.234" y1="71.6726" x2="116.455" y2="71.6726" gradientUnits="userSpaceOnUse">
<stop stop-color="#E9E9FD"/>
<stop offset="0.3601" stop-color="#D3D2F9"/>
<stop offset="0.7062" stop-color="#C5C4F7"/>
<stop offset="1" stop-color="#C0BFF6"/>
</linearGradient>
<linearGradient id="paint11_linear_1_2122" x1="34.7094" y1="74.7441" x2="124.774" y2="74.7441" gradientUnits="userSpaceOnUse">
<stop stop-color="#42E8E0"/>
<stop offset="0.1507" stop-color="#43E3E0"/>
<stop offset="0.3285" stop-color="#45D5DF"/>
<stop offset="0.5199" stop-color="#49BDDD"/>
<stop offset="0.7209" stop-color="#4E9CDB"/>
<stop offset="0.9274" stop-color="#5472D8"/>
<stop offset="1" stop-color="#5761D7"/>
</linearGradient>
<linearGradient id="paint12_linear_1_2122" x1="21.372" y1="80.9361" x2="111.437" y2="80.9361" gradientUnits="userSpaceOnUse">
<stop offset="0.3548" stop-color="#BCBEFF"/>
<stop offset="0.4438" stop-color="#B5B8FC"/>
<stop offset="0.5698" stop-color="#A3A7F5"/>
<stop offset="0.6975" stop-color="#898FEB"/>
<stop offset="0.8593" stop-color="#6069DB"/>
<stop offset="0.8925" stop-color="#5761D7"/>
</linearGradient>
<linearGradient id="paint13_linear_1_2122" x1="34.7094" y1="72.4825" x2="124.774" y2="72.4825" gradientUnits="userSpaceOnUse">
<stop stop-color="#E9E9FD"/>
<stop offset="0.3601" stop-color="#D3D2F9"/>
<stop offset="0.7062" stop-color="#C5C4F7"/>
<stop offset="1" stop-color="#C0BFF6"/>
</linearGradient>
<linearGradient id="paint14_linear_1_2122" x1="95.3642" y1="73.2726" x2="57.7825" y2="73.2726" gradientUnits="userSpaceOnUse">
<stop stop-color="#5761D7"/>
<stop offset="0.1779" stop-color="#5C66D9"/>
<stop offset="0.3876" stop-color="#6A73DF"/>
<stop offset="0.6134" stop-color="#8289E8"/>
<stop offset="0.849" stop-color="#A3A7F5"/>
<stop offset="1" stop-color="#BCBEFF"/>
</linearGradient>
<linearGradient id="paint15_linear_1_2122" x1="82.7402" y1="72.0196" x2="45.1385" y2="72.0196" gradientUnits="userSpaceOnUse">
<stop stop-color="#C0BFF6"/>
<stop offset="0.2938" stop-color="#C5C4F7"/>
<stop offset="0.6399" stop-color="#D3D2F9"/>
<stop offset="1" stop-color="#E9E9FD"/>
</linearGradient>
<linearGradient id="paint16_linear_1_2122" x1="85.1729" y1="69.1253" x2="75.5479" y2="69.1253" gradientUnits="userSpaceOnUse">
<stop stop-color="#C0BFF6"/>
<stop offset="0.2938" stop-color="#C5C4F7"/>
<stop offset="0.6399" stop-color="#D3D2F9"/>
<stop offset="1" stop-color="#E9E9FD"/>
</linearGradient>
<linearGradient id="paint17_linear_1_2122" x1="84.3878" y1="67.3924" x2="57.778" y2="67.3924" gradientUnits="userSpaceOnUse">
<stop stop-color="#C0BFF6"/>
<stop offset="0.2938" stop-color="#C5C4F7"/>
<stop offset="0.6399" stop-color="#D3D2F9"/>
<stop offset="1" stop-color="#E9E9FD"/>
</linearGradient>
<linearGradient id="paint18_linear_1_2122" x1="84.3935" y1="74.2165" x2="79.8243" y2="74.2165" gradientUnits="userSpaceOnUse">
<stop stop-color="#5761D7"/>
<stop offset="0.1779" stop-color="#5C66D9"/>
<stop offset="0.3876" stop-color="#6A73DF"/>
<stop offset="0.6134" stop-color="#8289E8"/>
<stop offset="0.849" stop-color="#A3A7F5"/>
<stop offset="1" stop-color="#BCBEFF"/>
</linearGradient>
</defs>
</svg>
