<?xml version="1.0" encoding="UTF-8"?>
<svg id="Layer_1" data-name="Layer 1" xmlns="http://www.w3.org/2000/svg" viewBox="0 0 960 960">
  <defs>
    <style>
      .cls-1 {
        fill: #ff7a59;
      }

      .cls-1, .cls-2 {
        stroke-width: 0px;
      }

      .cls-2 {
        fill: #33475b;
      }
    </style>
  </defs>
  <path class="cls-2" d="M131.1,395.63v71.17h-65.38v-71.17h-31.02v169.89h31.03v-68.86h65.36v68.86h31.04v-169.89h-31.03ZM261.45,510.6c0,14.18-11.49,25.67-25.67,25.67s-25.67-11.49-25.67-25.67v-72.77h-29.43v72.77c.01,30.4,24.67,55.04,55.08,55.03,30.39-.01,55.02-24.64,55.03-55.03v-72.77h-29.32v72.77ZM479.53,445.33c0-14.92,9.87-19.65,20.67-19.65,8.72,0,20.22,6.63,27.75,14.68l19.27-22.72c-9.62-13.02-29.14-22.01-45.12-22.01-31.93,0-55.03,18.7-55.03,49.7,0,57.52,70.3,39.27,70.3,71.46,0,9.93-9.64,18.69-20.67,18.69-17.41,0-23.05-8.51-31.04-17.51l-21.4,22.24c13.69,16.79,30.57,25.33,50.78,25.33,30.34,0,54.74-18.93,54.74-48.52,0-63.85-70.31-44.01-70.31-71.7M914.46,538.37c-17.39,0-22.34-7.52-22.34-19.04v-51.01h27.04v-25.85h-27.04v-34.1l-29.84,13.39v103.91c0,26.58,18.34,39.97,43.48,39.97,3.95.07,7.89-.25,11.77-.94l7.28-26.8c-3.28.23-7.05.45-10.35.45M373.48,438.68c-14.58,0-24.76,4.23-34.6,13.88v-55.92h-29.47v103.65c0,38.8,28.05,65.38,59.57,65.38,34.97,0,65.73-27.06,65.73-63.48s-28.31-63.48-61.22-63.48M373.3,536c-18.47,0-33.45-14.98-33.45-33.45s14.98-33.45,33.45-33.45,33.45,14.98,33.45,33.45-14.98,33.45-33.45,33.45h0M693.59,500.64c0-36.49-30.69-63.48-65.73-63.48-31.51,0-59.57,26.58-59.57,65.38v103.71h29.47v-55.99c9.82,9.63,20.02,13.88,34.58,13.88,32.92,0,61.23-27.51,61.23-63.49M665.67,500.27c0,18.47-14.98,33.45-33.45,33.45s-33.45-14.98-33.45-33.45h0c0-18.47,14.98-33.45,33.45-33.45s33.45,14.98,33.45,33.45"/>
  <path class="cls-1" d="M788.83,435.73v-29.62c7.99-3.73,13.11-11.74,13.15-20.56v-.68c0-12.6-10.21-22.81-22.81-22.81h-.68c-12.6,0-22.81,10.21-22.81,22.81h0v.68c.04,8.82,5.16,16.82,13.15,20.56v29.62c-11.25,1.72-21.84,6.39-30.71,13.52l-81.23-63.26c.58-2.09.88-4.24.92-6.4.03-14.19-11.45-25.72-25.65-25.75-14.19-.03-25.72,11.45-25.75,25.65s11.45,25.72,25.65,25.75c0,0,.01,0,.02,0,4.45-.02,8.81-1.21,12.65-3.44l79.98,62.24c-14.7,22.21-14.31,51.17.99,72.97l-24.33,24.34c-1.97-.63-4.02-.96-6.08-.99-11.65,0-21.09,9.46-21.09,21.12,0,11.65,9.46,21.09,21.12,21.09,11.64,0,21.08-9.44,21.09-21.09-.03-2.06-.36-4.11-.99-6.08l24.07-24.07c28.4,21.86,69.14,16.57,91.01-11.83,21.86-28.4,16.57-69.14-11.83-91.01-8.71-6.71-18.98-11.09-29.85-12.74M778.85,533.14c-18.38.51-33.69-13.99-34.2-32.37-.51-18.38,13.99-33.69,32.37-34.2.61-.02,1.22-.02,1.83,0,18.38.64,32.75,16.06,32.11,34.44-.61,17.46-14.62,31.48-32.08,32.11"/>
</svg>