<?xml version="1.0" encoding="utf-8"?>
<!-- Generator: Adobe Illustrator 27.5.0, SVG Export Plug-In . SVG Version: 6.00 Build 0)  -->
<svg version="1.1" xmlns="http://www.w3.org/2000/svg" xmlns:xlink="http://www.w3.org/1999/xlink" x="0px" y="0px"
	 viewBox="0 0 3710 3710" style="enable-background:new 0 0 3710 3710;" xml:space="preserve">
<g id="Background">
	<g>
		<g>
			<rect style="fill:#FFFFFF;" width="3710" height="3710"/>
		</g>
	</g>
</g>
<g id="Illustration">
	<g>
		<g style="opacity:0.64;">
			<path style="fill:#FFFFFF;" d="M782.358,2559.768c-0.403,0-0.775-0.263-0.894-0.67c-0.144-0.491-0.277-0.994-0.393-1.492
				c-0.117-0.501,0.194-1.003,0.696-1.12c0.503-0.117,1.003,0.195,1.12,0.696c0.108,0.465,0.232,0.933,0.366,1.391
				c0.145,0.494-0.138,1.012-0.632,1.157C782.533,2559.755,782.445,2559.768,782.358,2559.768z"/>
			<path style="fill:#FFFFFF;" d="M781.295,2553.24c-0.499,0-0.912-0.395-0.931-0.897c-0.013-0.349-0.02-0.7-0.02-1.053
				c0-0.646,0.023-1.301,0.068-1.947l0.02-0.27c0.042-0.513,0.494-0.895,1.004-0.855c0.513,0.041,0.896,0.491,0.855,1.004
				l-0.018,0.25c-0.042,0.604-0.063,1.215-0.063,1.818c0,0.329,0.006,0.656,0.018,0.982c0.02,0.515-0.382,0.948-0.896,0.967
				C781.319,2553.24,781.307,2553.24,781.295,2553.24z M782.245,2545.028c-0.082,0-0.165-0.011-0.248-0.034
				c-0.496-0.137-0.788-0.65-0.651-1.146c0.289-1.05,0.643-2.092,1.054-3.098c0.195-0.477,0.738-0.706,1.215-0.511
				c0.477,0.194,0.706,0.739,0.511,1.215c-0.383,0.938-0.713,1.91-0.983,2.889C783.03,2544.757,782.655,2545.028,782.245,2545.028z
				 M785.646,2537.493c-0.175,0-0.352-0.05-0.51-0.152c-0.431-0.282-0.552-0.86-0.27-1.291c0.595-0.909,1.25-1.793,1.948-2.626
				c0.33-0.395,0.919-0.447,1.313-0.117c0.395,0.331,0.447,0.918,0.117,1.313c-0.651,0.778-1.262,1.603-1.817,2.451
				C786.248,2537.344,785.95,2537.493,785.646,2537.493z M791.181,2531.351c-0.271,0-0.539-0.117-0.723-0.343
				c-0.325-0.399-0.266-0.986,0.134-1.312c0.843-0.687,1.734-1.331,2.65-1.913c0.435-0.277,1.011-0.149,1.287,0.286
				c0.277,0.435,0.148,1.01-0.286,1.287c-0.854,0.544-1.686,1.145-2.473,1.786C791.597,2531.282,791.388,2531.351,791.181,2531.351z
				 M798.311,2527.171c-0.372,0-0.723-0.224-0.868-0.59c-0.189-0.479,0.046-1.02,0.525-1.209c1.011-0.399,2.057-0.741,3.107-1.018
				c0.498-0.132,1.008,0.166,1.139,0.664c0.131,0.498-0.166,1.008-0.664,1.139c-0.98,0.258-1.955,0.577-2.898,0.95
				C798.541,2527.15,798.425,2527.171,798.311,2527.171z M817.631,2527.02c-0.109,0-0.22-0.019-0.328-0.06
				c-0.948-0.356-1.928-0.659-2.914-0.902c-0.5-0.123-0.806-0.628-0.683-1.128c0.123-0.5,0.627-0.806,1.128-0.683
				c1.056,0.26,2.107,0.585,3.124,0.967c0.482,0.181,0.726,0.719,0.545,1.2C818.363,2526.79,818.008,2527.02,817.631,2527.02z
				 M806.375,2525.363c-0.487,0-0.897-0.378-0.929-0.872c-0.034-0.514,0.355-0.958,0.869-0.991c1.079-0.071,2.187-0.078,3.269-0.022
				c0.514,0.027,0.909,0.465,0.883,0.979c-0.027,0.514-0.456,0.916-0.979,0.883c-1.011-0.052-2.044-0.045-3.051,0.021
				C806.416,2525.362,806.395,2525.363,806.375,2525.363z"/>
			<path style="fill:#FFFFFF;" d="M823.5,2530.103c-0.184,0-0.369-0.054-0.531-0.167c-0.393-0.273-0.798-0.538-1.204-0.788
				c-0.438-0.27-0.575-0.845-0.305-1.283c0.27-0.438,0.845-0.575,1.283-0.304c0.435,0.268,0.869,0.552,1.29,0.845
				c0.423,0.294,0.527,0.875,0.233,1.298C824.085,2529.963,823.794,2530.103,823.5,2530.103z"/>
		</g>
		<g style="opacity:0.64;">
			<path style="fill:#FFFFFF;" d="M834.775,2548.3c-0.456,0-0.854-0.334-0.922-0.799c-0.068-0.472-0.151-0.949-0.247-1.417
				c-0.102-0.505,0.224-0.997,0.728-1.099c0.505-0.102,0.997,0.224,1.099,0.728c0.102,0.503,0.191,1.014,0.265,1.521
				c0.074,0.51-0.279,0.983-0.789,1.057C834.865,2548.296,834.82,2548.3,834.775,2548.3z"/>
			<path style="fill:#FFFFFF;" d="M808.195,2579.084c-0.648,0-1.303-0.023-1.949-0.067c-0.338-0.023-0.673-0.053-1.007-0.088
				c-0.512-0.054-0.884-0.512-0.83-1.024c0.054-0.512,0.514-0.884,1.024-0.83c0.312,0.033,0.626,0.06,0.941,0.082
				c0.604,0.042,1.216,0.063,1.819,0.063l0.241-0.001c0.003,0,0.006,0,0.008,0c0.511,0,0.927,0.412,0.932,0.924
				c0.005,0.515-0.409,0.936-0.924,0.94L808.195,2579.084z M813.46,2578.564c-0.435,0-0.824-0.306-0.913-0.75
				c-0.101-0.505,0.226-0.996,0.731-1.097c0.978-0.196,1.954-0.451,2.902-0.759c0.49-0.16,1.016,0.109,1.175,0.598
				c0.159,0.49-0.109,1.016-0.598,1.175c-1.016,0.33-2.064,0.604-3.112,0.814C813.583,2578.558,813.521,2578.564,813.46,2578.564z
				 M800.388,2577.94c-0.089,0-0.179-0.013-0.269-0.04c-1.024-0.309-2.041-0.681-3.022-1.106c-0.472-0.205-0.689-0.754-0.484-1.226
				c0.205-0.472,0.753-0.69,1.226-0.484c0.915,0.396,1.863,0.744,2.818,1.031c0.493,0.149,0.773,0.668,0.624,1.162
				C801.159,2577.68,800.789,2577.94,800.388,2577.94z M821.1,2575.773c-0.329,0-0.648-0.175-0.818-0.483
				c-0.248-0.451-0.083-1.018,0.368-1.266c0.873-0.48,1.728-1.016,2.541-1.594c0.419-0.299,1.002-0.2,1.3,0.22
				c0.298,0.42,0.2,1.002-0.219,1.3c-0.872,0.62-1.788,1.194-2.724,1.709C821.406,2575.736,821.252,2575.773,821.1,2575.773z
				 M827.554,2570.826c-0.232,0-0.465-0.086-0.646-0.26c-0.371-0.357-0.382-0.947-0.025-1.318c0.691-0.719,1.348-1.486,1.952-2.28
				c0.312-0.41,0.897-0.489,1.307-0.177c0.409,0.312,0.489,0.897,0.177,1.307c-0.648,0.85-1.352,1.672-2.092,2.442
				C828.043,2570.73,827.799,2570.826,827.554,2570.826z M832.243,2564.18c-0.14,0-0.281-0.031-0.415-0.098
				c-0.461-0.23-0.648-0.79-0.419-1.25c0.445-0.893,0.842-1.821,1.18-2.759c0.174-0.484,0.709-0.737,1.193-0.561
				c0.485,0.174,0.736,0.708,0.561,1.193c-0.362,1.007-0.788,2.002-1.265,2.96C832.915,2563.991,832.585,2564.18,832.243,2564.18z
				 M834.721,2556.433c-0.048,0-0.098-0.004-0.147-0.011c-0.508-0.081-0.855-0.558-0.775-1.067c0.12-0.758,0.208-1.532,0.261-2.301
				c0.016-0.229,0.029-0.458,0.038-0.686c0.022-0.514,0.459-0.915,0.972-0.891c0.514,0.022,0.913,0.457,0.891,0.972
				c-0.01,0.244-0.024,0.489-0.041,0.734c-0.057,0.824-0.151,1.653-0.28,2.464C835.568,2556.106,835.172,2556.433,834.721,2556.433z
				"/>
			<path style="fill:#FFFFFF;" d="M793.032,2574.426c-0.181,0-0.364-0.052-0.525-0.162c-0.422-0.288-0.842-0.592-1.25-0.904
				c-0.409-0.313-0.486-0.899-0.173-1.307c0.313-0.408,0.898-0.486,1.307-0.173c0.38,0.291,0.772,0.575,1.166,0.844
				c0.425,0.29,0.535,0.87,0.245,1.295C793.623,2574.283,793.33,2574.426,793.032,2574.426z"/>
		</g>
		<g>
			<path style="opacity:0.5;fill:#FFFFFF;" d="M793.646,2565.955c0.087,0.107,0.232,0.146,0.362,0.099l3.686-1.356
				c1.453,1.119,3.096,2.015,4.881,2.629l0.899,3.821c0.031,0.134,0.145,0.233,0.282,0.247l4.688,0.475
				c0.137,0.014,0.268-0.061,0.325-0.186l1.647-3.563c1.872-0.243,3.661-0.791,5.309-1.596l3.34,2.067
				c0.117,0.072,0.267,0.063,0.374-0.025l3.65-2.979c0.107-0.087,0.146-0.232,0.099-0.361l-1.356-3.686
				c1.119-1.453,2.015-3.095,2.628-4.881l3.821-0.899c0.134-0.031,0.233-0.145,0.247-0.282l0.475-4.688
				c0.014-0.137-0.061-0.268-0.186-0.325l-3.563-1.647c-0.243-1.872-0.791-3.661-1.596-5.309l2.068-3.34
				c0.072-0.117,0.063-0.267-0.024-0.374l-2.979-3.65c-0.087-0.107-0.232-0.146-0.361-0.099l-3.686,1.356
				c-1.453-1.119-3.096-2.015-4.881-2.628l-0.899-3.821c-0.032-0.134-0.145-0.233-0.282-0.247l-4.688-0.475
				c-0.137-0.014-0.268,0.061-0.325,0.186l-1.647,3.563c-1.872,0.243-3.66,0.791-5.308,1.596l-3.34-2.067
				c-0.117-0.073-0.267-0.063-0.374,0.024l-3.65,2.979c-0.107,0.087-0.146,0.232-0.099,0.362l1.356,3.686
				c-1.119,1.453-2.015,3.095-2.628,4.881l-3.821,0.899c-0.134,0.031-0.233,0.144-0.247,0.281l-0.475,4.687
				c-0.014,0.137,0.061,0.268,0.186,0.325l3.563,1.647c0.243,1.872,0.791,3.66,1.596,5.309l-2.068,3.34
				c-0.072,0.117-0.063,0.267,0.024,0.374L793.646,2565.955z"/>
			<path style="opacity:0.56;fill:#FFFFFF;" d="M808.181,2556.353c-2.584,0-4.854-1.898-5.242-4.53
				c-0.207-1.401,0.145-2.799,0.99-3.936c0.845-1.137,2.082-1.876,3.483-2.083c1.402-0.206,2.799,0.145,3.936,0.99
				c1.137,0.845,1.877,2.082,2.083,3.483c0.426,2.893-1.58,5.592-4.472,6.019C808.696,2556.335,808.437,2556.353,808.181,2556.353z
				 M808.19,2547.985c-0.15,0-0.302,0.011-0.453,0.033c-1.672,0.246-2.831,1.807-2.585,3.479c0.247,1.672,1.808,2.832,3.479,2.585
				c0.81-0.12,1.525-0.547,2.013-1.204c0.488-0.657,0.691-1.465,0.572-2.275c-0.119-0.81-0.547-1.525-1.204-2.013
				C809.478,2548.194,808.844,2547.985,808.19,2547.985z"/>
			<path style="opacity:0.56;fill:#FFFFFF;" d="M808.265,2562.723c-0.394,0-0.792-0.02-1.192-0.06
				c-0.064-0.007-0.127-0.013-0.19-0.021c-0.768-0.091-1.526-0.256-2.256-0.492c-0.158-0.051-0.258-0.197-0.258-0.354
				c0-0.038,0.006-0.077,0.018-0.115c0.063-0.196,0.274-0.303,0.47-0.24c0.74,0.24,1.511,0.401,2.292,0.48h0
				c4.083,0.414,7.877-1.473,10.093-4.604c0.985-1.392,1.659-3.031,1.906-4.823c0.018-0.134,0.035-0.268,0.048-0.404
				c0.038-0.375,0.057-0.749,0.057-1.118c-0.001-5.568-4.231-10.356-9.888-10.929c-6.034-0.612-11.437,3.799-12.048,9.831
				c-0.038,0.372-0.056,0.744-0.056,1.115c0,1.609,0.353,3.201,1.038,4.658c0.024,0.052,0.036,0.105,0.035,0.159
				c0,0.14-0.079,0.274-0.214,0.338c-0.187,0.087-0.408,0.007-0.496-0.179c-0.732-1.557-1.108-3.257-1.108-4.975
				c0-0.396,0.02-0.794,0.06-1.191c0.653-6.441,6.423-11.147,12.865-10.498c6.04,0.612,10.558,5.725,10.559,11.671
				c0,0.395-0.02,0.793-0.06,1.194C819.326,2558.205,814.211,2562.723,808.265,2562.723z"/>
		</g>
	</g>
	<g>
		<linearGradient id="SVGID_1_" gradientUnits="userSpaceOnUse" x1="3395.2976" y1="3616.325" x2="1353.0416" y2="1411.9851">
			<stop  offset="0" style="stop-color:#DAE3FE"/>
			<stop  offset="1" style="stop-color:#E9EFFD"/>
		</linearGradient>
		<path style="fill:url(#SVGID_1_);" d="M3110.696,2360.154c-280.621,655.918-1021.369,937.651-1601.757,889.615
			c-158.47-13.116-477.314-39.505-726.27-274.935c-478.103-452.128-404.471-1397.2,53.211-1953.607
			c58.94-71.654,466.914-551.725,1102.665-545.3c465.462,4.705,792.166,267.638,831.891,300.395
			c50.184,41.38,160.871,139.713,260.626,295.711C3265.452,1438.576,3286.056,1950.271,3110.696,2360.154z"/>
		<g>
			<path style="fill:#BDD0FB;" d="M1583.662,3049.359c0,0-342.989-1147.571-950.881-1749.281
				c-40.863-40.448-110.259-19.932-122.212,36.308C430.647,1712.456,301.172,2846.633,1583.662,3049.359z"/>
			<path style="opacity:0.5;fill:#FFFFFF;" d="M1463.405,2981.044c3.002,2.612-0.505,7.221-3.829,5.035
				c-122.571-80.59-601.749-483.7-819.029-1329.741c-0.698-2.718,3.284-3.999,4.214-1.352
				C713.286,1850.048,988.83,2567.991,1463.405,2981.044z"/>
		</g>
		<g>
			<path style="fill:#91B3FA;" d="M562.436,477.084c-5.009-8.879,5.396-18.417,13.741-12.563
				c133.196,93.447,599.984,464.677,724.219,1153.115c113.669,629.89,90.234,1090.434,74.598,1261.402
				c-3.092,33.809-41.432,51.806-69.391,32.547c-165.708-114.147-612.981-458.045-652.888-868.799
				C605.027,1551.937,801.467,900.778,562.436,477.084z"/>
		</g>
		<g>
			<g>
				<path style="fill:#91B3FA;" d="M3113.517,3166.502H1193.416c-21.448,0-38.835-17.387-38.835-38.835V758.777
					c0-21.448,17.387-38.835,38.835-38.835h1920.102c21.448,0,38.835,17.387,38.835,38.835v2368.891
					C3152.352,3149.115,3134.965,3166.502,3113.517,3166.502z"/>
				<path style="opacity:0.86;fill:#FFFFFF;" d="M3052.694,3108.893H1254.239c-21.448,0-38.835-17.387-38.835-38.835V850.141
					c0-21.448,17.387-38.835,38.835-38.835h1798.455c21.448,0,38.835,17.387,38.835,38.835v2219.917
					C3091.529,3091.506,3074.142,3108.893,3052.694,3108.893z"/>
			</g>
			
				<linearGradient id="SVGID_00000097479501637432926910000004468834974368950683_" gradientUnits="userSpaceOnUse" x1="1498.942" y1="2007.522" x2="2942.1877" y2="2007.522">
				<stop  offset="0" style="stop-color:#4F52FF"/>
				<stop  offset="1" style="stop-color:#4042E2"/>
			</linearGradient>
			<path style="fill:url(#SVGID_00000097479501637432926910000004468834974368950683_);" d="M1592.14,3106.188l93.442-742.657
				c18.836-126.189-18.451-253.033-100.786-342.008h-0.002c-45.779-49.471-74.71-114.84-81.195-185.333
				c-10.125-110.089-8.909-289.96,57.669-509.042c88.031-289.673,351.637-459.998,619.672-409.459
				c130.965,24.693,281.61,74.111,437.718,167.232c88.781,52.959,149.242,152.32,158.785,264.838
				c4.437,52.313,12.651,110.249,27.57,161.728c18.748,64.688,26.866,108.97,30.219,137.71c3.04,26.062-5.794,52.159-23.171,69.422
				l-0.003,0.003c-17.924,17.804-22.378,47.682-10.59,71.083l137.929,238.648l2.79,14.304c-8,27.232-28.134,61.425-50.595,63.74
				l-78.631,8.105l2.986,92.656c0.578,17.896-9.658,34.239-24.72,39.449l-18.068,6.25l16.489,14.597
				c13.398,11.862,16.916,33.469,8.276,50.802l-23.271,46.681c-10.542,21.145-9.032,47.1,3.81,65.524
				c21.224,30.45,18.833,93.721-5.165,118.594c-50.068,51.894-153.071,54.237-204.49,50.477
				c-78.995-5.776-150.044-42.12-223.094-4.525c-21.507,11.068-36.473,25.09-45.484,34.783l6.15,476.4H1592.14z"/>
			<g>
				<path style="fill:#FFFFFF;" d="M2155.1,1850.314c-0.689,0-1.375-0.105-2.042-0.318l-121.703-38.821
					c-1.047-0.333-1.993-0.916-2.761-1.699l-56.518-57.679l-92.681-20.146l-124.523,11.138c-1.389,0.136-2.836-0.199-4.057-0.932
					l-131.239-78.813c-1.165-0.699-2.091-1.737-2.656-2.973l-43.033-94.343c-0.568-1.241-0.742-2.625-0.502-3.967l24.41-137.339
					l-3.663-93.981c-0.062-1.559,0.42-3.089,1.362-4.332l65.349-85.979l53.695-103.074c0.752-1.444,1.999-2.565,3.516-3.156
					l121.716-47.538l94.5-52.177c0.624-0.345,1.3-0.588,2.002-0.72l179.551-33.894c1.26-0.238,2.564-0.11,3.755,0.369
					l102.141,41.078l149.889-9.37c1.835-0.113,3.604,0.515,4.947,1.74l104.551,95.222l125.219,36.763
					c2.078,0.611,3.736,2.185,4.451,4.228l70.644,201.719c0.25,0.714,0.377,1.466,0.377,2.222v128.121
					c0,0.747-0.125,1.487-0.368,2.193l-49.188,142.599c-0.424,1.228-1.195,2.308-2.219,3.107l-147.768,115.32
					c-1.136,0.886-2.528,1.385-3.969,1.422l-148.027,3.686l-172.336,79.704C2157.03,1850.106,2156.065,1850.314,2155.1,1850.314z
					 M2037.03,1798.873l117.62,37.52l171.226-79.192c0.834-0.386,1.736-0.596,2.656-0.619l147.2-3.665l144.449-112.73
					l48.171-139.651v-125.851l-69.124-197.383l-123.397-36.228c-0.978-0.287-1.878-0.793-2.633-1.48l-103.593-94.348l-148.562,9.288
					c-1.021,0.067-2.002-0.099-2.928-0.473l-101.731-40.912l-176.557,33.329l-93.948,51.872c-0.259,0.143-0.529,0.269-0.804,0.376
					l-119.779,46.782l-52.793,101.342c-0.174,0.338-0.377,0.66-0.607,0.964l-64.236,84.515l3.598,92.295
					c0.02,0.482-0.013,0.965-0.099,1.439l-24.17,135.991l41.296,90.539l127.573,76.609l123.364-11.035
					c0.663-0.064,1.359-0.018,2.026,0.126l95.651,20.793c1.283,0.279,2.455,0.927,3.375,1.865L2037.03,1798.873z"/>
				<path style="fill:#FFFFFF;" d="M1836.516,1954.886c-0.282,0-0.565-0.023-0.844-0.07l-112.935-19.143
					c-0.791-0.135-1.54-0.456-2.183-0.937l-69.442-52.078c-1.093-0.821-1.806-2.052-1.976-3.409l-9.756-78.078l-42.885-59.217
					c-0.896-1.239-1.185-2.818-0.778-4.294l22.457-81.715l9.723,2.672l-21.817,79.381l42.225,58.306
					c0.499,0.688,0.814,1.49,0.919,2.332l9.651,77.237l66.754,50.061l110.306,18.697l111.409-45.82
					c0.266-0.11,0.542-0.197,0.824-0.259l113.388-25.175l35.68-50.634l8.246,5.81l-36.806,52.228
					c-0.726,1.026-1.806,1.745-3.03,2.017l-114.869,25.505l-112.344,46.204C1837.823,1954.759,1837.172,1954.886,1836.516,1954.886z
					"/>
				<polygon style="fill:#FFFFFF;" points="2222.073,1692.035 2025.6,1692.035 2011.96,1564.298 1750.696,1564.298 
					1816.196,1413.45 1780.231,1295.113 1600.447,1334.085 1599.022,1327.513 1784.859,1287.231 1823.346,1413.86 
					1760.945,1557.575 2018,1557.575 2031.64,1685.312 2217.083,1685.312 2269.994,1510.119 2417.07,1582.201 2508.319,1471.015 
					2621.763,1485.558 2670.813,1375.354 2416.219,1267.563 2291.67,1385.932 2134.343,1393.588 2124.419,1221.505 
					1938.776,1166.994 1922.799,1046.804 1929.463,1045.918 1944.862,1161.774 2130.86,1216.387 2140.672,1386.55 
					2288.847,1379.338 2414.781,1259.655 2679.742,1371.832 2625.873,1492.862 2511.155,1478.157 2418.888,1590.581 
					2274.144,1519.639 				"/>
				<path style="fill:#FFFFFF;" d="M2196.816,1833.359l-168.048-143.978l-53.141,58.603l-1.241-1.044l-218.641-184.244l-0.164,0.121
					l-0.637,1.039l-0.43-0.263l-130.491,95.046l-1.976-2.718l129.358-94.224l-77.81-47.458l-5.036-84.336l0.161-0.371
					l55.409-126.317l-19.342-146.046l78.759,132.398l197.583,16.415l-158.581-100.82l118.115-42.153l79.619-140.915l137.152,69.457
					l-27.696,125.677l159.172-2.428l39.343-174.09l88.137,220.57l190.394-92.42l-29.905,163.083l-65.287,142.429l90.491,191.615
					l-181.061,3.504L2196.816,1833.359z M2028.472,1684.703l168.508,144.372l222.912-162.924l176.931-3.422l-88.942-188.336
					l0.328-0.711l65.526-142.947l28.543-155.952l-187.669,91.1l-85.465-213.877l-37.538,166.116l-166.066,2.533l28.051-127.282
					l-131.965-66.828l-78.654,139.208l-112.817,40.262l164.28,104.444l-212.894-17.686l-71.274-119.816l17.313,130.745l-0.187,0.43
					l-55.435,126.376l4.885,81.776l77.505,47.268l1.546-1.126l219.416,184.897L2028.472,1684.703z"/>
				<path style="opacity:0.68;fill:#FFFFFF;" d="M2033.396,1806.031c-0.266,0-0.525-0.084-0.745-0.243
					c-0.309-0.228-0.499-0.583-0.516-0.967l-4.776-117.728c-0.013-0.328,0.102-0.648,0.322-0.893l137.693-153.455l-28.524-139.607
					l-120.846,168.16c-0.256,0.353-0.676,0.543-1.106,0.522c-0.433-0.028-0.824-0.279-1.031-0.661l-60.494-112.968l-131.407-32.875
					l63.964,144.738c0.095,0.21,0.128,0.441,0.099,0.67l-12.606,98.048c-0.059,0.451-0.355,0.837-0.778,1.008l-147.604,59.644
					c-0.335,0.135-0.712,0.123-1.037-0.043c-0.325-0.162-0.565-0.456-0.656-0.807l-29.462-112.804l-114.435-55.854
					c-0.424-0.205-0.696-0.627-0.709-1.095c-0.013-0.468,0.233-0.906,0.64-1.136l238.436-134.563l-92.093-107.871l-120.935,105.721
					c-0.522,0.455-1.32,0.405-1.779-0.12c-0.46-0.524-0.404-1.32,0.118-1.778l121.897-106.562c0.253-0.22,0.591-0.322,0.922-0.309
					c0.335,0.025,0.647,0.182,0.867,0.438l93.652,109.702l134.059,33.536c0.345,0.087,0.637,0.313,0.808,0.627l59.804,111.678
					l121.345-168.858c0.292-0.407,0.811-0.601,1.287-0.497c0.492,0.105,0.873,0.489,0.972,0.98l29.229,143.052
					c0.082,0.392-0.03,0.798-0.295,1.095L2029.9,1687.503l4.691,115.635l98.78-26.894l85.291-90.069
					c0.098-0.105,0.217-0.192,0.345-0.256l198.4-101.06c0.384-0.197,0.84-0.182,1.215,0.038c0.371,0.22,0.604,0.615,0.617,1.047
					l2.478,81.84c0.02,0.696-0.525,1.277-1.221,1.298c-0.791-0.026-1.28-0.527-1.3-1.223l-2.416-79.852l-196.437,100.059
					l-85.383,90.168c-0.161,0.167-0.361,0.289-0.584,0.349l-100.648,27.402C2033.62,1806.016,2033.508,1806.031,2033.396,1806.031z
					 M1582.71,1548.702l112.8,55.056c0.332,0.161,0.574,0.458,0.67,0.814l29.246,111.977l145.591-58.831l12.464-96.966
					l-64.302-145.503L1582.71,1548.702z"/>
				<path style="opacity:0.68;fill:#FFFFFF;" d="M2492.733,1749.373c-0.069,0-0.138-0.005-0.21-0.018l-147.942-24.986
					l-125.35-36.115c-0.407-0.118-0.729-0.432-0.857-0.837c-0.125-0.405-0.04-0.847,0.23-1.174l109.121-132.927
					c0.125-0.153,0.285-0.274,0.466-0.354l179.879-79.222l-92.365-206.612l-49.845,158.136c-0.062,0.2-0.174,0.383-0.328,0.529
					l-92.589,89.178c-0.384,0.371-0.958,0.46-1.444,0.217c-0.476-0.243-0.749-0.762-0.679-1.292l18.078-134.43l-157.878-90.064
					c-0.414-0.235-0.656-0.68-0.637-1.154c0.023-0.473,0.309-0.895,0.742-1.09l158.617-71.844c0.223-0.099,0.476-0.126,0.703-0.099
					l112.367,16.65l73.493-97.999c0.292-0.396,0.788-0.574,1.274-0.476c0.479,0.103,0.857,0.478,0.965,0.957l19.864,88.587
					l90.553,35.311c0.213,0.085,0.404,0.228,0.545,0.412l86.778,114.122c0.42,0.555,0.312,1.346-0.243,1.766
					c-0.548,0.423-1.343,0.315-1.766-0.24l-86.562-113.839l-90.849-35.425c-0.391-0.153-0.679-0.491-0.771-0.9l-19.411-86.575
					l-72.305,96.413c-0.276,0.371-0.725,0.556-1.192,0.491l-112.745-16.706l-156.027,70.672l156.47,89.26
					c0.447,0.255,0.693,0.753,0.627,1.262l-17.71,131.687l89.752-86.445l50.747-160.997c0.158-0.499,0.607-0.849,1.129-0.88
					c0.492-0.061,1.011,0.268,1.225,0.745l94.237,210.801c0.135,0.305,0.144,0.653,0.023,0.967
					c-0.118,0.313-0.361,0.565-0.667,0.701l-180.762,79.611l-107.716,131.213l123.371,35.553l147.804,24.955
					c0.686,0.115,1.149,0.766,1.034,1.453C2493.872,1748.938,2493.337,1749.373,2492.733,1749.373z"/>
				<path style="fill:#FFFFFF;" d="M2438.749,1740.256c-0.295,0-0.591-0.102-0.827-0.31c-0.525-0.458-0.581-1.254-0.122-1.779
					l62.641-71.845l-83.332-79.427c-0.341-0.327-0.473-0.816-0.338-1.269c0.131-0.453,0.506-0.793,0.972-0.881l132.086-25.349
					l73.109-71.191c0.318-0.31,0.775-0.427,1.208-0.315c0.427,0.116,0.765,0.45,0.886,0.876l22.319,79.514
					c0.187,0.671-0.204,1.367-0.873,1.554c-0.67,0.202-1.369-0.202-1.556-0.872l-21.745-77.472l-71.862,69.974
					c-0.177,0.172-0.401,0.289-0.644,0.335l-130.051,24.958l82.432,78.57c0.489,0.466,0.522,1.233,0.079,1.741l-63.435,72.755
					C2439.451,1740.11,2439.1,1740.256,2438.749,1740.256z"/>
				<path style="fill:#FFFFFF;" d="M1780.989,1294.035c-0.112,0-0.223-0.011-0.335-0.034c-0.735-0.149-1.28-0.767-1.339-1.513
					l-13.39-168.89c-0.075-0.926,0.617-1.735,1.543-1.809c0.84-0.061,1.733,0.617,1.805,1.543l12.931,163.073l46.352-88.653
					l37.761-119.768c0.279-0.883,1.228-1.372,2.108-1.098c0.886,0.281,1.375,1.224,1.096,2.109l-37.873,120.041l-49.168,94.097
					C1782.184,1293.695,1781.606,1294.035,1780.989,1294.035z"/>
				<path style="opacity:0.68;fill:#FFFFFF;" d="M2014.98,1561.823c-0.272,0-0.538-0.089-0.758-0.254l-195.209-147.095
					c-0.479-0.361-0.637-1.011-0.377-1.553l54.962-114.02l-54.644-96.697c-0.243-0.43-0.213-0.962,0.076-1.362
					c0.292-0.397,0.775-0.586,1.274-0.494l239.52,48.83l-60.527-66.798c-0.256-0.284-0.368-0.666-0.309-1.044
					c0.059-0.378,0.286-0.708,0.617-0.896l155.282-89.07l64.919-44.586c0.568-0.392,1.356-0.25,1.753,0.325
					c0.394,0.574,0.246,1.359-0.328,1.753l-65.004,44.64l-154.008,88.344l61.413,67.78l63.445-31.811l200.803-172.413
					c0.519-0.451,1.32-0.396,1.776,0.136c0.456,0.529,0.394,1.323-0.135,1.778L2128.46,1219.9l-64.452,32.358l-75.105,56.699
					l-32.935,136.282l181.166-56.379c0.423-0.141,0.896-0.026,1.228,0.276l134.562,124.001c0.351,0.325,0.489,0.819,0.358,1.279
					c-0.135,0.46-0.515,0.804-0.988,0.89l-257.089,46.5C2015.131,1561.817,2015.056,1561.823,2014.98,1561.823z M1821.356,1413.084
					l193.942,146.14l254.052-45.95l-132.162-121.792l-182.594,56.824c-0.427,0.141-0.903,0.028-1.238-0.284
					c-0.328-0.31-0.469-0.775-0.361-1.215l33.562-138.88c0.069-0.284,0.233-0.535,0.466-0.711l73.323-55.356l-237.839-48.489
					l53.607,94.864c0.203,0.359,0.22,0.796,0.039,1.167L1821.356,1413.084z"/>
				<path style="fill:#FFFFFF;" d="M2137.508,1391.323c-0.207,0-0.414-0.049-0.604-0.154l-149.724-81.84
					c-0.479-0.261-0.735-0.799-0.637-1.334c0.098-0.533,0.528-0.945,1.067-1.021l143.858-19.916l283.925-24.73
					c0.729-0.052,1.306,0.453,1.365,1.146c0.059,0.694-0.453,1.305-1.149,1.366l-283.859,24.724l-140.011,19.386l146.373,80.008
					c0.611,0.335,0.837,1.1,0.502,1.71C2138.384,1391.086,2137.954,1391.323,2137.508,1391.323z"/>
				<polygon style="fill:#FFFFFF;" points="1933.848,1905.738 1886.226,1832.711 1766.158,1806.173 1753.073,1738.72 
					1645.059,1800.719 1643.384,1797.804 1755.476,1733.465 1769.04,1803.367 1888.294,1829.723 1934.912,1901.211 
					2034.312,1842.67 2031.808,1806.177 1938.589,1788.26 1866.828,1727.208 1869.008,1724.647 1940.092,1785.125 
					2034.985,1803.363 2037.805,1844.512 				"/>
				<path style="opacity:0.68;fill:#FFFFFF;" d="M1788.483,1943.284c-0.476,0-0.945-0.202-1.277-0.589l-66.229-77.469
					l-31.767,39.305c-0.581,0.721-1.641,0.836-2.364,0.25c-0.722-0.583-0.834-1.641-0.25-2.364l32.157-39.79l-0.233-0.274
					c-0.144-0.169-0.256-0.364-0.322-0.576l-27.962-86.8c-0.056-0.166-0.082-0.34-0.082-0.515v-74.169l-87.701,40.231
					c-0.844,0.379-1.842,0.018-2.226-0.827c-0.387-0.844-0.016-1.842,0.827-2.229l90.081-41.323
					c0.519-0.238,1.129-0.195,1.605,0.113c0.483,0.308,0.775,0.842,0.775,1.415v76.525l27.562,85.554l45.288-56.039
					c0.213-0.266,0.505-0.461,0.837-0.556l143.832-41.884c0.601-0.177,1.257,0.002,1.691,0.458c0.433,0.458,0.574,1.119,0.364,1.714
					l-43.292,122.919c-0.118,0.332-0.335,0.617-0.62,0.819l-79.73,55.798C1789.156,1943.185,1788.818,1943.284,1788.483,1943.284z
					 M1723.125,1862.567l65.644,76.784l78.04-54.613l42.025-119.323l-140.185,40.821L1723.125,1862.567z"/>
				<circle style="fill:#FFFFFF;" cx="1780.988" cy="1292.355" r="17.728"/>
				
					<ellipse transform="matrix(0.2298 -0.9732 0.9732 0.2298 364.1056 2791.3132)" style="fill:#FFFFFF;" cx="1945.54" cy="1165.623" rx="17.728" ry="17.728"/>
				<circle style="fill:#FFFFFF;" cx="2220.565" cy="1688.902" r="17.728"/>
				
					<ellipse transform="matrix(0.9239 -0.3827 0.3827 0.9239 -302.0559 1021.0269)" style="fill:#FFFFFF;" cx="2415.499" cy="1269.783" rx="17.728" ry="17.728"/>
				
					<ellipse transform="matrix(0.2298 -0.9732 0.9732 0.2298 584.8564 2931.4321)" style="fill:#FFFFFF;" cx="2144.439" cy="1096.217" rx="17.728" ry="17.728"/>
				
					<ellipse transform="matrix(0.9239 -0.3827 0.3827 0.9239 -369.2458 923.7994)" style="fill:#FFFFFF;" cx="2137.506" cy="1390.063" rx="17.728" ry="17.728"/>
				
					<ellipse transform="matrix(0.9239 -0.3827 0.3827 0.9239 -443.9321 889.3253)" style="fill:#FFFFFF;" cx="2013.506" cy="1560.562" rx="17.728" ry="17.728"/>
				
					<ellipse transform="matrix(0.7071 -0.7071 0.7071 0.7071 -590.5317 1699.1752)" style="fill:#FFFFFF;" cx="1755.82" cy="1562.422" rx="17.728" ry="17.728"/>
				
					<ellipse transform="matrix(0.2298 -0.9732 0.9732 0.2298 -390.4202 3116.2246)" style="fill:#FFFFFF;" cx="1773.548" cy="1804.771" rx="17.728" ry="17.728"/>
				<circle style="fill:#FFFFFF;" cx="2514.33" cy="1476.863" r="17.728"/>
				
					<ellipse transform="matrix(0.2298 -0.9732 0.9732 0.2298 681.8019 3534.979)" style="fill:#FFFFFF;" cx="2574.219" cy="1336.743" rx="17.728" ry="17.728"/>
				
					<ellipse transform="matrix(0.7071 -0.7071 0.7071 0.7071 -315.1335 1647.3265)" style="fill:#FFFFFF;" cx="1830.932" cy="1204.063" rx="11.16" ry="11.16"/>
				<circle style="fill:#FFFFFF;" cx="2496.602" cy="1221.136" r="11.16"/>
				<circle style="fill:#FFFFFF;" cx="2420.459" cy="1589.451" r="11.16"/>
				
					<ellipse transform="matrix(0.7071 -0.7071 0.7071 0.7071 -354.7056 2264.7898)" style="fill:#FFFFFF;" cx="2556.49" cy="1560.562" rx="11.16" ry="11.16"/>
				
					<ellipse transform="matrix(0.9239 -0.3827 0.3827 0.9239 -556.8902 862.7552)" style="fill:#FFFFFF;" cx="1890.24" cy="1831.218" rx="11.16" ry="11.16"/>
				<circle style="fill:#FFFFFF;" cx="1721.6" cy="1867.462" r="11.16"/>
				
					<ellipse transform="matrix(0.9239 -0.3827 0.3827 0.9239 -551.8005 780.6425)" style="fill:#FFFFFF;" cx="1686.38" cy="1777.368" rx="11.16" ry="11.16"/>
				<circle style="fill:#FFFFFF;" cx="1987.782" cy="1308.223" r="11.16"/>
				<circle style="fill:#FFFFFF;" cx="2166.736" cy="1531.674" r="11.16"/>
				<circle style="fill:#FFFFFF;" cx="2290.259" cy="1215.023" r="11.16"/>
				
					<ellipse transform="matrix(0.7071 -0.7071 0.7071 0.7071 -626.7061 1807.0256)" style="fill:#FFFFFF;" cx="1867.92" cy="1660.014" rx="11.16" ry="11.16"/>
				
					<ellipse transform="matrix(0.1602 -0.9871 0.9871 0.1602 220.5142 3141.9194)" style="fill:#FFFFFF;" cx="1956.7" cy="1441.368" rx="11.16" ry="11.16"/>
				
					<ellipse transform="matrix(0.7071 -0.7071 0.7071 0.7071 -466.6556 1700.8439)" style="fill:#FFFFFF;" cx="1819.772" cy="1413.725" rx="11.16" ry="11.16"/>
				<circle style="fill:#FFFFFF;" cx="2290.259" cy="1378.791" r="11.16"/>
			</g>
		</g>
		<g>
			
				<linearGradient id="SVGID_00000093884698781709466860000002258044911647574682_" gradientUnits="userSpaceOnUse" x1="-1337.7678" y1="1595.2137" x2="-1458.95" y2="1966.6624" gradientTransform="matrix(-1 0 0 1 -214.264 0)">
				<stop  offset="0" style="stop-color:#FEBBBA"/>
				<stop  offset="1" style="stop-color:#FF928E"/>
			</linearGradient>
			<path style="fill:url(#SVGID_00000093884698781709466860000002258044911647574682_);" d="M1241.491,1622.682
				c0,0,168.586,215.847-23.759,435.379l-72.313-6.738c0,0,139.202-223.513,77.201-401.682l-102.433,7.478l-56.645-36.922
				L1241.491,1622.682z"/>
			
				<linearGradient id="SVGID_00000171711509804773879650000008170422654663780997_" gradientUnits="userSpaceOnUse" x1="-1363.4221" y1="2915.1719" x2="-1108.0845" y2="2915.1719" gradientTransform="matrix(-1 0 0 1 -214.264 0)">
				<stop  offset="0" style="stop-color:#FEBBBA"/>
				<stop  offset="1" style="stop-color:#FF928E"/>
			</linearGradient>
			<path style="fill:url(#SVGID_00000171711509804773879650000008170422654663780997_);" d="M1149.158,2679.457
				c0,0-136.591,297.703-208.255,421.01c0,0-14.234,77.588,0,101.986l12.13,5.392l-56.612-1.685c0,0-5.029-104.364-1.102-110.193
				c3.928-5.83,11.783-5.447,11.783-5.447s24.275-192.317,94.575-233.361l68.13-234.66L1149.158,2679.457z"/>
			
				<linearGradient id="SVGID_00000127754734219599727840000011417170656879277221_" gradientUnits="userSpaceOnUse" x1="-1012.4536" y1="2344.1587" x2="-1138.9045" y2="3166.0869" gradientTransform="matrix(-1 0 0 1 -214.264 0)">
				<stop  offset="0" style="stop-color:#4F52FF"/>
				<stop  offset="1" style="stop-color:#4042E2"/>
			</linearGradient>
			<path style="fill:url(#SVGID_00000127754734219599727840000011417170656879277221_);" d="M977.211,3222.461
				c0.084,1.365-44.206,0.741-68.265,0.302c-8.884-0.162-16.457-6.406-18.351-15.087l-18.169-95.455
				c-1.727-9.071,4.034-17.883,13.036-19.94l10.141-2.318c0,0,14.467,19.846,9.913,38.531c-4.554,18.685-8.607,67.086,2.902,72.726
				c11.509,5.64,44.615,6.625,44.615,6.625S976.454,3210.167,977.211,3222.461z"/>
			
				<linearGradient id="SVGID_00000116205673094784109470000012767290937476565930_" gradientUnits="userSpaceOnUse" x1="-1280.0105" y1="2302.9971" x2="-1406.462" y2="3124.928" gradientTransform="matrix(-1 0 0 1 -214.264 0)">
				<stop  offset="0" style="stop-color:#4F52FF"/>
				<stop  offset="1" style="stop-color:#4042E2"/>
			</linearGradient>
			<path style="fill:url(#SVGID_00000116205673094784109470000012767290937476565930_);" d="M1278.622,3224.193
				c4.48,2.552,2.632,9.392-2.523,9.34c-40.262-0.405-130.481-1.678-138.499-5.012c-10.35-4.304,3.772-41.497,18.635-54.085
				l82.064,26.784L1278.622,3224.193z"/>
			
				<linearGradient id="SVGID_00000144315955049935957350000016339300885129246854_" gradientUnits="userSpaceOnUse" x1="-1518.3595" y1="2934.1577" x2="-1370.4987" y2="2934.1577" gradientTransform="matrix(-1 0 0 1 -214.264 0)">
				<stop  offset="0" style="stop-color:#FEBBBA"/>
				<stop  offset="1" style="stop-color:#FF928E"/>
			</linearGradient>
			<path style="fill:url(#SVGID_00000144315955049935957350000016339300885129246854_);" d="M1304.095,2660.471
				c0,0-88.268,427.01-113.238,510.306l59.07,37.068c0,0-29.601-5.034-51.552-6.625c-21.95-1.591-42.141-26.784-42.141-26.784
				l7.077-11.287c0,0,22.135-424.685,16.746-472.909L1304.095,2660.471z"/>
			
				<linearGradient id="SVGID_00000048461111196294584150000012063178281468092323_" gradientUnits="userSpaceOnUse" x1="-1836.8789" y1="1824.8099" x2="-1547.4142" y2="1824.8099" gradientTransform="matrix(-1 0 0 1 -214.264 0)">
				<stop  offset="0" style="stop-color:#FEBBBA"/>
				<stop  offset="1" style="stop-color:#FF928E"/>
			</linearGradient>
			<path style="fill:url(#SVGID_00000048461111196294584150000012063178281468092323_);" d="M1523.208,1664.468
				c0,0,12.175,222.127-190.058,335.634l48.689,111.044c0,0,183.095-110.745,176.324-412.791
				c-0.194-8.668,2.932-17.086,8.593-23.653l38.914-45.144c14.826-17.2,20.367-40.533,14.855-62.562l-5.122-20.475
				c-1.715-6.855-9.522-10.153-15.632-6.604l-4.069,2.364c-12.955,7.524-23.216,18.931-29.334,32.606l-19.107,42.713
				c-7.137,15.955-23.594,25.642-41.008,24.138l-11.815-1.02L1523.208,1664.468z"/>
			
				<linearGradient id="SVGID_00000145048102098871933000000017721810547688383879_" gradientUnits="userSpaceOnUse" x1="830.204" y1="2491.2866" x2="1173.0588" y2="2198.8518">
				<stop  offset="0" style="stop-color:#4F52FF"/>
				<stop  offset="1" style="stop-color:#4042E2"/>
			</linearGradient>
			<path style="fill:url(#SVGID_00000145048102098871933000000017721810547688383879_);" d="M1340.189,1983.457
				c-33.833,9.383-148.455,39.535-220.012,38.303l43.934,247.928l-3.497,40.438l143.244-0.642c0,0,40.325-93.65,72.139-140.339
				c9.189-13.485,2.35-29.569-2.858-45.033l7.156-4.764c7.281-4.847,10.439-13.954,7.721-22.268l-34.882-106.725
				C1351.324,1984.974,1345.659,1981.94,1340.189,1983.457z"/>
			
				<linearGradient id="SVGID_00000018940554870508044160000002965107785672110469_" gradientUnits="userSpaceOnUse" x1="-138.3549" y1="4267.3032" x2="547.4564" y2="3379.7815">
				<stop  offset="0" style="stop-color:#09005D"/>
				<stop  offset="1" style="stop-color:#1A0F91"/>
			</linearGradient>
			<path style="fill:url(#SVGID_00000018940554870508044160000002965107785672110469_);" d="M1315.338,2288.323l-2.818,24.498
				c0,0,40.48,121.23-20.241,404.378c0,0-131.508,37.255-239.594-51.893c0,0,30.49-267.249,38.817-279.697
				c41.48-62.005,69.113-75.484,69.113-75.484l1.246-26.764C1161.862,2283.361,1277.466,2304.262,1315.338,2288.323z"/>
			
				<linearGradient id="SVGID_00000173160796931937593480000017724293463801350584_" gradientUnits="userSpaceOnUse" x1="-1473.5349" y1="1966.9236" x2="-1383.0522" y2="1966.9236" gradientTransform="matrix(-1 0 0 1 -214.264 0)">
				<stop  offset="0" style="stop-color:#FEBBBA"/>
				<stop  offset="1" style="stop-color:#FF928E"/>
			</linearGradient>
			<path style="fill:url(#SVGID_00000173160796931937593480000017724293463801350584_);" d="M1259.265,2003.438
				c0.503-0.664-29.905-91.805-29.905-91.805l-43.556,3.952l-17.015,103.396C1168.788,2018.98,1237.05,2032.758,1259.265,2003.438z"
				/>
			
				<linearGradient id="SVGID_00000169542417754043442540000017211992732033082804_" gradientUnits="userSpaceOnUse" x1="-1329.7295" y1="1849.9935" x2="-671.1321" y2="1894.7781" gradientTransform="matrix(-1 0 0 1 -214.264 0)">
				<stop  offset="0" style="stop-color:#FEBBBA"/>
				<stop  offset="1" style="stop-color:#FF928E"/>
			</linearGradient>
			<path style="fill:url(#SVGID_00000169542417754043442540000017211992732033082804_);" d="M1196.231,1767.901
				c2.904,1.808,93.074,39.073,73.701,132.685c-1.145,5.532-4.836,10.221-9.995,12.522c-13.232,5.902-41.718,16.008-75.79,12.545
				c-47.237-4.8-78.19-87.229-76.873-111.216C1108.59,1790.451,1167.446,1749.977,1196.231,1767.901z"/>
			
				<linearGradient id="SVGID_00000109712051303983373560000003392941290641581199_" gradientUnits="userSpaceOnUse" x1="-1221.4792" y1="1810.2944" x2="-1453.3049" y2="2273.9448" gradientTransform="matrix(-1 0 0 1 -214.264 0)">
				<stop  offset="0" style="stop-color:#09005D"/>
				<stop  offset="1" style="stop-color:#1A0F91"/>
			</linearGradient>
			<path style="fill:url(#SVGID_00000109712051303983373560000003392941290641581199_);" d="M1168.788,1731.507
				c2.371,0.311,52.108,17.634,27.443,53.675c-24.665,36.041-33.918,57.258-22.252,73.084c10.629,14.419,34.174,6.201,32.119,36.199
				c-0.411,6.005,2.186,11.834,7.17,15.208c22.187,15.019,76.318,61.245,22.687,127.171c-4.359,5.358-5.257,12.755-1.894,18.789
				c15.708,28.174,48.702,110.71-70.75,156.493c-118.038,45.241-160.656-31.918-172.563-62.759
				c-2.575-6.67-9.143-10.754-16.285-10.417c-12.97,0.613-31.35-1.545-30.505-18.878c0.513-10.528,7.082-19.963,14.845-27.527
				c7.683-7.487,6.165-20.595-3.162-25.895c-7.046-4.003-13.282-10.253-15.913-20.005c-7.153-26.507,7.128-105.766,83.099-119.198
				c6.337-1.121,12.973-7.062,13.896-13.431c0.014-0.094,0.028-0.189,0.044-0.284c1.019-6.16-1.065-12.458-6.099-16.15
				c-12.131-8.899-27.688-26.815-15.052-55.545c11.207-25.482,32.7-34.078,48.666-36.817c9.374-1.608,15.537-10.473,13.561-19.776
				C1072.457,1760.092,1077.15,1719.492,1168.788,1731.507z"/>
			
				<linearGradient id="SVGID_00000057869605420433539120000016340592809814064026_" gradientUnits="userSpaceOnUse" x1="1656.7203" y1="41.6301" x2="1548.3629" y2="428.622">
				<stop  offset="0" style="stop-color:#FF928E"/>
				<stop  offset="1" style="stop-color:#FE7062"/>
			</linearGradient>
			<path style="fill:url(#SVGID_00000057869605420433539120000016340592809814064026_);" d="M1725.615,1627.763H913.747
				c-11.005,0-19.926-8.921-19.926-19.926V882.855c0-11.005,8.921-19.926,19.926-19.926h811.868
				c11.005,0,19.926,8.921,19.926,19.926v724.981C1745.541,1618.842,1736.62,1627.763,1725.615,1627.763z"/>
			
				<linearGradient id="SVGID_00000167369625641177447030000014668200135145600656_" gradientUnits="userSpaceOnUse" x1="1291.2224" y1="785.6442" x2="1387.7721" y2="2330.4548">
				<stop  offset="0" style="stop-color:#FF928E"/>
				<stop  offset="1" style="stop-color:#FE7062"/>
			</linearGradient>
			<path style="fill:url(#SVGID_00000167369625641177447030000014668200135145600656_);" d="M1681.124,1583.801H958.285
				c-11.005,0-19.926-8.921-19.926-19.926V918.841c0-11.005,8.921-19.926,19.926-19.926h722.839
				c11.005,0,19.926,8.921,19.926,19.926v645.034C1701.05,1574.88,1692.129,1583.801,1681.124,1583.801z"/>
			<path style="opacity:0.7;fill:#FFFFFF;" d="M951.803,1194.71c-1.858,0-3.362-1.505-3.362-3.362V982.059
				c0-38.787,31.557-70.344,70.345-70.344h240.485c1.858,0,3.362,1.505,3.362,3.362s-1.504,3.362-3.362,3.362h-240.485
				c-35.082,0-63.622,28.54-63.622,63.62v209.289C955.165,1193.205,953.661,1194.71,951.803,1194.71z"/>
			<path style="opacity:0.7;fill:#FFFFFF;" d="M951.803,1358.476c-1.858,0-3.362-1.505-3.362-3.362v-137.893
				c0-1.856,1.504-3.361,3.362-3.361s3.362,1.505,3.362,3.361v137.893C955.165,1356.971,953.661,1358.476,951.803,1358.476z"/>
			<g>
				<path style="fill:#FFFFFF;" d="M1431.945,1471.91h-60.743c-6.815,0-12.409-1.702-16.791-5.111
					c-4.382-3.404-7.547-7.639-9.49-12.702l-31.54-86.153h-174.932l-31.544,86.153c-1.556,4.481-4.625,8.569-9.198,12.264
					c-4.576,3.701-10.176,5.549-16.791,5.549h-61.035l165.879-422.289h80.312L1431.945,1471.91z M1158.597,1312.456h134.63
					l-51.397-140.47c-2.337-6.229-4.921-13.581-7.741-22.048c-2.823-8.469-5.6-17.669-8.325-27.598
					c-2.725,9.928-5.4,19.178-8.029,27.744c-2.626,8.569-5.21,16.062-7.741,22.487L1158.597,1312.456z"/>
				<path style="fill:#FFFFFF;" d="M1563.943,1471.91h-78.851v-422.289h78.851V1471.91z"/>
			</g>
		</g>
		<g>
			
				<linearGradient id="SVGID_00000038375619977381910710000006804558911817078443_" gradientUnits="userSpaceOnUse" x1="2588.043" y1="2387.136" x2="2615.1614" y2="2753.2351">
				<stop  offset="0" style="stop-color:#FF928E"/>
				<stop  offset="1" style="stop-color:#FE7062"/>
			</linearGradient>
			<path style="fill:url(#SVGID_00000038375619977381910710000006804558911817078443_);" d="M3244.856,3211.985H2035.014
				c-4.636,0-8.394-3.758-8.394-8.394v-231.822c0-4.636,3.758-8.394,8.394-8.394h1209.842c4.636,0,8.395,3.758,8.395,8.394v231.822
				C3253.251,3208.227,3249.492,3211.985,3244.856,3211.985z"/>
			
				<linearGradient id="SVGID_00000089570983599929901540000011219726830802196374_" gradientUnits="userSpaceOnUse" x1="2634.0371" y1="3043.0002" x2="2678.2332" y2="3498.5601">
				<stop  offset="0" style="stop-color:#FF928E"/>
				<stop  offset="1" style="stop-color:#FE7062"/>
			</linearGradient>
			<path style="fill:url(#SVGID_00000089570983599929901540000011219726830802196374_);" d="M3218.552,3191.52H2057.706
				c-4.636,0-8.394-3.758-8.394-8.395v-195.893c0-4.636,3.758-8.394,8.394-8.394h1160.845c4.636,0,8.395,3.758,8.395,8.394v195.893
				C3226.946,3187.761,3223.188,3191.52,3218.552,3191.52z"/>
			<g>
				<path style="fill:#FFFFFF;" d="M2148.285,3086.167c0,8.69-0.931,16.244-2.795,22.659c-1.862,6.417-4.437,11.716-7.725,15.902
					c-3.289,4.184-7.175,7.301-11.659,9.347c-4.484,2.044-9.323,3.068-14.521,3.068c-5.196,0-10.014-1.024-14.452-3.068
					c-4.437-2.046-8.289-5.163-11.553-9.347c-3.265-4.186-5.819-9.485-7.658-15.902c-1.839-6.415-2.758-13.969-2.758-22.659
					c0-8.737,0.919-16.303,2.758-22.696s4.393-11.681,7.658-15.865c3.265-4.186,7.116-7.301,11.553-9.347
					c4.437-2.046,9.256-3.07,14.452-3.07c5.198,0,10.037,1.024,14.521,3.07c4.484,2.046,8.37,5.161,11.659,9.347
					c3.287,4.184,5.863,9.473,7.725,15.865C2147.354,3069.864,2148.285,3077.43,2148.285,3086.167z M2130.694,3086.167
					c0-7.22-0.529-13.198-1.586-17.936c-1.059-4.736-2.472-8.508-4.242-11.313c-1.771-2.805-3.807-4.772-6.104-5.899
					c-2.3-1.125-4.691-1.689-7.175-1.689c-2.438,0-4.794,0.564-7.07,1.689c-2.278,1.128-4.289,3.095-6.035,5.899
					c-1.748,2.805-3.139,6.577-4.174,11.313c-1.036,4.737-1.553,10.716-1.553,17.936s0.517,13.198,1.553,17.934
					c1.034,4.738,2.426,8.51,4.174,11.314c1.746,2.805,3.758,4.772,6.035,5.897c2.275,1.127,4.632,1.689,7.07,1.689
					c2.484,0,4.875-0.562,7.175-1.689c2.298-1.125,4.334-3.093,6.104-5.897c1.771-2.805,3.184-6.577,4.242-11.314
					C2130.165,3099.365,2130.694,3093.387,2130.694,3086.167z"/>
				<path style="fill:#FFFFFF;" d="M2228.302,3086.167c0,8.69-0.931,16.244-2.795,22.659c-1.862,6.417-4.437,11.716-7.725,15.902
					c-3.29,4.184-7.175,7.301-11.659,9.347c-4.484,2.044-9.323,3.068-14.521,3.068c-5.196,0-10.014-1.024-14.452-3.068
					c-4.437-2.046-8.288-5.163-11.553-9.347c-3.265-4.186-5.818-9.485-7.658-15.902c-1.839-6.415-2.758-13.969-2.758-22.659
					c0-8.737,0.919-16.303,2.758-22.696c1.84-6.392,4.393-11.681,7.658-15.865c3.265-4.186,7.116-7.301,11.553-9.347
					c4.438-2.046,9.256-3.07,14.452-3.07c5.198,0,10.036,1.024,14.521,3.07c4.484,2.046,8.37,5.161,11.659,9.347
					c3.287,4.184,5.863,9.473,7.725,15.865C2227.372,3069.864,2228.302,3077.43,2228.302,3086.167z M2210.711,3086.167
					c0-7.22-0.53-13.198-1.586-17.936c-1.059-4.736-2.472-8.508-4.243-11.313c-1.771-2.805-3.807-4.772-6.104-5.899
					c-2.3-1.125-4.691-1.689-7.175-1.689c-2.438,0-4.794,0.564-7.07,1.689c-2.277,1.128-4.289,3.095-6.035,5.899
					c-1.748,2.805-3.139,6.577-4.174,11.313c-1.036,4.737-1.553,10.716-1.553,17.936s0.517,13.198,1.553,17.934
					c1.034,4.738,2.426,8.51,4.174,11.314c1.746,2.805,3.758,4.772,6.035,5.897c2.275,1.127,4.632,1.689,7.07,1.689
					c2.484,0,4.875-0.562,7.175-1.689c2.298-1.125,4.334-3.093,6.104-5.897c1.771-2.805,3.184-6.577,4.243-11.314
					C2210.182,3099.365,2210.711,3093.387,2210.711,3086.167z"/>
				<path style="fill:#FFFFFF;" d="M2250.304,3123.278h20.211v-58.151c0-2.251,0.069-4.622,0.207-7.104l-14.348,12.002
					c-0.598,0.507-1.207,0.852-1.827,1.036c-0.62,0.182-1.231,0.276-1.829,0.276c-0.921,0-1.758-0.197-2.517-0.588
					c-0.759-0.389-1.322-0.837-1.691-1.344l-5.38-7.38l30.422-25.869h14.003v87.124h17.934v12.762h-55.185V3123.278z"/>
				<path style="fill:#FFFFFF;" d="M2330.322,3123.278h20.211v-58.151c0-2.251,0.069-4.622,0.207-7.104l-14.348,12.002
					c-0.598,0.507-1.207,0.852-1.827,1.036c-0.621,0.182-1.231,0.276-1.829,0.276c-0.921,0-1.758-0.197-2.517-0.588
					c-0.758-0.389-1.322-0.837-1.691-1.344l-5.38-7.38l30.422-25.869h14.004v87.124h17.934v12.762h-55.184V3123.278z"/>
				<path style="fill:#FFFFFF;" d="M2468.353,3086.167c0,8.69-0.931,16.244-2.795,22.659c-1.862,6.417-4.437,11.716-7.725,15.902
					c-3.289,4.184-7.175,7.301-11.659,9.347c-4.484,2.044-9.323,3.068-14.521,3.068c-5.196,0-10.014-1.024-14.452-3.068
					c-4.437-2.046-8.288-5.163-11.553-9.347c-3.265-4.186-5.818-9.485-7.658-15.902c-1.839-6.415-2.758-13.969-2.758-22.659
					c0-8.737,0.919-16.303,2.758-22.696c1.84-6.392,4.393-11.681,7.658-15.865c3.265-4.186,7.116-7.301,11.553-9.347
					c4.438-2.046,9.256-3.07,14.452-3.07c5.198,0,10.036,1.024,14.521,3.07c4.484,2.046,8.37,5.161,11.659,9.347
					c3.288,4.184,5.863,9.473,7.725,15.865C2467.422,3069.864,2468.353,3077.43,2468.353,3086.167z M2450.762,3086.167
					c0-7.22-0.529-13.198-1.586-17.936c-1.059-4.736-2.472-8.508-4.243-11.313c-1.771-2.805-3.807-4.772-6.104-5.899
					c-2.3-1.125-4.691-1.689-7.175-1.689c-2.438,0-4.794,0.564-7.07,1.689c-2.278,1.128-4.289,3.095-6.035,5.899
					c-1.748,2.805-3.139,6.577-4.174,11.313c-1.036,4.737-1.553,10.716-1.553,17.936s0.517,13.198,1.553,17.934
					c1.034,4.738,2.426,8.51,4.174,11.314c1.746,2.805,3.758,4.772,6.035,5.897c2.275,1.127,4.632,1.689,7.07,1.689
					c2.484,0,4.875-0.562,7.175-1.689c2.298-1.125,4.334-3.093,6.104-5.897c1.771-2.805,3.184-6.577,4.243-11.314
					C2450.232,3099.365,2450.762,3093.387,2450.762,3086.167z"/>
				<path style="fill:#FFFFFF;" d="M2490.354,3123.278h20.211v-58.151c0-2.251,0.069-4.622,0.207-7.104l-14.348,12.002
					c-0.598,0.507-1.207,0.852-1.827,1.036c-0.62,0.182-1.231,0.276-1.829,0.276c-0.921,0-1.758-0.197-2.517-0.588
					c-0.759-0.389-1.322-0.837-1.691-1.344l-5.38-7.38l30.422-25.869h14.003v87.124h17.934v12.762h-55.185V3123.278z"/>
				<path style="fill:#FFFFFF;" d="M2570.372,3123.278h20.211v-58.151c0-2.251,0.069-4.622,0.207-7.104l-14.348,12.002
					c-0.598,0.507-1.207,0.852-1.827,1.036c-0.621,0.182-1.231,0.276-1.829,0.276c-0.921,0-1.758-0.197-2.517-0.588
					c-0.758-0.389-1.322-0.837-1.691-1.344l-5.38-7.38l30.422-25.869h14.004v87.124h17.934v12.762h-55.184V3123.278z"/>
				<path style="fill:#FFFFFF;" d="M2708.403,3086.167c0,8.69-0.931,16.244-2.795,22.659c-1.862,6.417-4.437,11.716-7.725,15.902
					c-3.289,4.184-7.175,7.301-11.659,9.347c-4.484,2.044-9.323,3.068-14.521,3.068c-5.196,0-10.014-1.024-14.452-3.068
					c-4.437-2.046-8.288-5.163-11.553-9.347c-3.265-4.186-5.818-9.485-7.658-15.902c-1.84-6.415-2.758-13.969-2.758-22.659
					c0-8.737,0.919-16.303,2.758-22.696c1.839-6.392,4.393-11.681,7.658-15.865c3.265-4.186,7.116-7.301,11.553-9.347
					c4.438-2.046,9.256-3.07,14.452-3.07c5.198,0,10.036,1.024,14.521,3.07c4.484,2.046,8.37,5.161,11.659,9.347
					c3.288,4.184,5.863,9.473,7.725,15.865C2707.472,3069.864,2708.403,3077.43,2708.403,3086.167z M2690.812,3086.167
					c0-7.22-0.529-13.198-1.586-17.936c-1.059-4.736-2.472-8.508-4.243-11.313c-1.771-2.805-3.807-4.772-6.104-5.899
					c-2.3-1.125-4.691-1.689-7.175-1.689c-2.438,0-4.794,0.564-7.07,1.689c-2.278,1.128-4.289,3.095-6.035,5.899
					c-1.748,2.805-3.139,6.577-4.174,11.313c-1.036,4.737-1.553,10.716-1.553,17.936s0.517,13.198,1.553,17.934
					c1.034,4.738,2.426,8.51,4.174,11.314c1.746,2.805,3.758,4.772,6.035,5.897c2.275,1.127,4.632,1.689,7.07,1.689
					c2.484,0,4.875-0.562,7.175-1.689c2.298-1.125,4.334-3.093,6.104-5.897c1.771-2.805,3.184-6.577,4.243-11.314
					C2690.283,3099.365,2690.812,3093.387,2690.812,3086.167z"/>
				<path style="fill:#FFFFFF;" d="M2730.405,3123.278h20.211v-58.151c0-2.251,0.069-4.622,0.207-7.104l-14.348,12.002
					c-0.598,0.507-1.207,0.852-1.827,1.036c-0.62,0.182-1.231,0.276-1.829,0.276c-0.921,0-1.758-0.197-2.517-0.588
					c-0.759-0.389-1.322-0.837-1.691-1.344l-5.38-7.38l30.422-25.869h14.003v87.124h17.934v12.762h-55.185V3123.278z"/>
				<path style="fill:#FFFFFF;" d="M2868.436,3086.167c0,8.69-0.931,16.244-2.795,22.659c-1.862,6.417-4.437,11.716-7.725,15.902
					c-3.29,4.184-7.175,7.301-11.659,9.347c-4.484,2.044-9.323,3.068-14.521,3.068c-5.196,0-10.014-1.024-14.452-3.068
					c-4.437-2.046-8.289-5.163-11.553-9.347c-3.265-4.186-5.819-9.485-7.658-15.902c-1.839-6.415-2.758-13.969-2.758-22.659
					c0-8.737,0.919-16.303,2.758-22.696s4.393-11.681,7.658-15.865c3.265-4.186,7.116-7.301,11.553-9.347
					c4.437-2.046,9.256-3.07,14.452-3.07c5.198,0,10.037,1.024,14.521,3.07c4.484,2.046,8.37,5.161,11.659,9.347
					c3.287,4.184,5.863,9.473,7.725,15.865C2867.505,3069.864,2868.436,3077.43,2868.436,3086.167z M2850.845,3086.167
					c0-7.22-0.529-13.198-1.586-17.936c-1.059-4.736-2.472-8.508-4.242-11.313c-1.771-2.805-3.807-4.772-6.104-5.899
					c-2.3-1.125-4.691-1.689-7.175-1.689c-2.438,0-4.794,0.564-7.07,1.689c-2.278,1.128-4.289,3.095-6.035,5.899
					c-1.748,2.805-3.139,6.577-4.174,11.313c-1.036,4.737-1.553,10.716-1.553,17.936s0.517,13.198,1.553,17.934
					c1.034,4.738,2.426,8.51,4.174,11.314c1.746,2.805,3.758,4.772,6.035,5.897c2.275,1.127,4.632,1.689,7.07,1.689
					c2.484,0,4.875-0.562,7.175-1.689c2.298-1.125,4.334-3.093,6.104-5.897c1.77-2.805,3.184-6.577,4.242-11.314
					C2850.315,3099.365,2850.845,3093.387,2850.845,3086.167z"/>
				<path style="fill:#FFFFFF;" d="M2890.44,3123.278h20.211v-58.151c0-2.251,0.069-4.622,0.207-7.104l-14.348,12.002
					c-0.598,0.507-1.207,0.852-1.827,1.036c-0.621,0.182-1.231,0.276-1.829,0.276c-0.921,0-1.758-0.197-2.517-0.588
					c-0.759-0.389-1.322-0.837-1.691-1.344l-5.38-7.38l30.422-25.869h14.003v87.124h17.934v12.762h-55.185V3123.278z"/>
				<path style="fill:#FFFFFF;" d="M2970.457,3123.278h20.211v-58.151c0-2.251,0.069-4.622,0.207-7.104l-14.348,12.002
					c-0.598,0.507-1.207,0.852-1.827,1.036c-0.621,0.182-1.231,0.276-1.829,0.276c-0.921,0-1.758-0.197-2.517-0.588
					c-0.759-0.389-1.322-0.837-1.691-1.344l-5.38-7.38l30.422-25.869h14.004v87.124h17.934v12.762h-55.184V3123.278z"/>
				<path style="fill:#FFFFFF;" d="M3050.473,3123.278h20.211v-58.151c0-2.251,0.069-4.622,0.207-7.104l-14.348,12.002
					c-0.598,0.507-1.207,0.852-1.827,1.036c-0.621,0.182-1.231,0.276-1.829,0.276c-0.921,0-1.758-0.197-2.517-0.588
					c-0.759-0.389-1.322-0.837-1.691-1.344l-5.38-7.38l30.422-25.869h14.004v87.124h17.934v12.762h-55.184V3123.278z"/>
				<path style="fill:#FFFFFF;" d="M3130.49,3123.278h20.211v-58.151c0-2.251,0.069-4.622,0.207-7.104l-14.348,12.002
					c-0.598,0.507-1.207,0.852-1.827,1.036c-0.621,0.182-1.231,0.276-1.829,0.276c-0.921,0-1.758-0.197-2.517-0.588
					c-0.759-0.389-1.322-0.837-1.691-1.344l-5.38-7.38l30.422-25.869h14.003v87.124h17.934v12.762h-55.185V3123.278z"/>
			</g>
		</g>
		<g>
			<g>
				<g style="opacity:0.3;">
					<path style="fill:#91B3FA;" d="M2686.631,667.807c-2.351-3.607-1.644-8.483,1.773-11.255
						c7.471-6.066,15.317-11.896,23.319-17.33c3.893-2.644,9.192-1.632,11.835,2.26c0.031,0.047,0.061,0.093,0.091,0.139
						c2.527,3.878,1.494,9.083-2.353,11.695c-7.603,5.162-15.055,10.701-22.152,16.462c-3.652,2.966-9.019,2.409-11.984-1.245
						C2686.967,668.299,2686.792,668.056,2686.631,667.807z M2749.11,627.752c-0.182-0.279-0.35-0.573-0.501-0.879
						c-2.088-4.216-0.363-9.328,3.854-11.416c8.661-4.287,17.591-8.247,26.542-11.768c4.378-1.723,9.305,0.419,11.049,4.808
						c1.721,4.379-0.434,9.324-4.809,11.046c-8.508,3.347-16.99,7.109-25.221,11.185
						C2756.112,632.664,2751.434,631.319,2749.11,627.752z M2818.855,602.449c-0.518-0.795-0.911-1.69-1.145-2.665
						c-1.095-4.575,1.724-9.174,6.299-10.271c9.377-2.25,18.971-4.118,28.513-5.554c4.654-0.697,8.988,2.51,9.692,7.157
						c0.699,4.652-2.506,8.992-7.157,9.692c-9.062,1.363-18.169,3.137-27.076,5.273
						C2824.381,606.944,2820.766,605.382,2818.855,602.449z M2892.522,593.375c-0.856-1.313-1.359-2.878-1.375-4.561
						c-0.047-4.704,3.731-8.556,8.435-8.602c9.651-0.092,19.421,0.23,29.04,0.959c4.687,0.36,8.201,4.449,7.85,9.14
						c-0.356,4.69-4.448,8.205-9.14,7.85c-9.134-0.693-18.414-1.001-27.585-0.909
						C2896.726,597.279,2894.058,595.732,2892.522,593.375z M2966.361,600.957c-1.2-1.842-1.691-4.143-1.187-6.46
						c0.999-4.599,5.537-7.516,10.133-6.515c9.407,2.045,18.861,4.521,28.092,7.363c4.498,1.38,7.024,6.147,5.639,10.646
						c-1.384,4.496-6.15,7.02-10.649,5.638c-8.775-2.702-17.76-5.056-26.7-6.999
						C2969.409,604.134,2967.542,602.769,2966.361,600.957z M3036.679,624.682c-1.554-2.385-1.88-5.494-0.586-8.263
						c1.993-4.263,7.061-6.104,11.324-4.114c8.736,4.081,17.408,8.588,25.769,13.397c4.08,2.348,5.482,7.555,3.136,11.634
						c-2.344,4.077-7.553,5.482-11.631,3.136c-7.946-4.569-16.182-8.852-24.483-12.729
						C3038.712,627.045,3037.518,625.969,3036.679,624.682z M3224.095,875.154c-0.644-0.988-1.091-2.125-1.28-3.366
						c-1.376-9.049-3.167-18.159-5.323-27.077c-1.105-4.573,1.706-9.177,6.277-10.28c4.573-1.107,9.177,1.704,10.282,6.278
						c2.271,9.391,4.158,18.987,5.609,28.515c0.708,4.652-2.49,8.997-7.142,9.704
						C3229.109,879.448,3225.863,877.867,3224.095,875.154z M3099.95,663.376c-1.929-2.961-1.875-6.938,0.416-9.883
						c2.89-3.714,8.242-4.381,11.955-1.493c7.611,5.921,15.057,12.246,22.132,18.799c3.436,3.212,3.661,8.587,0.462,12.04
						c-3.197,3.451-8.587,3.657-12.041,0.46c-6.717-6.224-13.788-12.23-21.015-17.853
						C3101.092,664.848,3100.452,664.146,3099.95,663.376z M3204.732,803.513c-0.307-0.471-0.574-0.978-0.789-1.522
						c-3.369-8.516-7.153-16.999-11.239-25.215c-2.094-4.214-0.378-9.328,3.833-11.423c4.212-2.093,9.344-0.393,11.422,3.833
						c4.299,8.645,8.28,17.572,11.827,26.532c1.731,4.375-0.413,9.327-4.787,11.057
						C3211.17,808.292,3206.898,806.836,3204.732,803.513z M3152.991,715.233c-2.347-3.602-1.646-8.47,1.76-11.245
						c3.648-2.973,9.013-2.425,11.988,1.22c6.085,7.468,11.93,15.299,17.368,23.278c0.035,0.048,0.069,0.1,0.102,0.15
						c2.523,3.872,1.497,9.069-2.339,11.686c-3.889,2.651-9.188,1.65-11.838-2.24c-5.168-7.578-10.72-15.015-16.503-22.109
						C3153.337,715.732,3153.156,715.485,3152.991,715.233z"/>
					<path style="fill:#91B3FA;" d="M3227.706,934.865c-0.916-1.405-1.429-3.095-1.374-4.9c0.134-4.391,0.175-8.856,0.131-13.276
						c-0.05-4.703,3.725-8.559,8.428-8.607c4.705-0.051,8.566,3.723,8.607,8.43c0.05,4.648,0.004,9.345-0.135,13.965
						c-0.142,4.702-4.07,8.401-8.77,8.259C3231.693,938.65,3229.177,937.124,3227.706,934.865z"/>
				</g>
				<g style="opacity:0.3;">
					<path style="fill:#91B3FA;" d="M3119.12,1170.804c-2.245-3.445-1.722-8.104,1.421-10.955c3.254-2.949,6.502-6.016,9.65-9.116
						c3.354-3.301,8.747-3.259,12.048,0.093c3.314,3.367,3.258,8.748-0.094,12.048c-3.315,3.262-6.735,6.493-10.16,9.599
						c-3.486,3.159-8.874,2.895-12.034-0.591C3119.64,1171.541,3119.364,1171.179,3119.12,1170.804z"/>
					<path style="fill:#91B3FA;" d="M2618.295,1106.56c-2.14-3.284-4.232-6.618-6.276-9.998c-2.433-4.027-1.143-9.264,2.883-11.699
						c4.026-2.434,9.29-1.134,11.699,2.88c4.719,7.802,9.742,15.396,14.994,22.652c2.755,3.819,1.906,9.136-1.904,11.896
						c-3.813,2.761-9.14,1.906-11.898-1.905C2624.542,1115.898,2621.348,1111.246,2618.295,1106.56z M2591.431,1056.574
						c-0.26-0.399-0.49-0.826-0.686-1.279c-3.774-8.724-7.219-17.705-10.24-26.693c-1.499-4.458,0.901-9.29,5.359-10.788
						c4.461-1.499,9.306,0.903,10.79,5.362c2.869,8.537,6.144,17.067,9.728,25.359c1.868,4.317-0.119,9.332-4.435,11.199
						C2598.078,1061.405,2593.656,1059.988,2591.431,1056.574z M2656.533,1154.791c-2.193-3.365-1.755-7.918,1.25-10.796
						c3.401-3.255,8.792-3.135,12.047,0.262c6.223,6.502,12.809,12.825,19.582,18.794c3.525,3.117,3.868,8.496,0.757,12.024
						c-3.114,3.53-8.497,3.868-12.026,0.757c-7.131-6.286-14.068-12.947-20.622-19.793
						C2657.148,1155.648,2656.819,1155.229,2656.533,1154.791z M2569.992,986.74c-0.59-0.906-1.014-1.941-1.228-3.068
						c-1.763-9.331-3.148-18.851-4.117-28.292c-0.48-4.68,2.924-8.862,7.604-9.342c4.683-0.481,8.865,2.92,9.344,7.604
						c0.92,8.965,2.235,18.004,3.91,26.866c0.876,4.622-2.167,9.079-6.789,9.952C2575.222,991.121,2571.821,989.546,2569.992,986.74
						z M2712.535,1201.602c-1.799-2.76-1.9-6.439,0.036-9.362c2.6-3.922,7.887-4.994,11.809-2.394
						c7.497,4.971,15.314,9.69,23.233,14.029c4.126,2.26,5.641,7.438,3.377,11.565c-2.261,4.125-7.436,5.636-11.562,3.376
						c-8.338-4.566-16.567-9.535-24.462-14.769C2713.967,1203.385,2713.151,1202.547,2712.535,1201.602z M2777.453,1234.992
						c-1.438-2.207-1.835-5.047-0.825-7.696c1.68-4.395,6.604-6.597,10.999-4.917c8.429,3.22,17.092,6.122,25.747,8.627
						c4.522,1.301,7.126,6.023,5.818,10.55c-1.309,4.52-6.031,7.123-10.552,5.817c-9.109-2.636-18.225-5.69-27.094-9.08
						C2779.801,1237.626,2778.402,1236.447,2777.453,1234.992z M2848.107,1253.435c-1.094-1.678-1.603-3.745-1.289-5.885
						c0.681-4.654,5.009-7.875,9.664-7.193c8.937,1.31,18.022,2.259,27.012,2.816c4.694,0.292,8.266,4.329,7.974,9.031
						c-0.293,4.695-4.333,8.265-9.031,7.974c-9.459-0.589-19.025-1.584-28.427-2.963
						C2851.493,1256.846,2849.395,1255.411,2848.107,1253.435z M2921.096,1256.03c-0.758-1.163-1.241-2.526-1.353-4.008
						c-0.352-4.692,3.165-8.779,7.856-9.131c9.002-0.675,18.073-1.742,26.967-3.172c4.645-0.747,9.019,2.418,9.765,7.056
						c0.748,4.646-2.413,9.018-7.058,9.764c-9.368,1.507-18.923,2.631-28.398,3.342
						C2925.664,1260.12,2922.737,1258.548,2921.096,1256.03z M2992.901,1242.533c-0.426-0.654-0.768-1.379-1.007-2.162
						c-1.378-4.498,1.153-9.263,5.651-10.638c8.609-2.637,17.218-5.675,25.593-9.035c4.368-1.752,9.33,0.383,11.077,4.735
						c1.753,4.367-0.369,9.328-4.736,11.079c-8.816,3.536-17.881,6.736-26.944,9.51
						C2998.82,1247.16,2994.921,1245.633,2992.901,1242.533z M3059.942,1213.61c-0.095-0.146-0.186-0.298-0.274-0.451
						c-2.324-4.09-0.891-9.291,3.2-11.614c5.775-3.28,11.515-6.777,17.069-10.396c2.01-1.31,4.002-2.641,5.973-3.987
						c3.887-2.654,9.188-1.656,11.84,2.231c2.763,3.881,1.656,9.185-2.228,11.838c-2.075,1.418-4.168,2.815-6.284,4.194
						c-5.841,3.806-11.884,7.485-17.957,10.935C3067.346,1218.596,3062.381,1217.353,3059.942,1213.61z"/>
					<path style="fill:#91B3FA;" d="M2564.47,913.695c-0.925-1.419-1.437-3.125-1.374-4.943c0.162-4.609,0.425-9.302,0.781-13.949
						c0.359-4.692,4.453-8.204,9.143-7.845c4.691,0.361,8.205,4.448,7.845,9.143c-0.337,4.414-0.586,8.872-0.741,13.248
						c-0.163,4.7-4.108,8.379-8.811,8.214C2568.43,917.462,2565.933,915.94,2564.47,913.695z"/>
				</g>
				<g>
					<g>
						<path style="fill:#7D97F4;" d="M2653.533,869.383c-0.516,1.618,0.051,3.386,1.413,4.401l38.844,28.975
							c-1.781,22.561,0.022,45.568,5.704,68.154l-33.44,35.03c-1.174,1.229-1.437,3.066-0.658,4.576l26.664,51.652
							c0.78,1.509,2.431,2.358,4.111,2.114l47.924-6.973c15.123,17.713,32.833,32.508,52.257,44.123l1.124,48.448
							c0.04,1.698,1.152,3.184,2.77,3.7l55.377,17.669c1.619,0.516,3.387-0.051,4.402-1.413l28.975-38.843
							c22.561,1.781,45.569-0.023,68.155-5.705l35.031,33.441c1.228,1.173,3.066,1.437,4.575,0.658l51.652-26.664
							c1.509-0.779,2.358-2.43,2.113-4.111l-6.973-47.925c17.713-15.122,32.509-32.832,44.123-52.256l48.448-1.125
							c1.697-0.04,3.184-1.152,3.7-2.77l17.668-55.377c0.517-1.619-0.051-3.386-1.412-4.402l-38.844-28.975
							c1.782-22.561-0.022-45.569-5.704-68.154l33.441-35.031c1.173-1.229,1.437-3.066,0.658-4.575l-26.665-51.652
							c-0.779-1.51-2.43-2.358-4.111-2.114l-47.925,6.973c-15.121-17.714-32.833-32.509-52.257-44.123l-1.124-48.447
							c-0.039-1.698-1.152-3.185-2.77-3.701l-55.377-17.668c-1.618-0.516-3.386,0.051-4.402,1.412l-28.975,38.843
							c-22.561-1.781-45.569,0.023-68.154,5.705l-35.031-33.441c-1.228-1.173-3.066-1.437-4.575-0.657l-51.651,26.663
							c-1.51,0.779-2.358,2.43-2.114,4.111l6.973,47.924c-17.713,15.122-32.508,32.833-44.123,52.256l-48.447,1.125
							c-1.699,0.039-3.184,1.151-3.701,2.77L2653.533,869.383z"/>
					</g>
					<g>
						<path style="fill:#BDD0FB;" d="M2856.535,951.141c-15.549-23.863-11.679-56.234,10.282-75.647
							c24.142-21.337,61.138-19.055,82.475,5.084c10.34,11.693,15.501,26.714,14.54,42.289
							c-0.959,15.577-7.928,29.849-19.623,40.184c-24.142,21.338-61.138,19.055-82.475-5.084
							C2859.811,955.79,2858.076,953.506,2856.535,951.141z M2943.104,894.891c-1.201-1.843-2.542-3.608-4.025-5.287
							c-16.358-18.508-44.727-20.255-63.234-3.899c-18.509,16.36-20.269,44.728-3.899,63.236
							c16.358,18.509,44.727,20.256,63.234,3.899c8.968-7.926,14.31-18.867,15.047-30.811
							C2950.824,912.322,2948.319,902.894,2943.104,894.891z"/>
					</g>
					<g>
						<path style="fill:#BDD0FB;" d="M2786.482,998.213c-2.67-4.098-5.15-8.355-7.425-12.761l0,0
							c-0.716-1.386-1.41-2.785-2.082-4.194c-3.309-6.949-6.06-14.151-8.21-21.494c-0.029-0.1-0.059-0.2-0.088-0.3
							c-0.082-0.284-0.164-0.568-0.243-0.854c-0.158-0.554-0.31-1.11-0.462-1.665c-0.396-1.461,0.221-2.958,1.425-3.745
							c0.292-0.191,0.621-0.339,0.976-0.435c1.816-0.492,3.683,0.587,4.177,2.4c2.529,9.348,6.083,18.485,10.563,27.159
							c22.238,43.095,64.345,69.387,109.393,73.495c25.056,2.288,51.022-2.292,74.989-14.665c4.203-2.169,8.266-4.534,12.174-7.083
							c26.306-17.145,45.754-42.604,55.426-72.922c11.112-34.825,7.997-71.894-8.771-104.374
							c-34.637-67.079-117.331-93.444-184.381-58.83c-4.134,2.134-8.146,4.47-12.017,6.994c-16.78,10.938-30.98,25.425-41.53,42.473
							c-0.273,0.44-0.629,0.797-1.036,1.061c-1.071,0.698-2.494,0.761-3.654,0.043c-1.598-0.996-2.1-3.088-1.104-4.692
							c11.076-17.898,25.984-33.11,43.6-44.593c4.064-2.65,8.274-5.101,12.612-7.342c70.396-36.342,157.237-8.613,193.566,61.758
							c17.604,34.1,20.873,73.013,9.207,109.573c-10.153,31.829-30.57,58.555-58.186,76.556c-4.104,2.674-8.369,5.157-12.778,7.435
							c-34.102,17.604-73.016,20.874-109.575,9.21C2831.212,1046.263,2804.482,1025.837,2786.482,998.213z"/>
					</g>
				</g>
			</g>
			<g>
				<g style="opacity:0.3;">
					<path style="fill:#91B3FA;" d="M2339.827,546.8c-1.243-1.907-1.143-4.474,0.414-6.292c2.904-3.394,5.95-6.747,9.055-9.963
						c2.017-2.09,5.346-2.149,7.44-0.131c2.102,2.013,2.149,5.349,0.132,7.44c-2.958,3.065-5.862,6.26-8.634,9.499
						c-1.886,2.207-5.208,2.464-7.419,0.577C2340.423,547.592,2340.095,547.211,2339.827,546.8z"/>
					<path style="fill:#91B3FA;" d="M2368.854,518.592c-1.456-2.234-1.012-5.253,1.106-6.961c5.984-4.832,12.286-9.41,18.726-13.607
						c1.356-0.884,2.727-1.755,4.109-2.616c2.472-1.534,5.707-0.588,7.251,1.687c1.535,2.468,0.778,5.712-1.687,7.247
						c-1.323,0.822-2.633,1.654-3.929,2.498c-6.143,4.003-12.153,8.37-17.861,12.976c-2.262,1.827-5.572,1.472-7.4-0.786
						C2369.057,518.885,2368.95,518.74,2368.854,518.592z M2415.248,489.741c-0.136-0.208-0.262-0.43-0.369-0.66
						c-1.222-2.638-0.078-5.767,2.559-6.991c8.456-3.927,17.231-7.364,26.077-10.212c2.767-0.892,5.731,0.645,6.621,3.395
						c0.89,2.768-0.627,5.729-3.395,6.621c-8.44,2.718-16.809,5.997-24.875,9.741
						C2419.464,492.75,2416.653,491.898,2415.248,489.741z M2467.252,473.003c-0.365-0.559-0.627-1.198-0.761-1.893
						c-0.541-2.855,1.339-5.607,4.194-6.148c9.147-1.728,18.504-2.907,27.806-3.492c2.904-0.184,5.396,2.013,5.581,4.922
						c0.183,2.898-2.021,5.398-4.918,5.581c-8.872,0.559-17.79,1.678-26.514,3.33
						C2470.481,475.71,2468.381,474.736,2467.252,473.003z M2521.782,469.562c-0.595-0.913-0.91-2.017-0.843-3.185
						c0.177-2.9,2.673-5.112,5.573-4.935c9.311,0.566,18.663,1.715,27.807,3.417c2.856,0.534,4.736,3.287,4.207,6.136
						c-0.53,2.857-3.276,4.741-6.136,4.21c-8.713-1.624-17.638-2.72-26.514-3.259
						C2524.144,471.841,2522.661,470.911,2521.782,469.562z M2575.497,479.543c-0.83-1.275-1.104-2.899-0.609-4.464
						c0.875-2.769,3.832-4.303,6.603-3.428c8.88,2.813,17.671,6.197,26.128,10.064c2.65,1.205,3.808,4.329,2.599,6.972
						s-4.333,3.807-6.972,2.599c-8.071-3.689-16.456-6.919-24.93-9.599C2577.11,481.303,2576.138,480.526,2575.497,479.543z
						 M2625.155,502.256c-1.076-1.651-1.174-3.844-0.072-5.636c1.522-2.473,4.763-3.241,7.238-1.72
						c7.93,4.885,15.63,10.312,22.881,16.13c2.267,1.831,2.626,5.133,0.81,7.399c-1.817,2.266-5.131,2.629-7.395,0.811
						c-6.915-5.549-14.253-10.721-21.813-15.378C2626.118,503.441,2625.566,502.887,2625.155,502.256z M2667.742,536.411
						c-1.346-2.066-1.089-4.862,0.744-6.642c2.085-2.024,5.417-1.975,7.443,0.109c6.468,6.66,12.6,13.813,18.233,21.262
						c1.717,2.352,1.29,5.623-1.028,7.373c-2.317,1.752-5.616,1.293-7.37-1.023c-5.368-7.109-11.218-13.931-17.385-20.281
						C2668.135,536.959,2667.925,536.691,2667.742,536.411z M2712.9,604.491c-0.166-0.254-0.313-0.529-0.436-0.82
						c-3-7.06-6.439-14.08-10.223-20.866c-0.568-1.031-1.137-2.037-1.718-3.032c-1.456-2.517-0.603-5.734,1.912-7.192
						c2.517-1.465,5.817-0.635,7.193,1.909c0.615,1.065,1.223,2.132,1.818,3.213c3.952,7.091,7.557,14.45,10.702,21.854
						c1.136,2.676-0.109,5.763-2.785,6.899C2716.98,607.468,2714.267,606.589,2712.9,604.491z"/>
				</g>
				<g style="opacity:0.3;">
					<path style="fill:#91B3FA;" d="M2324.236,814.958c-1.568-2.406-0.913-5.636,1.481-7.242c2.412-1.617,5.683-0.974,7.299,1.441
						c4.871,7.268,10.226,14.299,15.918,20.9c1.866,2.204,1.656,5.524-0.548,7.422c-2.203,1.899-5.524,1.65-7.422-0.548
						c-5.966-6.925-11.583-14.294-16.688-21.912C2324.263,814.999,2324.249,814.977,2324.236,814.958z M2310.62,791.737
						c-0.104-0.16-0.198-0.322-0.285-0.495c-4.155-8.164-7.853-16.664-10.997-25.262c-0.995-2.731,0.405-5.75,3.135-6.747
						c2.733-1.002,5.752,0.422,6.751,3.132c2.998,8.206,6.529,16.316,10.49,24.108c1.318,2.588,0.286,5.757-2.303,7.073
						C2314.988,794.778,2312.067,793.958,2310.62,791.737z M2359.329,855.637c-1.274-1.955-1.129-4.594,0.512-6.405
						c1.948-2.15,5.275-2.315,7.429-0.364c6.49,5.875,13.387,11.406,20.51,16.435c2.371,1.69,2.938,4.961,1.258,7.334
						c-1.674,2.372-4.96,2.938-7.334,1.262c-7.466-5.273-14.697-11.073-21.496-17.234
						C2359.863,856.353,2359.57,856.008,2359.329,855.637z M2292.2,741.235c-0.327-0.501-0.573-1.067-0.718-1.684
						c-2.071-8.929-3.61-18.077-4.572-27.186c-0.307-2.89,1.789-5.48,4.68-5.787c2.882-0.302,5.474,1.793,5.784,4.679
						c0.919,8.686,2.387,17.405,4.36,25.919c0.655,2.83-1.108,5.659-3.938,6.314C2295.584,744.001,2293.372,743.035,2292.2,741.235z
						 M2403.212,886.624c-1.017-1.561-1.173-3.615-0.229-5.367c1.377-2.563,4.569-3.52,7.127-2.145
						c7.688,4.138,15.71,7.846,23.85,11.021c2.712,1.057,4.046,4.11,2.988,6.817c-1.057,2.707-4.11,4.046-6.817,2.988
						c-8.532-3.333-16.945-7.219-25.008-11.555C2404.321,887.95,2403.676,887.337,2403.212,886.624z M2453.249,906.181
						c-0.778-1.195-1.071-2.698-0.69-4.184c0.723-2.814,3.592-4.511,6.406-3.788c8.479,2.178,17.162,3.861,25.805,5.003
						c2.885,0.38,4.911,3.028,4.529,5.905c-0.38,2.881-3.022,4.906-5.901,4.526c-9.064-1.196-18.167-2.958-27.051-5.24
						C2455.021,908.062,2453.941,907.244,2453.249,906.181z M2506.534,913.188c-0.547-0.839-0.863-1.842-0.849-2.921
						c0.026-2.906,2.407-5.239,5.313-5.211c8.75,0.091,17.583-0.359,26.249-1.336c2.882-0.32,5.491,1.754,5.814,4.641
						c0.324,2.888-1.751,5.492-4.641,5.818c-9.087,1.021-18.351,1.495-27.53,1.404
						C2509.063,915.563,2507.463,914.613,2506.534,913.188z"/>
					<path style="fill:#91B3FA;" d="M2286.531,687.538c-0.554-0.85-0.868-1.869-0.85-2.961c0.077-4.503,0.29-9.023,0.627-13.438
						c0.223-2.896,2.751-5.068,5.649-4.847c2.891,0.23,5.062,2.752,4.846,5.649c-0.324,4.209-0.524,8.523-0.601,12.82
						c-0.05,2.906-2.449,5.22-5.353,5.168C2289.038,689.897,2287.453,688.952,2286.531,687.538z"/>
				</g>
				<g>
					<g>
						<path style="fill:#7D97F4;" d="M2345.869,654.094c-0.345,1.082,0.034,2.266,0.945,2.945l25.992,19.389
							c-1.192,15.096,0.015,30.492,3.817,45.606l-22.377,23.44c-0.785,0.822-0.962,2.052-0.44,3.062l17.842,34.563
							c0.522,1.01,1.626,1.578,2.751,1.415l32.069-4.666c10.119,11.853,21.97,21.753,34.968,29.525l0.752,32.419
							c0.027,1.136,0.771,2.131,1.854,2.476l37.056,11.823c1.083,0.345,2.266-0.034,2.946-0.945l19.389-25.992
							c15.097,1.192,30.493-0.015,45.606-3.817l23.44,22.377c0.822,0.785,2.052,0.962,3.062,0.44l34.563-17.843
							c1.01-0.521,1.578-1.626,1.414-2.751l-4.666-32.069c11.853-10.119,21.753-21.97,29.525-34.967l32.42-0.753
							c1.136-0.027,2.13-0.771,2.476-1.853l11.823-37.057c0.346-1.082-0.034-2.265-0.945-2.945l-25.993-19.389
							c1.193-15.096-0.015-30.492-3.817-45.606l22.377-23.441c0.784-0.822,0.962-2.051,0.44-3.061l-17.843-34.563
							c-0.521-1.01-1.626-1.578-2.751-1.414l-32.069,4.667c-10.119-11.853-21.97-21.754-34.968-29.526l-0.752-32.418
							c-0.026-1.137-0.771-2.132-1.854-2.477l-37.056-11.823c-1.083-0.345-2.266,0.034-2.945,0.945l-19.389,25.992
							c-15.097-1.192-30.492,0.016-45.606,3.818l-23.441-22.378c-0.821-0.784-2.052-0.962-3.061-0.439l-34.563,17.842
							c-1.01,0.522-1.578,1.626-1.415,2.751l4.666,32.069c-11.852,10.119-21.753,21.97-29.525,34.967l-32.419,0.753
							c-1.136,0.026-2.13,0.771-2.477,1.854L2345.869,654.094z"/>
					</g>
					<g>
						<path style="fill:#BDD0FB;" d="M2481.086,709.139c-4.634-7.112-6.859-15.487-6.328-24.112
							c0.655-10.61,5.403-20.331,13.369-27.371c16.437-14.531,41.637-12.979,56.176,3.462c14.524,16.491,12.978,41.65-3.464,56.181
							c-7.966,7.042-18.197,10.56-28.805,9.904c-10.612-0.653-20.335-5.4-27.374-13.37
							C2483.345,712.344,2482.15,710.773,2481.086,709.139z M2539.022,671.508c-0.773-1.186-1.64-2.329-2.604-3.422
							c-10.694-12.092-29.23-13.234-41.325-2.544c-5.856,5.177-9.354,12.329-9.832,20.132c-0.481,7.808,2.112,15.327,7.284,21.193
							l0,0c5.179,5.858,12.331,9.352,20.134,9.834c7.808,0.481,15.333-2.107,21.194-7.287
							C2544.874,699.69,2546.813,683.465,2539.022,671.508z"/>
					</g>
					<g>
						<path style="fill:#BDD0FB;" d="M2432.283,741.841c-1.818-2.79-3.507-5.694-5.069-8.711c-3.097-5.995-5.587-12.311-7.405-18.79
							c-0.08-0.292-0.159-0.583-0.239-0.875c-0.612-2.257,0.341-4.568,2.2-5.782c0.452-0.294,0.959-0.524,1.506-0.672
							c2.804-0.76,5.683,0.909,6.45,3.706c1.639,6.065,3.942,11.979,6.837,17.581l0.001,0.002c0.158,0.308,0.322,0.615,0.482,0.919
							c6.973,13.196,16.971,24.153,29.082,32.198c6.574,4.366,13.778,7.873,21.467,10.403c0.063,0.021,0.125,0.041,0.187,0.062
							c0.194,0.061,0.382,0.125,0.574,0.184c22.545,7.191,46.542,5.176,67.569-5.68c2.723-1.403,5.35-2.934,7.881-4.583
							c17.03-11.099,29.619-27.582,35.884-47.211c7.192-22.545,5.172-46.54-5.682-67.565c-10.856-21.009-29.25-36.569-51.793-43.766
							c-22.545-7.192-46.542-5.176-67.569,5.68c-2.677,1.379-5.272,2.893-7.778,4.525c-10.865,7.083-20.056,16.46-26.885,27.496
							c-0.422,0.68-0.97,1.231-1.6,1.638c-1.653,1.077-3.852,1.176-5.642,0.067c-2.467-1.536-3.237-4.77-1.704-7.246
							c7.642-12.348,17.927-22.843,30.077-30.766c2.807-1.829,5.709-3.521,8.702-5.066c23.529-12.146,50.375-14.401,75.6-6.352
							c25.22,8.049,45.808,25.415,57.943,48.96c12.146,23.525,14.404,50.37,6.352,75.595c-7.003,21.959-21.09,40.398-40.143,52.816
							c-2.828,1.843-5.771,3.558-8.813,5.129C2515.208,799.248,2459.686,783.897,2432.283,741.841z"/>
					</g>
				</g>
			</g>
		</g>
	</g>
</g>
</svg>
