<svg width="126" height="143" viewBox="0 0 126 143" fill="none" xmlns="http://www.w3.org/2000/svg">
<path d="M121.73 28.6708C122.992 28.9972 124.232 29.3382 125.45 29.6936V38.6865C124.232 38.331 122.991 37.9901 121.73 37.6636V28.6708Z" fill="#42E8E0"/>
<path opacity="0.5" d="M113.108 29.047C114.457 29.3052 115.788 29.5799 117.099 29.8696V36.5542C115.788 36.264 114.457 35.9898 113.108 35.7315V29.047Z" fill="#42E8E0"/>
<path d="M103.946 21.7245C105.372 21.9097 106.782 22.1124 108.175 22.3319V34.8721C106.782 34.653 105.372 34.4504 103.946 34.2647V21.7245Z" fill="#42E8E0"/>
<path opacity="0.5" d="M94.3112 13.8218C95.8036 13.9291 97.282 14.0549 98.746 14.1985V33.6732C97.282 33.5296 95.8036 33.4039 94.3112 33.2965V13.8218Z" fill="#42E8E0"/>
<path opacity="0.5" d="M84.2686 18.0022C85.8195 18.0264 87.3594 18.0699 88.8866 18.1328V32.9904C87.3594 32.9276 85.8195 32.884 84.2686 32.8598V18.0022Z" fill="#42E8E0"/>
<path d="M74.1278 2.44958C75.642 2.38816 77.1673 2.34561 78.7037 2.32288V32.8584C77.1678 32.8816 75.642 32.9237 74.1278 32.9851V2.44958Z" fill="#42E8E0"/>
<path d="M64.3232 8.73739C65.7803 8.59569 67.2515 8.4714 68.7357 8.36597V33.2857C67.2515 33.3916 65.7803 33.5154 64.3232 33.6572V8.73739Z" fill="#42E8E0"/>
<path d="M54.9267 0.601616C56.3156 0.384473 57.7215 0.183774 59.1429 0V34.2429C57.7215 34.4267 56.3156 34.6269 54.9267 34.8445V0.601616Z" fill="#42E8E0"/>
<g opacity="0.5">
<g opacity="0.11">
<path d="M77.0374 108.254C75.5643 107.403 73.7493 107.402 72.2752 108.251L43.8922 124.6C43.4454 124.859 43.4454 125.503 43.8922 125.761L72.5117 142.285C73.8121 143.035 75.4139 143.035 76.7143 142.285L105.378 125.777C105.825 125.519 105.825 124.874 105.378 124.616L77.0374 108.254Z" fill="url(#paint0_linear_1_1707)"/>
</g>
<g opacity="0.11">
<path d="M77.0374 103.472C75.5643 102.621 73.7493 102.621 72.2752 103.47L43.8922 119.819C43.4454 120.077 43.4454 120.722 43.8922 120.98L72.5117 137.503C73.8121 138.254 75.4139 138.254 76.7143 137.503L105.378 120.995C105.825 120.737 105.825 120.092 105.378 119.834L77.0374 103.472Z" fill="url(#paint1_linear_1_1707)"/>
</g>
<g opacity="0.11">
<path d="M77.0374 98.6912C75.5643 97.8405 73.7493 97.8395 72.2752 98.6887L43.8922 115.038C43.4454 115.296 43.4454 115.941 43.8922 116.199L72.5117 132.722C73.8121 133.473 75.4139 133.473 76.7143 132.722L105.378 116.214C105.825 115.956 105.825 115.311 105.378 115.053L77.0374 98.6912Z" fill="url(#paint2_linear_1_1707)"/>
</g>
<g opacity="0.11">
<path d="M77.0374 93.9092C75.5643 93.0585 73.7493 93.0575 72.2752 93.9068L43.8922 110.256C43.4454 110.514 43.4454 111.159 43.8922 111.417L72.5117 127.94C73.8121 128.691 75.4139 128.691 76.7143 127.94L105.378 111.433C105.825 111.174 105.825 110.53 105.378 110.272L77.0374 93.9092Z" fill="url(#paint3_linear_1_1707)"/>
</g>
<path opacity="0.11" d="M105.381 110.271L77.0409 93.9093C75.5678 93.0586 73.7528 93.0577 72.2788 93.9069L43.8958 110.256C43.6724 110.385 43.5607 110.611 43.5607 110.836V125.181C43.5607 125.407 43.6724 125.633 43.8958 125.761L72.5152 142.285C73.8157 143.035 75.4174 143.035 76.7179 142.285L105.381 125.777C105.605 125.648 105.716 125.423 105.716 125.197V110.852C105.716 110.626 105.605 110.401 105.381 110.271Z" fill="url(#paint4_linear_1_1707)"/>
</g>
<g opacity="0.11">
<path d="M77.0374 88.4738C75.5643 87.6231 73.7493 87.6221 72.2752 88.4713L43.8922 104.82C43.4454 105.078 43.4454 105.723 43.8922 105.981L72.5117 122.505C73.8121 123.255 75.4139 123.255 76.7143 122.505L105.378 105.997C105.825 105.739 105.825 105.094 105.378 104.836L77.0374 88.4738Z" fill="url(#paint5_linear_1_1707)"/>
</g>
<g opacity="0.11">
<path d="M77.0374 83.6918C75.5643 82.8411 73.7493 82.8401 72.2752 83.6894L43.8922 100.038C43.4454 100.296 43.4454 100.941 43.8922 101.199L72.5117 117.723C73.8121 118.473 75.4139 118.473 76.7143 117.723L105.378 101.215C105.825 100.957 105.825 100.312 105.378 100.054L77.0374 83.6918Z" fill="url(#paint6_linear_1_1707)"/>
</g>
<g opacity="0.11">
<path d="M77.0374 78.9108C75.5643 78.0601 73.7493 78.0591 72.2752 78.9084L43.8922 95.2575C43.4454 95.5152 43.4454 96.1604 43.8922 96.4182L72.5117 112.942C73.8121 113.692 75.4139 113.692 76.7143 112.942L105.378 96.4341C105.825 96.1764 105.825 95.5312 105.378 95.2734L77.0374 78.9108Z" fill="url(#paint7_linear_1_1707)"/>
</g>
<g opacity="0.11">
<path d="M77.0374 74.1288C75.5643 73.2781 73.7493 73.2771 72.2752 74.1264L43.8922 90.4755C43.4454 90.7333 43.4454 91.3784 43.8922 91.6362L72.5117 108.16C73.8121 108.91 75.4139 108.91 76.7143 108.16L105.378 91.6516C105.825 91.3939 105.825 90.7487 105.378 90.491L77.0374 74.1288Z" fill="url(#paint8_linear_1_1707)"/>
</g>
<path opacity="0.11" d="M105.381 90.4917L77.0409 74.1295C75.5678 73.2788 73.7528 73.2779 72.2788 74.1271L43.8958 90.4762C43.6724 90.6053 43.5607 90.8307 43.5607 91.0566V105.401C43.5607 105.627 43.6724 105.853 43.8958 105.981L72.5152 122.505C73.8157 123.256 75.4174 123.256 76.7179 122.505L105.381 105.997C105.605 105.868 105.716 105.643 105.716 105.417V91.0725C105.716 90.8462 105.605 90.6203 105.381 90.4917Z" fill="url(#paint9_linear_1_1707)"/>
<g opacity="0.11">
<path d="M77.0374 68.6943C75.5643 67.8437 73.7493 67.8427 72.2752 68.6919L43.8922 85.041C43.4454 85.2988 43.4454 85.944 43.8922 86.2017L72.5117 102.725C73.8121 103.476 75.4139 103.476 76.7143 102.725L105.378 86.2172C105.825 85.9594 105.825 85.3143 105.378 85.0565L77.0374 68.6943Z" fill="url(#paint10_linear_1_1707)"/>
</g>
<g opacity="0.11">
<path d="M77.0374 63.9128C75.5643 63.0622 73.7493 63.0612 72.2752 63.9104L43.8922 80.2595C43.4454 80.5173 43.4454 81.1625 43.8922 81.4202L72.5117 97.9439C73.8121 98.6945 75.4139 98.6945 76.7143 97.9439L105.378 81.4362C105.825 81.1784 105.825 80.5333 105.378 80.2755L77.0374 63.9128Z" fill="url(#paint11_linear_1_1707)"/>
</g>
<g opacity="0.11">
<path d="M77.0374 59.1314C75.5643 58.2807 73.7493 58.2797 72.2752 59.1289L43.8922 75.4781C43.4454 75.7363 43.4454 76.381 43.8922 76.6387L72.5117 93.1624C73.8121 93.913 75.4139 93.913 76.7143 93.1624L105.378 76.6547C105.825 76.3969 105.825 75.7518 105.378 75.494L77.0374 59.1314Z" fill="url(#paint12_linear_1_1707)"/>
</g>
<g opacity="0.11">
<path d="M77.0374 54.3499C75.5643 53.4992 73.7493 53.4982 72.2752 54.3474L43.8922 70.6966C43.4454 70.9543 43.4454 71.5995 43.8922 71.8572L72.5117 88.3809C73.8121 89.1315 75.4139 89.1315 76.7143 88.3809L105.378 71.8732C105.825 71.6154 105.825 70.9703 105.378 70.7125L77.0374 54.3499Z" fill="url(#paint13_linear_1_1707)"/>
</g>
<path opacity="0.5" d="M105.381 70.7118L77.0409 54.3496C75.5678 53.4989 73.7528 53.498 72.2788 54.3472L43.8958 70.6963C43.6724 70.8254 43.5607 71.0513 43.5607 71.2767V85.6207C43.5607 85.8465 43.6724 86.0724 43.8958 86.201L72.5152 102.725C73.8157 103.475 75.4174 103.475 76.7179 102.725L105.381 86.2165C105.605 86.0874 105.716 85.862 105.716 85.6362V71.2916C105.716 71.0668 105.605 70.8409 105.381 70.7118Z" fill="url(#paint14_linear_1_1707)"/>
<g opacity="0.11">
<path d="M77.0374 54.3499C75.5643 53.4992 73.7493 53.4982 72.2752 54.3474L43.8922 70.6966C43.4454 70.9543 43.4454 71.5995 43.8922 71.8572L72.5117 88.3809C73.8121 89.1315 75.4139 89.1315 76.7143 88.3809L105.378 71.8732C105.825 71.6154 105.825 70.9703 105.378 70.7125L77.0374 54.3499Z" fill="url(#paint15_linear_1_1707)"/>
</g>
<path d="M105.381 71.2124L76.7175 87.7201C75.4171 88.4707 73.8153 88.4707 72.5149 87.7201L43.8955 71.1964C43.7852 71.1326 43.703 71.0451 43.6469 70.9464C43.4762 71.2492 43.5589 71.6626 43.8955 71.8571L72.5149 88.3808C73.8153 89.1313 75.4171 89.1313 76.7175 88.3808L105.381 71.873C105.718 71.6786 105.801 71.2651 105.63 70.9624C105.574 71.0615 105.492 71.149 105.381 71.2124Z" fill="url(#paint16_linear_1_1707)"/>
<path d="M46.906 76.2643L47.6112 76.6714V76.199L46.906 75.7917V76.2643Z" fill="#42E8E0"/>
<path d="M46.906 79.4611L47.6112 79.8683V77.1025L46.906 76.6953V79.4611Z" fill="#42E8E0"/>
<path d="M46.906 80.9903L47.6112 81.3975V80.2992L46.906 79.892V80.9903Z" fill="#42E8E0"/>
<path d="M46.906 82.5747L47.6112 82.9819V81.8841L46.906 81.4769V82.5747Z" fill="#42E8E0"/>
<path d="M45.8557 77.1862L46.5608 77.5934V76.4951L45.8557 76.0879V77.1862Z" fill="#42E8E0"/>
<path d="M45.8557 79.285L46.5608 79.6922V78.0798L45.8557 77.6726V79.285Z" fill="#42E8E0"/>
<path d="M45.8557 81.217L46.5608 81.6242V80.2411L45.8557 79.8339V81.217Z" fill="#42E8E0"/>
<path d="M46.906 84.1594L47.6112 84.5667V83.4684L46.906 83.0612V84.1594Z" fill="#42E8E0"/>
<path d="M45.8557 75.6569L46.5608 76.0641V75.5916L45.8557 75.1844V75.6569Z" fill="#42E8E0"/>
<path d="M46.3798 85.3936L47.6106 86.1041V85.6456L46.3798 84.9347V85.3936Z" fill="#42E8E0"/>
<path opacity="0.2" d="M74.6481 80.1246C83.0639 80.1246 89.8863 76.1856 89.8863 71.3266C89.8863 66.4677 83.0639 62.5287 74.6481 62.5287C66.2322 62.5287 59.4098 66.4677 59.4098 71.3266C59.4098 76.1856 66.2322 80.1246 74.6481 80.1246Z" fill="#180D5B"/>
<path d="M74.7314 64.077L74.7614 64.2139L74.803 64.1225C74.803 64.1225 75.0114 64.832 74.8325 65.1864C74.6541 65.5405 74.39 65.9791 74.0133 66.4748C73.6365 66.9705 73.0335 68.0021 72.8748 68.2003C72.7162 68.3986 71.7959 69.168 70.6454 69.287C69.4948 69.406 69.2013 68.7473 69.2966 68.3904C69.3918 68.0335 70.0109 67.089 70.685 66.3196C71.3597 65.5501 71.8752 64.5582 71.8752 64.5582L74.7314 64.077Z" fill="#160A5B"/>
<path d="M71.2726 60.9528C71.2726 60.9528 71.3084 61.6908 71.231 61.9941C71.1536 62.2978 69.4639 62.3925 68.8627 62.4699C68.2616 62.5473 67.2146 62.9758 66.8871 63.1364C66.5597 63.2969 64.3641 63.529 64.0962 62.72C63.8283 61.9109 65.1969 61.2324 66.1255 61.0181C67.0535 60.8039 68.5711 60.3396 68.5711 60.3396L71.2726 60.9528Z" fill="#160A5B"/>
<path d="M77.1333 46.3385C77.1333 46.3385 77.1928 48.4093 76.5027 51.2656C75.8126 54.1218 75.8958 56.1211 75.8958 56.1211C75.8958 56.1211 76.6178 59.354 75.9828 61.5598C75.3483 63.7656 74.8086 64.3841 74.8086 64.3841C74.8086 64.3841 73.5391 66.0661 71.873 64.5587C71.873 64.5587 72.8093 61.5279 72.9205 59.1161C72.9205 59.1161 72.0955 57.3436 71.8097 55.7627C71.8097 55.7627 71.5717 58.2756 71.4286 59.2912C71.4286 59.2912 71.5713 60.7826 71.1747 61.3857C70.7781 61.9888 68.9849 62.1634 68.4137 61.1159C67.8426 60.0683 68.8901 60.581 68.5724 55.7627C68.5724 55.7627 66.9223 53.7054 66.6838 49.9211C66.4459 46.1363 66.4696 44.6371 66.6838 43.8991C66.8981 43.1611 70.5557 40.5032 70.5557 40.5032L72.6188 43.1374L77.1333 46.3385Z" fill="#24126A"/>
<path d="M71.7154 56.696C71.6143 56.3493 71.5244 55.9909 71.461 55.6417C71.461 55.6417 71.2231 58.1546 71.0799 59.1702C71.0799 59.1702 71.2226 60.6617 70.826 61.2647C70.5707 61.6526 69.7384 61.861 69.0241 61.6831C69.7882 62.0496 70.8734 61.8388 71.1718 61.3856C71.5684 60.7826 71.4257 59.2911 71.4257 59.2911C71.5123 58.6769 71.6327 57.5182 71.7154 56.696Z" fill="url(#paint17_linear_1_1707)"/>
<path d="M77.1286 46.3384L72.614 43.1368L70.5514 40.5026C70.5514 40.5026 70.4933 40.5446 70.3918 40.6196L72.2682 43.0159L76.7828 46.2175C76.7828 46.2175 76.8423 48.2883 76.1521 51.1445C75.462 54.0008 75.5452 56 75.5452 56C75.5452 56 76.2672 59.233 75.6327 61.4388C74.9977 63.6446 74.4585 64.2631 74.4585 64.2631C74.4585 64.2631 73.6784 65.2884 72.541 65.0122C73.8642 65.6235 74.8043 64.384 74.8043 64.384C74.8043 64.384 75.344 63.7655 75.9785 61.5597C76.613 59.3539 75.8915 56.1209 75.8915 56.1209C75.8915 56.1209 75.8083 54.1217 76.4984 51.2654C77.1881 48.4092 77.1286 46.3384 77.1286 46.3384Z" fill="url(#paint18_linear_1_1707)"/>
<path d="M68.9923 50.5634C68.3974 49.8491 68.0632 47.6119 68.0632 47.6119C68.0632 47.6119 68.9923 49.4922 69.6592 50.0397C70.3256 50.5871 70.8967 51.682 71.0157 52.3959C71.1347 53.1102 71.8093 55.7623 71.8093 55.7623C71.8093 55.7623 71.5714 58.2752 71.4282 59.2908C71.4282 59.2908 71.5709 60.7823 71.1743 61.3853C71.0941 61.5072 70.9557 61.6102 70.7836 61.69C70.7845 61.6615 70.8842 58.3642 70.7836 56.966C70.682 55.5621 69.5871 51.2777 68.9923 50.5634Z" fill="#160A5B"/>
<path d="M82.6275 31.0752C82.6275 31.0752 84.2036 34.1558 84.3622 34.3942C84.5208 34.6322 87.4723 38.3928 87.7582 40.5671C87.7582 40.5671 87.9801 41.4081 86.9645 42.1539C85.949 42.8996 80.8236 46.1529 80.5063 46.2003C80.1891 46.2477 78.3325 45.3433 78.2532 43.3121C78.2532 43.3121 82.2677 41.4396 83.1406 40.5033C83.1406 40.5033 81.5775 37.8773 80.812 37.1035C80.6205 36.91 80.5078 36.5555 80.4464 36.1333C80.1954 34.4083 80.8724 32.6774 82.1598 31.5022L82.6275 31.0752Z" fill="#4846A5"/>
<path d="M70.8381 23.8576C70.8381 23.8576 68.3983 24.7619 67.5655 24.4524C66.7322 24.1429 64.6856 23.8813 63.2812 23.0959C61.8767 22.3105 55.744 20.7276 54.8353 20.672C54.8353 20.672 54.8193 20.7078 54.9702 20.7711C55.1211 20.8345 55.7517 20.8901 55.9224 21.6039C56.0932 22.3182 55.716 23.1752 55.6129 23.2347C55.5099 23.2942 55.4504 23.0403 54.8633 22.7704C54.2762 22.5005 53.9154 22.5165 53.9154 22.5165L53.6935 22.798L53.5585 23.0045C53.5585 23.0045 53.8482 23.8692 54.6336 23.9287C55.419 23.9881 60.4651 26.0948 60.7823 26.1901C61.0996 26.2853 65.3365 28.1115 66.1296 28.3968C66.9228 28.6816 67.5418 29.0468 67.5418 29.0468C67.5418 29.0468 70.0169 27.3967 70.0967 27.3967C70.1756 27.3962 70.8381 23.8576 70.8381 23.8576Z" fill="#24126A"/>
<path d="M48.7774 19.6449C48.8804 19.6686 50.1581 20.0971 50.1581 20.0971C50.1581 20.0971 49.6503 20.3587 49.6029 20.5889C49.5555 20.8191 49.7059 22.1123 49.7538 22.1916C49.8017 22.2709 50.0633 22.4455 50.1426 22.4929C50.222 22.5403 50.4202 22.9848 50.603 22.9291C50.7854 22.8735 50.841 22.6433 50.841 22.6433C50.841 22.6433 50.9836 22.5717 51.0272 22.5442C51.0707 22.5166 51.9833 22.5998 52.2846 22.7942C52.5859 22.9886 53.2765 23.0916 53.5579 23.0046C53.8394 22.9175 54.2568 22.7105 54.3472 22.6593C54.3472 22.6593 54.6606 22.7072 54.8352 22.7981C55.0098 22.8895 55.5649 23.2623 55.6486 23.2938C55.7318 23.3257 56.8707 21.0924 54.8352 20.6716C54.8352 20.6716 53.9903 20.5962 53.6252 20.4216C53.26 20.247 52.229 19.4534 51.8479 19.4379C51.4668 19.422 51.0784 19.5491 51.0784 19.5491C51.0784 19.5491 48.7774 18.8905 48.5873 19.097C48.3968 19.3035 48.6744 19.6207 48.7774 19.6449ZM50.4425 21.176C50.7133 21.1838 50.9067 20.8975 50.9067 20.8975C51.0852 21.0135 51.2608 20.8709 51.2608 20.8709C51.2608 20.9125 51.5761 20.9719 51.5761 20.9719C51.5761 20.9719 51.7187 21.0909 51.8972 21.222C52.0756 21.353 51.8377 21.7394 51.8377 21.7394C51.6651 21.7544 51.4629 21.6679 51.2932 21.5876C51.1239 21.5073 50.972 21.516 50.856 21.4715C50.7404 21.427 50.4425 21.176 50.4425 21.176Z" fill="#FCD1C5"/>
<path d="M66.6837 43.8991C66.8979 43.1611 70.5555 40.5032 70.5555 40.5032L71.5803 41.8114L72.46 45.2315L77.1322 46.6857V46.6862C77.1318 46.6901 76.8841 49.024 73.079 48.7546C69.2706 48.4848 68.8266 45.5333 68.8266 45.5333C68.8266 45.5333 68.4039 46.5029 66.5285 46.7558C66.4845 45.1918 66.5435 44.3823 66.6837 43.8991Z" fill="#160A5B"/>
<path d="M77.9987 25.7775L78.6414 27.4281C78.6414 27.4281 81.7385 30.1073 82.6269 31.075C82.6269 31.075 81.0972 34.0091 80.8114 37.1033C80.8114 37.1033 79.3954 38.2577 78.9669 38.7892C78.5384 39.3207 77.4556 41.7803 77.1103 42.5894C76.765 43.3985 77.7289 45.8384 77.7289 45.8384C77.7289 45.8384 76.412 48.27 74.2937 48.1907C72.1755 48.1114 70.7314 46.8182 70.4616 44.5171C70.1917 42.2161 70.271 41.8829 70.271 41.8829C70.271 41.8829 69.3188 44.7072 67.8752 44.7072C66.4311 44.7072 64.1383 42.2557 64.1383 42.2557C64.1383 42.2557 62.5912 40.8513 62.7339 40.2168C62.8765 39.5823 66.3755 34.0918 66.566 33.1875C66.7566 32.2831 67.542 29.0458 67.542 29.0458L70.8388 23.8571L72.8492 23.9523L77.9987 25.7775Z" fill="#453C9E"/>
<path d="M74.2076 47.6096C72.1812 47.5337 70.7836 46.3358 70.4291 44.2185C70.4402 44.3157 70.4508 44.412 70.4634 44.5169C70.7333 46.8179 72.1774 48.1111 74.2956 48.1904C76.4138 48.2698 77.7312 45.8381 77.7312 45.8381C77.7312 45.8381 77.6611 45.6597 77.5663 45.3874C77.2602 45.8865 76.0323 47.6783 74.2076 47.6096Z" fill="url(#paint19_linear_1_1707)"/>
<path d="M77.9994 25.7776C77.9994 25.7776 78.0154 26.7613 77.6265 27.7372C77.2377 28.7131 75.9682 34.2114 73.0883 36.0917L71.9813 36.7939V33.2949C71.9813 33.2949 72.0011 31.1409 72.4929 29.7761C72.9848 28.4114 72.9688 26.7453 72.9688 26.7453C72.9688 26.7453 73.776 26.5233 73.7769 26.5388C73.7784 26.5552 77.9994 25.7776 77.9994 25.7776Z" fill="#F0F6FF"/>
<path d="M74.4486 28.3325C74.4486 28.3325 73.937 28.541 73.7169 28.2078C73.4969 27.8746 73.2705 27.2023 73.33 26.8928C73.33 26.8928 71.9672 26.96 71.6973 26.2462C71.4275 25.5324 71.721 25.3457 71.7646 25.1238C71.8081 24.9018 71.8477 24.3185 72.0305 23.8939L72.0504 23.7116C72.0504 23.7116 71.7728 23.4737 71.8995 23.2236C72.0267 22.9736 72.771 22.1959 72.8469 22.0654C72.9228 21.9343 72.828 20.9705 73.1172 20.4902C73.4069 20.01 73.966 19.3436 73.966 19.3436C73.966 19.3436 76.8696 17.0783 79.1547 19.3436C81.4398 21.6088 77.9964 25.7781 77.9964 25.7781C77.9964 25.7781 77.7208 27.125 77.0543 27.6603C76.3884 28.1957 74.4486 28.3325 74.4486 28.3325Z" fill="#FCD1C5"/>
<path d="M76.5728 22.8159C76.5709 22.7322 76.5815 22.6486 76.6091 22.5697C76.6947 22.3221 76.8397 21.6518 76.1414 21.144C75.2685 20.509 73.7296 19.9379 73.777 19.3034C73.8249 18.6689 76.2526 17.0976 78.0454 17.9386C79.8387 18.7796 81.5207 20.9061 80.2986 23.1593C79.0765 25.4124 77.9975 25.7776 77.9975 25.7776C77.9975 25.7776 77.6324 25.7021 77.9598 25.3273C78.2872 24.9525 78.8821 24.0066 78.3883 23.7086C77.8945 23.4112 77.0376 24.0539 76.9244 24.1966C76.8809 24.2517 76.8364 24.3214 76.7977 24.3857C76.7343 24.4926 76.6013 24.5351 76.4882 24.4824L76.4461 24.4626C76.3329 24.4099 76.2788 24.2788 76.3223 24.1618L76.5365 23.5786C76.5684 23.4915 76.5839 23.3991 76.582 23.3063L76.5728 22.8159Z" fill="#AA8383"/>
<path d="M74.525 28.9669C74.525 28.9669 75.1716 29.4268 75.5527 30.308C75.5527 30.308 74.8626 29.5937 74.4699 29.451C74.4699 29.451 73.7082 29.8079 73.7082 30.0459C73.7082 30.2838 73.6366 31.711 73.4582 32.4789C73.2797 33.2469 73.3005 35.9445 73.3005 35.9445L72.8188 36.2632L72.5896 35.0798L72.6776 32.5568L73.1254 30.2601C73.1254 30.2601 73.2086 29.3915 73.2444 29.3437C73.2797 29.2963 74.525 28.9669 74.525 28.9669Z" fill="#C4CCD6"/>
<path d="M74.5243 28.967C74.5243 28.967 73.7863 28.1817 73.4135 28.1657C73.0406 28.1497 72.8404 28.3514 72.8331 28.3964C72.8259 28.4414 72.4753 29.6707 72.4753 29.6707C72.4753 29.6707 71.7789 31.8151 71.8504 34.3139C71.922 36.8132 71.9815 36.7934 71.9815 36.7934L72.8965 36.2131C72.8965 36.2131 72.6479 34.4251 73.148 32.3543C73.648 30.2834 73.2074 29.9739 73.4454 29.7597C73.6833 29.5464 74.6394 29.2209 74.5243 28.967Z" fill="#24126A"/>
<path d="M78.9662 38.7893C78.5377 39.3208 77.4776 41.7771 77.1323 42.5862C77.0767 42.7172 77.0327 42.8947 77.0356 43.0935C76.9491 43.1501 76.8954 43.1849 76.8954 43.1849L76.4321 42.7327C76.4321 42.7327 76.8475 41.233 77.5139 39.3769C78.1803 37.5203 80.8107 37.1039 80.8107 37.1039C80.8107 37.1039 79.3947 38.2578 78.9662 38.7893Z" fill="#24126A"/>
<path d="M78.2534 43.3755C78.2534 43.3755 77.4994 42.2806 77.2615 42.1379C77.2615 42.1379 77.3171 42.4475 76.8886 42.638C76.4601 42.8285 74.2186 43.6971 74.1417 43.7982C74.0643 43.8993 74.1475 44.0245 74.2906 44.054C74.2906 44.054 73.8264 44.2127 73.6363 44.2088C73.4458 44.2049 73.1919 44.4467 73.3191 44.6532C73.4462 44.8597 73.5531 44.8438 73.5531 44.8438C73.5531 44.8438 73.4975 45.074 73.6363 45.1252C73.7751 45.177 74.1083 45.1847 74.1083 45.1847C74.1083 45.1847 74.0411 45.4149 74.2273 45.5058C74.4135 45.5972 75.3222 45.6964 75.3222 45.6964C75.3222 45.6964 76.0321 45.6209 76.2348 45.6171C76.4369 45.6132 77.3611 45.8391 77.7543 45.7834C78.147 45.7278 79.4445 45.2679 79.5751 45.1905C79.7052 45.1131 78.2534 43.3755 78.2534 43.3755Z" fill="#FCD1C5"/>
<path d="M78.7883 27.9636L78.693 29.4391L77.8955 29.6892L78.4309 30.1297C78.4309 30.1297 76.2691 35.0447 73.5077 36.6C73.5077 36.6 76.142 35.6638 78.6331 30.1737C78.6331 30.1737 78.3709 29.8642 78.2916 29.7772L78.8468 29.531L78.7883 27.9636Z" fill="#24126A"/>
<path d="M71.729 27.8087C71.729 27.8087 70.7497 32.8228 71.5845 36.5994C71.5845 36.5994 70.5809 34.7825 71.4882 27.8087H71.729Z" fill="#24126A"/>
<path d="M49.6556 20.481C49.7963 20.2842 50.1586 20.097 50.1586 20.097C50.1586 20.097 51.2017 20.5217 51.3802 20.6048C51.3802 20.6048 50.3099 20.4926 49.6556 20.481Z" fill="#E2B1A6"/>
<path d="M55.6473 23.2941C55.6047 23.2776 55.4379 23.1717 55.2618 23.0605C55.9544 22.1281 55.1932 20.7807 55.1907 20.7759C56.7253 21.3731 55.7256 23.3241 55.6473 23.2941Z" fill="#E2B1A6"/>
<path d="M79.575 45.1904C79.4778 45.248 78.7388 45.5159 78.2035 45.6731C78.2035 45.6731 77.8577 44.3175 77.936 43.8639C78.0144 43.4102 78.2035 43.3029 78.2035 43.3029C78.2349 43.3473 78.2543 43.3759 78.2543 43.3759C78.2543 43.3759 79.7056 45.113 79.575 45.1904Z" fill="#E2B1A6"/>
<path d="M78.2509 43.312C78.2509 43.312 78.0188 44.0955 78.5484 44.7024C79.0779 45.3093 79.1369 45.3872 79.1369 45.3872H79.7444C79.7444 45.3872 80.0597 44.4287 80.0123 44.405C79.9649 44.3808 78.2509 43.312 78.2509 43.312Z" fill="#4846A5"/>
<path d="M72.5884 29.2737C72.5884 29.2737 72.0052 32.7117 72.1362 33.9735C72.2673 35.2352 72.2194 36.5995 72.2194 36.5995L72.0352 36.7601L71.9815 36.7939C71.9815 36.7939 71.922 36.8137 71.8504 34.3144C71.7789 31.8151 72.4753 29.6712 72.4753 29.6712C72.4753 29.6712 72.5256 29.4952 72.5884 29.2737Z" fill="#24126A"/>
<path d="M72.3991 64.9397C72.2298 64.8454 72.0552 64.7216 71.8753 64.5591C71.8753 64.5591 72.8116 61.5282 72.9228 59.1165C72.9228 59.1165 72.0978 57.344 71.812 55.7631C71.8913 56.0769 72.8513 57.7759 73.2851 59.5135C73.7189 61.2506 72.3991 64.9397 72.3991 64.9397Z" fill="#160A5B"/>
<path d="M76.6551 25.2235C76.6556 25.2204 76.6567 25.2147 76.6567 25.2147C76.6567 25.2147 76.6562 25.2178 76.6551 25.2235Z" fill="#E2B1A6"/>
<path d="M76.6534 25.223C76.6365 25.3091 76.387 26.5327 75.8932 27.1072C75.3815 27.702 74.9869 28.2761 74.9869 28.2761C74.6687 28.3177 74.4472 28.3332 74.4472 28.3332C74.4472 28.3332 73.9355 28.5416 73.7155 28.2084C73.4954 27.8752 73.2691 27.203 73.3286 26.8934C73.3286 26.8934 75.1673 26.7029 75.8695 26.2149C76.5214 25.7613 76.6399 25.2883 76.6534 25.223Z" fill="#E2B1A6"/>
<path d="M77.3213 42.1494C77.3213 42.1494 77.2227 42.3578 77.2048 42.3743C77.1869 42.3907 77.1613 42.2147 77.1613 42.2147C77.1613 42.2147 77.2435 42.0444 77.2478 42.0444C77.2527 42.044 77.3213 42.1494 77.3213 42.1494Z" fill="#1B2B3A"/>
<path d="M71.9798 36.7938C71.9798 36.7938 70.6968 40.891 70.2697 41.8834L70.2954 42.869C70.2954 42.869 71.9285 37.7819 71.9798 36.7938Z" fill="#24126A"/>
<path d="M70.7404 38.2549C70.6679 38.4938 70.7888 38.7424 71.0103 38.8096C71.2322 38.8773 71.4707 38.738 71.5437 38.4991C71.6162 38.2602 71.4953 38.0116 71.2738 37.9444C71.0519 37.8767 70.8129 38.0155 70.7404 38.2549Z" fill="#24126A"/>
<path d="M70.0905 40.0219C70.018 40.2608 70.1389 40.5094 70.3604 40.5766C70.5819 40.6439 70.8208 40.5051 70.8934 40.2662C70.9659 40.0273 70.845 39.7787 70.6235 39.7114C70.402 39.6437 70.1636 39.783 70.0905 40.0219Z" fill="#24126A"/>
<path d="M76.5365 23.5789C76.5684 23.4918 76.5839 23.3995 76.582 23.3066L76.5718 22.8162C76.5698 22.7326 76.5805 22.6489 76.6081 22.5701C76.6327 22.499 76.6617 22.3921 76.6748 22.2654C76.6748 22.2654 78.6721 23.7196 79.9382 23.7772C78.8719 25.4809 77.997 25.7774 77.997 25.7774C77.997 25.7774 77.6319 25.702 77.9593 25.3272C78.2867 24.9523 78.8815 24.0064 78.3878 23.7085C77.894 23.4111 77.037 24.0538 76.9239 24.1965C76.8803 24.2516 76.8358 24.3212 76.7971 24.3856C76.7338 24.4924 76.6003 24.535 76.4876 24.4823L76.4456 24.4624C76.3324 24.4097 76.2782 24.2787 76.3218 24.1616L76.5365 23.5789Z" fill="#936D6D"/>
<path d="M80.3204 77.1609C80.3204 77.1609 79.419 77.3833 78.5456 77.4177C77.6721 77.452 75.299 77.9279 75.3576 78.8139C75.417 79.7047 76.657 80.9819 78.2109 81.171C79.7667 81.3606 81.7664 80.9128 82.7825 80.9403C83.7986 80.9679 84.4931 79.932 84.0951 78.9396C83.7004 77.954 80.3204 77.1609 80.3204 77.1609Z" fill="#160A5B"/>
<path d="M85.5593 74.7798C85.5593 74.7798 85.892 75.3156 85.729 75.6435C85.566 75.9724 85.1308 76.7901 83.7094 75.9985C82.2953 75.2111 79.5639 74.0848 79.5639 74.0848C79.5639 74.0848 77.9984 73.252 78.084 72.2688C78.1691 71.2919 79.6098 71.4375 79.6098 71.4375L85.5593 74.7798Z" fill="#160A5B"/>
<path d="M76.3351 60.8394C76.3351 60.8394 76.9386 67.2227 78.2212 69.6417C79.525 72.1004 79.8848 76.6043 80.1566 77.4642C80.4303 78.3289 81.2742 79.5713 82.6051 79.8349C83.9385 80.099 84.1556 79.1932 84.0898 78.6491C84.0246 78.107 83.6551 77.2297 83.6502 76.6416C83.6454 76.0555 83.7818 75.7812 83.8021 75.5119C83.8021 75.5119 85.3269 75.9611 85.5586 74.7797C85.5586 74.7797 85.4353 74.4358 85.4149 74.2603C85.3946 74.0847 85.545 69.811 85.5823 69.2935C85.6195 68.7775 85.3405 65.9841 84.9168 64.6068C84.497 63.2425 84.6368 60.3394 84.6368 60.3394L80.2963 59.7344L76.3351 60.8394Z" fill="#24126A"/>
<path d="M84.9166 64.6069C84.4969 63.2426 84.6361 60.3395 84.6361 60.3395L84.257 60.2867C84.2401 60.6886 84.1501 63.2373 84.5341 64.4903C84.9558 65.8662 85.2305 68.6577 85.1933 69.1732C85.1555 69.6902 84.9993 73.9605 85.0196 74.1361C85.04 74.3116 85.1628 74.6555 85.1628 74.6555C84.9297 75.836 83.4063 75.3872 83.4063 75.3872C83.3855 75.6561 83.2487 75.9303 83.253 76.5159C83.2574 77.104 83.6254 77.9803 83.6902 78.522C83.7555 79.0656 83.5369 79.9709 82.2045 79.7073C82.1629 79.6991 82.1262 79.6817 82.0856 79.672C82.2505 79.7421 82.4222 79.8002 82.6054 79.8364C83.9383 80.1005 84.1559 79.1947 84.0901 78.6506C84.0244 78.1085 83.6549 77.2312 83.6505 76.6426C83.6457 76.0565 83.783 75.7286 83.8034 75.4592C83.8034 75.4592 85.3272 75.9617 85.5589 74.7802C85.5589 74.7802 85.4356 74.4364 85.4153 74.2608C85.3949 74.0853 85.5453 69.8116 85.5826 69.2941C85.6188 68.7771 85.3403 65.9837 84.9166 64.6069Z" fill="url(#paint20_linear_1_1707)"/>
<path d="M83.35 60.8022C83.35 60.8022 83.3321 61.7985 82.9167 62.6366C82.9167 62.6366 82.9249 66.0292 82.5767 67.7474C82.5767 67.7474 83.1382 71.1971 83.4922 72.2842C83.8486 73.3791 83.8013 75.5129 83.8013 75.5129C83.8013 75.5129 83.9749 75.5772 84.2234 75.5864C84.472 75.5956 84.4899 71.3692 84.1079 70.6235C83.7277 69.8816 83.4395 66.5872 83.5831 65.5837C83.7258 64.5865 83.677 61.7317 83.8656 61.2278C84.0537 60.7258 83.6286 60.4589 83.6286 60.4589L83.35 60.8022Z" fill="#160A5B"/>
<path d="M79.6993 37.7753C79.6993 37.7753 78.4385 38.6874 78.5023 40.2625L79.4391 40.0608C79.4391 40.0608 79.161 38.3169 79.6993 37.7753Z" fill="#160A5B"/>
<path d="M80.1885 62.1926C83.0655 62.2806 84.6179 61.0058 84.6179 61.0058C84.6242 60.6025 84.6368 60.3394 84.6368 60.3394L80.2964 59.7344L76.3351 60.8399C76.3351 60.8399 76.4545 62.0983 76.6992 63.7102C77.4048 63.7866 78.0978 62.0533 78.0978 62.0533L80.0715 62.1781C80.0715 62.1781 77.3134 62.1046 80.1885 62.1926Z" fill="#160A5B"/>
<path d="M76.8883 60.9342C76.8883 60.9342 83.1434 63.4877 86.1675 58.6443C86.2536 58.5065 86.2937 58.3377 86.2879 58.1679L86.2497 57.0392C86.2449 56.8955 86.2652 56.7534 86.3101 56.6208C86.4069 56.3341 86.4286 56.0226 86.3725 55.7194C86.1385 54.4581 85.5044 51.0283 85.3555 50.0761C85.1741 48.9154 85.7893 44.2693 86.8271 42.2575C87.85 40.2741 85.2235 35.8138 85.2235 35.8138C85.2235 35.8138 84.5793 34.7725 83.3175 35.1294C83.3175 35.1294 84.5212 35.9709 83.8621 36.8598C83.199 37.7545 81.222 38.4688 81.222 38.4688C81.222 38.4688 77.5659 40.366 76.3143 42.6743C76.3143 42.6743 75.8844 43.8747 75.8461 45.3932C75.8079 46.9282 75.9777 50.6134 75.9134 51.1255C75.849 51.6391 75.6546 55.1507 75.6754 55.3146C75.6952 55.479 76.8883 60.9342 76.8883 60.9342Z" fill="#453C9E"/>
<path d="M83.9085 35.7736C84.0081 35.5211 83.9782 35.2784 83.8858 35.0656C83.7122 35.0598 83.5274 35.0709 83.32 35.1294C83.32 35.1294 83.6914 35.3901 83.9085 35.7736Z" fill="url(#paint21_linear_1_1707)"/>
<path d="M78.7851 61.4561C78.7851 61.4561 82.4688 51.5091 82.2938 47.8984C82.1231 44.3782 76.9165 55.0308 76.9165 55.0308L76.8894 60.9343C76.8894 60.9343 78.0704 61.37 78.7851 61.4561Z" fill="#24126A"/>
<path d="M86.2105 55.6474C86.166 55.7794 86.1453 55.9206 86.1501 56.0628L86.1878 57.1843C86.1936 57.3531 86.1535 57.5204 86.0679 57.6573C83.053 62.4678 76.8197 59.9317 76.8197 59.9317C76.8197 59.9317 75.9622 56.0193 75.6938 54.7522C75.6803 55.0612 75.6735 55.2774 75.6779 55.3146C75.6987 55.4786 76.8917 60.9343 76.8917 60.9343C76.8917 60.9343 83.1473 63.4878 86.1709 58.6443C86.257 58.5065 86.2971 58.3377 86.2913 58.168L86.2531 57.0387C86.2483 56.8951 86.2686 56.7529 86.3136 56.6204C86.4103 56.3336 86.432 56.0222 86.3759 55.7189C86.3518 55.5879 86.3223 55.4278 86.2899 55.2547C86.2758 55.3882 86.2536 55.5211 86.2105 55.6474Z" fill="url(#paint22_linear_1_1707)"/>
<path d="M86.7326 41.3777C85.6976 43.3769 85.083 47.993 85.2629 49.146C85.2793 49.2524 85.3025 49.3926 85.3301 49.5537C85.3253 47.8891 85.9109 44.0429 86.8317 42.2574C87.1185 41.7012 87.1113 40.9443 86.9613 40.1478C86.9725 40.6082 86.911 41.0328 86.7326 41.3777Z" fill="url(#paint23_linear_1_1707)"/>
<path d="M76.7981 49.7052C76.9316 48.8937 77.0095 48.0793 77.0187 47.2659C77.0346 45.8508 77.4322 43.5043 79.9924 43.912C83.6108 44.488 82.0628 49.5568 81.6662 50.4423C81.2672 51.3331 79.6839 55.3481 79.6007 55.5763C79.5223 55.7906 77.0206 60.8028 76.1269 62.005C76.0452 62.1153 75.9015 62.1317 75.8009 62.0461C75.4387 61.7376 74.6243 61.0025 74.5179 60.5373C74.381 59.9395 74.9038 57.7705 74.9038 57.7705C74.9038 57.7705 76.3136 52.3521 76.432 52.1001C76.5205 51.9105 76.582 51.0202 76.7981 49.7052Z" fill="#4846A5"/>
<path d="M79.7583 37.8894C79.7583 37.8894 79.471 37.2355 78.807 37.1683C78.1435 37.1006 77.7667 36.9163 77.7 36.6706C77.6332 36.4254 77.6299 36.128 77.4693 35.7624C77.3087 35.3973 77.1733 34.5007 77.1757 34.4789C77.1782 34.4571 76.6742 34.3058 76.6496 34.0838C76.6249 33.8623 76.8865 33.0701 76.858 33.0087C76.8295 32.9478 76.5586 32.4622 76.5954 32.0845C76.6317 31.7078 76.6805 31.1623 76.8822 30.6994C77.0829 30.2385 78.4892 27.4321 82.1483 28.8777C85.8484 30.3391 83.0343 33.443 83.3999 35.4553C83.3999 35.4553 83.7287 35.879 83.1257 36.5991C82.5187 37.3226 80.7676 37.4792 79.7583 37.8894Z" fill="#FCD1C5"/>
<path d="M83.1284 36.5987C83.7315 35.8786 83.4026 35.455 83.4026 35.455C83.3518 35.1755 83.3639 34.8737 83.4099 34.5588L81.9619 34.835C81.9619 34.835 79.8239 32.9329 79.9757 33.9514C80.1285 34.9777 79.6096 35.1547 79.6096 35.1547L80.0483 35.7132C80.1609 35.8569 80.0942 36.0252 80.0023 36.1828C79.392 37.2323 77.9102 36.917 77.9068 36.9174C78.0916 37.0379 78.3948 37.1264 78.8107 37.1689C79.4747 37.2366 79.762 37.89 79.762 37.89C80.7708 37.4794 82.522 37.3227 83.1284 36.5987Z" fill="#E2B1A6"/>
<path d="M76.7278 29.6324C76.7278 29.6324 76.472 30.383 76.8855 30.6993C77.3004 31.016 77.6757 31.3144 77.6757 31.3144L77.6738 32.2667C77.6733 32.404 77.7129 32.5385 77.7874 32.6531L78.3092 33.4573C78.4098 33.6126 78.4645 33.7949 78.4655 33.9816L78.4679 34.3709C78.4684 34.4855 78.553 34.5808 78.6642 34.5933L78.8011 34.6088C78.922 34.6224 79.0308 34.5329 79.0439 34.4091L79.1009 33.8684C79.1009 33.8684 79.3742 33.4336 79.9763 33.9516L80.516 34.1731C80.6669 34.235 80.7854 34.3583 80.8419 34.5145C80.9933 34.9309 81.3173 35.7531 81.5591 35.8894C81.8866 36.0742 83.1522 35.4198 83.3215 35.1301C83.4902 34.8414 83.9168 32.9118 84.1818 31.9915C84.4444 31.0779 84.2901 28.8175 81.564 28.2401C78.8495 27.6651 77.1021 28.8146 76.7278 29.6324Z" fill="#AA8383"/>
<path d="M83.3207 35.1296C83.4895 34.8409 83.916 32.9112 84.181 31.9909C84.181 31.9909 83.1263 32.6931 81.7586 32.902C80.3885 33.111 77.6749 31.5682 77.6749 31.5682L77.6735 32.2661C77.673 32.4034 77.7127 32.5379 77.7871 32.6525L78.309 33.4568C78.4095 33.612 78.4642 33.7943 78.4652 33.981L78.4676 34.3703C78.4681 34.4849 78.5527 34.5802 78.6639 34.5928L78.8008 34.6082C78.9217 34.6218 79.0305 34.5323 79.0436 34.4085L79.1006 33.8678C79.1006 33.8678 79.3739 33.4331 79.976 33.951L80.757 34.2716C80.757 34.2716 81.2324 35.7046 81.5593 35.8889C81.8858 36.0736 83.1514 35.4193 83.3207 35.1296Z" fill="#936D6D"/>
<path d="M83.3733 35.2214C83.3733 35.2214 84.4334 35.8743 83.9048 36.8004C83.3729 37.7329 79.5305 39.3888 79.3409 39.6339C79.3409 39.6339 79.1896 38.2445 79.6983 37.7754C79.6983 37.7754 82.6407 37.2023 83.0977 36.4508C83.5518 35.7036 83.3733 35.2214 83.3733 35.2214Z" fill="#F0F6FF"/>
<path d="M83.3736 35.2214C83.3736 35.2214 83.5521 35.7041 83.0975 36.4508C82.7517 37.019 80.9841 37.4852 80.1435 37.6787C80.1435 37.6787 80.456 37.8557 80.9788 38.746C82.1607 38.1328 83.5946 37.344 83.9051 36.8C84.4332 35.8743 83.3736 35.2214 83.3736 35.2214Z" fill="#C4CCD6"/>
<path d="M84.0889 38.1849C84.0889 38.1849 82.3774 39.1662 81.5432 39.6092C80.7065 40.0536 79.7944 40.6441 79.7944 40.6441L79.4743 40.3245L79.0898 41.1693C79.0898 41.1693 77.7758 41.9591 77.1607 42.6168C76.5426 43.2779 76.0769 44.1407 76.0101 44.3375C76.0101 44.3375 77.6515 42.1849 78.9442 41.5456L79.2919 41.37L79.4888 40.7012L79.806 41.0373C79.806 41.0373 83.5676 38.7687 84.0889 38.1849Z" fill="#24126A"/>
<path d="M79.6709 67.2261V67.2247L79.6704 67.2252C79.6167 67.0714 79.5364 66.9369 79.4416 66.8571L72.4006 60.9459C72.2154 60.7902 72.036 60.9091 71.9997 61.2114L71.1761 68.0937C71.1384 68.411 71.2612 68.8018 71.4508 68.9657L77.3645 74.0795L77.1599 76.0695L78.9275 75.2556L78.928 75.2517C79.0073 75.2019 79.0658 75.0873 79.0818 74.9151L79.739 67.7223C79.7535 67.5623 79.7265 67.3843 79.6709 67.2261Z" fill="url(#paint24_linear_1_1707)"/>
<path d="M70.4817 61.6244L72.1463 60.9048L72.1995 60.8816C72.2604 60.8671 72.3296 60.8864 72.3992 60.9454L79.4402 66.8566C79.5355 66.9364 79.6157 67.0709 79.6694 67.2247L79.4175 67.3465L77.9835 68.0396L71.8121 62.7628L70.4817 61.6244Z" fill="#453C9E"/>
<path d="M69.7164 69.7371L76.9165 76.0101C77.1138 76.1822 77.3005 76.0507 77.3329 75.717L78.0327 68.4869C78.0637 68.1692 77.9321 67.7804 77.7396 67.6174L70.7146 61.6762C70.5299 61.52 70.3495 61.6394 70.3113 61.9431L69.4466 68.8598C69.4064 69.1795 69.5273 69.5722 69.7164 69.7371Z" fill="#24126A"/>
<path d="M78.2277 75.2937L78.9057 68.0835C78.9357 67.7667 78.8032 67.3789 78.6103 67.2164L71.5775 61.2911C71.5199 61.2428 71.4634 61.221 71.4111 61.2229C71.4779 61.1954 71.5567 61.2108 71.6365 61.2781L78.6702 67.2028C78.8632 67.3653 78.9952 67.7532 78.9657 68.07L78.2891 75.2797C78.2674 75.509 78.1784 75.6516 78.0565 75.656C78.1479 75.6158 78.2098 75.4828 78.2277 75.2937Z" fill="#160A5B"/>
<path d="M75.6448 64.6783L76.0128 64.4945C76.096 64.4529 76.1753 64.4389 76.2421 64.4534L76.2716 64.4602C76.3083 64.4684 76.3272 64.5076 76.3214 64.5642L76.3146 64.6309L75.2782 65.1489L75.2855 65.0816C75.2913 65.0251 75.3217 64.9612 75.3643 64.9133L75.3986 64.8751C75.4765 64.7876 75.5611 64.7199 75.6448 64.6783Z" fill="#160A5B"/>
<path d="M75.7759 65.569L75.2782 65.1487L76.3064 64.4828L76.7968 64.8934L75.7759 65.569Z" fill="#160A5B"/>
<path d="M76.1435 65.0972L76.5116 64.913C76.5947 64.8714 76.6741 64.8574 76.7413 64.8719L76.7708 64.8786C76.8075 64.8869 76.8269 64.9265 76.8211 64.9826L76.8143 65.0499L75.7769 65.5693L75.7842 65.502C75.79 65.4454 75.82 65.3811 75.8625 65.3332L75.8969 65.2946C75.9748 65.207 76.0599 65.1393 76.1435 65.0972Z" fill="url(#paint25_linear_1_1707)"/>
<path d="M76.3638 65.2751L76.3952 64.9709L76.3638 64.9869L76.3323 65.2911L76.3638 65.2751Z" fill="#722318"/>
<path d="M76.3941 64.9714L75.8829 64.5598L75.8563 64.5734L76.3631 64.9868L76.3941 64.9714Z" fill="#722318"/>
<path d="M73.4145 62.7972L73.7816 62.6159C73.8648 62.5748 73.9436 62.5608 74.0098 62.5753L74.0393 62.5815C74.0756 62.5898 74.0945 62.6285 74.0882 62.6841L74.0809 62.7503L73.047 63.262L73.0547 63.1957C73.061 63.1401 73.0914 63.0768 73.134 63.0299L73.1683 62.9916C73.2467 62.9056 73.3313 62.8383 73.4145 62.7972Z" fill="#160A5B"/>
<path d="M73.5378 63.6768L73.047 63.2618L74.0732 62.6041L74.5573 63.0094L73.5378 63.6768Z" fill="#160A5B"/>
<path d="M73.9057 63.2112L74.2727 63.0293C74.3559 62.9882 74.4348 62.9742 74.5015 62.9887L74.531 62.995C74.5673 63.0027 74.5861 63.0424 74.5798 63.098L74.5726 63.1643L73.5381 63.6774L73.5459 63.6111C73.5521 63.5555 73.5826 63.4917 73.6252 63.4443L73.6595 63.4061C73.7379 63.3195 73.8225 63.2523 73.9057 63.2112Z" fill="url(#paint26_linear_1_1707)"/>
<path d="M74.125 63.3868L74.1583 63.0864L74.1269 63.1019L74.0935 63.4022L74.125 63.3868Z" fill="#722318"/>
<path d="M74.157 63.0864L73.6521 62.6802L73.625 62.6932L74.1256 63.1019L74.157 63.0864Z" fill="#722318"/>
<path d="M76.5993 63.5295L76.4667 64.813L76.1335 64.533L76.2636 63.2862C76.2825 63.1044 76.1935 62.8698 76.0644 62.762L74.6309 61.5636C74.5033 61.4567 74.3833 61.5157 74.363 61.6956L74.2257 62.9293L73.8968 62.6527L74.0395 61.3875C74.084 60.9915 74.348 60.8618 74.63 61.0969L76.1582 62.3727C76.443 62.6101 76.6409 63.1281 76.5993 63.5295Z" fill="#453C9E"/>
<path d="M74.1311 61.4774L74.7216 61.4175L76.4292 63.01L76.5027 63.9927L76.4684 64.8139L76.0863 65.0049L76.0747 63.9816L76.0544 63.2818L75.7004 62.776C75.7004 62.776 75.0601 62.2585 75.0538 62.244C75.0466 62.2285 74.1311 61.4774 74.1311 61.4774Z" fill="#453C9E"/>
<path d="M73.8439 63.118L74.225 62.9293L74.3261 62.0206L73.9624 62.0492L73.8546 62.068L73.8439 63.118Z" fill="#453C9E"/>
<path d="M73.859 61.1969L74.2691 60.9962C74.2691 60.9962 74.1613 61.2196 74.1594 61.2182C74.1574 61.2167 74.0244 61.2656 74.022 61.2651C74.0196 61.2646 73.859 61.1969 73.859 61.1969Z" fill="#453C9E"/>
<path d="M76.2186 63.7191L76.0842 65.0045L75.751 64.724L75.883 63.4753C75.9023 63.2935 75.8134 63.0585 75.6842 62.9506L74.2513 61.7508C74.1236 61.6439 74.0037 61.7029 73.9834 61.8828L73.8441 63.1179L73.5152 62.8408L73.6593 61.5742C73.7043 61.1777 73.9688 61.0476 74.2503 61.2831L75.7781 62.5603C76.0639 62.7988 76.2607 63.3172 76.2186 63.7191Z" fill="#160A5B"/>
<path d="M74.6139 60.4838C74.6139 60.4838 74.3711 61.7387 74.4393 62.0541C74.508 62.3699 75.1087 62.9773 75.4699 63.089C75.8317 63.2002 75.6842 62.7693 75.7659 62.498C75.8471 62.2277 75.8331 61.6377 75.8331 61.6377L74.6139 60.4838Z" fill="#FCD1C5"/>
<path d="M75.8348 61.6377L74.6156 60.4843C74.6156 60.4843 74.5658 60.7415 74.5179 61.052C74.5189 61.054 74.9711 61.9864 75.7986 62.3549C75.8445 62.0604 75.8348 61.6377 75.8348 61.6377Z" fill="#E2B1A6"/>
<path d="M74.5255 60.5775C74.5255 60.5775 74.9574 61.9292 76.0407 62.0573L75.6731 60.5775C75.6731 60.5775 74.7581 60.3192 74.7301 60.3158C74.702 60.312 74.5255 60.5775 74.5255 60.5775Z" fill="#4846A5"/>
<path d="M81.5759 44.7076C82.5794 47.7646 80.0651 52.5176 79.7033 53.9046C79.3382 55.3061 75.5148 61.7933 75.5138 61.7948C75.5152 61.7962 75.5162 61.7967 75.5177 61.7981C75.4959 61.8368 75.4814 61.8625 75.4814 61.8625C75.5622 61.9239 75.6574 61.9921 75.7314 62.0322C75.833 62.0709 75.788 62.068 75.9031 62.0961C75.9844 62.1125 76.0666 62.0806 76.1231 62.0042C77.0169 60.8019 79.5186 55.7897 79.597 55.5755C79.6801 55.3477 81.263 51.3322 81.6625 50.4414C81.9807 49.7314 83.0432 46.3123 81.5759 44.7076Z" fill="url(#paint27_linear_1_1707)"/>
<path d="M40.7555 74.1196C40.491 74.1196 40.2371 74.0649 40.0437 73.9532L24.0418 64.7147C23.8353 64.5952 23.7216 64.4245 23.7216 64.233C23.7216 64.012 23.8773 63.7953 24.1487 63.6391L39.9358 54.5239C40.4189 54.2449 41.1289 54.2178 41.5516 54.4625L57.5535 63.701C57.76 63.8205 57.8741 63.9917 57.8736 64.1827C57.8736 64.4037 57.7179 64.6204 57.4466 64.7766L41.6594 73.8918C41.3978 74.0427 41.0694 74.1196 40.7555 74.1196ZM40.1679 73.7385C40.5103 73.9363 41.1371 73.9077 41.5361 73.6771L57.3233 64.5619C57.5133 64.4521 57.626 64.3104 57.626 64.1822C57.6265 64.055 57.5191 63.967 57.4301 63.9153L41.4282 54.6768C41.0863 54.4799 40.4596 54.508 40.0601 54.7382L24.2729 63.8534C24.0834 63.9631 23.9702 64.1048 23.9702 64.233C23.9697 64.3602 24.0771 64.4482 24.1661 64.5L40.1679 73.7385Z" fill="#8686F2"/>
<path d="M57.7489 57.4464V59.4104L40.7556 69.2215L23.7618 59.4099V57.4464H57.7489Z" fill="url(#paint28_linear_1_1707)"/>
<path d="M40.7556 67.2575L23.7618 57.4464L40.7551 47.6353L57.7489 57.4464L40.7556 67.2575Z" fill="#BCBEFF"/>
<path d="M40.7556 67.0282L23.9606 57.3317L23.7618 57.4463L40.7556 67.2574L57.7489 57.4463L57.5506 57.3317L40.7556 67.0282Z" fill="white"/>
<path d="M40.7543 64.9944L27.6836 57.4481L40.7538 49.9022L53.8245 57.4486L40.7543 64.9944Z" fill="#0F054C"/>
<path opacity="0.5" d="M40.7535 64.9948L27.6828 57.4484L40.753 49.9021L53.8242 57.4484L40.7535 64.9948Z" fill="url(#paint29_linear_1_1707)"/>
<path opacity="0.5" d="M40.7511 47.9989L53.8222 55.5452V57.4483L40.7511 49.9019V47.9989Z" fill="url(#paint30_linear_1_1707)"/>
<path opacity="0.5" d="M40.7528 49.9019L27.6821 57.4478V55.5452L40.7523 47.9989L40.7528 49.9019Z" fill="url(#paint31_linear_1_1707)"/>
<path opacity="0.5" d="M40.7528 63.0916L27.6821 55.5452L40.7523 47.9989L53.8235 55.5452L40.7528 63.0916Z" fill="url(#paint32_linear_1_1707)"/>
<path opacity="0.5" d="M40.7526 58.5606L35.5295 55.5453L40.7521 52.5299L45.9751 55.5453L40.7526 58.5606Z" fill="#42E8E0"/>
<path opacity="0.5" d="M40.7521 52.8075L45.7348 55.6841L45.9751 55.5453L40.7521 52.5299L35.5295 55.5453L35.7699 55.6841L40.7521 52.8075Z" fill="#42E8E0"/>
<path opacity="0.5" d="M40.7511 63.0916V64.9942L53.8218 57.4483V55.5453L40.7511 63.0916Z" fill="url(#paint33_linear_1_1707)"/>
<path opacity="0.5" d="M27.6828 55.5454V57.448L40.7535 64.9943V63.0918L27.6828 55.5454Z" fill="url(#paint34_linear_1_1707)"/>
<path opacity="0.8" d="M40.7543 62.884L27.8635 55.4417L27.6836 55.5456L40.7543 63.092L53.825 55.5456L53.645 55.4417L40.7543 62.884Z" fill="#42E8E0"/>
<path d="M40.7555 118.694C40.491 118.694 40.2371 118.639 40.0437 118.527L24.0418 109.288C23.8353 109.169 23.7216 108.998 23.7216 108.807C23.7216 108.586 23.8773 108.369 24.1487 108.213L39.9358 99.0976C40.4189 98.8191 41.1289 98.7915 41.5516 99.0362L57.5535 108.275C57.76 108.394 57.8741 108.565 57.8736 108.756C57.8736 108.977 57.7179 109.194 57.4466 109.35L41.6594 118.465C41.3978 118.617 41.0694 118.694 40.7555 118.694ZM40.1679 118.312C40.5103 118.509 41.1371 118.481 41.5361 118.251L57.3233 109.136C57.5133 109.026 57.626 108.884 57.626 108.756C57.6265 108.629 57.5191 108.541 57.4301 108.489L41.4282 99.2504C41.0863 99.0536 40.4596 99.0817 40.0601 99.3119L24.2729 108.427C24.0834 108.537 23.9702 108.679 23.9702 108.807C23.9697 108.934 24.0771 109.022 24.1661 109.074L40.1679 118.312Z" fill="#8686F2"/>
<path d="M57.7489 102.021V103.985L40.7556 113.796L23.7618 103.984V102.02L57.7489 102.021Z" fill="url(#paint35_linear_1_1707)"/>
<path d="M40.7556 111.832L23.7618 102.02L40.7551 92.2092L57.7489 102.021L40.7556 111.832Z" fill="#BCBEFF"/>
<path d="M40.7556 111.603L23.9606 101.906L23.7618 102.02L40.7556 111.832L57.7489 102.021L57.5506 101.906L40.7556 111.603Z" fill="white"/>
<path d="M40.7543 109.569L27.6836 102.023L40.7538 94.4763L53.8245 102.023L40.7543 109.569Z" fill="#0F054C"/>
<path opacity="0.5" d="M40.7535 109.569L27.6828 102.023L40.753 94.4763L53.8242 102.023L40.7535 109.569Z" fill="url(#paint36_linear_1_1707)"/>
<path opacity="0.5" d="M40.7511 92.5737L53.8222 100.12V102.023L40.7511 94.4763V92.5737Z" fill="url(#paint37_linear_1_1707)"/>
<path opacity="0.5" d="M40.7528 94.4763L27.6821 102.023V100.12L40.7523 92.5737L40.7528 94.4763Z" fill="url(#paint38_linear_1_1707)"/>
<path opacity="0.5" d="M40.7528 107.666L27.6821 100.12L40.7523 92.5737L53.8235 100.12L40.7528 107.666Z" fill="url(#paint39_linear_1_1707)"/>
<path opacity="0.5" d="M40.7526 103.135L35.5295 100.12L40.7521 97.1047L45.9751 100.12L40.7526 103.135Z" fill="#42E8E0"/>
<path opacity="0.5" d="M40.7521 97.3818L45.7348 100.259L45.9751 100.12L40.7521 97.1047L35.5295 100.12L35.7699 100.259L40.7521 97.3818Z" fill="#42E8E0"/>
<path opacity="0.5" d="M40.7511 107.666V109.569L53.8218 102.023V100.12L40.7511 107.666Z" fill="url(#paint40_linear_1_1707)"/>
<path opacity="0.5" d="M27.6828 100.12V102.023L40.7535 109.569V107.666L27.6828 100.12Z" fill="url(#paint41_linear_1_1707)"/>
<path opacity="0.8" d="M40.7543 107.458L27.8635 100.016L27.6836 100.12L40.7543 107.666L53.825 100.12L53.645 100.016L40.7543 107.458Z" fill="#42E8E0"/>
<path d="M108.875 74.1196C108.61 74.1196 108.356 74.0649 108.163 73.9532L92.1607 64.7147C91.9542 64.5952 91.8401 64.4245 91.8406 64.233C91.8406 64.012 91.9963 63.7953 92.2676 63.6391L108.055 54.5239C108.538 54.2449 109.248 54.2178 109.671 54.4625L125.672 63.701C125.879 63.8205 125.993 63.9917 125.993 64.1827C125.993 64.4037 125.837 64.6204 125.566 64.7766L109.778 73.8918C109.516 74.0427 109.188 74.1196 108.875 74.1196ZM108.286 73.7385C108.629 73.9363 109.255 73.9077 109.655 73.6771L125.442 64.5619C125.632 64.4521 125.745 64.3104 125.745 64.1822C125.745 64.055 125.638 63.967 125.549 63.9153L109.547 54.6768C109.205 54.4799 108.579 54.508 108.179 54.7382L92.3919 63.8534C92.2018 63.9631 92.0892 64.1048 92.0892 64.233C92.0887 64.3602 92.196 64.4482 92.285 64.5L108.286 73.7385Z" fill="#8686F2"/>
<path d="M125.869 57.4464V59.4104L108.876 69.2215L91.8823 59.4099V57.4464H125.869Z" fill="url(#paint42_linear_1_1707)"/>
<path d="M108.876 67.2575L91.8821 57.4464L108.875 47.6353L125.869 57.4464L108.876 67.2575Z" fill="#BCBEFF"/>
<path d="M108.876 67.0282L92.0811 57.3317L91.8823 57.4463L108.876 67.2574L125.869 57.4463L125.671 57.3317L108.876 67.0282Z" fill="white"/>
<path d="M108.875 64.9945L95.8043 57.4482L108.874 49.9023L121.945 57.4487L108.875 64.9945Z" fill="#0F054C"/>
<path opacity="0.5" d="M108.875 64.995L95.8043 57.4487L108.874 49.9023L121.946 57.4487L108.875 64.995Z" fill="url(#paint43_linear_1_1707)"/>
<path opacity="0.5" d="M108.873 47.9993L121.944 55.5456V57.4486L108.873 49.9023V47.9993Z" fill="url(#paint44_linear_1_1707)"/>
<path opacity="0.5" d="M108.875 49.9024L95.8042 57.4483V55.5457L108.874 47.9994L108.875 49.9024Z" fill="url(#paint45_linear_1_1707)"/>
<path opacity="0.5" d="M108.875 63.0921L95.8042 55.5457L108.874 47.9994L121.946 55.5457L108.875 63.0921Z" fill="url(#paint46_linear_1_1707)"/>
<path opacity="0.5" d="M108.875 58.561L103.652 55.5456L108.875 52.5303L114.097 55.5456L108.875 58.561Z" fill="#42E8E0"/>
<path opacity="0.5" d="M108.875 52.8079L113.857 55.6844L114.097 55.5456L108.875 52.5303L103.652 55.5456L103.892 55.6844L108.875 52.8079Z" fill="#42E8E0"/>
<path opacity="0.5" d="M108.873 63.0919V64.9944L121.944 57.4486V55.5455L108.873 63.0919Z" fill="url(#paint47_linear_1_1707)"/>
<path opacity="0.5" d="M95.8043 55.5455V57.4481L108.875 64.9944V63.0919L95.8043 55.5455Z" fill="url(#paint48_linear_1_1707)"/>
<path opacity="0.8" d="M108.875 62.884L95.9842 55.4417L95.8043 55.5456L108.875 63.092L121.946 55.5456L121.766 55.4417L108.875 62.884Z" fill="#42E8E0"/>
<path d="M108.875 118.694C108.61 118.694 108.356 118.639 108.163 118.527L92.1607 109.288C91.9542 109.169 91.8401 108.998 91.8406 108.807C91.8406 108.586 91.9963 108.369 92.2676 108.213L108.055 99.0976C108.538 98.8191 109.248 98.7915 109.671 99.0362L125.672 108.275C125.879 108.394 125.993 108.565 125.993 108.756C125.993 108.977 125.837 109.194 125.566 109.35L109.778 118.465C109.516 118.617 109.188 118.694 108.875 118.694ZM108.286 118.312C108.629 118.509 109.255 118.481 109.655 118.251L125.442 109.136C125.632 109.026 125.745 108.884 125.745 108.756C125.745 108.629 125.638 108.541 125.549 108.489L109.547 99.2504C109.205 99.0536 108.579 99.0817 108.179 99.3119L92.3919 108.427C92.2018 108.537 92.0892 108.679 92.0892 108.807C92.0887 108.934 92.196 109.022 92.285 109.074L108.286 118.312Z" fill="#8686F2"/>
<path d="M125.869 102.021V103.985L108.876 113.796L91.8823 103.984V102.02L125.869 102.021Z" fill="url(#paint49_linear_1_1707)"/>
<path d="M108.876 111.832L91.8821 102.02L108.875 92.2089L125.869 102.02L108.876 111.832Z" fill="#BCBEFF"/>
<path d="M108.876 111.602L92.0811 101.905L91.8823 102.02L108.876 111.832L125.869 102.02L125.671 101.906L108.876 111.602Z" fill="white"/>
<path d="M108.875 109.569L95.8043 102.023L108.874 94.4762L121.945 102.023L108.875 109.569Z" fill="#0F054C"/>
<path opacity="0.5" d="M108.875 109.569L95.8043 102.023L108.874 94.4762L121.946 102.023L108.875 109.569Z" fill="url(#paint50_linear_1_1707)"/>
<path opacity="0.5" d="M108.873 92.5736L121.944 100.12V102.022L108.873 94.4761V92.5736Z" fill="url(#paint51_linear_1_1707)"/>
<path opacity="0.5" d="M108.875 94.4761L95.8042 102.022V100.119L108.874 92.5736L108.875 94.4761Z" fill="url(#paint52_linear_1_1707)"/>
<path opacity="0.5" d="M108.875 107.666L95.8042 100.119L108.874 92.5736L121.946 100.12L108.875 107.666Z" fill="url(#paint53_linear_1_1707)"/>
<path opacity="0.5" d="M108.875 103.135L103.652 100.12L108.875 97.1047L114.097 100.12L108.875 103.135Z" fill="#42E8E0"/>
<path opacity="0.5" d="M108.875 97.3818L113.857 100.259L114.097 100.12L108.875 97.1047L103.652 100.12L103.892 100.259L108.875 97.3818Z" fill="#42E8E0"/>
<path opacity="0.5" d="M108.873 107.666V109.569L121.944 102.023V100.12L108.873 107.666Z" fill="url(#paint54_linear_1_1707)"/>
<path opacity="0.5" d="M95.8043 100.12V102.023L108.875 109.569V107.666L95.8043 100.12Z" fill="url(#paint55_linear_1_1707)"/>
<path opacity="0.8" d="M108.875 107.458L95.9842 100.016L95.8043 100.12L108.875 107.666L121.946 100.12L121.766 100.016L108.875 107.458Z" fill="#42E8E0"/>
<g opacity="0.5">
<path opacity="0.502" d="M26.5198 8.28427C38.2606 4.74952 45.2474 18.0523 38.3868 30.8783C32.5646 41.7621 18.3719 49.6242 14.6601 38.1925C12.4766 31.4674 14.2858 14.9857 25.3925 8.7674C22.3994 10.3155 20.2024 12.5043 18.0469 16.0874C22.1431 21.1272 22.4778 21.5392 26.0135 25.6069C30.2011 15.7126 30.5435 14.9045 33.6401 8.21221C31.222 7.37169 29.0927 7.39345 26.5198 8.28427ZM25.6962 8.62377C25.6073 8.66488 25.5188 8.70598 25.4303 8.74854C25.5183 8.70647 25.6073 8.66488 25.6962 8.62377ZM26.0135 8.48497C25.9211 8.52415 25.8292 8.56429 25.7378 8.60539C25.8297 8.56429 25.9216 8.52415 26.0135 8.48497ZM26.0135 8.48497C26.088 8.45354 26.1629 8.42307 26.2379 8.39308C26.1634 8.42307 26.0885 8.45354 26.0135 8.48497Z" fill="#42E8E0"/>
<path d="M6.66861 20.8998C7.35486 20.1797 8.09043 19.4717 8.87244 18.7762V53.0192C8.09043 53.7146 7.35486 54.4226 6.66861 55.1427V20.8998Z" fill="#42E8E0"/>
<path d="M3.15106 37.4032C3.63468 36.6371 4.17197 35.8812 4.75956 35.1365V57.3383C4.17197 58.0831 3.63468 58.839 3.15106 59.605V37.4032Z" fill="#42E8E0"/>
<path opacity="0.502" d="M0 63.2124L0.0357901 63.2917L0.0783396 61.0429L0 60.9234V63.2124ZM0 69.835V35.5926C0 35.3735 0.00435302 35.1539 0.0125745 34.9344C0.0725429 33.3704 0.345786 31.831 0.819246 30.3212V64.5641C0.345786 66.0734 0.0730265 67.6133 0.0125745 69.1773C0.00435302 69.3964 0 69.6159 0 69.835Z" fill="#42E8E0"/>
<path d="M0 63.2123L0.0357901 63.2916L0.0783397 61.0428L0 60.9233V63.2123Z" fill="#42E8E0"/>
<path d="M26.4914 8.29543C26.5016 8.29204 26.5113 8.28817 26.5209 8.2843C26.5113 8.28817 26.5011 8.29204 26.4914 8.29543ZM26.2395 8.39311C26.2414 8.39215 26.2443 8.39118 26.2462 8.39021C26.2482 8.38925 26.2511 8.38828 26.253 8.38731C26.2549 8.38634 26.2578 8.38538 26.2598 8.38441C26.2617 8.38344 26.2646 8.38248 26.2665 8.38151C26.2685 8.38054 26.2714 8.37957 26.2733 8.37861C26.2752 8.37764 26.2781 8.37667 26.2806 8.37571C26.2825 8.37474 26.2854 8.37377 26.2873 8.3728C26.2893 8.37184 26.2922 8.37087 26.2941 8.3699C26.2767 8.37861 26.2578 8.38586 26.2395 8.39311Z" fill="#42E8E0"/>
<path d="M26.0153 8.48485C29.8402 6.89085 32.6021 7.85035 33.6419 8.21209C29.2642 17.8597 28.8062 18.8681 26.0153 25.6068C21.7014 20.5898 21.0384 19.8189 18.0487 16.0873C18.8945 14.6814 21.4679 10.4038 26.0153 8.48485Z" fill="#42E8E0"/>
<path opacity="0.502" d="M53.1847 92.7163C49.6616 93.7619 47.4007 91.6219 46.5746 90.9883C40.1092 85.5123 34.4441 78.8331 27.9554 73.3818C26.0379 71.7709 24.8632 72.4368 24.1982 72.6143C12.0996 77.4137 12.0996 77.4137 10.1593 74.4844C6.60474 68.1911 6.48141 67.6829 4.83277 63.7496C4.45603 62.8511 3.17639 61.4907 2.60621 61.5632C-0.107843 62.3288 0.251967 62.8844 0.00048704 63.2118V60.9229C3.20057 59.6892 3.53039 59.5417 4.83277 62.5203C10.8107 75.205 11.8616 74.9226 13.2545 74.5937C25.9885 69.5022 25.8294 69.8722 29.074 73.2454C34.6888 79.0904 46.0093 90.4699 49.5068 91.3762C50.5785 91.5159 52.2857 91.3626 53.295 91.1063C65.5865 86.9888 70.4629 84.4005 82.4923 79.2186L83.5703 80.9654C79.1181 82.9071 65.6605 88.2022 53.2751 92.1021L53.1847 92.7163ZM91.6051 106.524V72.2811C87.8237 72.4944 83.964 72.5891 80.0438 72.5582C35.5429 72.2056 0 55.7177 0 35.592V69.835C0 89.9602 35.5429 106.448 80.0438 106.801C83.964 106.832 87.8237 106.737 91.6051 106.524Z" fill="#42E8E0"/>
<path d="M53.1847 92.7163C50.0151 93.5278 47.0215 94.2944 28.3815 74.2412C26.0224 71.87 26.0224 71.8701 13.9165 76.6956C12.5426 77.0293 10.4659 77.5332 4.74283 63.8817C2.97569 59.8493 0.0285333 63.1751 0 63.2123V60.9234C1.0006 60.3547 1.06831 60.316 2.57235 59.8923C2.84705 59.815 3.14736 59.8285 3.40078 59.96C3.80266 60.169 4.2094 60.6424 4.91596 62.1474C8.21277 69.171 8.21277 69.171 10.5873 73.0128C11.9874 75.0885 11.9874 75.0885 23.349 70.5788C24.1252 70.3699 25.7405 69.9356 28.1755 71.8778C35.0191 77.3364 40.5875 84.164 47.3431 89.7169C49.8787 91.5203 51.4089 92.6085 82.4918 79.2186L83.5698 80.9654C79.1181 82.9071 65.5701 88.8169 53.1847 92.7163Z" fill="#42E8E0"/>
</g>
<defs>
<linearGradient id="paint0_linear_1_1707" x1="43.5569" y1="125.232" x2="105.713" y2="125.232" gradientUnits="userSpaceOnUse">
<stop stop-color="#5761D7"/>
<stop offset="0.0726" stop-color="#5472D8"/>
<stop offset="0.2791" stop-color="#4E9CDB"/>
<stop offset="0.4801" stop-color="#49BDDD"/>
<stop offset="0.6715" stop-color="#45D5DF"/>
<stop offset="0.8493" stop-color="#43E3E0"/>
<stop offset="1" stop-color="#42E8E0"/>
</linearGradient>
<linearGradient id="paint1_linear_1_1707" x1="43.5569" y1="120.45" x2="105.713" y2="120.45" gradientUnits="userSpaceOnUse">
<stop stop-color="#5761D7"/>
<stop offset="0.0726" stop-color="#5472D8"/>
<stop offset="0.2791" stop-color="#4E9CDB"/>
<stop offset="0.4801" stop-color="#49BDDD"/>
<stop offset="0.6715" stop-color="#45D5DF"/>
<stop offset="0.8493" stop-color="#43E3E0"/>
<stop offset="1" stop-color="#42E8E0"/>
</linearGradient>
<linearGradient id="paint2_linear_1_1707" x1="43.5569" y1="115.669" x2="105.713" y2="115.669" gradientUnits="userSpaceOnUse">
<stop stop-color="#5761D7"/>
<stop offset="0.0726" stop-color="#5472D8"/>
<stop offset="0.2791" stop-color="#4E9CDB"/>
<stop offset="0.4801" stop-color="#49BDDD"/>
<stop offset="0.6715" stop-color="#45D5DF"/>
<stop offset="0.8493" stop-color="#43E3E0"/>
<stop offset="1" stop-color="#42E8E0"/>
</linearGradient>
<linearGradient id="paint3_linear_1_1707" x1="43.5569" y1="110.887" x2="105.713" y2="110.887" gradientUnits="userSpaceOnUse">
<stop stop-color="#5761D7"/>
<stop offset="0.0726" stop-color="#5472D8"/>
<stop offset="0.2791" stop-color="#4E9CDB"/>
<stop offset="0.4801" stop-color="#49BDDD"/>
<stop offset="0.6715" stop-color="#45D5DF"/>
<stop offset="0.8493" stop-color="#43E3E0"/>
<stop offset="1" stop-color="#42E8E0"/>
</linearGradient>
<linearGradient id="paint4_linear_1_1707" x1="43.5604" y1="118.059" x2="105.716" y2="118.059" gradientUnits="userSpaceOnUse">
<stop stop-color="#5761D7"/>
<stop offset="0.0726" stop-color="#5472D8"/>
<stop offset="0.2791" stop-color="#4E9CDB"/>
<stop offset="0.4801" stop-color="#49BDDD"/>
<stop offset="0.6715" stop-color="#45D5DF"/>
<stop offset="0.8493" stop-color="#43E3E0"/>
<stop offset="1" stop-color="#42E8E0"/>
</linearGradient>
<linearGradient id="paint5_linear_1_1707" x1="43.5569" y1="105.452" x2="105.713" y2="105.452" gradientUnits="userSpaceOnUse">
<stop stop-color="#5761D7"/>
<stop offset="0.0726" stop-color="#5472D8"/>
<stop offset="0.2791" stop-color="#4E9CDB"/>
<stop offset="0.4801" stop-color="#49BDDD"/>
<stop offset="0.6715" stop-color="#45D5DF"/>
<stop offset="0.8493" stop-color="#43E3E0"/>
<stop offset="1" stop-color="#42E8E0"/>
</linearGradient>
<linearGradient id="paint6_linear_1_1707" x1="43.5569" y1="100.67" x2="105.713" y2="100.67" gradientUnits="userSpaceOnUse">
<stop stop-color="#5761D7"/>
<stop offset="0.0726" stop-color="#5472D8"/>
<stop offset="0.2791" stop-color="#4E9CDB"/>
<stop offset="0.4801" stop-color="#49BDDD"/>
<stop offset="0.6715" stop-color="#45D5DF"/>
<stop offset="0.8493" stop-color="#43E3E0"/>
<stop offset="1" stop-color="#42E8E0"/>
</linearGradient>
<linearGradient id="paint7_linear_1_1707" x1="43.5569" y1="95.8888" x2="105.713" y2="95.8888" gradientUnits="userSpaceOnUse">
<stop stop-color="#5761D7"/>
<stop offset="0.0726" stop-color="#5472D8"/>
<stop offset="0.2791" stop-color="#4E9CDB"/>
<stop offset="0.4801" stop-color="#49BDDD"/>
<stop offset="0.6715" stop-color="#45D5DF"/>
<stop offset="0.8493" stop-color="#43E3E0"/>
<stop offset="1" stop-color="#42E8E0"/>
</linearGradient>
<linearGradient id="paint8_linear_1_1707" x1="43.5569" y1="91.1069" x2="105.713" y2="91.1069" gradientUnits="userSpaceOnUse">
<stop stop-color="#5761D7"/>
<stop offset="0.0726" stop-color="#5472D8"/>
<stop offset="0.2791" stop-color="#4E9CDB"/>
<stop offset="0.4801" stop-color="#49BDDD"/>
<stop offset="0.6715" stop-color="#45D5DF"/>
<stop offset="0.8493" stop-color="#43E3E0"/>
<stop offset="1" stop-color="#42E8E0"/>
</linearGradient>
<linearGradient id="paint9_linear_1_1707" x1="43.5604" y1="98.2793" x2="105.716" y2="98.2793" gradientUnits="userSpaceOnUse">
<stop stop-color="#5761D7"/>
<stop offset="0.0726" stop-color="#5472D8"/>
<stop offset="0.2791" stop-color="#4E9CDB"/>
<stop offset="0.4801" stop-color="#49BDDD"/>
<stop offset="0.6715" stop-color="#45D5DF"/>
<stop offset="0.8493" stop-color="#43E3E0"/>
<stop offset="1" stop-color="#42E8E0"/>
</linearGradient>
<linearGradient id="paint10_linear_1_1707" x1="43.5569" y1="85.672" x2="105.713" y2="85.672" gradientUnits="userSpaceOnUse">
<stop stop-color="#5761D7"/>
<stop offset="0.0726" stop-color="#5472D8"/>
<stop offset="0.2791" stop-color="#4E9CDB"/>
<stop offset="0.4801" stop-color="#49BDDD"/>
<stop offset="0.6715" stop-color="#45D5DF"/>
<stop offset="0.8493" stop-color="#43E3E0"/>
<stop offset="1" stop-color="#42E8E0"/>
</linearGradient>
<linearGradient id="paint11_linear_1_1707" x1="43.5569" y1="80.8906" x2="105.713" y2="80.8906" gradientUnits="userSpaceOnUse">
<stop stop-color="#5761D7"/>
<stop offset="0.0726" stop-color="#5472D8"/>
<stop offset="0.2791" stop-color="#4E9CDB"/>
<stop offset="0.4801" stop-color="#49BDDD"/>
<stop offset="0.6715" stop-color="#45D5DF"/>
<stop offset="0.8493" stop-color="#43E3E0"/>
<stop offset="1" stop-color="#42E8E0"/>
</linearGradient>
<linearGradient id="paint12_linear_1_1707" x1="43.5569" y1="76.1092" x2="105.713" y2="76.1092" gradientUnits="userSpaceOnUse">
<stop stop-color="#5761D7"/>
<stop offset="0.0726" stop-color="#5472D8"/>
<stop offset="0.2791" stop-color="#4E9CDB"/>
<stop offset="0.4801" stop-color="#49BDDD"/>
<stop offset="0.6715" stop-color="#45D5DF"/>
<stop offset="0.8493" stop-color="#43E3E0"/>
<stop offset="1" stop-color="#42E8E0"/>
</linearGradient>
<linearGradient id="paint13_linear_1_1707" x1="43.5569" y1="71.3277" x2="105.713" y2="71.3277" gradientUnits="userSpaceOnUse">
<stop stop-color="#5761D7"/>
<stop offset="0.0726" stop-color="#5472D8"/>
<stop offset="0.2791" stop-color="#4E9CDB"/>
<stop offset="0.4801" stop-color="#49BDDD"/>
<stop offset="0.6715" stop-color="#45D5DF"/>
<stop offset="0.8493" stop-color="#43E3E0"/>
<stop offset="1" stop-color="#42E8E0"/>
</linearGradient>
<linearGradient id="paint14_linear_1_1707" x1="43.5604" y1="78.4997" x2="105.716" y2="78.4997" gradientUnits="userSpaceOnUse">
<stop stop-color="#5761D7"/>
<stop offset="0.0726" stop-color="#5472D8"/>
<stop offset="0.2791" stop-color="#4E9CDB"/>
<stop offset="0.4801" stop-color="#49BDDD"/>
<stop offset="0.6715" stop-color="#45D5DF"/>
<stop offset="0.8493" stop-color="#43E3E0"/>
<stop offset="1" stop-color="#42E8E0"/>
</linearGradient>
<linearGradient id="paint15_linear_1_1707" x1="43.5569" y1="71.3277" x2="105.713" y2="71.3277" gradientUnits="userSpaceOnUse">
<stop stop-color="#5761D7"/>
<stop offset="0.0726" stop-color="#5472D8"/>
<stop offset="0.2791" stop-color="#4E9CDB"/>
<stop offset="0.4801" stop-color="#49BDDD"/>
<stop offset="0.6715" stop-color="#45D5DF"/>
<stop offset="0.8493" stop-color="#43E3E0"/>
<stop offset="1" stop-color="#42E8E0"/>
</linearGradient>
<linearGradient id="paint16_linear_1_1707" x1="43.561" y1="79.9453" x2="105.716" y2="79.9453" gradientUnits="userSpaceOnUse">
<stop stop-color="#5761D7"/>
<stop offset="0.0726" stop-color="#5472D8"/>
<stop offset="0.2791" stop-color="#4E9CDB"/>
<stop offset="0.4801" stop-color="#49BDDD"/>
<stop offset="0.6715" stop-color="#45D5DF"/>
<stop offset="0.8493" stop-color="#43E3E0"/>
<stop offset="1" stop-color="#42E8E0"/>
</linearGradient>
<linearGradient id="paint17_linear_1_1707" x1="69.0244" y1="58.7557" x2="71.7152" y2="58.7557" gradientUnits="userSpaceOnUse">
<stop stop-color="#5761D7"/>
<stop offset="0.0726" stop-color="#5472D8"/>
<stop offset="0.2791" stop-color="#4E9CDB"/>
<stop offset="0.4801" stop-color="#49BDDD"/>
<stop offset="0.6715" stop-color="#45D5DF"/>
<stop offset="0.8493" stop-color="#43E3E0"/>
<stop offset="1" stop-color="#42E8E0"/>
</linearGradient>
<linearGradient id="paint18_linear_1_1707" x1="70.3918" y1="52.8424" x2="77.1297" y2="52.8424" gradientUnits="userSpaceOnUse">
<stop stop-color="#5761D7"/>
<stop offset="0.0726" stop-color="#5472D8"/>
<stop offset="0.2791" stop-color="#4E9CDB"/>
<stop offset="0.4801" stop-color="#49BDDD"/>
<stop offset="0.6715" stop-color="#45D5DF"/>
<stop offset="0.8493" stop-color="#43E3E0"/>
<stop offset="1" stop-color="#42E8E0"/>
</linearGradient>
<linearGradient id="paint19_linear_1_1707" x1="70.4292" y1="46.2058" x2="77.7308" y2="46.2058" gradientUnits="userSpaceOnUse">
<stop stop-color="#5761D7"/>
<stop offset="0.0726" stop-color="#5472D8"/>
<stop offset="0.2791" stop-color="#4E9CDB"/>
<stop offset="0.4801" stop-color="#49BDDD"/>
<stop offset="0.6715" stop-color="#45D5DF"/>
<stop offset="0.8493" stop-color="#43E3E0"/>
<stop offset="1" stop-color="#42E8E0"/>
</linearGradient>
<linearGradient id="paint20_linear_1_1707" x1="81.264" y1="70.297" x2="85.6744" y2="69.9105" gradientUnits="userSpaceOnUse">
<stop stop-color="#5761D7"/>
<stop offset="0.0726" stop-color="#5472D8"/>
<stop offset="0.2791" stop-color="#4E9CDB"/>
<stop offset="0.4801" stop-color="#49BDDD"/>
<stop offset="0.6715" stop-color="#45D5DF"/>
<stop offset="0.8493" stop-color="#43E3E0"/>
<stop offset="1" stop-color="#42E8E0"/>
</linearGradient>
<linearGradient id="paint21_linear_1_1707" x1="83.349" y1="35.4595" x2="83.9698" y2="35.4051" gradientUnits="userSpaceOnUse">
<stop stop-color="#5761D7"/>
<stop offset="0.0726" stop-color="#5472D8"/>
<stop offset="0.2791" stop-color="#4E9CDB"/>
<stop offset="0.4801" stop-color="#49BDDD"/>
<stop offset="0.6715" stop-color="#45D5DF"/>
<stop offset="0.8493" stop-color="#43E3E0"/>
<stop offset="1" stop-color="#42E8E0"/>
</linearGradient>
<linearGradient id="paint22_linear_1_1707" x1="75.9468" y1="58.3871" x2="86.5361" y2="57.4591" gradientUnits="userSpaceOnUse">
<stop stop-color="#5761D7"/>
<stop offset="0.0726" stop-color="#5472D8"/>
<stop offset="0.2791" stop-color="#4E9CDB"/>
<stop offset="0.4801" stop-color="#49BDDD"/>
<stop offset="0.6715" stop-color="#45D5DF"/>
<stop offset="0.8493" stop-color="#43E3E0"/>
<stop offset="1" stop-color="#42E8E0"/>
</linearGradient>
<linearGradient id="paint23_linear_1_1707" x1="84.8917" y1="44.9606" x2="87.3956" y2="44.7412" gradientUnits="userSpaceOnUse">
<stop stop-color="#5761D7"/>
<stop offset="0.0726" stop-color="#5472D8"/>
<stop offset="0.2791" stop-color="#4E9CDB"/>
<stop offset="0.4801" stop-color="#49BDDD"/>
<stop offset="0.6715" stop-color="#45D5DF"/>
<stop offset="0.8493" stop-color="#43E3E0"/>
<stop offset="1" stop-color="#42E8E0"/>
</linearGradient>
<linearGradient id="paint24_linear_1_1707" x1="71.2148" y1="68.7784" x2="79.7817" y2="68.0277" gradientUnits="userSpaceOnUse">
<stop stop-color="#5761D7"/>
<stop offset="0.0726" stop-color="#5472D8"/>
<stop offset="0.2791" stop-color="#4E9CDB"/>
<stop offset="0.4801" stop-color="#49BDDD"/>
<stop offset="0.6715" stop-color="#45D5DF"/>
<stop offset="0.8493" stop-color="#43E3E0"/>
<stop offset="1" stop-color="#42E8E0"/>
</linearGradient>
<linearGradient id="paint25_linear_1_1707" x1="75.7498" y1="65.2596" x2="76.8401" y2="65.1641" gradientUnits="userSpaceOnUse">
<stop stop-color="#5761D7"/>
<stop offset="0.0726" stop-color="#5472D8"/>
<stop offset="0.2791" stop-color="#4E9CDB"/>
<stop offset="0.4801" stop-color="#49BDDD"/>
<stop offset="0.6715" stop-color="#45D5DF"/>
<stop offset="0.8493" stop-color="#43E3E0"/>
<stop offset="1" stop-color="#42E8E0"/>
</linearGradient>
<linearGradient id="paint26_linear_1_1707" x1="73.5114" y1="63.3716" x2="74.5991" y2="63.2762" gradientUnits="userSpaceOnUse">
<stop stop-color="#5761D7"/>
<stop offset="0.0726" stop-color="#5472D8"/>
<stop offset="0.2791" stop-color="#4E9CDB"/>
<stop offset="0.4801" stop-color="#49BDDD"/>
<stop offset="0.6715" stop-color="#45D5DF"/>
<stop offset="0.8493" stop-color="#43E3E0"/>
<stop offset="1" stop-color="#42E8E0"/>
</linearGradient>
<linearGradient id="paint27_linear_1_1707" x1="74.7708" y1="53.7537" x2="82.8744" y2="53.0436" gradientUnits="userSpaceOnUse">
<stop stop-color="#5761D7"/>
<stop offset="0.0726" stop-color="#5472D8"/>
<stop offset="0.2791" stop-color="#4E9CDB"/>
<stop offset="0.4801" stop-color="#49BDDD"/>
<stop offset="0.6715" stop-color="#45D5DF"/>
<stop offset="0.8493" stop-color="#43E3E0"/>
<stop offset="1" stop-color="#42E8E0"/>
</linearGradient>
<linearGradient id="paint28_linear_1_1707" x1="15.3593" y1="63.3339" x2="58.9117" y2="63.3339" gradientUnits="userSpaceOnUse">
<stop stop-color="#5761D7"/>
<stop offset="0.1645" stop-color="#5E67DA"/>
<stop offset="0.4051" stop-color="#727AE2"/>
<stop offset="0.6924" stop-color="#9297EE"/>
<stop offset="1" stop-color="#BCBEFF"/>
</linearGradient>
<linearGradient id="paint29_linear_1_1707" x1="27.6827" y1="57.4483" x2="53.824" y2="57.4483" gradientUnits="userSpaceOnUse">
<stop stop-color="#42E8E0"/>
<stop offset="0.1507" stop-color="#43E3E0"/>
<stop offset="0.3285" stop-color="#45D5DF"/>
<stop offset="0.5199" stop-color="#49BDDD"/>
<stop offset="0.7209" stop-color="#4E9CDB"/>
<stop offset="0.9274" stop-color="#5472D8"/>
<stop offset="1" stop-color="#5761D7"/>
</linearGradient>
<linearGradient id="paint30_linear_1_1707" x1="40.7512" y1="52.7235" x2="53.822" y2="52.7235" gradientUnits="userSpaceOnUse">
<stop stop-color="#42E8E0"/>
<stop offset="0.1507" stop-color="#43E3E0"/>
<stop offset="0.3285" stop-color="#45D5DF"/>
<stop offset="0.5199" stop-color="#49BDDD"/>
<stop offset="0.7209" stop-color="#4E9CDB"/>
<stop offset="0.9274" stop-color="#5472D8"/>
<stop offset="1" stop-color="#5761D7"/>
</linearGradient>
<linearGradient id="paint31_linear_1_1707" x1="27.682" y1="52.7234" x2="40.7528" y2="52.7234" gradientUnits="userSpaceOnUse">
<stop stop-color="#42E8E0"/>
<stop offset="0.1507" stop-color="#43E3E0"/>
<stop offset="0.3285" stop-color="#45D5DF"/>
<stop offset="0.5199" stop-color="#49BDDD"/>
<stop offset="0.7209" stop-color="#4E9CDB"/>
<stop offset="0.9274" stop-color="#5472D8"/>
<stop offset="1" stop-color="#5761D7"/>
</linearGradient>
<linearGradient id="paint32_linear_1_1707" x1="27.682" y1="55.5452" x2="53.8233" y2="55.5452" gradientUnits="userSpaceOnUse">
<stop stop-color="#42E8E0"/>
<stop offset="0.1507" stop-color="#43E3E0"/>
<stop offset="0.3285" stop-color="#45D5DF"/>
<stop offset="0.5199" stop-color="#49BDDD"/>
<stop offset="0.7209" stop-color="#4E9CDB"/>
<stop offset="0.9274" stop-color="#5472D8"/>
<stop offset="1" stop-color="#5761D7"/>
</linearGradient>
<linearGradient id="paint33_linear_1_1707" x1="40.7511" y1="60.2699" x2="53.8216" y2="60.2699" gradientUnits="userSpaceOnUse">
<stop stop-color="#42E8E0"/>
<stop offset="0.1507" stop-color="#43E3E0"/>
<stop offset="0.3285" stop-color="#45D5DF"/>
<stop offset="0.5199" stop-color="#49BDDD"/>
<stop offset="0.7209" stop-color="#4E9CDB"/>
<stop offset="0.9274" stop-color="#5472D8"/>
<stop offset="1" stop-color="#5761D7"/>
</linearGradient>
<linearGradient id="paint34_linear_1_1707" x1="27.6827" y1="60.2699" x2="40.7535" y2="60.2699" gradientUnits="userSpaceOnUse">
<stop stop-color="#42E8E0"/>
<stop offset="0.1507" stop-color="#43E3E0"/>
<stop offset="0.3285" stop-color="#45D5DF"/>
<stop offset="0.5199" stop-color="#49BDDD"/>
<stop offset="0.7209" stop-color="#4E9CDB"/>
<stop offset="0.9274" stop-color="#5472D8"/>
<stop offset="1" stop-color="#5761D7"/>
</linearGradient>
<linearGradient id="paint35_linear_1_1707" x1="15.3593" y1="107.908" x2="58.9117" y2="107.908" gradientUnits="userSpaceOnUse">
<stop stop-color="#5761D7"/>
<stop offset="0.1645" stop-color="#5E67DA"/>
<stop offset="0.4051" stop-color="#727AE2"/>
<stop offset="0.6924" stop-color="#9297EE"/>
<stop offset="1" stop-color="#BCBEFF"/>
</linearGradient>
<linearGradient id="paint36_linear_1_1707" x1="27.6827" y1="102.023" x2="53.824" y2="102.023" gradientUnits="userSpaceOnUse">
<stop stop-color="#42E8E0"/>
<stop offset="0.1507" stop-color="#43E3E0"/>
<stop offset="0.3285" stop-color="#45D5DF"/>
<stop offset="0.5199" stop-color="#49BDDD"/>
<stop offset="0.7209" stop-color="#4E9CDB"/>
<stop offset="0.9274" stop-color="#5472D8"/>
<stop offset="1" stop-color="#5761D7"/>
</linearGradient>
<linearGradient id="paint37_linear_1_1707" x1="40.7512" y1="97.2982" x2="53.822" y2="97.2982" gradientUnits="userSpaceOnUse">
<stop stop-color="#42E8E0"/>
<stop offset="0.1507" stop-color="#43E3E0"/>
<stop offset="0.3285" stop-color="#45D5DF"/>
<stop offset="0.5199" stop-color="#49BDDD"/>
<stop offset="0.7209" stop-color="#4E9CDB"/>
<stop offset="0.9274" stop-color="#5472D8"/>
<stop offset="1" stop-color="#5761D7"/>
</linearGradient>
<linearGradient id="paint38_linear_1_1707" x1="27.682" y1="97.2981" x2="40.7528" y2="97.2981" gradientUnits="userSpaceOnUse">
<stop stop-color="#42E8E0"/>
<stop offset="0.1507" stop-color="#43E3E0"/>
<stop offset="0.3285" stop-color="#45D5DF"/>
<stop offset="0.5199" stop-color="#49BDDD"/>
<stop offset="0.7209" stop-color="#4E9CDB"/>
<stop offset="0.9274" stop-color="#5472D8"/>
<stop offset="1" stop-color="#5761D7"/>
</linearGradient>
<linearGradient id="paint39_linear_1_1707" x1="27.682" y1="100.12" x2="53.8233" y2="100.12" gradientUnits="userSpaceOnUse">
<stop stop-color="#42E8E0"/>
<stop offset="0.1507" stop-color="#43E3E0"/>
<stop offset="0.3285" stop-color="#45D5DF"/>
<stop offset="0.5199" stop-color="#49BDDD"/>
<stop offset="0.7209" stop-color="#4E9CDB"/>
<stop offset="0.9274" stop-color="#5472D8"/>
<stop offset="1" stop-color="#5761D7"/>
</linearGradient>
<linearGradient id="paint40_linear_1_1707" x1="40.7511" y1="104.845" x2="53.8216" y2="104.845" gradientUnits="userSpaceOnUse">
<stop stop-color="#42E8E0"/>
<stop offset="0.1507" stop-color="#43E3E0"/>
<stop offset="0.3285" stop-color="#45D5DF"/>
<stop offset="0.5199" stop-color="#49BDDD"/>
<stop offset="0.7209" stop-color="#4E9CDB"/>
<stop offset="0.9274" stop-color="#5472D8"/>
<stop offset="1" stop-color="#5761D7"/>
</linearGradient>
<linearGradient id="paint41_linear_1_1707" x1="27.6827" y1="104.845" x2="40.7535" y2="104.845" gradientUnits="userSpaceOnUse">
<stop stop-color="#42E8E0"/>
<stop offset="0.1507" stop-color="#43E3E0"/>
<stop offset="0.3285" stop-color="#45D5DF"/>
<stop offset="0.5199" stop-color="#49BDDD"/>
<stop offset="0.7209" stop-color="#4E9CDB"/>
<stop offset="0.9274" stop-color="#5472D8"/>
<stop offset="1" stop-color="#5761D7"/>
</linearGradient>
<linearGradient id="paint42_linear_1_1707" x1="83.4799" y1="63.3339" x2="127.032" y2="63.3339" gradientUnits="userSpaceOnUse">
<stop stop-color="#5761D7"/>
<stop offset="0.1645" stop-color="#5E67DA"/>
<stop offset="0.4051" stop-color="#727AE2"/>
<stop offset="0.6924" stop-color="#9297EE"/>
<stop offset="1" stop-color="#BCBEFF"/>
</linearGradient>
<linearGradient id="paint43_linear_1_1707" x1="95.8042" y1="57.4485" x2="121.946" y2="57.4485" gradientUnits="userSpaceOnUse">
<stop stop-color="#42E8E0"/>
<stop offset="0.1507" stop-color="#43E3E0"/>
<stop offset="0.3285" stop-color="#45D5DF"/>
<stop offset="0.5199" stop-color="#49BDDD"/>
<stop offset="0.7209" stop-color="#4E9CDB"/>
<stop offset="0.9274" stop-color="#5472D8"/>
<stop offset="1" stop-color="#5761D7"/>
</linearGradient>
<linearGradient id="paint44_linear_1_1707" x1="108.873" y1="52.7239" x2="121.944" y2="52.7239" gradientUnits="userSpaceOnUse">
<stop stop-color="#42E8E0"/>
<stop offset="0.1507" stop-color="#43E3E0"/>
<stop offset="0.3285" stop-color="#45D5DF"/>
<stop offset="0.5199" stop-color="#49BDDD"/>
<stop offset="0.7209" stop-color="#4E9CDB"/>
<stop offset="0.9274" stop-color="#5472D8"/>
<stop offset="1" stop-color="#5761D7"/>
</linearGradient>
<linearGradient id="paint45_linear_1_1707" x1="95.8041" y1="52.7239" x2="108.875" y2="52.7239" gradientUnits="userSpaceOnUse">
<stop stop-color="#42E8E0"/>
<stop offset="0.1507" stop-color="#43E3E0"/>
<stop offset="0.3285" stop-color="#45D5DF"/>
<stop offset="0.5199" stop-color="#49BDDD"/>
<stop offset="0.7209" stop-color="#4E9CDB"/>
<stop offset="0.9274" stop-color="#5472D8"/>
<stop offset="1" stop-color="#5761D7"/>
</linearGradient>
<linearGradient id="paint46_linear_1_1707" x1="95.8041" y1="55.5457" x2="121.945" y2="55.5457" gradientUnits="userSpaceOnUse">
<stop stop-color="#42E8E0"/>
<stop offset="0.1507" stop-color="#43E3E0"/>
<stop offset="0.3285" stop-color="#45D5DF"/>
<stop offset="0.5199" stop-color="#49BDDD"/>
<stop offset="0.7209" stop-color="#4E9CDB"/>
<stop offset="0.9274" stop-color="#5472D8"/>
<stop offset="1" stop-color="#5761D7"/>
</linearGradient>
<linearGradient id="paint47_linear_1_1707" x1="108.873" y1="60.2701" x2="121.944" y2="60.2701" gradientUnits="userSpaceOnUse">
<stop stop-color="#42E8E0"/>
<stop offset="0.1507" stop-color="#43E3E0"/>
<stop offset="0.3285" stop-color="#45D5DF"/>
<stop offset="0.5199" stop-color="#49BDDD"/>
<stop offset="0.7209" stop-color="#4E9CDB"/>
<stop offset="0.9274" stop-color="#5472D8"/>
<stop offset="1" stop-color="#5761D7"/>
</linearGradient>
<linearGradient id="paint48_linear_1_1707" x1="95.8042" y1="60.27" x2="108.875" y2="60.27" gradientUnits="userSpaceOnUse">
<stop stop-color="#42E8E0"/>
<stop offset="0.1507" stop-color="#43E3E0"/>
<stop offset="0.3285" stop-color="#45D5DF"/>
<stop offset="0.5199" stop-color="#49BDDD"/>
<stop offset="0.7209" stop-color="#4E9CDB"/>
<stop offset="0.9274" stop-color="#5472D8"/>
<stop offset="1" stop-color="#5761D7"/>
</linearGradient>
<linearGradient id="paint49_linear_1_1707" x1="83.4799" y1="107.908" x2="127.032" y2="107.908" gradientUnits="userSpaceOnUse">
<stop stop-color="#5761D7"/>
<stop offset="0.1645" stop-color="#5E67DA"/>
<stop offset="0.4051" stop-color="#727AE2"/>
<stop offset="0.6924" stop-color="#9297EE"/>
<stop offset="1" stop-color="#BCBEFF"/>
</linearGradient>
<linearGradient id="paint50_linear_1_1707" x1="95.8042" y1="102.023" x2="121.946" y2="102.023" gradientUnits="userSpaceOnUse">
<stop stop-color="#42E8E0"/>
<stop offset="0.1507" stop-color="#43E3E0"/>
<stop offset="0.3285" stop-color="#45D5DF"/>
<stop offset="0.5199" stop-color="#49BDDD"/>
<stop offset="0.7209" stop-color="#4E9CDB"/>
<stop offset="0.9274" stop-color="#5472D8"/>
<stop offset="1" stop-color="#5761D7"/>
</linearGradient>
<linearGradient id="paint51_linear_1_1707" x1="108.873" y1="97.2981" x2="121.944" y2="97.2981" gradientUnits="userSpaceOnUse">
<stop stop-color="#42E8E0"/>
<stop offset="0.1507" stop-color="#43E3E0"/>
<stop offset="0.3285" stop-color="#45D5DF"/>
<stop offset="0.5199" stop-color="#49BDDD"/>
<stop offset="0.7209" stop-color="#4E9CDB"/>
<stop offset="0.9274" stop-color="#5472D8"/>
<stop offset="1" stop-color="#5761D7"/>
</linearGradient>
<linearGradient id="paint52_linear_1_1707" x1="95.8041" y1="97.298" x2="108.875" y2="97.298" gradientUnits="userSpaceOnUse">
<stop stop-color="#42E8E0"/>
<stop offset="0.1507" stop-color="#43E3E0"/>
<stop offset="0.3285" stop-color="#45D5DF"/>
<stop offset="0.5199" stop-color="#49BDDD"/>
<stop offset="0.7209" stop-color="#4E9CDB"/>
<stop offset="0.9274" stop-color="#5472D8"/>
<stop offset="1" stop-color="#5761D7"/>
</linearGradient>
<linearGradient id="paint53_linear_1_1707" x1="95.8041" y1="100.12" x2="121.945" y2="100.12" gradientUnits="userSpaceOnUse">
<stop stop-color="#42E8E0"/>
<stop offset="0.1507" stop-color="#43E3E0"/>
<stop offset="0.3285" stop-color="#45D5DF"/>
<stop offset="0.5199" stop-color="#49BDDD"/>
<stop offset="0.7209" stop-color="#4E9CDB"/>
<stop offset="0.9274" stop-color="#5472D8"/>
<stop offset="1" stop-color="#5761D7"/>
</linearGradient>
<linearGradient id="paint54_linear_1_1707" x1="108.873" y1="104.844" x2="121.944" y2="104.844" gradientUnits="userSpaceOnUse">
<stop stop-color="#42E8E0"/>
<stop offset="0.1507" stop-color="#43E3E0"/>
<stop offset="0.3285" stop-color="#45D5DF"/>
<stop offset="0.5199" stop-color="#49BDDD"/>
<stop offset="0.7209" stop-color="#4E9CDB"/>
<stop offset="0.9274" stop-color="#5472D8"/>
<stop offset="1" stop-color="#5761D7"/>
</linearGradient>
<linearGradient id="paint55_linear_1_1707" x1="95.8042" y1="104.844" x2="108.875" y2="104.844" gradientUnits="userSpaceOnUse">
<stop stop-color="#42E8E0"/>
<stop offset="0.1507" stop-color="#43E3E0"/>
<stop offset="0.3285" stop-color="#45D5DF"/>
<stop offset="0.5199" stop-color="#49BDDD"/>
<stop offset="0.7209" stop-color="#4E9CDB"/>
<stop offset="0.9274" stop-color="#5472D8"/>
<stop offset="1" stop-color="#5761D7"/>
</linearGradient>
</defs>
</svg>
