<svg width="138" height="124" viewBox="0 0 138 124" fill="none" xmlns="http://www.w3.org/2000/svg">
<g opacity="0.3">
<path d="M108.172 56.0533C108.586 58.3957 110.324 64.284 117.493 68.3569C127.698 73.0694 134.767 79.2648 137.135 86.1815C137.303 86.6354 137.534 87.2391 137.751 87.6712C138.006 87.2519 138.006 87.2519 138.007 86.2379V74.6247C138.002 67.8059 137.62 66.3026 137.135 64.3991C134.767 57.4821 127.698 51.2871 117.493 46.5746C109.352 43.9466 107.381 51.5799 108.172 56.0533Z" fill="#42E8E0"/>
<path d="M33.3347 42.1194C44.1391 38.9852 56.9211 37.2206 70.5635 37.3324C72.3638 37.3471 74.1464 37.3941 75.9094 37.4728C87.8885 38.567 92.149 51.218 84.9267 56.7529C81.6118 59.2931 77.6156 59.2664 75.9094 59.2551C74.1464 59.1768 72.3638 59.1298 70.5635 59.1147C56.9214 59.0029 44.1394 60.7675 33.3347 63.9017C22.4252 66.5594 21.7809 55.4727 25.596 48.6912C26.8791 46.4099 29.2632 43.4187 33.3347 42.1194Z" fill="#42E8E0"/>
<path d="M0.726562 91.3451C1.02391 87.8925 1.25916 85.1655 4.77394 80.4063C12.184 69.4717 10.6878 56.7635 6.59455 57.3503C5.93473 57.4448 5.24857 58.1561 4.77394 58.624C2.28597 61.8659 0.872227 65.3521 0.737102 68.9892C0.72995 69.1807 0.726562 69.3719 0.726562 69.5628V91.3451Z" fill="#42E8E0"/>
</g>
<g opacity="0.11">
<path d="M66.8439 84.2887C67.8662 83.6985 69.1256 83.6978 70.1486 84.2872L89.8439 95.6317C90.154 95.8109 90.154 96.258 89.8439 96.4372L69.9849 107.903C69.0827 108.424 67.9712 108.424 67.0686 107.903L47.1788 96.4481C46.8686 96.2693 46.8686 95.8218 47.1788 95.6426L66.8439 84.2887Z" fill="url(#paint0_linear_1_2320)"/>
</g>
<g opacity="0.11">
<path d="M66.8439 80.9712C67.8662 80.381 69.1256 80.3802 70.1486 80.9697L89.8439 92.3142C90.154 92.4934 90.154 92.9405 89.8439 93.1197L69.9849 104.585C69.0827 105.106 67.9712 105.106 67.0686 104.585L47.1788 93.1306C46.8686 92.9518 46.8686 92.5039 47.1788 92.3251L66.8439 80.9712Z" fill="url(#paint1_linear_1_2320)"/>
</g>
<g opacity="0.11">
<path d="M66.8439 77.6531C67.8662 77.0629 69.1256 77.0621 70.1486 77.6516L89.8439 88.9961C90.154 89.1753 90.154 89.6228 89.8439 89.8016L69.9849 101.267C69.0827 101.788 67.9712 101.788 67.0686 101.267L47.1788 89.8125C46.8686 89.6337 46.8686 89.1862 47.1788 89.007L66.8439 77.6531Z" fill="url(#paint2_linear_1_2320)"/>
</g>
<g opacity="0.11">
<path d="M66.8439 74.3353C67.8662 73.7451 69.1256 73.7444 70.1486 74.3338L89.8439 85.6784C90.154 85.8575 90.154 86.3047 89.8439 86.4838L69.9849 97.9496C69.0827 98.4705 67.9712 98.4705 67.0686 97.9496L47.1788 86.4947C46.8686 86.316 46.8686 85.8684 47.1788 85.6893L66.8439 74.3353Z" fill="url(#paint3_linear_1_2320)"/>
</g>
<path opacity="0.11" d="M47.1749 85.689L66.8404 74.3351C67.8626 73.7449 69.1221 73.7441 70.1451 74.3336L89.8403 85.6781C89.9954 85.7677 90.0729 85.9243 90.0729 86.0808V96.0342C90.0729 96.1908 89.9954 96.3474 89.8403 96.437L69.9814 107.903C69.0792 108.424 67.9677 108.424 67.0651 107.903L47.1752 96.4479C47.0202 96.3583 46.9426 96.2017 46.9426 96.0452V86.0918C46.9423 85.9352 47.0198 85.7786 47.1749 85.689Z" fill="url(#paint4_linear_1_2320)"/>
<g opacity="0.11">
<path d="M66.4763 66.1994C67.7158 65.4839 69.2428 65.4831 70.4834 66.1975L94.3649 79.9536C94.7409 80.1708 94.7409 80.7132 94.3649 80.9304L70.2847 94.8332C69.1905 95.4648 67.8426 95.4648 66.7488 94.8332L42.6313 80.9435C42.2553 80.7263 42.2553 80.184 42.6313 79.9668L66.4763 66.1994Z" fill="url(#paint5_linear_1_2320)"/>
</g>
<g opacity="0.11">
<path d="M66.4763 62.177C67.7158 61.4614 69.2428 61.4603 70.4834 62.1751L94.3649 75.9312C94.7409 76.1483 94.7409 76.6907 94.3649 76.9079L70.2847 90.8108C69.1905 91.4424 67.8426 91.4424 66.7488 90.8108L42.6313 76.9211C42.2553 76.7039 42.2553 76.1615 42.6313 75.9443L66.4763 62.177Z" fill="url(#paint6_linear_1_2320)"/>
</g>
<g opacity="0.11">
<path d="M66.4763 58.1539C67.7158 57.4383 69.2428 57.4376 70.4834 58.152L94.3649 71.9081C94.7409 72.1253 94.7409 72.6676 94.3649 72.8848L70.2847 86.7877C69.1905 87.4193 67.8426 87.4193 66.7488 86.7877L42.6313 72.898C42.2553 72.6808 42.2553 72.1384 42.6313 71.9212L66.4763 58.1539Z" fill="url(#paint7_linear_1_2320)"/>
</g>
<g opacity="0.11">
<path d="M66.4763 54.1304C67.7158 53.4149 69.2428 53.4141 70.4834 54.1285L94.3649 67.8846C94.7409 68.1018 94.7409 68.6442 94.3649 68.8614L70.2847 82.7643C69.1905 83.3959 67.8426 83.3959 66.7488 82.7643L42.6313 68.8746C42.2553 68.6574 42.2553 68.115 42.6313 67.8978L66.4763 54.1304Z" fill="url(#paint8_linear_1_2320)"/>
</g>
<path opacity="0.5" d="M42.6335 67.8976L66.4789 54.1305C67.7184 53.415 69.2454 53.4143 70.486 54.1287L94.3675 67.8848C94.5553 67.9932 94.6494 68.1832 94.6494 68.3733V80.4424C94.6494 80.6321 94.5553 80.8222 94.3675 80.9306L70.2872 94.8335C69.1931 95.4651 67.8452 95.4651 66.7514 94.8335L42.6339 80.9438C42.4461 80.8354 42.352 80.6453 42.352 80.4556V68.3865C42.3516 68.196 42.4457 68.006 42.6335 67.8976Z" fill="url(#paint9_linear_1_2320)"/>
<g opacity="0.11">
<path d="M66.4763 54.1304C67.7158 53.4149 69.2428 53.4141 70.4834 54.1285L94.3649 67.8846C94.7409 68.1018 94.7409 68.6442 94.3649 68.8614L70.2847 82.7643C69.1905 83.3959 67.8426 83.3959 66.7488 82.7643L42.6313 68.8746C42.2553 68.6574 42.2553 68.115 42.6313 67.8978L66.4763 54.1304Z" fill="url(#paint10_linear_1_2320)"/>
</g>
<path d="M42.6337 68.3188L66.7508 82.2085C67.845 82.8401 69.1929 82.8401 70.2871 82.2085L94.3673 68.3056C94.4599 68.2522 94.5295 68.1784 94.5766 68.0952C94.72 68.35 94.6507 68.6978 94.3673 68.8616L70.2871 82.7644C69.1929 83.396 67.845 83.396 66.7508 82.7644L42.6337 68.8747C42.3503 68.7114 42.2811 68.3632 42.4245 68.1084C42.4715 68.1916 42.5411 68.265 42.6337 68.3188Z" fill="url(#paint11_linear_1_2320)"/>
<path opacity="0.2" d="M68.5055 76.0061C75.7669 76.0061 81.6533 72.6074 81.6533 68.415C81.6533 64.2225 75.7669 60.8239 68.5055 60.8239C61.2442 60.8239 55.3577 64.2225 55.3577 68.415C55.3577 72.6074 61.2442 76.0061 68.5055 76.0061Z" fill="#180D5B"/>
<path d="M104.918 81.8569C104.918 81.8569 104.599 82.19 104.267 82.5826C103.936 82.9752 103.003 83.5217 102.612 83.7649C102.22 84.008 100.425 85.3683 100.05 86.7075C99.6753 88.0471 100.957 88.2244 102.269 87.9914C103.582 87.7584 104.807 86.5487 105.164 86.1117C105.521 85.6747 106.762 84.6829 108.372 83.8499C109.982 83.0166 109.008 81.8965 109.008 81.8965L104.918 81.8569Z" fill="#160A5B"/>
<path d="M116.873 85.8356C116.873 85.8356 117.138 86.4378 117.213 87.2128C117.288 87.9874 117.397 89.6669 117.437 90.1581C117.477 90.6493 117.493 91.8515 116.629 93.0025C115.764 94.1535 115.317 94.6082 114.168 94.1554C113.019 93.7026 113.045 91.7739 113.249 90.7818C113.452 89.79 113.641 87.57 113.62 87.3374C113.599 87.1044 113.686 86.9557 113.686 86.9557L116.873 85.8356Z" fill="#160A5B"/>
<path d="M100.954 59.1011C100.954 59.1011 101.196 67.946 103.258 72.6411C103.258 72.6411 104.734 76.7762 104.929 81.6945C104.929 81.6945 104.588 82.5414 105.072 83.2299C105.555 83.9183 108.581 84.5487 109.082 82.287C109.581 80.0252 109.389 75.793 108.84 74.0285C108.29 72.2636 109.036 67.3994 109.036 67.3994C109.036 67.3994 109.863 67.9279 110.947 71.4224C112.031 74.9168 112.829 76.25 113.202 77.2154C113.575 78.1809 113.918 84.1031 113.681 86.9949C113.681 86.9949 116.132 87.3427 116.841 86.1714C117.549 85 117.786 78.9397 117.606 77.0073C117.427 75.0753 116.619 68.8858 116.73 66.9704C116.841 65.0549 117.24 63.4996 116.802 61.5868C116.364 59.6739 103.432 55.4241 103.432 55.4241L100.954 59.1011Z" fill="#24126A"/>
<path d="M100.954 59.1011C100.954 59.1011 101.196 67.946 103.258 72.6411C103.258 72.6411 104.734 76.7762 104.929 81.6945C104.929 81.6945 104.588 82.5414 105.072 83.2299C105.555 83.9183 108.581 84.5487 109.082 82.287C109.581 80.0252 109.389 75.793 108.84 74.0285C108.29 72.2636 109.036 67.3994 109.036 67.3994C109.036 67.3994 109.863 67.9279 110.947 71.4224C112.031 74.9168 112.829 76.25 113.202 77.2154C113.575 78.1809 113.918 84.1031 113.681 86.9949C113.681 86.9949 116.132 87.3427 116.841 86.1714C117.549 85 117.786 78.9397 117.606 77.0073C117.427 75.0753 116.619 68.8858 116.73 66.9704C116.841 65.0549 117.24 63.4996 116.802 61.5868C116.364 59.6739 103.432 55.4241 103.432 55.4241L100.954 59.1011Z" fill="url(#paint12_linear_1_2320)"/>
<path d="M116.73 66.9708C116.841 65.0553 117.24 63.5001 116.802 61.5872C116.637 60.8683 114.707 59.8189 112.362 58.7891C108.404 58.4278 103.385 58.0085 103.039 58.0611C102.727 58.1086 101.909 58.4195 101.231 58.6912L100.954 59.1011C100.954 59.1011 100.969 59.639 101.022 60.5175C101.945 60.7938 103.721 60.5085 103.721 60.5085C103.971 61.1291 105.513 63.3348 107.431 64.2867C109.35 65.2386 114.962 64.9119 115.284 65.274C115.606 65.6357 115.669 70.478 115.633 71.0938C115.597 71.7092 116.162 75.5857 116.684 79.0132C117.197 82.3853 116.416 86.4835 116.39 86.6152C116.572 86.4989 116.729 86.3559 116.841 86.1714C117.549 85.0001 117.786 78.9398 117.607 77.0073C117.427 75.0753 116.619 68.8859 116.73 66.9708Z" fill="#160A5B"/>
<path d="M105.282 30.1715C105.282 30.1715 102.413 30.826 101.448 31.0522C101.288 31.0899 101.159 31.2024 101.098 31.3552C100.819 32.0606 100.12 34.2523 100.647 37.4521C101.294 41.3846 101.089 44.0322 101.089 44.0322L99.7617 50.9387C99.7617 50.9387 98.0935 57.5165 98.2373 57.6964C98.3815 57.8764 102.079 60.6903 103.234 60.2939C104.39 59.8976 104.01 59.2438 104.01 59.2438C104.01 59.2438 104.946 64.0108 109.09 63.9653C113.233 63.9194 116.619 63.9329 117.322 62.2576C118.026 60.5826 117.13 53.5414 116.399 50.7538C115.669 47.9663 113.932 42.4092 113.932 42.4092L120.001 35.6917L114.814 31.7305C114.814 31.7305 113.575 29.4281 113.066 29.1356C112.556 28.8432 112.29 29.0908 112.29 29.0908L105.282 30.1715Z" fill="url(#paint13_linear_1_2320)"/>
<path d="M103.307 58.7763C103.31 59.0154 103.171 59.3718 102.426 59.6274C101.622 59.9033 99.6501 58.7048 98.3576 57.803C99.0031 58.3393 102.179 60.6576 103.236 60.2951C103.466 60.2164 103.632 60.1272 103.756 60.0354C103.519 59.505 103.378 59.0462 103.307 58.7763Z" fill="url(#paint14_linear_1_2320)"/>
<path d="M112.956 29.0783C112.956 29.0783 114.016 30.3603 112.491 32.0906C111.553 33.1558 109.938 35.4525 108.563 37.8377C107.703 39.3275 106.909 40.1217 106.459 41.4018C106.459 41.4018 106.396 39.8812 106.335 37.5328C106.278 35.317 106.249 33.0142 106.348 32.4342C106.552 31.2399 111.785 28.4975 112.956 29.0783Z" fill="#F0F6FF"/>
<path d="M108.991 32.9346C108.991 32.9346 108.448 33.2719 108.261 33.244C108.074 33.2162 107.473 32.632 107.473 32.632C107.473 32.632 105.969 32.6049 105.805 31.9605C105.641 31.3162 105.532 30.6665 105.38 30.3315C105.228 29.9965 104.579 28.3889 104.574 27.7366C104.569 27.0843 104.593 25.919 104.312 25.3021C104.03 24.6852 103.65 18.512 109.611 18.6859C115.572 18.8597 113.721 25.0496 113.721 25.0496C113.721 25.0496 114.156 25.2351 113.892 26.032C113.629 26.8288 113.57 26.9112 113.435 27.3068C113.301 27.7024 113.235 27.9557 112.856 28.2771L112.757 29.0115C112.757 29.0115 113.04 30.1324 112.299 31.2221C111.558 32.3113 108.991 32.9346 108.991 32.9346Z" fill="#FCD1C5"/>
<path d="M101.285 31.1238C101.285 31.1238 100.65 31.2183 98.5871 36.4065C97.4365 39.3013 95.6603 42.2993 95.2839 44.4508C94.9075 46.6023 95.1172 48.9024 95.5425 49.0643C95.952 49.2201 103.362 51.993 105.681 52.8681C105.809 52.9163 105.948 52.8361 105.972 52.7014L106.612 49.1226L102.013 47.346C102.013 47.346 101.138 46.2755 100.314 45.8739C100.314 45.8739 101.236 44.1749 101.177 43.7112C101.119 43.2475 101.26 38.4484 100.721 36.4953C100.182 34.5429 101.285 31.1238 101.285 31.1238Z" fill="#24126A"/>
<path d="M101.285 31.1238C101.285 31.1238 100.65 31.2183 98.5871 36.4065C97.4365 39.3013 95.6603 42.2993 95.2839 44.4508C94.9075 46.6023 95.1172 48.9024 95.5425 49.0643C95.952 49.2201 103.362 51.993 105.681 52.8681C105.809 52.9163 105.948 52.8361 105.972 52.7014L106.612 49.1226L102.013 47.346C102.013 47.346 101.138 46.2755 100.314 45.8739C100.314 45.8739 101.236 44.1749 101.177 43.7112C101.119 43.2475 101.26 38.4484 100.721 36.4953C100.182 34.5429 101.285 31.1238 101.285 31.1238Z" fill="url(#paint15_linear_1_2320)"/>
<path d="M103.979 44.8347C103.979 44.8347 103.346 44.409 103.19 44.3484C103.033 44.2878 102.186 43.9983 102.024 43.9261C101.904 43.8726 101.411 43.9136 101.164 43.9385C101.074 43.9475 100.996 43.9991 100.953 44.0785C100.758 44.4413 100.213 45.4979 100.274 45.901C100.274 45.901 101.805 46.8683 101.976 47.2997L102.22 47.3524C102.22 47.3524 103.246 45.1527 103.979 44.8347Z" fill="#FCD1C5"/>
<path d="M116.401 50.7543C116.225 50.0835 115.991 49.2521 115.737 48.3766L106.424 52.3686C106.424 52.3686 109.211 55.7965 114.097 55.5763C115.433 55.516 116.407 55.0343 117.123 54.6202C116.908 53.0955 116.645 51.6866 116.401 50.7543Z" fill="#24126A"/>
<path d="M120.003 35.692C120.003 35.692 117.547 36.03 115.563 39.1752C113.579 42.3203 112.133 45.9597 112.133 45.9597L112.064 46.3688C111.886 47.4382 110.746 48.0517 109.756 47.6094C107.661 46.6737 104.558 45.2592 103.979 44.835C103.979 44.835 102.123 45.8607 101.617 48.2843C101.213 50.2171 101.316 50.2227 101.316 50.2227C101.316 50.2227 109.586 54.0823 112.779 54.0446C115.973 54.0066 120.025 43.5063 120.471 41.3361C120.917 39.165 121.409 36.3055 120.003 35.692Z" fill="#24126A"/>
<path d="M120.003 35.692C120.003 35.692 117.547 36.03 115.563 39.1752C113.579 42.3203 112.133 45.9597 112.133 45.9597L112.064 46.3688C111.886 47.4382 110.746 48.0517 109.756 47.6094C107.661 46.6737 104.558 45.2592 103.979 44.835C103.979 44.835 102.123 45.8607 101.617 48.2843C101.213 50.2171 101.316 50.2227 101.316 50.2227C101.316 50.2227 109.586 54.0823 112.779 54.0446C115.973 54.0066 120.025 43.5063 120.471 41.3361C120.917 39.165 121.409 36.3055 120.003 35.692Z" fill="url(#paint16_linear_1_2320)"/>
<path d="M110.944 48.0984C110.944 48.0984 111.987 49.074 112.441 48.5395C112.895 48.0054 112.761 47.946 112.761 47.946C112.761 47.946 113.7 47.9373 113.814 47.3494C113.928 46.7611 114.391 47.072 114.417 46.4171C114.443 45.7618 113.657 45.8961 113.657 45.8961L110.944 48.0984Z" fill="#453C9E"/>
<path d="M109.682 47.5768C109.682 47.5768 109.969 47.3099 110.339 46.9968C110.709 46.6836 111.307 45.3884 111.408 45.2744C111.509 45.1599 112.757 44.2032 113.359 44.1862C113.96 44.1697 113.514 44.843 113.375 44.9379C113.237 45.0327 112.649 45.3248 112.649 45.3248C112.649 45.3248 112.045 45.8322 111.976 45.9067C111.908 45.9809 113.656 45.7863 113.934 45.9568C114.211 46.1273 114.147 46.5741 113.951 46.6956C113.755 46.8172 113.606 46.8127 113.606 46.8127C113.606 46.8127 113.802 47.3389 113.278 47.5828C112.753 47.8271 112.632 47.6912 112.632 47.6912C112.632 47.6912 112.587 48.6002 111.721 48.4203L109.682 47.5768Z" fill="#FCD1C5"/>
<path d="M104.178 22.1459C104.178 22.1459 103.4 24.623 105.448 23.9183C107.497 23.2137 109.35 22.0341 109.993 22.4832C110.482 22.8249 110.46 23.8736 110.421 24.3542C110.408 24.5183 110.451 24.6805 110.544 24.816L111.151 25.6987C111.22 25.7984 111.261 25.9144 111.269 26.0352L111.313 26.6491C111.323 26.8034 111.447 26.9257 111.602 26.9348L111.742 26.9431C111.898 26.9521 112.036 26.8429 112.063 26.6886L112.221 25.7868C112.221 25.7868 112.703 24.5737 113.722 25.0502C113.722 25.0502 114.403 24.1344 114.177 22.1768C113.95 20.2191 113.073 18.1836 109.231 17.8576C105.39 17.5321 104.178 22.1459 104.178 22.1459Z" fill="#AA8383"/>
<path d="M110.048 35.1149L109.474 34.6689C109.474 34.6689 108.942 35.1108 108.734 35.579C108.527 36.0476 108.735 37.5366 108.735 37.5366L108.56 37.8377L108.344 37.4436L108.162 35.6829C108.162 35.6829 108.358 34.3817 108.376 34.3486C108.396 34.3154 109.485 34.4645 109.485 34.4645C109.485 34.4645 109.863 34.7524 110.048 35.1149Z" fill="#C4CCD6"/>
<path d="M107.285 33.3623C107.285 33.3623 106.671 33.4033 106.394 33.6329C106.394 33.6329 107.039 33.6645 107.141 33.6762C107.244 33.6879 107.285 33.3623 107.285 33.3623Z" fill="#C4CCD6"/>
<path d="M108.455 33.5009L109.486 34.4644C109.486 34.4644 108.581 34.8811 108.328 35.69C108.328 35.69 107.206 35.8996 107.104 35.4931C107.001 35.087 107.106 34.0636 106.973 33.6096C106.839 33.1557 108.455 33.5009 108.455 33.5009Z" fill="#24126A"/>
<path d="M107.146 35.47C107.146 35.47 106.954 36.3139 106.745 36.662C106.536 37.0102 106.321 37.4005 106.321 37.4005L106.347 42.3467C106.347 42.3467 108.166 38.5967 108.561 37.8379C108.561 37.8379 108.5 36.0316 108.328 35.6898C108.156 35.3484 107.146 35.47 107.146 35.47Z" fill="#24126A"/>
<path d="M112.031 28.1608C110.836 31.6089 107.474 32.6323 107.474 32.6323C107.474 32.6323 108.075 33.2161 108.262 33.2444C108.449 33.2722 108.992 32.935 108.992 32.935C108.992 32.935 111.559 32.3117 112.3 31.222C113.041 30.1323 112.758 29.0114 112.758 29.0114L112.857 28.2775C112.323 28.4521 112.031 28.1608 112.031 28.1608Z" fill="#E2B1A6"/>
<path d="M114.764 32.1968C114.764 32.1968 114.292 33.8243 114.231 33.8853C114.171 33.9466 113.046 33.8164 113.046 33.8164L113.592 34.8511C113.592 34.8511 107.932 40.9205 106.759 44.1853C106.759 44.1853 109.437 40.0472 114.15 35.1052L113.483 34.0957L114.64 34.3215L114.764 32.1968Z" fill="#24126A"/>
<path d="M105.468 30.7595L105.168 31.1024L105.521 31.4318L104.475 32.3776C104.475 32.3776 104.155 39.0165 105.432 43.4143C105.432 43.4143 103.698 39.3801 104.091 32.1966L105.224 31.4288L104.853 31.064L105.468 30.7595Z" fill="#24126A"/>
<path d="M109.037 67.3994C109.037 67.3994 109.05 67.4081 109.076 67.4303L107.61 65.8698C108.287 66.8243 107.507 71.1942 107.426 72.1947C107.345 73.1951 108.209 75.2615 108.532 77.6825C108.855 80.0997 108.194 83.5513 108.192 83.5614C108.611 83.3187 108.944 82.9144 109.083 82.287C109.583 80.0252 109.391 75.793 108.841 74.0285C108.291 72.2636 109.037 67.3994 109.037 67.3994Z" fill="#160A5B"/>
<path d="M111.741 26.9427C111.898 26.9517 112.036 26.8426 112.062 26.6882L112.22 25.7864C112.22 25.7864 112.702 24.5733 113.721 25.0498C113.721 25.0498 114.364 24.1799 114.19 22.33C113.058 24.0305 110.544 24.8157 110.544 24.8157L111.151 25.6983C111.219 25.7981 111.26 25.914 111.269 26.0348L111.312 26.6487C111.323 26.803 111.447 26.9254 111.601 26.9344L111.741 26.9427Z" fill="#936D6D"/>
<path d="M23.9815 110.595C23.9815 110.595 25.2948 110.919 26.5666 110.969C27.8388 111.019 31.2956 111.713 31.2098 113.003C31.1232 114.3 29.3165 116.161 27.0533 116.437C24.787 116.713 21.8741 116.061 20.3941 116.101C18.9141 116.141 17.9028 114.632 18.482 113.187C19.0583 111.75 23.9815 110.595 23.9815 110.595Z" fill="#160A5B"/>
<path d="M16.3529 107.127C16.3529 107.127 15.8685 107.907 16.1056 108.385C16.3435 108.864 16.977 110.055 19.0472 108.902C21.1068 107.755 25.0853 106.114 25.0853 106.114C25.0853 106.114 27.3655 104.901 27.2409 103.47C27.1171 102.047 25.0183 102.259 25.0183 102.259L16.3529 107.127Z" fill="#160A5B"/>
<path d="M29.7878 86.8214C29.7878 86.8214 28.909 96.1191 27.0402 99.6433C25.1413 103.225 24.6173 109.785 24.221 111.038C23.8224 112.297 22.5927 114.107 20.6542 114.491C18.7124 114.876 18.3955 113.556 18.4915 112.763C18.5871 111.973 19.125 110.696 19.1321 109.839C19.1393 108.985 18.9405 108.585 18.9108 108.193C18.9108 108.193 16.6901 108.847 16.3524 107.126C16.3524 107.126 16.5323 106.626 16.5621 106.369C16.5918 106.114 16.3724 99.8887 16.3186 99.1348C16.2647 98.3831 16.6705 94.3139 17.2874 92.3085C17.8987 90.3211 17.6954 86.0923 17.6954 86.0923L24.0177 85.2108L29.7878 86.8214Z" fill="#24126A"/>
<path d="M29.7878 86.8214C29.7878 86.8214 28.909 96.1191 27.0402 99.6433C25.1413 103.225 24.6173 109.785 24.221 111.038C23.8224 112.297 22.5927 114.107 20.6542 114.491C18.7124 114.876 18.3955 113.556 18.4915 112.763C18.5871 111.973 19.125 110.696 19.1321 109.839C19.1393 108.985 18.9405 108.585 18.9108 108.193C18.9108 108.193 16.6901 108.847 16.3524 107.126C16.3524 107.126 16.5323 106.626 16.5621 106.369C16.5918 106.114 16.3724 99.8887 16.3186 99.1348C16.2647 98.3831 16.6705 94.3139 17.2874 92.3085C17.8987 90.3211 17.6954 86.0923 17.6954 86.0923L24.0177 85.2108L29.7878 86.8214Z" fill="url(#paint17_linear_1_2320)"/>
<path d="M19.5687 86.7667C19.5687 86.7667 19.5951 88.2177 20.1996 89.4384C20.1996 89.4384 20.1875 94.38 20.6949 96.8827C20.6949 96.8827 19.8766 101.908 19.3613 103.491C18.8423 105.086 18.9115 108.194 18.9115 108.194C18.9115 108.194 18.659 108.287 18.2965 108.301C17.934 108.314 17.9084 102.158 18.4648 101.072C19.0184 99.991 19.4381 95.1931 19.2292 93.7308C19.0214 92.2779 19.093 88.1198 18.8182 87.3863C18.5445 86.6549 19.163 86.2665 19.163 86.2665L19.5687 86.7667Z" fill="#160A5B"/>
<path d="M24.8885 53.225C24.8885 53.225 26.7249 54.5533 26.6323 56.8482L25.2675 56.5546C25.2675 56.5546 25.6733 54.0139 24.8885 53.225Z" fill="#160A5B"/>
<path d="M24.1755 88.7918C19.9847 88.9198 17.7233 87.0634 17.7233 87.0634C17.7143 86.4755 17.6959 86.0923 17.6959 86.0923L24.0182 85.2108L29.7883 86.821C29.7883 86.821 29.6144 88.6541 29.2576 91.002C28.2296 91.1131 27.2202 88.5886 27.2202 88.5886L24.3456 88.7708C24.3456 88.7708 28.3636 88.6639 24.1755 88.7918Z" fill="#160A5B"/>
<path d="M28.9788 86.9593C28.9788 86.9593 19.8671 90.6785 15.4625 83.6237C15.3372 83.4231 15.2788 83.1773 15.2875 82.93L15.3436 81.2856C15.3507 81.0767 15.3206 80.8697 15.2555 80.6762C15.1143 80.2584 15.0827 79.8048 15.1648 79.3629C15.5058 77.5254 16.4295 72.5295 16.6463 71.1429C16.9105 69.4525 16.0139 62.6845 14.5027 59.7539C13.0129 56.8651 16.839 50.3681 16.839 50.3681C16.839 50.3681 17.7773 48.8513 19.6153 49.3711C19.6153 49.3711 17.8624 50.597 18.8218 51.8914C19.7877 53.1945 22.6678 54.2348 22.6678 54.2348C22.6678 54.2348 27.9938 56.9983 29.8167 60.361C29.8167 60.361 30.4434 62.1094 30.4987 64.3215C30.5548 66.5576 30.3075 71.9254 30.4009 72.6714C30.4942 73.4197 30.7776 78.5341 30.7475 78.7731C30.7167 79.0125 28.9788 86.9593 28.9788 86.9593Z" fill="#453C9E"/>
<path d="M28.9788 86.9593C28.9788 86.9593 19.8671 90.6785 15.4625 83.6237C15.3372 83.4231 15.2788 83.1773 15.2875 82.93L15.3436 81.2856C15.3507 81.0767 15.3206 80.8697 15.2555 80.6762C15.1143 80.2584 15.0827 79.8048 15.1648 79.3629C15.5058 77.5254 16.4295 72.5295 16.6463 71.1429C16.9105 69.4525 16.0139 62.6845 14.5027 59.7539C13.0129 56.8651 16.839 50.3681 16.839 50.3681C16.839 50.3681 17.7773 48.8513 19.6153 49.3711C19.6153 49.3711 17.8624 50.597 18.8218 51.8914C19.7877 53.1945 22.6678 54.2348 22.6678 54.2348C22.6678 54.2348 27.9938 56.9983 29.8167 60.361C29.8167 60.361 30.4434 62.1094 30.4987 64.3215C30.5548 66.5576 30.3075 71.9254 30.4009 72.6714C30.4942 73.4197 30.7776 78.5341 30.7475 78.7731C30.7167 79.0125 28.9788 86.9593 28.9788 86.9593Z" fill="url(#paint18_linear_1_2320)"/>
<path d="M18.7591 50.3097C18.6138 49.9416 18.6574 49.5886 18.7918 49.2788C19.0448 49.2701 19.3135 49.2863 19.6161 49.3721C19.6161 49.3721 19.0752 49.7512 18.7591 50.3097Z" fill="url(#paint19_linear_1_2320)"/>
<path d="M26.22 87.7195C26.22 87.7195 20.8545 73.2306 21.1093 67.9712C21.3577 62.8432 28.9421 78.3604 28.9421 78.3604L28.9816 86.9596C28.9816 86.9596 27.2615 87.5938 26.22 87.7195Z" fill="#24126A"/>
<path d="M29.1134 70.6027C28.9191 69.4208 28.8058 68.2344 28.7923 67.0492C28.769 64.9884 28.1897 61.5704 24.4607 62.1639C19.1901 63.0033 21.4451 70.3866 22.0228 71.6762C22.6044 72.974 24.9102 78.822 25.0314 79.1544C25.1454 79.4668 28.79 86.7673 30.0916 88.5183C30.2109 88.6787 30.4198 88.7028 30.5662 88.5782C31.094 88.1288 32.28 87.0579 32.435 86.3804C32.6342 85.5094 31.8731 82.3503 31.8731 82.3503C31.8731 82.3503 29.8199 74.4581 29.6471 74.0907C29.5184 73.8148 29.4284 72.5185 29.1134 70.6027Z" fill="#4846A5"/>
<path d="M24.7986 53.3917C24.7986 53.3917 25.2172 52.4394 26.1845 52.3412C27.1515 52.2429 27.6999 51.9742 27.7973 51.6162C27.8945 51.2587 27.8994 50.8258 28.1335 50.2928C28.3672 49.7614 28.5648 48.4549 28.5614 48.4233C28.558 48.3917 29.292 48.1711 29.3278 47.8474C29.3635 47.5248 28.983 46.3708 29.0244 46.2816C29.0662 46.1924 29.4603 45.4855 29.4068 44.9352C29.3537 44.3864 29.2826 43.5915 28.9894 42.9177C28.6969 42.2463 26.649 38.1586 21.3188 40.2642C15.9292 42.3931 20.0286 46.9143 19.4956 49.8453C19.4956 49.8453 19.0164 50.4626 19.8946 51.5116C20.7772 52.5662 23.3284 52.7947 24.7986 53.3917Z" fill="#FCD1C5"/>
<path d="M19.8955 51.5115C19.0174 50.4625 19.4966 49.8452 19.4966 49.8452C19.5707 49.4379 19.553 48.9983 19.4856 48.5395L21.595 48.9419C21.595 48.9419 24.7096 46.1716 24.4883 47.655C24.2655 49.1496 25.0217 49.4075 25.0217 49.4075L24.3829 50.2209C24.2188 50.4297 24.3159 50.6752 24.4499 50.9051C25.3386 52.434 27.4976 51.9745 27.5025 51.9749C27.2334 52.1506 26.7918 52.2794 26.1855 52.3411C25.2181 52.4397 24.7996 53.3916 24.7996 53.3916C23.3298 52.7946 20.7786 52.5662 19.8955 51.5115Z" fill="#E2B1A6"/>
<path d="M29.2174 41.3637C29.2174 41.3637 29.5904 42.4575 28.9874 42.9174C28.3833 43.3785 27.836 43.8136 27.836 43.8136L27.8387 45.2006C27.839 45.4005 27.7814 45.5966 27.673 45.7637L26.9131 46.9351C26.7663 47.1613 26.6873 47.4266 26.6854 47.6988L26.682 48.266C26.6809 48.4327 26.5582 48.572 26.3963 48.5901L26.1968 48.6123C26.0207 48.6319 25.8626 48.5016 25.8434 48.3213L25.7602 47.5335C25.7602 47.5335 25.3616 46.9001 24.4854 47.6547L23.6991 47.9773C23.4796 48.0676 23.3065 48.2472 23.2241 48.4745C23.0035 49.0809 22.5319 50.2786 22.1796 50.4773C21.703 50.7461 19.8591 49.793 19.6126 49.3711C19.3668 48.9503 18.745 46.1394 18.3595 44.7994C17.9767 43.4689 18.2018 40.1758 22.1728 39.3349C26.1268 38.4982 28.672 40.1728 29.2174 41.3637Z" fill="#AA8383"/>
<path d="M19.6131 49.3716C19.3673 48.9507 18.7455 46.1398 18.3601 44.7999C18.3601 44.7999 19.8962 45.8229 21.8888 46.127C23.8848 46.4315 27.8373 44.1841 27.8373 44.1841L27.8392 45.2007C27.8396 45.4006 27.782 45.5967 27.6736 45.7638L26.9137 46.9352C26.7669 47.1614 26.6878 47.4267 26.686 47.6989L26.6826 48.2661C26.6814 48.4328 26.5587 48.5721 26.3969 48.5902L26.1974 48.6124C26.0212 48.6319 25.8632 48.5017 25.844 48.3214L25.7608 47.5336C25.7608 47.5336 25.3622 46.9001 24.4859 47.6548L23.3485 48.1219C23.3485 48.1219 22.6563 50.209 22.1801 50.4774C21.7036 50.7465 19.8597 49.7935 19.6131 49.3716Z" fill="#936D6D"/>
<path d="M19.535 49.5048C19.535 49.5048 17.991 50.4559 18.7607 51.8049C19.5357 53.1633 25.1323 55.5753 25.409 55.9325C25.409 55.9325 25.6295 53.9086 24.8884 53.225C24.8884 53.225 20.6028 52.3902 19.9373 51.296C19.2749 50.2075 19.535 49.5048 19.535 49.5048Z" fill="#F0F6FF"/>
<path d="M19.535 49.5048C19.535 49.5048 19.2752 50.2075 19.9369 51.2957C20.4406 52.1233 23.0151 52.8027 24.2399 53.0843C24.2399 53.0843 23.7848 53.3425 23.0234 54.6388C21.3017 53.746 19.2128 52.5968 18.7607 51.8042C17.991 50.4559 19.535 49.5048 19.535 49.5048Z" fill="#C4CCD6"/>
<path d="M18.4927 53.8215C18.4927 53.8215 20.986 55.2503 22.201 55.8958C23.4197 56.5432 24.7484 57.4037 24.7484 57.4037L25.2151 56.9385L25.7748 58.1689C25.7748 58.1689 27.6892 59.3192 28.585 60.2775C29.485 61.2403 30.1636 62.4974 30.2607 62.7842C30.2607 62.7842 27.8702 59.6489 25.9868 58.7173L25.4801 58.4613L25.1933 57.4869L24.7307 57.9762C24.7307 57.9762 19.2523 54.6722 18.4927 53.8215Z" fill="#24126A"/>
<path d="M24.9182 96.1242L24.9178 96.1223L24.9186 96.1227C24.9969 95.8991 25.1136 95.7026 25.2521 95.5863L35.5085 86.9759C35.7783 86.7493 36.0395 86.9225 36.0922 87.3629L37.2914 97.3878C37.3468 97.85 37.1676 98.4191 36.8913 98.6581L28.2775 106.107L28.5756 109.005L26.0007 107.82L26.0003 107.814C25.8848 107.742 25.7994 107.575 25.7768 107.324L24.8192 96.8465C24.7978 96.6135 24.8377 96.3546 24.9182 96.1242Z" fill="#453C9E"/>
<path d="M38.3002 87.9648L35.8759 86.9169L35.7983 86.8834C35.7099 86.8623 35.609 86.8905 35.507 86.9764L25.2506 95.5868C25.1121 95.7031 24.995 95.8988 24.9164 96.1227L25.2834 96.3L27.372 97.3095L36.361 89.6232L38.3002 87.9648Z" fill="#453C9E"/>
<path d="M39.4154 99.7814L28.9275 108.919C28.6399 109.169 28.3686 108.978 28.3211 108.492L27.3019 97.9608C27.2571 97.4982 27.4483 96.9317 27.7291 96.6942L37.9621 88.0405C38.2312 87.8128 38.4943 87.9867 38.5497 88.4294L39.8095 98.5047C39.8674 98.9691 39.6913 99.5413 39.4154 99.7814Z" fill="#24126A"/>
<path d="M39.4154 99.7814L28.9275 108.919C28.6399 109.169 28.3686 108.978 28.3211 108.492L27.3019 97.9608C27.2571 97.4982 27.4483 96.9317 27.7291 96.6942L37.9621 88.0405C38.2312 87.8128 38.4943 87.9867 38.5497 88.4294L39.8095 98.5047C39.8674 98.9691 39.6913 99.5413 39.4154 99.7814Z" fill="url(#paint20_linear_1_2320)"/>
<path d="M27.0177 107.876L26.0301 97.3726C25.9868 96.9115 26.1795 96.3462 26.4603 96.1098L36.7046 87.4787C36.7882 87.4083 36.871 87.3767 36.9474 87.3794C36.8503 87.3391 36.7355 87.362 36.6192 87.4599L26.3733 96.0899C26.0925 96.3266 25.8998 96.8916 25.9427 97.3527L26.9281 107.855C26.9594 108.189 27.0896 108.396 27.2669 108.403C27.1337 108.345 27.0433 108.151 27.0177 107.876Z" fill="#160A5B"/>
<path d="M30.7699 92.4133L30.234 92.1457C30.1128 92.0851 29.9976 92.0644 29.8997 92.0859L29.8568 92.0953C29.8034 92.1069 29.7759 92.1645 29.7842 92.2466L29.7943 92.3441L31.3044 93.0987L31.2939 93.0009C31.2852 92.9188 31.2412 92.8251 31.1791 92.7555L31.129 92.6994C31.015 92.5729 30.8915 92.4739 30.7699 92.4133Z" fill="#160A5B"/>
<path d="M30.5788 93.7108L31.3034 93.0988L29.8061 92.1288L29.0917 92.7265L30.5788 93.7108Z" fill="#160A5B"/>
<path d="M30.0451 93.0235L29.5088 92.7551C29.3872 92.6945 29.272 92.6738 29.1741 92.6952L29.1309 92.7046C29.0774 92.7163 29.0496 92.7743 29.0578 92.8563L29.068 92.9542L30.5788 93.7108L30.5687 93.6125C30.56 93.5301 30.5164 93.4364 30.4543 93.3667L30.4042 93.3106C30.2905 93.1834 30.1667 93.0844 30.0451 93.0235Z" fill="url(#paint21_linear_1_2320)"/>
<path d="M29.7228 93.2822L29.6769 92.8396L29.7224 92.8626L29.7683 93.3052L29.7228 93.2822Z" fill="#722318"/>
<path d="M29.6769 92.8401L30.4218 92.2405L30.4605 92.2601L29.7228 92.8627L29.6769 92.8401Z" fill="#722318"/>
<path d="M34.0266 89.674L33.4917 89.4098C33.3705 89.3499 33.2561 89.3296 33.159 89.3511L33.1161 89.3605C33.063 89.3722 33.0359 89.429 33.0449 89.5099L33.0558 89.6063L34.5618 90.3515L34.5509 90.2548C34.5415 90.1739 34.4974 90.0817 34.4349 90.0128L34.3849 89.9574C34.2716 89.8314 34.1478 89.7339 34.0266 89.674Z" fill="#160A5B"/>
<path d="M33.8488 90.9552L34.564 90.3508L33.0693 89.3928L32.364 89.983L33.8488 90.9552Z" fill="#160A5B"/>
<path d="M33.3127 90.2768L32.7778 90.0118C32.6566 89.9519 32.5418 89.9312 32.4447 89.9527L32.4018 89.9621C32.3487 89.9738 32.3216 90.031 32.3303 90.1119L32.3408 90.2083L33.8479 90.9554L33.837 90.8587C33.8276 90.7774 33.7835 90.6848 33.7214 90.6159L33.6714 90.5602C33.5573 90.4345 33.4339 90.3366 33.3127 90.2768Z" fill="url(#paint22_linear_1_2320)"/>
<path d="M32.9947 90.5322L32.9462 90.0948L32.9917 90.1174L33.0406 90.5548L32.9947 90.5322Z" fill="#722318"/>
<path d="M32.9462 90.0951L33.6816 89.5031L33.7208 89.5223L32.9917 90.1177L32.9462 90.0951Z" fill="#722318"/>
<path d="M29.397 90.7403L29.5901 92.6102L30.0752 92.2026L29.8855 90.3861C29.8581 90.1215 29.9879 89.7794 30.1757 89.6224L32.264 87.8767C32.4503 87.7209 32.6246 87.8071 32.6539 88.069L32.8542 89.866L33.3333 89.4632L33.1255 87.6204C33.0604 87.0434 32.6757 86.8544 32.2655 87.1969L30.0395 89.0552C29.6243 89.4015 29.3364 90.1554 29.397 90.7403Z" fill="#453C9E"/>
<path d="M32.9964 87.7509L32.1363 87.6636L29.6491 89.9829L29.5418 91.414L29.5915 92.6098L30.1482 92.8883L30.1655 91.3974L30.1952 90.3785L30.7109 89.6415C30.7109 89.6415 31.6432 88.888 31.653 88.8669C31.6624 88.8455 32.9964 87.7509 32.9964 87.7509Z" fill="#453C9E"/>
<path d="M33.4086 90.141L32.8534 89.8659L32.7059 88.5421L33.2358 88.5839L33.3928 88.611L33.4086 90.141Z" fill="#453C9E"/>
<path d="M33.3911 87.3426L32.7941 87.0502C32.7941 87.0502 32.9515 87.3758 32.9541 87.3735C32.9567 87.3712 33.1506 87.4424 33.154 87.442C33.157 87.4416 33.3911 87.3426 33.3911 87.3426Z" fill="#453C9E"/>
<path d="M29.9499 91.0164L30.1457 92.8886L30.6305 92.4802L30.4381 90.6615C30.4103 90.3965 30.5398 90.0543 30.7276 89.897L32.8147 88.149C33.001 87.9932 33.1756 88.0794 33.205 88.3417L33.4079 90.1409L33.8867 89.7374L33.6766 87.8923C33.6108 87.3149 33.2257 87.1252 32.8154 87.4685L30.5902 89.329C30.1758 89.6757 29.889 90.4304 29.9499 91.0164Z" fill="#160A5B"/>
<path d="M32.2834 86.3033C32.2834 86.3033 32.6372 88.1315 32.5375 88.5903C32.4373 89.0503 31.563 89.9352 31.036 90.0974C30.5087 90.2596 30.724 89.6314 30.605 89.2366C30.4865 88.8425 30.5072 87.9836 30.5072 87.9836L32.2834 86.3033Z" fill="#FCD1C5"/>
<path d="M30.5071 87.9836L32.283 86.3033C32.283 86.3033 32.3556 86.6782 32.4256 87.1303C32.4245 87.1329 31.7654 88.491 30.5602 89.0281C30.4925 88.5997 30.5071 87.9836 30.5071 87.9836Z" fill="#E2B1A6"/>
<path d="M32.416 86.4403C32.416 86.4403 31.7866 88.4089 30.2088 88.5959L30.7444 86.4399C30.7444 86.4399 32.0776 86.0635 32.1183 86.0586C32.1585 86.0537 32.416 86.4403 32.416 86.4403Z" fill="#4846A5"/>
<path d="M52.1673 57.0305C50.4769 58.7567 46.0257 61.064 44.6458 59.7127C43.266 58.3614 45.4803 53.8632 47.1707 52.137C48.8611 50.4109 51.3502 50.1071 52.7296 51.4584C54.1095 52.8096 53.8577 55.3044 52.1673 57.0305Z" fill="url(#paint23_radial_1_2320)"/>
<path d="M52.1673 57.0305C50.4769 58.7567 46.0257 61.064 44.6458 59.7127C43.266 58.3614 45.4803 53.8632 47.1707 52.137C48.8611 50.4109 51.3502 50.1071 52.7296 51.4584C54.1095 52.8096 53.8577 55.3044 52.1673 57.0305Z" fill="url(#paint24_linear_1_2320)"/>
<path d="M52.365 52.3448C52.2604 52.3448 52.1543 52.3245 52.0519 52.2816C51.6379 52.1085 51.4429 51.6323 51.616 51.2187L54.1266 45.2193C54.2993 44.8057 54.7755 44.6103 55.1895 44.7835C55.6035 44.9566 55.7985 45.4327 55.6254 45.8468L53.1148 51.8461C52.9846 52.1574 52.6827 52.3448 52.365 52.3448Z" fill="#42E8E0"/>
<path d="M84.2675 50.1511L82.7612 50.7607L87.9654 63.6187L89.4717 63.0091L84.2675 50.1511Z" fill="#42E8E0"/>
<path d="M56.5392 47.5099C59.3275 47.5099 61.5878 45.2496 61.5878 42.4613C61.5878 39.6731 59.3275 37.4127 56.5392 37.4127C53.751 37.4127 51.4907 39.6731 51.4907 42.4613C51.4907 45.2496 53.751 47.5099 56.5392 47.5099Z" fill="url(#paint25_radial_1_2320)"/>
<path d="M56.5392 47.5099C59.3275 47.5099 61.5878 45.2496 61.5878 42.4613C61.5878 39.6731 59.3275 37.4127 56.5392 37.4127C53.751 37.4127 51.4907 39.6731 51.4907 42.4613C51.4907 45.2496 53.751 47.5099 56.5392 47.5099Z" fill="url(#paint26_linear_1_2320)"/>
<path d="M81.7139 51.6283C81.7139 61.4285 75.8779 69.3734 68.6786 69.3734C61.4793 69.3734 55.6433 61.4289 55.6433 51.6283C55.6433 41.8281 61.4793 38.8911 68.6786 38.8911C75.8779 38.8911 81.7139 41.8281 81.7139 51.6283Z" fill="url(#paint27_radial_1_2320)"/>
<path d="M81.7139 51.6283C81.7139 61.4285 75.8779 69.3734 68.6786 69.3734C61.4793 69.3734 55.6433 61.4289 55.6433 51.6283C55.6433 41.8281 61.4793 38.8911 68.6786 38.8911C75.8779 38.8911 81.7139 41.8281 81.7139 51.6283Z" fill="url(#paint28_linear_1_2320)"/>
<path d="M68.6789 49.2969C73.5922 49.2969 77.5753 46.9973 77.5753 44.1606C77.5753 41.3239 73.5922 39.0243 68.6789 39.0243C63.7655 39.0243 59.7824 41.3239 59.7824 44.1606C59.7824 46.9973 63.7655 49.2969 68.6789 49.2969Z" fill="#393091"/>
<path d="M62.3863 41.8968C65.8604 39.891 71.4935 39.891 74.9677 41.8968C76.4029 42.7253 77.2433 43.7668 77.4929 44.8448C77.8475 43.3128 77.007 41.706 74.9677 40.5286C71.4935 38.5228 65.8604 38.5228 62.3863 40.5286C60.347 41.706 59.5065 43.3125 59.8614 44.8448C60.111 43.7664 60.9515 42.7253 62.3863 41.8968Z" fill="#42E8E0"/>
<path d="M58.4085 31.955L60.0179 29.1821C60.9646 28.2001 61.7211 26.8958 62.1054 25.5852L63.7352 22.777L61.391 21.431C61.3161 21.3802 61.2378 21.3346 61.1558 21.2958L61.1543 21.2951C60.4877 20.9797 59.602 21.064 58.6298 21.6252C56.5574 22.8218 54.8775 25.7313 54.8775 28.1244C54.8775 29.3202 55.2972 30.1607 55.9755 30.5529L55.9766 30.5537L58.4085 31.955Z" fill="url(#paint29_radial_1_2320)"/>
<path d="M64.7963 25.1833C64.7963 27.5761 63.1165 30.486 61.044 31.6822C58.9716 32.8787 57.2917 31.9088 57.2917 29.516C57.2917 27.1233 58.9716 24.2134 61.044 23.0168C63.1161 21.8206 64.7963 22.7906 64.7963 25.1833Z" fill="#BCBEFF"/>
<path d="M69.1986 45.1961C76.5411 45.1961 82.4933 39.2439 82.4933 31.9014C82.4933 24.559 76.5411 18.6068 69.1986 18.6068C61.8562 18.6068 55.904 24.559 55.904 31.9014C55.904 39.2439 61.8562 45.1961 69.1986 45.1961Z" fill="url(#paint30_radial_1_2320)"/>
<path d="M69.1986 45.1961C76.5411 45.1961 82.4933 39.2439 82.4933 31.9014C82.4933 24.559 76.5411 18.6068 69.1986 18.6068C61.8562 18.6068 55.904 24.559 55.904 31.9014C55.904 39.2439 61.8562 45.1961 69.1986 45.1961Z" fill="url(#paint31_linear_1_2320)"/>
<path d="M76.6342 40.8921L78.2437 38.1192C79.1903 37.1372 79.9469 35.833 80.3312 34.5224L81.961 31.7141L79.6168 30.3685C79.5419 30.3177 79.4632 30.2721 79.3815 30.2333L79.38 30.2326C78.7134 29.9172 77.8278 30.0015 76.8556 30.5627C74.7831 31.7593 73.1033 34.6688 73.1033 37.0619C73.1033 38.2577 73.523 39.0982 74.2012 39.4904L74.2023 39.4912L76.6342 40.8921Z" fill="url(#paint32_radial_1_2320)"/>
<path d="M76.6342 40.8921L78.2437 38.1192C79.1903 37.1372 79.9469 35.833 80.3312 34.5224L81.961 31.7141L79.6168 30.3685C79.5419 30.3177 79.4632 30.2721 79.3815 30.2333L79.38 30.2326C78.7134 29.9172 77.8278 30.0015 76.8556 30.5627C74.7831 31.7593 73.1033 34.6688 73.1033 37.0619C73.1033 38.2577 73.523 39.0982 74.2012 39.4904L74.2023 39.4912L76.6342 40.8921Z" fill="url(#paint33_linear_1_2320)"/>
<path d="M83.022 34.1202C83.022 36.5129 81.3422 39.4228 79.2697 40.619C77.1973 41.8156 75.5175 40.8456 75.5175 38.4528C75.5175 36.0601 77.1973 33.1502 79.2697 31.9536C81.3422 30.7575 83.022 31.7271 83.022 34.1202Z" fill="#BCBEFF"/>
<path d="M75.6898 38.484C75.6898 36.0912 77.3697 33.1813 79.4421 31.9847C80.1603 31.5703 80.831 31.416 81.4013 31.4909C80.7956 31.3569 80.0617 31.4969 79.2697 31.9539C77.1973 33.1504 75.5175 36.06 75.5175 38.4531C75.5175 40.017 76.2352 40.9723 77.3106 41.1134C76.3316 40.8966 75.6898 39.9624 75.6898 38.484Z" fill="white"/>
<path d="M81.9522 34.7378C81.9522 36.4481 80.7515 38.5281 79.27 39.3832C77.7889 40.2384 76.5878 39.5451 76.5878 37.8347C76.5878 36.1244 77.7885 34.0444 79.27 33.1893C80.7515 32.3341 81.9522 33.0274 81.9522 34.7378Z" fill="#393091"/>
<path d="M80.8125 32.8627C81.0899 33.1901 81.2521 33.6798 81.2521 34.3073C81.2521 36.0176 80.0514 38.0976 78.5699 38.9527C77.9963 39.284 77.4652 39.3818 77.0289 39.2794C77.5081 39.8448 78.3335 39.925 79.2715 39.3833C80.7526 38.5282 81.9537 36.4482 81.9537 34.7379C81.9537 33.69 81.5024 33.0249 80.8125 32.8627Z" fill="#453C9E"/>
<path d="M63.5025 40.6941C65.2236 39.9777 65.6128 36.9804 64.3719 33.9994C63.1311 31.0184 60.7299 29.1827 59.0089 29.8991C57.2878 30.6155 56.8985 33.6128 58.1394 36.5938C59.3803 39.5748 61.7814 41.4106 63.5025 40.6941Z" fill="#393091"/>
<path d="M63.3191 35.9343C63.1957 36.8843 62.4786 37.1828 61.7175 36.6008C60.9565 36.0189 60.4393 34.7768 60.5628 33.8268C60.6862 32.8768 61.4033 32.5783 62.1643 33.1602C62.9254 33.7418 63.4422 34.9839 63.3191 35.9343Z" fill="#42E8E0"/>
<path d="M61.6484 39.6509C59.5541 38.0493 58.1313 34.632 58.4712 32.0176C58.6097 30.9516 59.0196 30.1842 59.5989 29.757C58.504 29.8601 57.6748 30.7887 57.4659 32.3985C57.1264 35.0129 58.5487 38.4306 60.643 40.0322C61.8836 40.9807 63.0817 41.0789 63.9229 40.4582C63.2394 40.5226 62.4531 40.2663 61.6484 39.6509Z" fill="#453C9E"/>
<path d="M60.8208 39.947C58.7265 38.3455 57.3037 34.9278 57.6432 32.3134C57.8006 31.1033 58.3083 30.2782 59.0156 29.8992C58.2146 30.2289 57.6331 31.0878 57.4629 32.3984C57.1234 35.0129 58.5458 38.4305 60.6401 40.0321C61.7644 40.8918 62.8529 41.051 63.6734 40.6114C62.8774 40.9392 61.8645 40.745 60.8208 39.947Z" fill="#42E8E0"/>
<path d="M88.4617 51.4353C87.9201 54.1705 85.2638 55.949 82.5286 55.4074C79.7933 54.8657 78.0152 52.2095 78.5565 49.4742C79.0981 46.739 81.7543 44.9605 84.4896 45.5022C87.2252 46.0438 89.0033 48.7 88.4617 51.4353Z" fill="url(#paint34_radial_1_2320)"/>
<path d="M88.4617 51.4353C87.9201 54.1705 85.2638 55.949 82.5286 55.4074C79.7933 54.8657 78.0152 52.2095 78.5565 49.4742C79.0981 46.739 81.7543 44.9605 84.4896 45.5022C87.2252 46.0438 89.0033 48.7 88.4617 51.4353Z" fill="url(#paint35_linear_1_2320)"/>
<path d="M91.5595 67.182C91.273 69.5811 89.1543 74.1249 87.237 73.8961C85.3192 73.6672 84.3293 68.7523 84.6154 66.3535C84.9014 63.9544 86.6882 62.1951 88.6059 62.424C90.5233 62.6524 91.8455 64.7828 91.5595 67.182Z" fill="url(#paint36_radial_1_2320)"/>
<path d="M91.5595 67.182C91.273 69.5811 89.1543 74.1249 87.237 73.8961C85.3192 73.6672 84.3293 68.7523 84.6154 66.3535C84.9014 63.9544 86.6882 62.1951 88.6059 62.424C90.5233 62.6524 91.8455 64.7828 91.5595 67.182Z" fill="url(#paint37_linear_1_2320)"/>
<g opacity="0.5">
<path d="M8.70795 97.7303C8.21035 101.729 6.13717 104.108 3.95747 101.129C1.16274 97.3099 0.890986 93.5761 0.72876 91.3452V69.5632C0.72876 72.9707 1.85982 76.2589 3.95747 79.3472C8.56454 86.9677 9.11144 94.4881 8.70795 97.7303Z" fill="#42E8E0"/>
<path d="M73.3755 101.723C71.6561 101.769 69.9202 101.786 68.1703 101.771C54.4752 101.659 41.787 99.6715 31.1971 96.3386C20.6193 93.5126 19.9802 104.581 23.6718 111.417C26.3006 116.285 29.8579 117.618 31.1971 118.121C41.787 121.453 54.4752 123.441 68.1703 123.553C69.9202 123.568 71.6561 123.551 73.3755 123.505C85.8044 122.589 89.0595 110.652 83.2506 105.08C81.6295 103.525 78.6002 101.68 73.3755 101.723Z" fill="#42E8E0"/>
<path d="M137.997 84.3557C137.936 93.775 137.383 95.4898 136.683 97.6605C133.772 104.529 126.222 110.597 115.653 115.13C106.4 117.86 103.845 108.245 107.608 101.117C110.168 96.2667 114.153 94.1461 115.653 93.3477C126.222 88.8152 133.772 82.747 136.683 75.8785C136.897 75.4227 137.198 74.8182 137.483 74.4034C137.554 74.394 137.648 74.382 137.72 74.3726C137.899 74.8762 137.973 75.0843 137.996 77.6558V84.3557H137.997Z" fill="#42E8E0"/>
</g>
<path d="M24.9187 22.3391L5.14363 10.9219C4.77928 10.7115 4.44617 10.6957 4.18834 10.8384V10.8369L3.35425 11.3164L3.75962 11.4052C3.6994 11.5851 3.66477 11.797 3.66477 12.0398V21.2698C3.66477 22.3587 4.32685 23.6237 5.14363 24.0954L13.1567 28.7216L14.7353 33.2786L14.1526 34.634L15.0308 34.1323L16.9052 30.8859L24.9187 35.5125C24.9729 35.5438 25.0259 35.5701 25.0782 35.5927H25.0775L24.954 36.1204L25.8269 35.6209H25.822C26.1717 35.4621 26.3975 35.0293 26.3975 34.3946V25.1647C26.3975 24.0754 25.7354 22.8107 24.9187 22.3391Z" fill="#25BFEC"/>
<path d="M24.0406 22.8408L4.2656 11.424C3.44882 10.9523 2.78674 11.4529 2.78674 12.5419V21.7718C2.78674 22.8607 3.44882 24.1258 4.2656 24.5974L12.2787 29.2237L14.1531 34.6343L16.0276 31.3879L24.0406 36.0142C24.8574 36.4858 25.5195 35.9852 25.5195 34.8963V25.6664C25.5195 24.5774 24.8574 23.3124 24.0406 22.8408Z" fill="#05A4C9"/>
<path d="M13.4494 25.3609V24.0232C14.4427 23.6164 14.9395 22.9516 14.9395 22.0295C14.9395 21.9918 14.938 21.9538 14.935 21.9147C14.926 21.6711 14.8673 21.457 14.7581 21.2714C14.6489 21.0859 14.5104 20.9447 14.3426 20.8476C14.1773 20.7524 14.0509 20.7422 13.9624 20.8171C13.8856 20.8818 13.8476 20.9974 13.8476 21.1645C13.8476 21.1916 13.8491 21.2198 13.8521 21.2488C13.8521 21.3919 13.8785 21.574 13.9319 21.7954L12.6894 21.3892C12.6127 21.0046 12.5746 20.7305 12.5746 20.5672C12.566 20.4633 12.5615 20.3639 12.5615 20.2683C12.5645 19.773 12.6898 19.4335 12.9375 19.2498C13.2322 19.0319 13.6937 19.1041 14.3215 19.467C14.9553 19.8328 15.4424 20.303 15.783 20.8777C16.1237 21.4521 16.2938 22.0799 16.2938 22.7604C16.2938 23.3698 16.1436 23.8674 15.8429 24.254C15.5421 24.6405 15.159 24.9119 14.693 25.0685V26.0795L13.4494 25.3609ZM13.4095 27.5388V26.0223L14.7494 26.7958V28.3123L13.4095 27.5388Z" fill="white"/>
<path d="M134.516 12.1897L114.741 0.772514C114.377 0.56211 114.044 0.546301 113.786 0.688955V0.687447L112.952 1.16697L113.357 1.2558C113.297 1.43572 113.262 1.64763 113.262 1.8904V11.1204C113.262 12.2093 113.924 13.4743 114.741 13.946L122.754 18.5722L124.333 23.1292L123.75 24.4846L124.628 23.9829L126.503 20.7365L134.516 25.3628C134.57 25.394 134.623 25.4203 134.675 25.4429H134.674L134.551 25.9706L135.424 25.4712L135.419 25.4708C135.769 25.3119 135.994 24.8791 135.994 24.2445V15.0145C135.995 13.9264 135.333 12.6613 134.516 12.1897Z" fill="#00AFA2"/>
<path d="M133.638 12.6917L113.863 1.27455C113.046 0.802924 112.384 1.30353 112.384 2.39244V11.6224C112.384 12.7113 113.046 13.9764 113.863 14.448L121.876 19.0742L123.75 24.4849L125.625 21.2385L133.638 25.8648C134.455 26.3364 135.117 25.8358 135.117 24.7469V15.5169C135.116 14.428 134.454 13.163 133.638 12.6917Z" fill="#42E8E0"/>
<path d="M123.468 17.3173V15.8829L124.719 16.6052V18.0396L123.468 17.3173ZM123.871 15.572L123.485 9.22485L124.791 9.97877L124.329 15.8362L123.871 15.572Z" fill="white"/>
<defs>
<linearGradient id="paint0_linear_1_2320" x1="90.0762" y1="96.0694" x2="46.9461" y2="96.0694" gradientUnits="userSpaceOnUse">
<stop stop-color="#5761D7"/>
<stop offset="0.0726" stop-color="#5472D8"/>
<stop offset="0.2791" stop-color="#4E9CDB"/>
<stop offset="0.4801" stop-color="#49BDDD"/>
<stop offset="0.6715" stop-color="#45D5DF"/>
<stop offset="0.8493" stop-color="#43E3E0"/>
<stop offset="1" stop-color="#42E8E0"/>
</linearGradient>
<linearGradient id="paint1_linear_1_2320" x1="90.0762" y1="92.752" x2="46.9461" y2="92.752" gradientUnits="userSpaceOnUse">
<stop stop-color="#5761D7"/>
<stop offset="0.0726" stop-color="#5472D8"/>
<stop offset="0.2791" stop-color="#4E9CDB"/>
<stop offset="0.4801" stop-color="#49BDDD"/>
<stop offset="0.6715" stop-color="#45D5DF"/>
<stop offset="0.8493" stop-color="#43E3E0"/>
<stop offset="1" stop-color="#42E8E0"/>
</linearGradient>
<linearGradient id="paint2_linear_1_2320" x1="90.0762" y1="89.434" x2="46.9461" y2="89.434" gradientUnits="userSpaceOnUse">
<stop stop-color="#5761D7"/>
<stop offset="0.0726" stop-color="#5472D8"/>
<stop offset="0.2791" stop-color="#4E9CDB"/>
<stop offset="0.4801" stop-color="#49BDDD"/>
<stop offset="0.6715" stop-color="#45D5DF"/>
<stop offset="0.8493" stop-color="#43E3E0"/>
<stop offset="1" stop-color="#42E8E0"/>
</linearGradient>
<linearGradient id="paint3_linear_1_2320" x1="90.0762" y1="86.1163" x2="46.9461" y2="86.1163" gradientUnits="userSpaceOnUse">
<stop stop-color="#5761D7"/>
<stop offset="0.0726" stop-color="#5472D8"/>
<stop offset="0.2791" stop-color="#4E9CDB"/>
<stop offset="0.4801" stop-color="#49BDDD"/>
<stop offset="0.6715" stop-color="#45D5DF"/>
<stop offset="0.8493" stop-color="#43E3E0"/>
<stop offset="1" stop-color="#42E8E0"/>
</linearGradient>
<linearGradient id="paint4_linear_1_2320" x1="90.0723" y1="91.0928" x2="46.9422" y2="91.0928" gradientUnits="userSpaceOnUse">
<stop stop-color="#5761D7"/>
<stop offset="0.0726" stop-color="#5472D8"/>
<stop offset="0.2791" stop-color="#4E9CDB"/>
<stop offset="0.4801" stop-color="#49BDDD"/>
<stop offset="0.6715" stop-color="#45D5DF"/>
<stop offset="0.8493" stop-color="#43E3E0"/>
<stop offset="1" stop-color="#42E8E0"/>
</linearGradient>
<linearGradient id="paint5_linear_1_2320" x1="94.6465" y1="80.4843" x2="42.3489" y2="80.4843" gradientUnits="userSpaceOnUse">
<stop stop-color="#5761D7"/>
<stop offset="0.0726" stop-color="#5472D8"/>
<stop offset="0.2791" stop-color="#4E9CDB"/>
<stop offset="0.4801" stop-color="#49BDDD"/>
<stop offset="0.6715" stop-color="#45D5DF"/>
<stop offset="0.8493" stop-color="#43E3E0"/>
<stop offset="1" stop-color="#42E8E0"/>
</linearGradient>
<linearGradient id="paint6_linear_1_2320" x1="94.6465" y1="76.4621" x2="42.3489" y2="76.4621" gradientUnits="userSpaceOnUse">
<stop stop-color="#5761D7"/>
<stop offset="0.0726" stop-color="#5472D8"/>
<stop offset="0.2791" stop-color="#4E9CDB"/>
<stop offset="0.4801" stop-color="#49BDDD"/>
<stop offset="0.6715" stop-color="#45D5DF"/>
<stop offset="0.8493" stop-color="#43E3E0"/>
<stop offset="1" stop-color="#42E8E0"/>
</linearGradient>
<linearGradient id="paint7_linear_1_2320" x1="94.6465" y1="72.4388" x2="42.3489" y2="72.4388" gradientUnits="userSpaceOnUse">
<stop stop-color="#5761D7"/>
<stop offset="0.0726" stop-color="#5472D8"/>
<stop offset="0.2791" stop-color="#4E9CDB"/>
<stop offset="0.4801" stop-color="#49BDDD"/>
<stop offset="0.6715" stop-color="#45D5DF"/>
<stop offset="0.8493" stop-color="#43E3E0"/>
<stop offset="1" stop-color="#42E8E0"/>
</linearGradient>
<linearGradient id="paint8_linear_1_2320" x1="94.6465" y1="68.4156" x2="42.3489" y2="68.4156" gradientUnits="userSpaceOnUse">
<stop stop-color="#5761D7"/>
<stop offset="0.0726" stop-color="#5472D8"/>
<stop offset="0.2791" stop-color="#4E9CDB"/>
<stop offset="0.4801" stop-color="#49BDDD"/>
<stop offset="0.6715" stop-color="#45D5DF"/>
<stop offset="0.8493" stop-color="#43E3E0"/>
<stop offset="1" stop-color="#42E8E0"/>
</linearGradient>
<linearGradient id="paint9_linear_1_2320" x1="94.6491" y1="74.4499" x2="42.3516" y2="74.4499" gradientUnits="userSpaceOnUse">
<stop stop-color="#5761D7"/>
<stop offset="0.0726" stop-color="#5472D8"/>
<stop offset="0.2791" stop-color="#4E9CDB"/>
<stop offset="0.4801" stop-color="#49BDDD"/>
<stop offset="0.6715" stop-color="#45D5DF"/>
<stop offset="0.8493" stop-color="#43E3E0"/>
<stop offset="1" stop-color="#42E8E0"/>
</linearGradient>
<linearGradient id="paint10_linear_1_2320" x1="94.6465" y1="68.4156" x2="42.3489" y2="68.4156" gradientUnits="userSpaceOnUse">
<stop stop-color="#5761D7"/>
<stop offset="0.0726" stop-color="#5472D8"/>
<stop offset="0.2791" stop-color="#4E9CDB"/>
<stop offset="0.4801" stop-color="#49BDDD"/>
<stop offset="0.6715" stop-color="#45D5DF"/>
<stop offset="0.8493" stop-color="#43E3E0"/>
<stop offset="1" stop-color="#42E8E0"/>
</linearGradient>
<linearGradient id="paint11_linear_1_2320" x1="94.649" y1="75.6664" x2="42.3521" y2="75.6664" gradientUnits="userSpaceOnUse">
<stop stop-color="#5761D7"/>
<stop offset="0.0726" stop-color="#5472D8"/>
<stop offset="0.2791" stop-color="#4E9CDB"/>
<stop offset="0.4801" stop-color="#49BDDD"/>
<stop offset="0.6715" stop-color="#45D5DF"/>
<stop offset="0.8493" stop-color="#43E3E0"/>
<stop offset="1" stop-color="#42E8E0"/>
</linearGradient>
<linearGradient id="paint12_linear_1_2320" x1="93.706" y1="67.4841" x2="117.681" y2="73.4984" gradientUnits="userSpaceOnUse">
<stop stop-color="#42E8E0"/>
<stop offset="0.0047" stop-color="#42E6DF"/>
<stop offset="0.1358" stop-color="#40B6CB"/>
<stop offset="0.2707" stop-color="#3E8DB9"/>
<stop offset="0.4074" stop-color="#3C6BAA"/>
<stop offset="0.5467" stop-color="#3B519F"/>
<stop offset="0.6893" stop-color="#3A3F97"/>
<stop offset="0.8375" stop-color="#393493"/>
<stop offset="1" stop-color="#393091"/>
</linearGradient>
<linearGradient id="paint13_linear_1_2320" x1="93.0329" y1="49.6943" x2="114.521" y2="46.1931" gradientUnits="userSpaceOnUse">
<stop stop-color="#42E8E0"/>
<stop offset="0.0047" stop-color="#42E6DF"/>
<stop offset="0.1358" stop-color="#40B6CB"/>
<stop offset="0.2707" stop-color="#3E8DB9"/>
<stop offset="0.4074" stop-color="#3C6BAA"/>
<stop offset="0.5467" stop-color="#3B519F"/>
<stop offset="0.6893" stop-color="#3A3F97"/>
<stop offset="0.8375" stop-color="#393493"/>
<stop offset="1" stop-color="#393091"/>
</linearGradient>
<linearGradient id="paint14_linear_1_2320" x1="98.2921" y1="58.9311" x2="103.801" y2="59.2507" gradientUnits="userSpaceOnUse">
<stop stop-color="#5761D7"/>
<stop offset="0.0726" stop-color="#5472D8"/>
<stop offset="0.2791" stop-color="#4E9CDB"/>
<stop offset="0.4801" stop-color="#49BDDD"/>
<stop offset="0.6715" stop-color="#45D5DF"/>
<stop offset="0.8493" stop-color="#43E3E0"/>
<stop offset="1" stop-color="#42E8E0"/>
</linearGradient>
<linearGradient id="paint15_linear_1_2320" x1="91.8079" y1="47.7053" x2="102.173" y2="42.6692" gradientUnits="userSpaceOnUse">
<stop stop-color="#42E8E0"/>
<stop offset="0.0047" stop-color="#42E6DF"/>
<stop offset="0.1358" stop-color="#40B6CB"/>
<stop offset="0.2707" stop-color="#3E8DB9"/>
<stop offset="0.4074" stop-color="#3C6BAA"/>
<stop offset="0.5467" stop-color="#3B519F"/>
<stop offset="0.6893" stop-color="#3A3F97"/>
<stop offset="0.8375" stop-color="#393493"/>
<stop offset="1" stop-color="#393091"/>
</linearGradient>
<linearGradient id="paint16_linear_1_2320" x1="97.7456" y1="52.2726" x2="115.993" y2="45.0447" gradientUnits="userSpaceOnUse">
<stop stop-color="#42E8E0"/>
<stop offset="0.0047" stop-color="#42E6DF"/>
<stop offset="0.1358" stop-color="#40B6CB"/>
<stop offset="0.2707" stop-color="#3E8DB9"/>
<stop offset="0.4074" stop-color="#3C6BAA"/>
<stop offset="0.5467" stop-color="#3B519F"/>
<stop offset="0.6893" stop-color="#3A3F97"/>
<stop offset="0.8375" stop-color="#393493"/>
<stop offset="1" stop-color="#393091"/>
</linearGradient>
<linearGradient id="paint17_linear_1_2320" x1="36.624" y1="93.2298" x2="16.4568" y2="101.435" gradientUnits="userSpaceOnUse">
<stop stop-color="#42E8E0"/>
<stop offset="0.0047" stop-color="#42E6DF"/>
<stop offset="0.1358" stop-color="#40B6CB"/>
<stop offset="0.2707" stop-color="#3E8DB9"/>
<stop offset="0.4074" stop-color="#3C6BAA"/>
<stop offset="0.5467" stop-color="#3B519F"/>
<stop offset="0.6893" stop-color="#3A3F97"/>
<stop offset="0.8375" stop-color="#393493"/>
<stop offset="1" stop-color="#393091"/>
</linearGradient>
<linearGradient id="paint18_linear_1_2320" x1="35.0915" y1="65.824" x2="13.5235" y2="70.3589" gradientUnits="userSpaceOnUse">
<stop stop-color="#42E8E0"/>
<stop offset="0.0047" stop-color="#42E6DF"/>
<stop offset="0.1358" stop-color="#40B6CB"/>
<stop offset="0.2707" stop-color="#3E8DB9"/>
<stop offset="0.4074" stop-color="#3C6BAA"/>
<stop offset="0.5467" stop-color="#3B519F"/>
<stop offset="0.6893" stop-color="#3A3F97"/>
<stop offset="0.8375" stop-color="#393493"/>
<stop offset="1" stop-color="#393091"/>
</linearGradient>
<linearGradient id="paint19_linear_1_2320" x1="19.574" y1="49.8523" x2="18.6698" y2="49.773" gradientUnits="userSpaceOnUse">
<stop stop-color="#5761D7"/>
<stop offset="0.0726" stop-color="#5472D8"/>
<stop offset="0.2791" stop-color="#4E9CDB"/>
<stop offset="0.4801" stop-color="#49BDDD"/>
<stop offset="0.6715" stop-color="#45D5DF"/>
<stop offset="0.8493" stop-color="#43E3E0"/>
<stop offset="1" stop-color="#42E8E0"/>
</linearGradient>
<linearGradient id="paint20_linear_1_2320" x1="50.4224" y1="90.9276" x2="29.8214" y2="100.094" gradientUnits="userSpaceOnUse">
<stop stop-color="#42E8E0"/>
<stop offset="0.1067" stop-color="#40C1CF"/>
<stop offset="0.2549" stop-color="#3E91BB"/>
<stop offset="0.396" stop-color="#3C6CAB"/>
<stop offset="0.5263" stop-color="#3B519F"/>
<stop offset="0.6417" stop-color="#3A4198"/>
<stop offset="0.7304" stop-color="#3A3B96"/>
<stop offset="0.8389" stop-color="#393493"/>
<stop offset="1" stop-color="#393091"/>
</linearGradient>
<linearGradient id="paint21_linear_1_2320" x1="30.6184" y1="93.2597" x2="29.0302" y2="93.1206" gradientUnits="userSpaceOnUse">
<stop stop-color="#5761D7"/>
<stop offset="0.0726" stop-color="#5472D8"/>
<stop offset="0.2791" stop-color="#4E9CDB"/>
<stop offset="0.4801" stop-color="#49BDDD"/>
<stop offset="0.6715" stop-color="#45D5DF"/>
<stop offset="0.8493" stop-color="#43E3E0"/>
<stop offset="1" stop-color="#42E8E0"/>
</linearGradient>
<linearGradient id="paint22_linear_1_2320" x1="33.8869" y1="90.5105" x2="32.3025" y2="90.3717" gradientUnits="userSpaceOnUse">
<stop stop-color="#5761D7"/>
<stop offset="0.0726" stop-color="#5472D8"/>
<stop offset="0.2791" stop-color="#4E9CDB"/>
<stop offset="0.4801" stop-color="#49BDDD"/>
<stop offset="0.6715" stop-color="#45D5DF"/>
<stop offset="0.8493" stop-color="#43E3E0"/>
<stop offset="1" stop-color="#42E8E0"/>
</linearGradient>
<radialGradient id="paint23_radial_1_2320" cx="0" cy="0" r="1" gradientUnits="userSpaceOnUse" gradientTransform="translate(56.383 49.451) rotate(44.404) scale(8.95444 14.7506)">
<stop stop-color="#C0BFF6"/>
<stop offset="1" stop-color="#393091"/>
</radialGradient>
<linearGradient id="paint24_linear_1_2320" x1="53.4223" y1="54.0012" x2="45.4528" y2="54.3445" gradientUnits="userSpaceOnUse">
<stop stop-color="#42E8E0"/>
<stop offset="0.0047" stop-color="#42E6DF"/>
<stop offset="0.1358" stop-color="#40B6CB"/>
<stop offset="0.2707" stop-color="#3E8DB9"/>
<stop offset="0.4074" stop-color="#3C6BAA"/>
<stop offset="0.5467" stop-color="#3B519F"/>
<stop offset="0.6893" stop-color="#3A3F97"/>
<stop offset="0.8375" stop-color="#393493"/>
<stop offset="1" stop-color="#393091"/>
</linearGradient>
<radialGradient id="paint25_radial_1_2320" cx="0" cy="0" r="1" gradientUnits="userSpaceOnUse" gradientTransform="translate(80.6873 26.3314) rotate(11.1976) scale(29.1435 29.1435)">
<stop stop-color="#C0BFF6"/>
<stop offset="1" stop-color="#393091"/>
</radialGradient>
<linearGradient id="paint26_linear_1_2320" x1="53.8271" y1="46.7196" x2="59.2517" y2="38.203" gradientUnits="userSpaceOnUse">
<stop stop-color="#42E8E0"/>
<stop offset="0.0047" stop-color="#42E6DF"/>
<stop offset="0.1358" stop-color="#40B6CB"/>
<stop offset="0.2707" stop-color="#3E8DB9"/>
<stop offset="0.4074" stop-color="#3C6BAA"/>
<stop offset="0.5467" stop-color="#3B519F"/>
<stop offset="0.6893" stop-color="#3A3F97"/>
<stop offset="0.8375" stop-color="#393493"/>
<stop offset="1" stop-color="#393091"/>
</linearGradient>
<radialGradient id="paint27_radial_1_2320" cx="0" cy="0" r="1" gradientUnits="userSpaceOnUse" gradientTransform="translate(76.3696 48.9691) scale(22.4019 30.4949)">
<stop stop-color="#C0BFF6"/>
<stop offset="1" stop-color="#393091"/>
</radialGradient>
<linearGradient id="paint28_linear_1_2320" x1="68.6785" y1="69.3734" x2="68.6785" y2="38.8912" gradientUnits="userSpaceOnUse">
<stop stop-color="#42E8E0"/>
<stop offset="0.0047" stop-color="#42E6DF"/>
<stop offset="0.1358" stop-color="#40B6CB"/>
<stop offset="0.2707" stop-color="#3E8DB9"/>
<stop offset="0.4074" stop-color="#3C6BAA"/>
<stop offset="0.5467" stop-color="#3B519F"/>
<stop offset="0.6893" stop-color="#3A3F97"/>
<stop offset="0.8375" stop-color="#393493"/>
<stop offset="1" stop-color="#393091"/>
</linearGradient>
<radialGradient id="paint29_radial_1_2320" cx="0" cy="0" r="1" gradientUnits="userSpaceOnUse" gradientTransform="translate(55.5526 11.2645) scale(15.7756 15.7756)">
<stop stop-color="#C0BFF6"/>
<stop offset="1" stop-color="#393091"/>
</radialGradient>
<radialGradient id="paint30_radial_1_2320" cx="0" cy="0" r="1" gradientUnits="userSpaceOnUse" gradientTransform="translate(77.4956 29.9318) scale(22.4705)">
<stop stop-color="#C0BFF6"/>
<stop offset="1" stop-color="#393091"/>
</radialGradient>
<linearGradient id="paint31_linear_1_2320" x1="67.3482" y1="45.0684" x2="71.0492" y2="18.7344" gradientUnits="userSpaceOnUse">
<stop stop-color="#42E8E0"/>
<stop offset="0.0047" stop-color="#42E6DF"/>
<stop offset="0.1358" stop-color="#40B6CB"/>
<stop offset="0.2707" stop-color="#3E8DB9"/>
<stop offset="0.4074" stop-color="#3C6BAA"/>
<stop offset="0.5467" stop-color="#3B519F"/>
<stop offset="0.6893" stop-color="#3A3F97"/>
<stop offset="0.8375" stop-color="#393493"/>
<stop offset="1" stop-color="#393091"/>
</linearGradient>
<radialGradient id="paint32_radial_1_2320" cx="0" cy="0" r="1" gradientUnits="userSpaceOnUse" gradientTransform="translate(77.3112 29.6925) scale(10.6714 10.6714)">
<stop stop-color="#C0BFF6"/>
<stop offset="1" stop-color="#393091"/>
</radialGradient>
<linearGradient id="paint33_linear_1_2320" x1="75.1626" y1="40.3566" x2="78.9125" y2="30.0538" gradientUnits="userSpaceOnUse">
<stop stop-color="#42E8E0"/>
<stop offset="0.0047" stop-color="#42E6DF"/>
<stop offset="0.1358" stop-color="#40B6CB"/>
<stop offset="0.2707" stop-color="#3E8DB9"/>
<stop offset="0.4074" stop-color="#3C6BAA"/>
<stop offset="0.5467" stop-color="#3B519F"/>
<stop offset="0.6893" stop-color="#3A3F97"/>
<stop offset="0.8375" stop-color="#393493"/>
<stop offset="1" stop-color="#393091"/>
</linearGradient>
<radialGradient id="paint34_radial_1_2320" cx="0" cy="0" r="1" gradientUnits="userSpaceOnUse" gradientTransform="translate(86.5008 47.1598) rotate(11.1976) scale(10.5331)">
<stop stop-color="#C0BFF6"/>
<stop offset="1" stop-color="#393091"/>
</radialGradient>
<linearGradient id="paint35_linear_1_2320" x1="79.4249" y1="53.4225" x2="87.5937" y2="47.4871" gradientUnits="userSpaceOnUse">
<stop stop-color="#42E8E0"/>
<stop offset="0.0047" stop-color="#42E6DF"/>
<stop offset="0.1358" stop-color="#40B6CB"/>
<stop offset="0.2707" stop-color="#3E8DB9"/>
<stop offset="0.4074" stop-color="#3C6BAA"/>
<stop offset="0.5467" stop-color="#3B519F"/>
<stop offset="0.6893" stop-color="#3A3F97"/>
<stop offset="0.8375" stop-color="#393493"/>
<stop offset="1" stop-color="#393091"/>
</linearGradient>
<radialGradient id="paint36_radial_1_2320" cx="0" cy="0" r="1" gradientUnits="userSpaceOnUse" gradientTransform="translate(92.8709 63.1964) rotate(6.80285) scale(8.95439 14.7504)">
<stop stop-color="#C0BFF6"/>
<stop offset="1" stop-color="#393091"/>
</radialGradient>
<linearGradient id="paint37_linear_1_2320" x1="84.449" y1="67.7457" x2="91.3932" y2="68.5742" gradientUnits="userSpaceOnUse">
<stop stop-color="#42E8E0"/>
<stop offset="0.0047" stop-color="#42E6DF"/>
<stop offset="0.1358" stop-color="#40B6CB"/>
<stop offset="0.2707" stop-color="#3E8DB9"/>
<stop offset="0.4074" stop-color="#3C6BAA"/>
<stop offset="0.5467" stop-color="#3B519F"/>
<stop offset="0.6893" stop-color="#3A3F97"/>
<stop offset="0.8375" stop-color="#393493"/>
<stop offset="1" stop-color="#393091"/>
</linearGradient>
</defs>
</svg>
