<svg width="126" height="40" viewBox="0 0 126 40" fill="none" xmlns="http://www.w3.org/2000/svg">
<path d="M54.0603 15.5432C56.2061 15.5432 57.8921 16.0063 59.1694 16.9326C60.4467 17.8588 61.0598 19.2996 61.0598 21.2035V28.8192C61.0899 29.2766 60.9637 29.7306 60.7022 30.1056C60.4138 30.4197 60.0877 30.6962 59.7314 30.929C58.996 31.3375 58.2037 31.6324 57.3812 31.8037C56.3225 32.0234 55.2433 32.1269 54.1625 32.1125C52.0166 32.1125 50.2795 31.7008 49.0023 30.8775C48.3971 30.455 47.91 29.8828 47.5879 29.216C47.2658 28.5491 47.1195 27.81 47.163 27.0697C47.1204 26.4351 47.2226 25.7991 47.4617 25.2104C47.7008 24.6218 48.0705 24.096 48.5424 23.6735C49.4621 22.9016 50.7905 22.4385 52.5787 22.2327L57.0747 21.7696V21.2035C57.0976 20.8404 57.0246 20.4777 56.8631 20.1523C56.7015 19.8269 56.4572 19.5504 56.155 19.3511C55.3994 18.9007 54.5283 18.6859 53.6516 18.7336C52.8055 18.7488 51.9646 18.8698 51.1481 19.0938C50.4071 19.2717 49.6875 19.5305 49.0023 19.8656C48.7429 19.6641 48.5184 19.4207 48.3381 19.1452C48.1932 18.8405 48.1231 18.5052 48.1337 18.1675C48.1188 17.7836 48.2263 17.405 48.4403 17.0869C48.7218 16.7714 49.0713 16.525 49.4621 16.3665C50.1541 16.0861 50.8733 15.8792 51.6079 15.7491C52.4204 15.6294 53.2394 15.5606 54.0603 15.5432ZM54.1625 28.9736C54.7452 28.9803 55.3271 28.9285 55.8996 28.8192C56.3104 28.7193 56.7057 28.5635 57.0747 28.3561V24.7026L53.907 24.9599C53.2047 25.0094 52.523 25.2206 51.9145 25.5774C51.675 25.7149 51.4801 25.9193 51.3532 26.1657C51.2263 26.4122 51.1728 26.6904 51.1992 26.9667C51.1952 27.2543 51.2578 27.5389 51.3819 27.7979C51.5061 28.0569 51.6884 28.2833 51.9145 28.459C52.6013 28.8389 53.3801 29.0172 54.1625 28.9736Z" fill="black"/>
<path d="M69.0802 18.8368C68.5198 18.8243 67.963 18.9294 67.4453 19.1456C66.9943 19.3159 66.5654 19.5405 66.168 19.8145V28.0477C66.5238 28.2582 66.9006 28.4306 67.292 28.5623C67.8366 28.7389 68.4059 28.8258 68.978 28.8195C69.524 28.8445 70.0687 28.7466 70.5725 28.533C71.0762 28.3194 71.5264 27.9954 71.8902 27.5846C72.6566 26.7613 73.0142 25.4748 73.0142 23.7767C73.0142 22.0786 72.6566 20.8437 71.8902 20.0203C71.5329 19.6324 71.0972 19.3261 70.6125 19.1219C70.1278 18.9178 69.6053 18.8206 69.0802 18.8368ZM69.7955 15.5436C70.7928 15.5471 71.7807 15.7391 72.7077 16.1096C73.6101 16.4116 74.4196 16.9434 75.0579 17.6533C75.7879 18.3666 76.3319 19.2504 76.6417 20.2262C77.0775 21.3571 77.2859 22.564 77.2548 23.7767C77.281 25.0226 77.073 26.2622 76.6417 27.4302C76.2951 28.4128 75.7164 29.2958 74.9557 30.0031C74.2194 30.7282 73.3281 31.2738 72.35 31.5982C71.2647 31.9678 70.1233 32.142 68.978 32.1128C67.8706 32.1327 66.7671 31.9764 65.7082 31.6497C64.8782 31.4027 64.087 31.0389 63.358 30.5691C62.9588 30.3116 62.612 29.9797 62.3361 29.5914C62.1223 29.1791 62.0168 28.7185 62.0296 28.2535V10.2435C62.2688 10.1238 62.5294 10.0538 62.796 10.0376H63.92C64.5124 9.97256 65.1089 10.1182 65.606 10.4493C66.0147 10.7066 66.168 11.2211 66.168 11.9415V16.4183C66.6663 16.1424 67.1989 15.9347 67.7518 15.8008C68.4197 15.6297 69.1063 15.5433 69.7955 15.5436Z" fill="black"/>
<path d="M86.195 18.836C85.6623 18.8197 85.1335 18.9327 84.6533 19.1656C84.1731 19.3984 83.7556 19.7443 83.4361 20.1739C82.7208 21.0486 82.4142 22.2322 82.4142 23.8273C82.4142 25.4225 82.7208 26.6575 83.385 27.5323C83.7258 27.9473 84.1559 28.2788 84.6428 28.5017C85.1296 28.7246 85.6604 28.833 86.195 28.8187C86.7239 28.8453 87.2513 28.7422 87.7319 28.5181C88.2125 28.294 88.6319 27.9557 88.9539 27.5323C89.6692 26.6575 89.9757 25.4225 89.9757 23.8273C89.9757 22.2322 89.6692 21.0486 88.9539 20.1739C88.6344 19.7443 88.2169 19.3984 87.7367 19.1656C87.2565 18.9327 86.7277 18.8197 86.195 18.836ZM94.2163 23.8273C94.2341 25.0056 94.0259 26.1762 93.6032 27.275C93.2811 28.2601 92.7393 29.1578 92.0194 29.8993C91.3155 30.6273 90.4607 31.1895 89.5159 31.5459C87.3651 32.2988 85.0249 32.2988 82.8741 31.5459C81.9293 31.1895 81.0744 30.6273 80.3706 29.8993C79.6641 29.1574 79.1086 28.2833 78.7357 27.3264C78.3547 26.2001 78.1647 25.0172 78.1737 23.8273C78.1645 22.6543 78.3546 21.4883 78.7357 20.3797C79.0959 19.4163 79.6529 18.5398 80.3706 17.8068C81.0934 17.0778 81.9651 16.5159 82.9251 16.1602C83.9639 15.739 85.0753 15.5291 86.195 15.5427C87.3152 15.5235 88.4276 15.7336 89.4648 16.1602C90.4152 16.5053 91.2725 17.0692 91.9683 17.8068C92.7039 18.5454 93.263 19.4428 93.6032 20.4312C94.0219 21.5132 94.23 22.6662 94.2163 23.8273Z" fill="black"/>
<path d="M109.545 28.5622C109.549 29.0043 109.462 29.4423 109.29 29.8487C109.069 30.2391 108.728 30.5463 108.319 30.7234C107.568 31.1744 106.761 31.5206 105.918 31.7526C104.831 32.0162 103.714 32.1373 102.597 32.1128C101.563 32.1321 100.532 32.0109 99.5311 31.7526C98.6787 31.5158 97.8804 31.1138 97.1809 30.5691C96.5226 30.0408 96.0121 29.3493 95.6993 28.5622C95.3117 27.6526 95.1202 26.6704 95.1373 25.6806V16.1096L95.9037 15.9037L97.0787 15.8008C97.6765 15.7593 98.2707 15.9225 98.7648 16.2639C98.9692 16.45 99.1268 16.6823 99.2246 16.9418C99.3223 17.2012 99.3573 17.4804 99.3268 17.7562V25.6292C99.3268 26.7612 99.5822 27.5846 100.144 28.0991C100.877 28.6112 101.757 28.8645 102.648 28.8195C103.216 28.8145 103.781 28.7454 104.334 28.6137C104.714 28.5178 105.076 28.3615 105.407 28.1506V16.1096L106.173 15.9037L107.297 15.8008C107.896 15.7508 108.493 15.9147 108.983 16.2639C109.187 16.45 109.345 16.6823 109.443 16.9418C109.541 17.2012 109.576 17.4804 109.545 17.7562V28.5622Z" fill="black"/>
<path d="M123.748 15.6973C124.242 15.6616 124.732 15.8079 125.127 16.109C125.335 16.2475 125.502 16.4403 125.61 16.6669C125.718 16.8934 125.763 17.1452 125.74 17.3954C125.704 17.8663 125.618 18.332 125.485 18.7848C125.332 19.4023 125.076 20.1741 124.821 20.9974C124.565 21.8208 124.259 22.747 123.901 23.6732L122.828 26.5548C122.47 27.4811 122.062 28.3558 121.704 29.1792C121.404 29.9015 121.063 30.606 120.682 31.2889C120.397 31.5136 120.065 31.6718 119.712 31.752C119.242 31.8598 118.762 31.9117 118.281 31.9064C117.726 31.9089 117.174 31.822 116.646 31.6491C116.437 31.5867 116.242 31.4813 116.075 31.3397C115.908 31.198 115.772 31.023 115.675 30.8258L114.96 29.2821C114.705 28.6131 114.398 27.8927 114.04 27.0694L113.07 24.4451C112.712 23.4674 112.354 22.5412 112.048 21.6149L111.128 18.9391C110.89 18.1158 110.685 17.344 110.515 16.6236C110.761 16.3385 111.079 16.1253 111.435 16.0061C111.83 15.8011 112.268 15.6952 112.712 15.6973C112.95 15.6732 113.189 15.6972 113.418 15.7679C113.646 15.8386 113.857 15.9546 114.04 16.109C114.489 16.4497 114.798 16.9439 114.909 17.4984L116.544 22.9528C116.697 23.3645 116.799 23.8276 116.953 24.3422C117.106 24.8567 117.31 25.3199 117.464 25.783C117.623 26.2388 117.76 26.7025 117.872 27.1723C118.013 27.5073 118.133 27.8511 118.23 28.2015H118.383C118.996 26.2975 119.609 24.2907 120.222 22.2324C120.836 20.1741 121.398 18.1673 121.857 16.1605L122.726 15.8002L123.748 15.6973Z" fill="black"/>
<path d="M91.9702 12.7132C91.9702 14.2569 89.9265 15.0288 88.7004 13.9482L86.5034 11.9414C86.4191 11.8654 86.31 11.8235 86.1969 11.8235C86.0838 11.8235 85.9746 11.8654 85.8903 11.9414L83.6934 13.9482C82.4672 15.0288 80.4236 14.2569 80.4236 12.7132C80.4246 12.479 80.4753 12.2476 80.5722 12.0346C80.6692 11.8217 80.8101 11.632 80.9856 11.4783L85.8903 7.00148C85.9746 6.92553 86.0838 6.88354 86.1969 6.88354C86.31 6.88354 86.4191 6.92553 86.5034 7.00148L91.4082 11.4783C91.5837 11.632 91.7246 11.8217 91.8215 12.0346C91.9185 12.2476 91.9691 12.479 91.9702 12.7132Z" fill="#37C8AB"/>
<path d="M86.1973 6.89819V11.8381L86.5038 11.941L88.7007 13.9479C89.9269 15.0285 91.9706 14.2566 91.9706 12.7129C91.9695 12.4786 91.9188 12.2473 91.8219 12.0343C91.725 11.8213 91.5841 11.6316 91.4086 11.4779L86.5038 7.00111C86.4527 6.8982 86.2994 6.89819 86.1973 6.89819Z" fill="#298F96"/>
<path d="M19.341 0.285765C23.1856 0.272155 26.9475 1.4088 30.1498 3.55154C33.3521 5.69429 35.8504 8.7466 37.3279 12.3214C38.8054 15.8962 39.1955 19.8323 38.4488 23.6307C37.7021 27.4291 35.8521 30.9186 33.1336 33.6566C30.4151 36.3946 26.9504 38.2578 23.179 39.0099C19.4077 39.762 15.4995 39.3691 11.9501 37.881C8.40078 36.3929 5.37018 33.8767 3.24268 30.6515C1.11517 27.4262 -0.0133936 23.6373 0.000119953 19.7652C0.0181306 14.6045 2.06161 9.66038 5.68483 6.0112C9.30805 2.36202 14.217 0.303905 19.341 0.285765Z" fill="#37C8AB"/>
<path d="M0 18.3888C0.293502 13.4138 2.46261 8.73951 6.0639 5.32154C9.66519 1.90356 14.4267 0 19.375 0C24.3234 0 29.0849 1.90356 32.6862 5.32154C36.2875 8.73951 38.4566 13.4138 38.7501 18.3888" fill="#006680"/>
<path d="M0.000449384 19.7654C-0.00880487 21.992 0.361049 24.2037 1.09393 26.3044H37.6571C38.3577 24.1954 38.7266 21.9891 38.7505 19.7654C38.732 17.5636 38.3628 15.3791 37.6571 13.2952H1.09393C0.355398 15.3706 -0.0147433 17.5607 0.000449384 19.7654Z" fill="#298F96"/>
<path d="M30.9583 19.7654C30.9583 22.0797 30.2769 24.3421 29.0003 26.2664C27.7237 28.1907 25.9091 29.6905 23.7862 30.5761C21.6633 31.4618 19.3272 31.6935 17.0735 31.242C14.8198 30.7905 12.7496 29.676 11.1248 28.0396C9.49998 26.4031 8.39346 24.3181 7.94517 22.0482C7.49688 19.7784 7.72695 17.4256 8.60631 15.2875C9.48566 13.1493 10.9748 11.3218 12.8854 10.036C14.796 8.75024 17.0423 8.06396 19.3401 8.06396C22.4214 8.06396 25.3766 9.29679 27.5554 11.4912C29.7342 13.6857 30.9583 16.662 30.9583 19.7654Z" fill="white"/>
<path d="M27.1328 22.5177C27.1328 24.5827 24.3308 25.6152 22.6906 24.1697L19.8202 21.4853C19.6964 21.3786 19.5389 21.32 19.376 21.32C19.2131 21.32 19.0556 21.3786 18.9318 21.4853L15.9931 24.1697C14.4212 25.6152 11.6191 24.5827 11.6191 22.5177C11.6206 22.2044 11.6884 21.8949 11.818 21.61C11.9476 21.3252 12.1361 21.0714 12.3709 20.8658L18.9318 14.8774C19.0556 14.7707 19.2131 14.7122 19.376 14.7122C19.5389 14.7122 19.6964 14.7707 19.8202 14.8774L26.3811 20.8658C26.6159 21.0714 26.8044 21.3252 26.934 21.61C27.0636 21.8949 27.1314 22.2044 27.1328 22.5177Z" fill="#216778"/>
<path d="M19.3411 14.7401V21.3479L19.8195 21.4856L22.6898 24.17C24.3301 25.6155 27.1321 24.583 27.1321 22.5181C27.1307 22.2047 27.0629 21.8953 26.9332 21.6104C26.8036 21.3255 26.6151 21.0718 26.3803 20.8661L19.8195 14.8777C19.7562 14.8183 19.6799 14.7748 19.5967 14.7509C19.5135 14.727 19.4259 14.7233 19.3411 14.7401Z" fill="#004455"/>
</svg>
